M48
; DRILL file {KiCad 7.0.1} date Thu Jun 15 12:54:42 2023
; FORMAT={-:-/ absolute / inch / decimal}
; #@! TF.CreationDate,2023-06-15T12:54:42-05:00
; #@! TF.GenerationSoftware,Kicad,Pcbnew,7.0.1
; #@! TF.FileFunction,Plated,1,2,PTH
FMAT,2
INCH
; #@! TA.AperFunction,Plated,PTH,ViaDrill
T1C0.0157
%
G90
G05
T1
X-1.0512Y-4.8228
X-1.0512Y-5.1417
X-0.7087Y-4.3386
X-0.6693Y-5.1772
X-0.6496Y-4.8819
X-0.5315Y-4.5866
X-0.4764Y-5.5079
X-0.2953Y-5.3031
X-0.2559Y-5.2165
X-0.1457Y-4.2795
X-0.1299Y-5.2825
X-0.0787Y-4.2126
X-0.0433Y-5.0039
X0.1063Y-5.4331
X0.1142Y-5.3071
X0.2598Y-4.3031
X0.3386Y-5.1969
X0.4606Y-4.5394
X0.6024Y-5.2087
X0.6378Y-4.3031
X0.8386Y-5.2835
X1.0433Y-4.6693
X1.0827Y-4.2126
X1.0945Y-5.6299
X1.1024Y-4.2913
X1.1063Y-5.2992
X1.1063Y-5.4685
X1.1417Y-4.4055
X1.1614Y-5.2559
X1.1614Y-5.6299
T0
M30
