%TF.GenerationSoftware,KiCad,Pcbnew,7.0.1*%
%TF.CreationDate,2023-06-15T12:54:41-05:00*%
%TF.ProjectId,MLX90393_board,4d4c5839-3033-4393-935f-626f6172642e,rev?*%
%TF.SameCoordinates,Original*%
%TF.FileFunction,Copper,L1,Top*%
%TF.FilePolarity,Positive*%
%FSLAX46Y46*%
G04 Gerber Fmt 4.6, Leading zero omitted, Abs format (unit mm)*
G04 Created by KiCad (PCBNEW 7.0.1) date 2023-06-15 12:54:41*
%MOMM*%
%LPD*%
G01*
G04 APERTURE LIST*
G04 Aperture macros list*
%AMRoundRect*
0 Rectangle with rounded corners*
0 $1 Rounding radius*
0 $2 $3 $4 $5 $6 $7 $8 $9 X,Y pos of 4 corners*
0 Add a 4 corners polygon primitive as box body*
4,1,4,$2,$3,$4,$5,$6,$7,$8,$9,$2,$3,0*
0 Add four circle primitives for the rounded corners*
1,1,$1+$1,$2,$3*
1,1,$1+$1,$4,$5*
1,1,$1+$1,$6,$7*
1,1,$1+$1,$8,$9*
0 Add four rect primitives between the rounded corners*
20,1,$1+$1,$2,$3,$4,$5,0*
20,1,$1+$1,$4,$5,$6,$7,0*
20,1,$1+$1,$6,$7,$8,$9,0*
20,1,$1+$1,$8,$9,$2,$3,0*%
G04 Aperture macros list end*
%TA.AperFunction,SMDPad,CuDef*%
%ADD10RoundRect,0.200000X-0.200000X-0.275000X0.200000X-0.275000X0.200000X0.275000X-0.200000X0.275000X0*%
%TD*%
%TA.AperFunction,SMDPad,CuDef*%
%ADD11RoundRect,0.200000X0.200000X0.275000X-0.200000X0.275000X-0.200000X-0.275000X0.200000X-0.275000X0*%
%TD*%
%TA.AperFunction,SMDPad,CuDef*%
%ADD12RoundRect,0.200000X0.275000X-0.200000X0.275000X0.200000X-0.275000X0.200000X-0.275000X-0.200000X0*%
%TD*%
%TA.AperFunction,SMDPad,CuDef*%
%ADD13RoundRect,0.225000X0.250000X-0.225000X0.250000X0.225000X-0.250000X0.225000X-0.250000X-0.225000X0*%
%TD*%
%TA.AperFunction,SMDPad,CuDef*%
%ADD14RoundRect,0.150000X0.587500X0.150000X-0.587500X0.150000X-0.587500X-0.150000X0.587500X-0.150000X0*%
%TD*%
%TA.AperFunction,SMDPad,CuDef*%
%ADD15RoundRect,0.200000X-0.275000X0.200000X-0.275000X-0.200000X0.275000X-0.200000X0.275000X0.200000X0*%
%TD*%
%TA.AperFunction,SMDPad,CuDef*%
%ADD16RoundRect,0.225000X-0.250000X0.225000X-0.250000X-0.225000X0.250000X-0.225000X0.250000X0.225000X0*%
%TD*%
%TA.AperFunction,SMDPad,CuDef*%
%ADD17RoundRect,0.150000X-0.512500X-0.150000X0.512500X-0.150000X0.512500X0.150000X-0.512500X0.150000X0*%
%TD*%
%TA.AperFunction,SMDPad,CuDef*%
%ADD18RoundRect,0.007800X-0.412200X-0.122200X0.412200X-0.122200X0.412200X0.122200X-0.412200X0.122200X0*%
%TD*%
%TA.AperFunction,SMDPad,CuDef*%
%ADD19RoundRect,0.007800X0.122200X-0.412200X0.122200X0.412200X-0.122200X0.412200X-0.122200X-0.412200X0*%
%TD*%
%TA.AperFunction,SMDPad,CuDef*%
%ADD20R,1.680000X1.680000*%
%TD*%
%TA.AperFunction,SMDPad,CuDef*%
%ADD21R,2.510000X1.000000*%
%TD*%
%TA.AperFunction,ViaPad*%
%ADD22C,0.800000*%
%TD*%
%TA.AperFunction,Conductor*%
%ADD23C,0.250000*%
%TD*%
%TA.AperFunction,Conductor*%
%ADD24C,0.150000*%
%TD*%
G04 APERTURE END LIST*
D10*
%TO.P,R21,1*%
%TO.N,+3.3V*%
X18375000Y-137900000D03*
%TO.P,R21,2*%
%TO.N,Net-(U1-SENB{slash}CS)*%
X20025000Y-137900000D03*
%TD*%
D11*
%TO.P,R5,1*%
%TO.N,GND*%
X6900000Y-135700000D03*
%TO.P,R5,2*%
%TO.N,+3.3V*%
X5250000Y-135700000D03*
%TD*%
D12*
%TO.P,R19,1*%
%TO.N,+3.3V*%
X-10200000Y-128225000D03*
%TO.P,R19,2*%
%TO.N,SCL_3V*%
X-10200000Y-126575000D03*
%TD*%
D13*
%TO.P,C1,1*%
%TO.N,+3.3V*%
X-16900000Y-113450000D03*
%TO.P,C1,2*%
%TO.N,GND*%
X-16900000Y-111900000D03*
%TD*%
D10*
%TO.P,R24,1*%
%TO.N,+3.3V*%
X-6225000Y-137600000D03*
%TO.P,R24,2*%
%TO.N,Net-(U2-SENB{slash}CS)*%
X-4575000Y-137600000D03*
%TD*%
D11*
%TO.P,R9,1*%
%TO.N,GND*%
X30825000Y-109800000D03*
%TO.P,R9,2*%
%TO.N,+3.3V*%
X29175000Y-109800000D03*
%TD*%
D10*
%TO.P,R16,1*%
%TO.N,GND*%
X-6425000Y-110400000D03*
%TO.P,R16,2*%
%TO.N,Net-(U4-INT)*%
X-4775000Y-110400000D03*
%TD*%
D13*
%TO.P,C2,1*%
%TO.N,+3.3V*%
X-12700000Y-113450000D03*
%TO.P,C2,2*%
%TO.N,GND*%
X-12700000Y-111900000D03*
%TD*%
D11*
%TO.P,R1,1*%
%TO.N,GND*%
X31025000Y-136200000D03*
%TO.P,R1,2*%
%TO.N,Net-(U1-A0)*%
X29375000Y-136200000D03*
%TD*%
D10*
%TO.P,R22,1*%
%TO.N,+3.3V*%
X16875000Y-114900000D03*
%TO.P,R22,2*%
%TO.N,Net-(U3-SENB{slash}CS)*%
X18525000Y-114900000D03*
%TD*%
D12*
%TO.P,R20,1*%
%TO.N,+3.3V*%
X-10300000Y-121425000D03*
%TO.P,R20,2*%
%TO.N,SDA_3V*%
X-10300000Y-119775000D03*
%TD*%
D10*
%TO.P,R18,1*%
%TO.N,VCC*%
X-27170000Y-127000000D03*
%TO.P,R18,2*%
%TO.N,SCL*%
X-25520000Y-127000000D03*
%TD*%
D11*
%TO.P,R14,1*%
%TO.N,GND*%
X6025000Y-113600000D03*
%TO.P,R14,2*%
%TO.N,+3.3V*%
X4375000Y-113600000D03*
%TD*%
D14*
%TO.P,Q1,1,G*%
%TO.N,+3.3V*%
X-13500000Y-128400000D03*
%TO.P,Q1,2,S*%
%TO.N,SCL_3V*%
X-13500000Y-126500000D03*
%TO.P,Q1,3,D*%
%TO.N,SCL*%
X-15375000Y-127450000D03*
%TD*%
D15*
%TO.P,R4,1*%
%TO.N,Net-(U1-INT{slash}TRIG)*%
X26200000Y-141575000D03*
%TO.P,R4,2*%
%TO.N,GND*%
X26200000Y-143225000D03*
%TD*%
D16*
%TO.P,C3,1*%
%TO.N,VCC*%
X-26000000Y-116225000D03*
%TO.P,C3,2*%
%TO.N,GND*%
X-26000000Y-117775000D03*
%TD*%
D14*
%TO.P,Q2,1,G*%
%TO.N,+3.3V*%
X-13500000Y-121900000D03*
%TO.P,Q2,2,S*%
%TO.N,SDA_3V*%
X-13500000Y-120000000D03*
%TO.P,Q2,3,D*%
%TO.N,SDA*%
X-15375000Y-120950000D03*
%TD*%
D11*
%TO.P,R13,1*%
%TO.N,GND*%
X5980000Y-110500000D03*
%TO.P,R13,2*%
%TO.N,Net-(U4-A0)*%
X4330000Y-110500000D03*
%TD*%
%TO.P,R2,1*%
%TO.N,GND*%
X31150000Y-139300000D03*
%TO.P,R2,2*%
%TO.N,Net-(U1-A1)*%
X29500000Y-139300000D03*
%TD*%
D10*
%TO.P,R23,1*%
%TO.N,+3.3V*%
X-6125000Y-114800000D03*
%TO.P,R23,2*%
%TO.N,Net-(U4-SENB{slash}CS)*%
X-4475000Y-114800000D03*
%TD*%
D17*
%TO.P,U5,1,VIN*%
%TO.N,VCC*%
X-22775000Y-113600000D03*
%TO.P,U5,2,GND*%
%TO.N,GND*%
X-22775000Y-114550000D03*
%TO.P,U5,3,EN*%
%TO.N,VCC*%
X-22775000Y-115500000D03*
%TO.P,U5,4,NC*%
%TO.N,unconnected-(U5-NC-Pad4)*%
X-20500000Y-115500000D03*
%TO.P,U5,5,VOUT*%
%TO.N,+3.3V*%
X-20500000Y-113600000D03*
%TD*%
D10*
%TO.P,R8,1*%
%TO.N,GND*%
X-6225000Y-134800000D03*
%TO.P,R8,2*%
%TO.N,Net-(U2-INT)*%
X-4575000Y-134800000D03*
%TD*%
D18*
%TO.P,U1,1,INT*%
%TO.N,Net-(U1-INT)*%
X23565000Y-135760000D03*
%TO.P,U1,2,SENB/CS*%
%TO.N,Net-(U1-SENB{slash}CS)*%
X23565000Y-136260000D03*
%TO.P,U1,3,SCL/SCLK*%
%TO.N,SCL_3V*%
X23565000Y-136760000D03*
%TO.P,U1,4,NC/GND*%
%TO.N,GND*%
X23565000Y-137260000D03*
D19*
%TO.P,U1,5,SDA/MOSI*%
%TO.N,SDA_3V*%
X24250000Y-137945000D03*
%TO.P,U1,6,MISO*%
%TO.N,unconnected-(U1-MISO-Pad6)*%
X24750000Y-137945000D03*
%TO.P,U1,7,INT/TRIG*%
%TO.N,Net-(U1-INT{slash}TRIG)*%
X25250000Y-137945000D03*
%TO.P,U1,8,VDD_IO*%
%TO.N,+3.3V*%
X25750000Y-137945000D03*
D18*
%TO.P,U1,9,NC/GND-1*%
%TO.N,GND*%
X26435000Y-137260000D03*
%TO.P,U1,10,A1*%
%TO.N,Net-(U1-A1)*%
X26435000Y-136760000D03*
%TO.P,U1,11,A0*%
%TO.N,Net-(U1-A0)*%
X26435000Y-136260000D03*
%TO.P,U1,12,VSS*%
%TO.N,GND*%
X26435000Y-135760000D03*
D19*
%TO.P,U1,13,NC/GND-2*%
X25750000Y-135075000D03*
%TO.P,U1,14,NC/GND-3*%
X25250000Y-135075000D03*
%TO.P,U1,15,VDD*%
%TO.N,+3.3V*%
X24750000Y-135075000D03*
%TO.P,U1,16,NC/GND-4*%
%TO.N,GND*%
X24250000Y-135075000D03*
D20*
%TO.P,U1,17,PAD*%
X25000000Y-136510000D03*
%TD*%
D18*
%TO.P,U3,1,INT*%
%TO.N,Net-(U3-INT)*%
X23565000Y-110760000D03*
%TO.P,U3,2,SENB/CS*%
%TO.N,Net-(U3-SENB{slash}CS)*%
X23565000Y-111260000D03*
%TO.P,U3,3,SCL/SCLK*%
%TO.N,SCL_3V*%
X23565000Y-111760000D03*
%TO.P,U3,4,NC/GND*%
%TO.N,GND*%
X23565000Y-112260000D03*
D19*
%TO.P,U3,5,SDA/MOSI*%
%TO.N,SDA_3V*%
X24250000Y-112945000D03*
%TO.P,U3,6,MISO*%
%TO.N,unconnected-(U3-MISO-Pad6)*%
X24750000Y-112945000D03*
%TO.P,U3,7,INT/TRIG*%
%TO.N,Net-(U3-INT{slash}TRIG)*%
X25250000Y-112945000D03*
%TO.P,U3,8,VDD_IO*%
%TO.N,+3.3V*%
X25750000Y-112945000D03*
D18*
%TO.P,U3,9,NC/GND-1*%
%TO.N,GND*%
X26435000Y-112260000D03*
%TO.P,U3,10,A1*%
%TO.N,Net-(U3-A1)*%
X26435000Y-111760000D03*
%TO.P,U3,11,A0*%
%TO.N,+3.3V*%
X26435000Y-111260000D03*
%TO.P,U3,12,VSS*%
%TO.N,GND*%
X26435000Y-110760000D03*
D19*
%TO.P,U3,13,NC/GND-2*%
X25750000Y-110075000D03*
%TO.P,U3,14,NC/GND-3*%
X25250000Y-110075000D03*
%TO.P,U3,15,VDD*%
%TO.N,+3.3V*%
X24750000Y-110075000D03*
%TO.P,U3,16,NC/GND-4*%
%TO.N,GND*%
X24250000Y-110075000D03*
D20*
%TO.P,U3,17,PAD*%
X25000000Y-111510000D03*
%TD*%
D15*
%TO.P,R15,1*%
%TO.N,Net-(U4-INT{slash}TRIG)*%
X500000Y-115675000D03*
%TO.P,R15,2*%
%TO.N,GND*%
X500000Y-117325000D03*
%TD*%
D11*
%TO.P,R10,1*%
%TO.N,GND*%
X30725000Y-113900000D03*
%TO.P,R10,2*%
%TO.N,Net-(U3-A1)*%
X29075000Y-113900000D03*
%TD*%
D10*
%TO.P,R12,1*%
%TO.N,GND*%
X16975000Y-110800000D03*
%TO.P,R12,2*%
%TO.N,Net-(U3-INT)*%
X18625000Y-110800000D03*
%TD*%
D21*
%TO.P,J1,1,Pin_1*%
%TO.N,GND*%
X-34060000Y-125730000D03*
%TO.P,J1,2,Pin_2*%
%TO.N,SCL*%
X-30750000Y-123190000D03*
%TO.P,J1,3,Pin_3*%
%TO.N,SDA*%
X-34060000Y-120650000D03*
%TO.P,J1,4,Pin_4*%
%TO.N,VCC*%
X-30750000Y-118110000D03*
%TD*%
D18*
%TO.P,U4,1,INT*%
%TO.N,Net-(U4-INT)*%
X-1435000Y-110760000D03*
%TO.P,U4,2,SENB/CS*%
%TO.N,Net-(U4-SENB{slash}CS)*%
X-1435000Y-111260000D03*
%TO.P,U4,3,SCL/SCLK*%
%TO.N,SCL_3V*%
X-1435000Y-111760000D03*
%TO.P,U4,4,NC/GND*%
%TO.N,GND*%
X-1435000Y-112260000D03*
D19*
%TO.P,U4,5,SDA/MOSI*%
%TO.N,SDA_3V*%
X-750000Y-112945000D03*
%TO.P,U4,6,MISO*%
%TO.N,unconnected-(U4-MISO-Pad6)*%
X-250000Y-112945000D03*
%TO.P,U4,7,INT/TRIG*%
%TO.N,Net-(U4-INT{slash}TRIG)*%
X250000Y-112945000D03*
%TO.P,U4,8,VDD_IO*%
%TO.N,+3.3V*%
X750000Y-112945000D03*
D18*
%TO.P,U4,9,NC/GND-1*%
%TO.N,GND*%
X1435000Y-112260000D03*
%TO.P,U4,10,A1*%
%TO.N,+3.3V*%
X1435000Y-111760000D03*
%TO.P,U4,11,A0*%
%TO.N,Net-(U4-A0)*%
X1435000Y-111260000D03*
%TO.P,U4,12,VSS*%
%TO.N,GND*%
X1435000Y-110760000D03*
D19*
%TO.P,U4,13,NC/GND-2*%
X750000Y-110075000D03*
%TO.P,U4,14,NC/GND-3*%
X250000Y-110075000D03*
%TO.P,U4,15,VDD*%
%TO.N,+3.3V*%
X-250000Y-110075000D03*
%TO.P,U4,16,NC/GND-4*%
%TO.N,GND*%
X-750000Y-110075000D03*
D20*
%TO.P,U4,17,PAD*%
X0Y-111510000D03*
%TD*%
D10*
%TO.P,R3,1*%
%TO.N,GND*%
X18475000Y-135300000D03*
%TO.P,R3,2*%
%TO.N,Net-(U1-INT)*%
X20125000Y-135300000D03*
%TD*%
%TO.P,R17,1*%
%TO.N,VCC*%
X-25950000Y-120800000D03*
%TO.P,R17,2*%
%TO.N,SDA*%
X-24300000Y-120800000D03*
%TD*%
D15*
%TO.P,R11,1*%
%TO.N,Net-(U3-INT{slash}TRIG)*%
X25250000Y-115800000D03*
%TO.P,R11,2*%
%TO.N,GND*%
X25250000Y-117450000D03*
%TD*%
D10*
%TO.P,R7,1*%
%TO.N,Net-(U2-INT{slash}TRIG)*%
X250000Y-142500000D03*
%TO.P,R7,2*%
%TO.N,GND*%
X1900000Y-142500000D03*
%TD*%
D18*
%TO.P,U2,1,INT*%
%TO.N,Net-(U2-INT)*%
X-1435000Y-135760000D03*
%TO.P,U2,2,SENB/CS*%
%TO.N,Net-(U2-SENB{slash}CS)*%
X-1435000Y-136260000D03*
%TO.P,U2,3,SCL/SCLK*%
%TO.N,SCL_3V*%
X-1435000Y-136760000D03*
%TO.P,U2,4,NC/GND*%
%TO.N,GND*%
X-1435000Y-137260000D03*
D19*
%TO.P,U2,5,SDA/MOSI*%
%TO.N,SDA_3V*%
X-750000Y-137945000D03*
%TO.P,U2,6,MISO*%
%TO.N,unconnected-(U2-MISO-Pad6)*%
X-250000Y-137945000D03*
%TO.P,U2,7,INT/TRIG*%
%TO.N,Net-(U2-INT{slash}TRIG)*%
X250000Y-137945000D03*
%TO.P,U2,8,VDD_IO*%
%TO.N,+3.3V*%
X750000Y-137945000D03*
D18*
%TO.P,U2,9,NC/GND-1*%
%TO.N,GND*%
X1435000Y-137260000D03*
%TO.P,U2,10,A1*%
%TO.N,+3.3V*%
X1435000Y-136760000D03*
%TO.P,U2,11,A0*%
X1435000Y-136260000D03*
%TO.P,U2,12,VSS*%
%TO.N,GND*%
X1435000Y-135760000D03*
D19*
%TO.P,U2,13,NC/GND-2*%
X750000Y-135075000D03*
%TO.P,U2,14,NC/GND-3*%
X250000Y-135075000D03*
%TO.P,U2,15,VDD*%
%TO.N,+3.3V*%
X-250000Y-135075000D03*
%TO.P,U2,16,NC/GND-4*%
%TO.N,GND*%
X-750000Y-135075000D03*
D20*
%TO.P,U2,17,PAD*%
X0Y-136510000D03*
%TD*%
D11*
%TO.P,R6,1*%
%TO.N,GND*%
X6900000Y-137900000D03*
%TO.P,R6,2*%
%TO.N,+3.3V*%
X5250000Y-137900000D03*
%TD*%
D22*
%TO.N,+3.3V*%
X29500000Y-133500000D03*
X27500000Y-107000000D03*
X-6500000Y-132500000D03*
X-17000000Y-131500000D03*
X-16500000Y-124000000D03*
X-13500000Y-116500000D03*
X-2000000Y-107000000D03*
X29500000Y-143000000D03*
%TO.N,GND*%
X-12100000Y-139900000D03*
X6600000Y-109300000D03*
X27800000Y-143000000D03*
X-3300000Y-134174500D03*
X2700000Y-138000000D03*
X15300000Y-132300000D03*
X21300000Y-134200000D03*
X16200000Y-109300000D03*
X26500000Y-118600000D03*
X8600000Y-132000000D03*
X-1100000Y-127100000D03*
X28100000Y-138900000D03*
X11700000Y-115300000D03*
X28100000Y-134600000D03*
X29000000Y-111900000D03*
X-7500000Y-134700000D03*
X-3700000Y-108700000D03*
X28000000Y-109000000D03*
X-18000000Y-110200000D03*
X2900000Y-134800000D03*
%TO.N,VCC*%
X-26700000Y-130600000D03*
X-26700000Y-122500000D03*
%TD*%
D23*
%TO.N,+3.3V*%
X25750000Y-139250000D02*
X29500000Y-143000000D01*
X26500000Y-107000000D02*
X24750000Y-108750000D01*
X19100000Y-133000000D02*
X19300000Y-133000000D01*
X24750000Y-133250000D02*
X24500000Y-133000000D01*
X19300000Y-133000000D02*
X24500000Y-133000000D01*
X-7900000Y-113025000D02*
X-6125000Y-114800000D01*
X8900000Y-108800000D02*
X8900000Y-111300000D01*
X3500000Y-115000000D02*
X2299950Y-115000000D01*
X4035000Y-137300000D02*
X4035000Y-137800000D01*
X16875000Y-112675000D02*
X16875000Y-114900000D01*
X-13500000Y-123000000D02*
X-13500000Y-121900000D01*
X3500000Y-115000000D02*
X4375000Y-114125000D01*
X-20500000Y-113600000D02*
X-14150000Y-113600000D01*
X5150000Y-135800000D02*
X5250000Y-135700000D01*
X3250000Y-132500000D02*
X3800000Y-133050000D01*
X25750000Y-114150000D02*
X25750000Y-112945000D01*
X-17000000Y-131500000D02*
X-14250000Y-131500000D01*
X-7900000Y-109400000D02*
X-7900000Y-113025000D01*
X31700000Y-115000000D02*
X29800000Y-116900000D01*
D24*
X29175000Y-109800000D02*
X29175000Y-110275000D01*
D23*
X3800000Y-133050000D02*
X3800000Y-135100000D01*
D24*
X-13500000Y-128400000D02*
X-10375000Y-128400000D01*
D23*
X-2000000Y-108000000D02*
X-1000000Y-108000000D01*
X-13000000Y-121400000D02*
X-13500000Y-121900000D01*
X-1250000Y-132500000D02*
X3250000Y-132500000D01*
D24*
X29175000Y-108125000D02*
X29600000Y-107700000D01*
D23*
X29800000Y-116900000D02*
X29199950Y-116900000D01*
X4035000Y-137800000D02*
X4035000Y-140065000D01*
X3495000Y-136760000D02*
X4035000Y-137300000D01*
X19300000Y-133000000D02*
X17100000Y-133000000D01*
X17000000Y-139500000D02*
X18375000Y-138125000D01*
X-250000Y-108750000D02*
X-250000Y-110075000D01*
X27500000Y-107000000D02*
X28900000Y-107000000D01*
X-14250000Y-131500000D02*
X-13500000Y-130750000D01*
D24*
X29175000Y-109800000D02*
X29175000Y-108125000D01*
D23*
X4000000Y-111800000D02*
X1475000Y-111800000D01*
X-2000000Y-107000000D02*
X-5500000Y-107000000D01*
X2500000Y-136760000D02*
X3300000Y-136760000D01*
X15600000Y-108000000D02*
X14700000Y-108900000D01*
X3300000Y-136760000D02*
X3495000Y-136760000D01*
X24500000Y-133000000D02*
X25000000Y-133000000D01*
X-250000Y-135075000D02*
X-250000Y-133500000D01*
X4050000Y-136250000D02*
X3540000Y-136760000D01*
X8200000Y-108100000D02*
X8900000Y-108800000D01*
X-6500000Y-132500000D02*
X-1250000Y-132500000D01*
X4035000Y-140065000D02*
X3600000Y-140500000D01*
X1435000Y-136260000D02*
X3000000Y-136260000D01*
X16200000Y-133900000D02*
X14500000Y-135600000D01*
X-13500000Y-116500000D02*
X-13500000Y-114250000D01*
X-13500000Y-114250000D02*
X-12700000Y-113450000D01*
X17100000Y-133000000D02*
X16200000Y-133900000D01*
X27500000Y-107000000D02*
X26500000Y-107000000D01*
X-5500000Y-107000000D02*
X-7900000Y-109400000D01*
X750000Y-113450050D02*
X750000Y-112945000D01*
X-250000Y-133500000D02*
X-1250000Y-132500000D01*
X4500000Y-135800000D02*
X5150000Y-135800000D01*
D24*
X-7300000Y-132500000D02*
X-6500000Y-132500000D01*
X-8400000Y-133600000D02*
X-7300000Y-132500000D01*
D23*
X-10300000Y-121425000D02*
X-10325000Y-121400000D01*
X-2000000Y-107000000D02*
X-2000000Y-108000000D01*
X1475000Y-111800000D02*
X1435000Y-111760000D01*
X8900000Y-111300000D02*
X8400000Y-111800000D01*
X400000Y-108100000D02*
X8200000Y-108100000D01*
X3600000Y-140500000D02*
X1600000Y-140500000D01*
X15500000Y-139500000D02*
X17000000Y-139500000D01*
X3000000Y-136260000D02*
X3000000Y-136250000D01*
X28900000Y-107000000D02*
X29600000Y-107700000D01*
D24*
X4635000Y-137900000D02*
X4035000Y-137300000D01*
D23*
X1600000Y-140500000D02*
X750000Y-139650000D01*
D24*
X-8400000Y-135425000D02*
X-8400000Y-133600000D01*
D23*
X-14500000Y-124000000D02*
X-13500000Y-123000000D01*
X27099950Y-114800000D02*
X26400000Y-114800000D01*
X8400000Y-111800000D02*
X4000000Y-111800000D01*
X29000000Y-133000000D02*
X25000000Y-133000000D01*
X3800000Y-135100000D02*
X4500000Y-135800000D01*
X4050000Y-136250000D02*
X4500000Y-135800000D01*
X24750000Y-108750000D02*
X24750000Y-110075000D01*
X4375000Y-113600000D02*
X4375000Y-112175000D01*
D24*
X29175000Y-110275000D02*
X31700000Y-112800000D01*
D23*
X24750000Y-108750000D02*
X24000000Y-108000000D01*
X26400000Y-114800000D02*
X25750000Y-114150000D01*
D24*
X31700000Y-112800000D02*
X31700000Y-115000000D01*
D23*
X4375000Y-114125000D02*
X4375000Y-113600000D01*
X3000000Y-136250000D02*
X4050000Y-136250000D01*
X2299950Y-115000000D02*
X750000Y-113450050D01*
X29500000Y-133500000D02*
X29000000Y-133000000D01*
X29199950Y-116900000D02*
X27099950Y-114800000D01*
X750000Y-139650000D02*
X750000Y-137945000D01*
X-1000000Y-108000000D02*
X-250000Y-108750000D01*
X3540000Y-136760000D02*
X3300000Y-136760000D01*
X4375000Y-112175000D02*
X4000000Y-111800000D01*
X14700000Y-108900000D02*
X14700000Y-110500000D01*
X14500000Y-138500000D02*
X15500000Y-139500000D01*
D24*
X26435000Y-111260000D02*
X27715000Y-111260000D01*
D23*
X-16500000Y-124000000D02*
X-14500000Y-124000000D01*
X24750000Y-135075000D02*
X24750000Y-133250000D01*
D24*
X-6225000Y-137600000D02*
X-8400000Y-135425000D01*
D23*
X1435000Y-136760000D02*
X2500000Y-136760000D01*
D24*
X27715000Y-111260000D02*
X29175000Y-109800000D01*
X-10375000Y-128400000D02*
X-10200000Y-128225000D01*
D23*
X24000000Y-108000000D02*
X15600000Y-108000000D01*
X-250000Y-108750000D02*
X400000Y-108100000D01*
X-14150000Y-113600000D02*
X-13500000Y-114250000D01*
X18375000Y-138125000D02*
X18375000Y-137900000D01*
D24*
X5250000Y-137900000D02*
X4635000Y-137900000D01*
D23*
X14700000Y-110500000D02*
X16875000Y-112675000D01*
X25750000Y-137945000D02*
X25750000Y-139250000D01*
X14500000Y-135600000D02*
X14500000Y-138500000D01*
X-13500000Y-130750000D02*
X-13500000Y-128400000D01*
X-10325000Y-121400000D02*
X-13000000Y-121400000D01*
%TO.N,GND*%
X24250000Y-110075000D02*
X24250000Y-109290000D01*
X250000Y-135075000D02*
X750000Y-135075000D01*
X23750000Y-108790000D02*
X22340000Y-108790000D01*
X25250000Y-110075000D02*
X25250000Y-111260000D01*
X-2900000Y-137500000D02*
X-2900000Y-138100000D01*
D24*
X18475000Y-135300000D02*
X18475000Y-135025000D01*
D23*
X25250000Y-111260000D02*
X25000000Y-111510000D01*
X25250000Y-109750000D02*
X26000000Y-109000000D01*
X250000Y-111260000D02*
X0Y-111510000D01*
X250000Y-110075000D02*
X250000Y-111260000D01*
X-2660000Y-137260000D02*
X-2900000Y-137500000D01*
X27460000Y-137260000D02*
X28100000Y-137900000D01*
X28100000Y-135400000D02*
X28100000Y-134600000D01*
X23240000Y-137260000D02*
X22000000Y-138500000D01*
X22600000Y-112900000D02*
X22600000Y-114600000D01*
X25250000Y-136260000D02*
X25000000Y-136510000D01*
X26435000Y-137260000D02*
X27460000Y-137260000D01*
X27740000Y-135760000D02*
X28100000Y-135400000D01*
X1435000Y-135760000D02*
X1940000Y-135760000D01*
X2260000Y-137260000D02*
X1435000Y-137260000D01*
X25250000Y-110075000D02*
X25750000Y-110075000D01*
X-1435000Y-112260000D02*
X-1435000Y-114435000D01*
X1940000Y-135760000D02*
X2900000Y-134800000D01*
X750000Y-110075000D02*
X250000Y-110075000D01*
X-1435000Y-114435000D02*
X-2000000Y-115000000D01*
X25250000Y-135075000D02*
X25250000Y-136260000D01*
X25250000Y-135075000D02*
X25250000Y-134250000D01*
X23565000Y-137260000D02*
X23240000Y-137260000D01*
X26435000Y-135760000D02*
X27740000Y-135760000D01*
X28100000Y-137900000D02*
X28100000Y-138900000D01*
X25500000Y-134000000D02*
X25750000Y-134000000D01*
X23240000Y-112260000D02*
X22600000Y-112900000D01*
X26435000Y-135565000D02*
X26435000Y-135760000D01*
X25250000Y-110075000D02*
X25250000Y-109750000D01*
X2700000Y-137700000D02*
X2260000Y-137260000D01*
X23565000Y-112260000D02*
X23240000Y-112260000D01*
X24250000Y-109290000D02*
X23750000Y-108790000D01*
X25250000Y-134250000D02*
X25500000Y-134000000D01*
X250000Y-135075000D02*
X250000Y-136260000D01*
X2700000Y-138000000D02*
X2700000Y-137700000D01*
X26000000Y-109000000D02*
X28000000Y-109000000D01*
X250000Y-136260000D02*
X0Y-136510000D01*
X-1435000Y-137260000D02*
X-2660000Y-137260000D01*
%TO.N,VCC*%
X-26000000Y-116225000D02*
X-26000000Y-115500000D01*
X-28000000Y-127000000D02*
X-27170000Y-127000000D01*
D24*
X-22775000Y-115500000D02*
X-25275000Y-115500000D01*
D23*
X-25820000Y-120750000D02*
X-26250000Y-120750000D01*
X-24100000Y-113600000D02*
X-22775000Y-113600000D01*
X-26700000Y-130600000D02*
X-28650000Y-130600000D01*
X-26700000Y-122500000D02*
X-26700000Y-121630000D01*
X-26250000Y-120750000D02*
X-26700000Y-121200000D01*
X-26000000Y-115500000D02*
X-24100000Y-113600000D01*
X-30750000Y-118110000D02*
X-28865000Y-116225000D01*
X-30220000Y-118110000D02*
X-26700000Y-121630000D01*
X-29000000Y-128000000D02*
X-28000000Y-127000000D01*
X-30750000Y-118110000D02*
X-30220000Y-118110000D01*
X-26700000Y-121200000D02*
X-26700000Y-121630000D01*
D24*
X-25275000Y-115500000D02*
X-26000000Y-116225000D01*
D23*
X-28865000Y-116225000D02*
X-26000000Y-116225000D01*
X-29000000Y-130250000D02*
X-29000000Y-128000000D01*
X-28650000Y-130600000D02*
X-29000000Y-130250000D01*
%TO.N,SDA*%
X-16000000Y-121000000D02*
X-15425000Y-121000000D01*
X-19000000Y-124000000D02*
X-21930000Y-124000000D01*
X-27535000Y-124000000D02*
X-30885000Y-120650000D01*
X-21930000Y-124000000D02*
X-27535000Y-124000000D01*
X-30885000Y-120650000D02*
X-34060000Y-120650000D01*
X-19000000Y-124000000D02*
X-16000000Y-121000000D01*
D24*
X-15575000Y-120750000D02*
X-15375000Y-120950000D01*
X-24150000Y-120950000D02*
X-24300000Y-120800000D01*
D23*
X-15425000Y-121000000D02*
X-15375000Y-120950000D01*
D24*
X-15375000Y-120950000D02*
X-24150000Y-120950000D01*
D23*
%TO.N,SCL*%
X-19250000Y-125000000D02*
X-24025000Y-125000000D01*
X-16800000Y-127450000D02*
X-19250000Y-125000000D01*
X-24025000Y-125000000D02*
X-28940000Y-125000000D01*
X-28940000Y-125000000D02*
X-30750000Y-123190000D01*
X-15375000Y-127450000D02*
X-16800000Y-127450000D01*
X-24025000Y-125562500D02*
X-25462500Y-127000000D01*
X-24025000Y-125000000D02*
X-24025000Y-125562500D01*
D24*
%TO.N,SCL_3V*%
X-4600000Y-124160000D02*
X-4800000Y-124360000D01*
X-8800000Y-108400000D02*
X-5900000Y-105500000D01*
X-1435000Y-111760000D02*
X-2360000Y-111760000D01*
X15500000Y-115700000D02*
X15500000Y-112500000D01*
X-8225000Y-126575000D02*
X-7500000Y-127300000D01*
D23*
X21800000Y-137700000D02*
X21800000Y-137300000D01*
D24*
X23201371Y-111760000D02*
X20800000Y-114161371D01*
X20100000Y-117000000D02*
X16800000Y-117000000D01*
X-1435000Y-136760000D02*
X-2760000Y-136760000D01*
X-4600000Y-117400000D02*
X-4600000Y-123400000D01*
X-3500000Y-137500000D02*
X-3500000Y-139600000D01*
X16800000Y-117000000D02*
X15500000Y-115700000D01*
D23*
X-9000000Y-135100000D02*
X-9000000Y-130500000D01*
X13700000Y-139200000D02*
X14500000Y-140000000D01*
D24*
X-7800000Y-117400000D02*
X-8800000Y-116400000D01*
X-3500000Y-139600000D02*
X-7900000Y-139600000D01*
X-9000000Y-138500000D02*
X-9000000Y-135100000D01*
X-4600000Y-117400000D02*
X-7800000Y-117400000D01*
D23*
X-4300000Y-130500000D02*
X10500000Y-130500000D01*
X-7500000Y-127300000D02*
X-4300000Y-130500000D01*
D24*
X20800000Y-114161371D02*
X20800000Y-116300000D01*
D23*
X-4600000Y-124160000D02*
X-4600000Y-123400000D01*
D24*
X-3500000Y-116300000D02*
X-4600000Y-117400000D01*
D23*
X13700000Y-133700000D02*
X13700000Y-139200000D01*
D24*
X-8800000Y-116400000D02*
X-8800000Y-108400000D01*
D23*
X22300000Y-136800000D02*
X23525000Y-136800000D01*
X8500000Y-105500000D02*
X-5900000Y-105500000D01*
D24*
X20800000Y-116300000D02*
X20100000Y-117000000D01*
D23*
X19500000Y-140000000D02*
X21800000Y-137700000D01*
D24*
X-2760000Y-136760000D02*
X-3500000Y-137500000D01*
X-2360000Y-111760000D02*
X-3500000Y-112900000D01*
X-7900000Y-139600000D02*
X-9000000Y-138500000D01*
X-3500000Y-112900000D02*
X-3500000Y-116300000D01*
D23*
X-7620000Y-127180000D02*
X-4600000Y-124160000D01*
X-9000000Y-130500000D02*
X-4500000Y-130500000D01*
D24*
X-10275000Y-126500000D02*
X-10200000Y-126575000D01*
X-13500000Y-126500000D02*
X-10275000Y-126500000D01*
D23*
X-9000000Y-135300000D02*
X-9000000Y-135100000D01*
D24*
X23565000Y-111760000D02*
X23201371Y-111760000D01*
D23*
X21800000Y-137300000D02*
X22300000Y-136800000D01*
X-4500000Y-130500000D02*
X-4300000Y-130500000D01*
X14500000Y-140000000D02*
X19500000Y-140000000D01*
X23525000Y-136800000D02*
X23565000Y-136760000D01*
X8500000Y-105500000D02*
X15500000Y-112500000D01*
D24*
X-10200000Y-126575000D02*
X-8225000Y-126575000D01*
D23*
X-7620000Y-127180000D02*
X-7500000Y-127300000D01*
X10500000Y-130500000D02*
X13700000Y-133700000D01*
%TO.N,SDA_3V*%
X17695000Y-144500000D02*
X23000000Y-144500000D01*
X600000Y-144500000D02*
X17695000Y-144500000D01*
X30500000Y-144500000D02*
X32500000Y-142500000D01*
D24*
X-12100000Y-120000000D02*
X-11875000Y-119775000D01*
D23*
X23000000Y-144500000D02*
X30500000Y-144500000D01*
X24250000Y-118000000D02*
X24250000Y-112945000D01*
D24*
X-11875000Y-119775000D02*
X-10300000Y-119775000D01*
D23*
X24250000Y-118150000D02*
X22400000Y-120000000D01*
X-750000Y-112945000D02*
X-750000Y-118250000D01*
X22400000Y-120000000D02*
X22300000Y-120000000D01*
X-10500000Y-105500000D02*
X-10500000Y-120000000D01*
X-750000Y-137945000D02*
X-750000Y-143150000D01*
X28836396Y-119800000D02*
X32500000Y-116136396D01*
D24*
X-13500000Y-120000000D02*
X-12100000Y-120000000D01*
D23*
X25900000Y-119800000D02*
X28836396Y-119800000D01*
X1000000Y-120000000D02*
X18000000Y-120000000D01*
X-750000Y-118250000D02*
X1000000Y-120000000D01*
X24250000Y-143250000D02*
X23000000Y-144500000D01*
X24250000Y-118150000D02*
X24250000Y-118000000D01*
X-9500000Y-104500000D02*
X-10500000Y-105500000D01*
X32500000Y-116000000D02*
X32500000Y-104500000D01*
X-750000Y-143150000D02*
X600000Y-144500000D01*
X32500000Y-104500000D02*
X-9500000Y-104500000D01*
X18000000Y-120000000D02*
X22300000Y-120000000D01*
X24250000Y-118150000D02*
X25900000Y-119800000D01*
X32500000Y-116000000D02*
X32500000Y-142600000D01*
X32500000Y-116136396D02*
X32500000Y-116000000D01*
X24250000Y-137945000D02*
X24250000Y-143250000D01*
D24*
%TO.N,Net-(U1-A0)*%
X26435000Y-136260000D02*
X29315000Y-136260000D01*
X29315000Y-136260000D02*
X29375000Y-136200000D01*
%TO.N,Net-(U1-A1)*%
X26435000Y-136760000D02*
X28235000Y-136760000D01*
X29475000Y-138000000D02*
X29500000Y-138000000D01*
X28235000Y-136760000D02*
X29475000Y-138000000D01*
X29500000Y-138000000D02*
X29500000Y-139300000D01*
%TO.N,Net-(U1-INT)*%
X21900000Y-135300000D02*
X22300000Y-135700000D01*
X22300000Y-135700000D02*
X23505000Y-135700000D01*
X23505000Y-135700000D02*
X23565000Y-135760000D01*
X20125000Y-135300000D02*
X21900000Y-135300000D01*
%TO.N,Net-(U1-INT{slash}TRIG)*%
X25250000Y-137945000D02*
X25250000Y-140625000D01*
X25250000Y-140625000D02*
X26200000Y-141575000D01*
D23*
%TO.N,Net-(U2-INT{slash}TRIG)*%
X250000Y-137945000D02*
X250000Y-142430000D01*
D24*
%TO.N,Net-(U2-INT)*%
X-3615000Y-135760000D02*
X-1435000Y-135760000D01*
X-4575000Y-134800000D02*
X-3615000Y-135760000D01*
%TO.N,Net-(U3-A1)*%
X26435000Y-111760000D02*
X26935000Y-111760000D01*
X26935000Y-111760000D02*
X29075000Y-113900000D01*
D23*
%TO.N,Net-(U3-INT{slash}TRIG)*%
X25250000Y-112945000D02*
X25250000Y-116305000D01*
D24*
%TO.N,Net-(U3-INT)*%
X23525000Y-110800000D02*
X23565000Y-110760000D01*
X18625000Y-110800000D02*
X23525000Y-110800000D01*
%TO.N,Net-(U4-A0)*%
X1435000Y-111260000D02*
X3570000Y-111260000D01*
X3570000Y-111260000D02*
X4330000Y-110500000D01*
%TO.N,Net-(U4-INT{slash}TRIG)*%
X200000Y-112995000D02*
X250000Y-112945000D01*
X250000Y-112945000D02*
X250000Y-114150000D01*
X500000Y-114400000D02*
X500000Y-115675000D01*
X250000Y-114150000D02*
X500000Y-114400000D01*
%TO.N,Net-(U4-INT)*%
X-1435000Y-110760000D02*
X-2940000Y-110760000D01*
X-4775000Y-110400000D02*
X-3300000Y-110400000D01*
X-2940000Y-110760000D02*
X-3300000Y-110400000D01*
%TO.N,Net-(U1-SENB{slash}CS)*%
X21200000Y-136200000D02*
X23505000Y-136200000D01*
X23505000Y-136200000D02*
X23565000Y-136260000D01*
X20025000Y-137375000D02*
X21200000Y-136200000D01*
X20025000Y-137900000D02*
X20025000Y-137375000D01*
%TO.N,Net-(U3-SENB{slash}CS)*%
X18525000Y-114900000D02*
X19000000Y-114900000D01*
X23525000Y-111300000D02*
X23565000Y-111260000D01*
X22600000Y-111300000D02*
X23525000Y-111300000D01*
X19000000Y-114900000D02*
X22600000Y-111300000D01*
%TO.N,Net-(U4-SENB{slash}CS)*%
X-4400000Y-114725000D02*
X-4475000Y-114800000D01*
X-3360000Y-111260000D02*
X-4400000Y-112300000D01*
X-1435000Y-111260000D02*
X-3360000Y-111260000D01*
X-4400000Y-112300000D02*
X-4400000Y-114725000D01*
%TO.N,Net-(U2-SENB{slash}CS)*%
X-4000000Y-136200000D02*
X-1495000Y-136200000D01*
X-4575000Y-136775000D02*
X-4000000Y-136200000D01*
X-1495000Y-136200000D02*
X-1435000Y-136260000D01*
X-4575000Y-137600000D02*
X-4575000Y-136775000D01*
%TD*%
%TA.AperFunction,Conductor*%
%TO.N,GND*%
G36*
X-31147999Y-121284939D02*
G01*
X-31107771Y-121311819D01*
X-30441772Y-121977819D01*
X-30411522Y-122027182D01*
X-30406980Y-122084898D01*
X-30429135Y-122138385D01*
X-30473158Y-122175985D01*
X-30529453Y-122189500D01*
X-32052870Y-122189500D01*
X-32112485Y-122195909D01*
X-32247331Y-122246204D01*
X-32362546Y-122332454D01*
X-32448796Y-122447668D01*
X-32499091Y-122582516D01*
X-32505500Y-122642130D01*
X-32505500Y-123737869D01*
X-32499091Y-123797484D01*
X-32493773Y-123811742D01*
X-32448796Y-123932331D01*
X-32362546Y-124047546D01*
X-32247331Y-124133796D01*
X-32112483Y-124184091D01*
X-32052873Y-124190500D01*
X-30685453Y-124190499D01*
X-30638000Y-124199938D01*
X-30597772Y-124226818D01*
X-29440803Y-125383787D01*
X-29427902Y-125399889D01*
X-29425788Y-125401874D01*
X-29425786Y-125401877D01*
X-29378439Y-125446339D01*
X-29376760Y-125447916D01*
X-29373965Y-125450625D01*
X-29354470Y-125470120D01*
X-29351296Y-125472582D01*
X-29342432Y-125480153D01*
X-29310582Y-125510062D01*
X-29300086Y-125515832D01*
X-29293026Y-125519714D01*
X-29276769Y-125530392D01*
X-29260936Y-125542674D01*
X-29244815Y-125549649D01*
X-29220844Y-125560023D01*
X-29210357Y-125565160D01*
X-29172092Y-125586197D01*
X-29152684Y-125591180D01*
X-29134290Y-125597478D01*
X-29115895Y-125605438D01*
X-29072746Y-125612271D01*
X-29061320Y-125614638D01*
X-29045778Y-125618629D01*
X-29019020Y-125625500D01*
X-29019019Y-125625500D01*
X-28998984Y-125625500D01*
X-28979587Y-125627026D01*
X-28959804Y-125630160D01*
X-28916326Y-125626050D01*
X-28904656Y-125625500D01*
X-25271953Y-125625500D01*
X-25215658Y-125639015D01*
X-25171635Y-125676615D01*
X-25149480Y-125730102D01*
X-25154022Y-125787818D01*
X-25184272Y-125837181D01*
X-25335272Y-125988181D01*
X-25375500Y-126015061D01*
X-25422953Y-126024500D01*
X-25776617Y-126024500D01*
X-25847194Y-126030913D01*
X-25920067Y-126053621D01*
X-26009606Y-126081522D01*
X-26009608Y-126081522D01*
X-26009608Y-126081523D01*
X-26155187Y-126169528D01*
X-26257319Y-126271661D01*
X-26312906Y-126303755D01*
X-26377094Y-126303755D01*
X-26432681Y-126271661D01*
X-26534814Y-126169528D01*
X-26622820Y-126116326D01*
X-26680394Y-126081522D01*
X-26842804Y-126030914D01*
X-26842807Y-126030913D01*
X-26913383Y-126024500D01*
X-26913384Y-126024500D01*
X-27426616Y-126024500D01*
X-27426617Y-126024500D01*
X-27497194Y-126030913D01*
X-27570067Y-126053621D01*
X-27659606Y-126081522D01*
X-27659608Y-126081522D01*
X-27659608Y-126081523D01*
X-27805185Y-126169527D01*
X-27925474Y-126289817D01*
X-27940488Y-126314653D01*
X-27985689Y-126358507D01*
X-28031979Y-126370660D01*
X-28031617Y-126373524D01*
X-28039348Y-126374500D01*
X-28039350Y-126374500D01*
X-28043329Y-126375002D01*
X-28054959Y-126375917D01*
X-28098628Y-126377289D01*
X-28117872Y-126382880D01*
X-28136916Y-126386824D01*
X-28156792Y-126389335D01*
X-28197400Y-126405413D01*
X-28208446Y-126409194D01*
X-28222563Y-126413297D01*
X-28250393Y-126421383D01*
X-28267635Y-126431579D01*
X-28285096Y-126440133D01*
X-28303733Y-126447512D01*
X-28339069Y-126473185D01*
X-28348826Y-126479595D01*
X-28386420Y-126501829D01*
X-28400587Y-126515996D01*
X-28415376Y-126528626D01*
X-28431587Y-126540404D01*
X-28459428Y-126574058D01*
X-28467289Y-126582697D01*
X-29383792Y-127499199D01*
X-29399890Y-127512096D01*
X-29447904Y-127563225D01*
X-29450609Y-127566017D01*
X-29470126Y-127585534D01*
X-29472585Y-127588705D01*
X-29480158Y-127597572D01*
X-29510065Y-127629420D01*
X-29519715Y-127646974D01*
X-29530391Y-127663228D01*
X-29542674Y-127679063D01*
X-29560025Y-127719158D01*
X-29565162Y-127729644D01*
X-29586198Y-127767907D01*
X-29591179Y-127787309D01*
X-29597480Y-127805711D01*
X-29605439Y-127824102D01*
X-29612272Y-127867242D01*
X-29614640Y-127878674D01*
X-29625500Y-127920978D01*
X-29625500Y-127941016D01*
X-29627027Y-127960413D01*
X-29630160Y-127980196D01*
X-29627341Y-128010013D01*
X-29626050Y-128023675D01*
X-29625500Y-128035344D01*
X-29625500Y-130167256D01*
X-29627765Y-130187762D01*
X-29625561Y-130257873D01*
X-29625500Y-130261768D01*
X-29625500Y-130289349D01*
X-29624997Y-130293334D01*
X-29624082Y-130304967D01*
X-29622710Y-130348626D01*
X-29617121Y-130367860D01*
X-29613175Y-130386916D01*
X-29610665Y-130406792D01*
X-29594586Y-130447404D01*
X-29590803Y-130458451D01*
X-29578618Y-130500391D01*
X-29568420Y-130517635D01*
X-29559864Y-130535100D01*
X-29552486Y-130553732D01*
X-29552485Y-130553733D01*
X-29526820Y-130589059D01*
X-29520407Y-130598822D01*
X-29498174Y-130636416D01*
X-29498171Y-130636419D01*
X-29498170Y-130636420D01*
X-29484005Y-130650585D01*
X-29471373Y-130665375D01*
X-29459594Y-130681587D01*
X-29425942Y-130709426D01*
X-29417301Y-130717289D01*
X-29150803Y-130983787D01*
X-29137902Y-130999889D01*
X-29135788Y-131001874D01*
X-29135786Y-131001877D01*
X-29116108Y-131020356D01*
X-29086760Y-131047916D01*
X-29083965Y-131050625D01*
X-29064470Y-131070120D01*
X-29061296Y-131072582D01*
X-29052432Y-131080153D01*
X-29020582Y-131110062D01*
X-29010086Y-131115832D01*
X-29003026Y-131119714D01*
X-28986769Y-131130392D01*
X-28970936Y-131142674D01*
X-28954815Y-131149649D01*
X-28930844Y-131160023D01*
X-28920357Y-131165160D01*
X-28882092Y-131186197D01*
X-28862684Y-131191180D01*
X-28844290Y-131197478D01*
X-28825895Y-131205438D01*
X-28782746Y-131212271D01*
X-28771320Y-131214638D01*
X-28755778Y-131218629D01*
X-28729020Y-131225500D01*
X-28729019Y-131225500D01*
X-28708984Y-131225500D01*
X-28689587Y-131227026D01*
X-28669804Y-131230160D01*
X-28626326Y-131226050D01*
X-28614656Y-131225500D01*
X-27403747Y-131225500D01*
X-27353312Y-131236220D01*
X-27311599Y-131266526D01*
X-27305871Y-131272888D01*
X-27152730Y-131384151D01*
X-27152729Y-131384151D01*
X-27152728Y-131384152D01*
X-26979803Y-131461144D01*
X-26794648Y-131500500D01*
X-26794646Y-131500500D01*
X-26605354Y-131500500D01*
X-26605352Y-131500500D01*
X-26481916Y-131474262D01*
X-26420197Y-131461144D01*
X-26247270Y-131384151D01*
X-26094129Y-131272888D01*
X-25967467Y-131132216D01*
X-25872821Y-130968284D01*
X-25814326Y-130788256D01*
X-25794540Y-130600000D01*
X-25814326Y-130411744D01*
X-25872821Y-130231716D01*
X-25872821Y-130231715D01*
X-25967467Y-130067783D01*
X-26094130Y-129927110D01*
X-26247270Y-129815848D01*
X-26420198Y-129738855D01*
X-26605352Y-129699500D01*
X-26605354Y-129699500D01*
X-26794646Y-129699500D01*
X-26794648Y-129699500D01*
X-26979803Y-129738855D01*
X-27152728Y-129815847D01*
X-27237189Y-129877212D01*
X-27305871Y-129927112D01*
X-27311599Y-129933473D01*
X-27353312Y-129963780D01*
X-27403747Y-129974500D01*
X-28250500Y-129974500D01*
X-28312500Y-129957887D01*
X-28357887Y-129912500D01*
X-28374500Y-129850500D01*
X-28374500Y-128310452D01*
X-28365061Y-128262999D01*
X-28338181Y-128222771D01*
X-28316167Y-128200756D01*
X-27961565Y-127846153D01*
X-27915514Y-127817033D01*
X-27861422Y-127810465D01*
X-27809737Y-127827720D01*
X-27805186Y-127830471D01*
X-27805185Y-127830472D01*
X-27659606Y-127918478D01*
X-27497196Y-127969086D01*
X-27450143Y-127973361D01*
X-27426617Y-127975500D01*
X-27426616Y-127975500D01*
X-26913384Y-127975500D01*
X-26913383Y-127975500D01*
X-26895739Y-127973896D01*
X-26842804Y-127969086D01*
X-26680394Y-127918478D01*
X-26534815Y-127830472D01*
X-26487069Y-127782726D01*
X-26432681Y-127728339D01*
X-26377094Y-127696245D01*
X-26312906Y-127696245D01*
X-26257319Y-127728339D01*
X-26155187Y-127830471D01*
X-26129241Y-127846156D01*
X-26009606Y-127918478D01*
X-25847196Y-127969086D01*
X-25800143Y-127973361D01*
X-25776617Y-127975500D01*
X-25776616Y-127975500D01*
X-25263384Y-127975500D01*
X-25263383Y-127975500D01*
X-25245739Y-127973896D01*
X-25192804Y-127969086D01*
X-25030394Y-127918478D01*
X-24884815Y-127830472D01*
X-24764528Y-127710185D01*
X-24676522Y-127564606D01*
X-24625914Y-127402196D01*
X-24619500Y-127331616D01*
X-24619500Y-127092952D01*
X-24610061Y-127045499D01*
X-24583181Y-127005271D01*
X-24118314Y-126540404D01*
X-23641211Y-126063300D01*
X-23625115Y-126050406D01*
X-23623127Y-126048287D01*
X-23623123Y-126048286D01*
X-23577052Y-125999223D01*
X-23574434Y-125996523D01*
X-23554880Y-125976971D01*
X-23552419Y-125973798D01*
X-23544844Y-125964927D01*
X-23514938Y-125933082D01*
X-23505288Y-125915527D01*
X-23494600Y-125899257D01*
X-23482329Y-125883438D01*
X-23482327Y-125883436D01*
X-23464974Y-125843332D01*
X-23459843Y-125832862D01*
X-23438803Y-125794592D01*
X-23433825Y-125775199D01*
X-23427519Y-125756782D01*
X-23423829Y-125748255D01*
X-23419562Y-125738396D01*
X-23418248Y-125730102D01*
X-23396094Y-125676616D01*
X-23352071Y-125639016D01*
X-23295775Y-125625500D01*
X-19560452Y-125625500D01*
X-19512999Y-125634939D01*
X-19472771Y-125661819D01*
X-17300804Y-127833787D01*
X-17287904Y-127849888D01*
X-17236777Y-127897900D01*
X-17233981Y-127900610D01*
X-17214471Y-127920120D01*
X-17211289Y-127922588D01*
X-17202429Y-127930155D01*
X-17190864Y-127941016D01*
X-17170582Y-127960062D01*
X-17153030Y-127969711D01*
X-17136762Y-127980397D01*
X-17120936Y-127992673D01*
X-17080854Y-128010017D01*
X-17070367Y-128015155D01*
X-17032093Y-128036197D01*
X-17023590Y-128038379D01*
X-17012692Y-128041178D01*
X-16994287Y-128047478D01*
X-16975896Y-128055437D01*
X-16932750Y-128062270D01*
X-16921332Y-128064635D01*
X-16879019Y-128075500D01*
X-16858984Y-128075500D01*
X-16839585Y-128077027D01*
X-16819804Y-128080160D01*
X-16776326Y-128076050D01*
X-16764656Y-128075500D01*
X-16458308Y-128075500D01*
X-16410855Y-128084939D01*
X-16370627Y-128111819D01*
X-16364365Y-128118081D01*
X-16222898Y-128201744D01*
X-16065073Y-128247597D01*
X-16065069Y-128247598D01*
X-16028194Y-128250500D01*
X-14862000Y-128250500D01*
X-14800000Y-128267113D01*
X-14754613Y-128312500D01*
X-14738000Y-128374500D01*
X-14738000Y-128615692D01*
X-14735098Y-128652572D01*
X-14689245Y-128810397D01*
X-14689244Y-128810398D01*
X-14605581Y-128951865D01*
X-14489365Y-129068081D01*
X-14403120Y-129119086D01*
X-14347898Y-129151744D01*
X-14214905Y-129190383D01*
X-14168476Y-129215592D01*
X-14136755Y-129257840D01*
X-14125500Y-129309459D01*
X-14125500Y-130439547D01*
X-14134939Y-130487000D01*
X-14161819Y-130527228D01*
X-14472772Y-130838181D01*
X-14513000Y-130865061D01*
X-14560453Y-130874500D01*
X-16296253Y-130874500D01*
X-16346688Y-130863780D01*
X-16388402Y-130833473D01*
X-16394129Y-130827112D01*
X-16547270Y-130715849D01*
X-16547271Y-130715848D01*
X-16547273Y-130715847D01*
X-16720198Y-130638855D01*
X-16905352Y-130599500D01*
X-16905354Y-130599500D01*
X-17094646Y-130599500D01*
X-17094648Y-130599500D01*
X-17279803Y-130638855D01*
X-17452731Y-130715848D01*
X-17605871Y-130827110D01*
X-17732534Y-130967783D01*
X-17827180Y-131131715D01*
X-17885674Y-131311742D01*
X-17905460Y-131500000D01*
X-17885674Y-131688257D01*
X-17827180Y-131868284D01*
X-17732534Y-132032216D01*
X-17605871Y-132172889D01*
X-17452731Y-132284151D01*
X-17279803Y-132361144D01*
X-17094648Y-132400500D01*
X-17094646Y-132400500D01*
X-16905354Y-132400500D01*
X-16905352Y-132400500D01*
X-16761109Y-132369840D01*
X-16720197Y-132361144D01*
X-16547270Y-132284151D01*
X-16394129Y-132172888D01*
X-16388402Y-132166526D01*
X-16346688Y-132136220D01*
X-16296253Y-132125500D01*
X-14332744Y-132125500D01*
X-14312238Y-132127764D01*
X-14309335Y-132127672D01*
X-14309333Y-132127673D01*
X-14242128Y-132125561D01*
X-14238232Y-132125500D01*
X-14210651Y-132125500D01*
X-14210650Y-132125500D01*
X-14206681Y-132124998D01*
X-14195035Y-132124080D01*
X-14151373Y-132122709D01*
X-14132141Y-132117120D01*
X-14113082Y-132113174D01*
X-14106804Y-132112381D01*
X-14093208Y-132110664D01*
X-14052593Y-132094582D01*
X-14041556Y-132090803D01*
X-13999610Y-132078618D01*
X-13982371Y-132068422D01*
X-13964898Y-132059862D01*
X-13946268Y-132052486D01*
X-13910936Y-132026814D01*
X-13901170Y-132020400D01*
X-13863582Y-131998171D01*
X-13863583Y-131998171D01*
X-13863580Y-131998170D01*
X-13849415Y-131984004D01*
X-13834627Y-131971373D01*
X-13818413Y-131959594D01*
X-13790562Y-131925926D01*
X-13782721Y-131917309D01*
X-13116212Y-131250801D01*
X-13100115Y-131237906D01*
X-13098127Y-131235787D01*
X-13098123Y-131235786D01*
X-13052052Y-131186723D01*
X-13049434Y-131184023D01*
X-13029880Y-131164471D01*
X-13027419Y-131161298D01*
X-13019844Y-131152427D01*
X-12989938Y-131120582D01*
X-12980283Y-131103018D01*
X-12969606Y-131086764D01*
X-12957327Y-131070936D01*
X-12939982Y-131030852D01*
X-12934840Y-131020356D01*
X-12913803Y-130982092D01*
X-12908821Y-130962684D01*
X-12902519Y-130944280D01*
X-12894563Y-130925896D01*
X-12887731Y-130882752D01*
X-12885367Y-130871338D01*
X-12874500Y-130829019D01*
X-12874500Y-130808984D01*
X-12872973Y-130789585D01*
X-12872763Y-130788256D01*
X-12869840Y-130769804D01*
X-12873950Y-130726325D01*
X-12874500Y-130714656D01*
X-12874500Y-129309459D01*
X-12863245Y-129257840D01*
X-12831524Y-129215592D01*
X-12785095Y-129190383D01*
X-12695799Y-129164439D01*
X-12652102Y-129151744D01*
X-12510635Y-129068081D01*
X-12454373Y-129011818D01*
X-12414145Y-128984939D01*
X-12366692Y-128975500D01*
X-10952978Y-128975500D01*
X-10888828Y-128993383D01*
X-10764606Y-129068478D01*
X-10602196Y-129119086D01*
X-10555143Y-129123362D01*
X-10531617Y-129125500D01*
X-10531616Y-129125500D01*
X-9868384Y-129125500D01*
X-9868383Y-129125500D01*
X-9850740Y-129123896D01*
X-9797804Y-129119086D01*
X-9635394Y-129068478D01*
X-9489815Y-128980472D01*
X-9369528Y-128860185D01*
X-9281522Y-128714606D01*
X-9230914Y-128552196D01*
X-9224500Y-128481616D01*
X-9224500Y-127968384D01*
X-9230914Y-127897804D01*
X-9281522Y-127735394D01*
X-9365222Y-127596938D01*
X-9369529Y-127589813D01*
X-9471661Y-127487681D01*
X-9503755Y-127432094D01*
X-9503755Y-127367906D01*
X-9471661Y-127312319D01*
X-9358881Y-127199539D01*
X-9358686Y-127199734D01*
X-9324428Y-127166495D01*
X-9263511Y-127150500D01*
X-8514742Y-127150500D01*
X-8467289Y-127159939D01*
X-8427061Y-127186819D01*
X-8227326Y-127386554D01*
X-8208651Y-127418130D01*
X-8206589Y-127416911D01*
X-8194456Y-127437429D01*
X-8184524Y-127458536D01*
X-8181756Y-127466225D01*
X-8150581Y-127512098D01*
X-8146409Y-127518673D01*
X-8118174Y-127566416D01*
X-8118171Y-127566419D01*
X-8118170Y-127566420D01*
X-8112393Y-127572197D01*
X-8097521Y-127590174D01*
X-8092924Y-127596938D01*
X-8051297Y-127633637D01*
X-8045636Y-127638954D01*
X-7998170Y-127686420D01*
X-6021772Y-129662819D01*
X-5991522Y-129712182D01*
X-5986980Y-129769898D01*
X-6009135Y-129823385D01*
X-6053158Y-129860985D01*
X-6109453Y-129874500D01*
X-8929151Y-129874500D01*
X-8952385Y-129872304D01*
X-8960413Y-129870772D01*
X-9015759Y-129874255D01*
X-9023545Y-129874500D01*
X-9039350Y-129874500D01*
X-9055043Y-129876481D01*
X-9062785Y-129877212D01*
X-9118138Y-129880695D01*
X-9125915Y-129883222D01*
X-9148678Y-129888310D01*
X-9156790Y-129889335D01*
X-9208381Y-129909760D01*
X-9215704Y-129912396D01*
X-9268441Y-129929532D01*
X-9275344Y-129933913D01*
X-9296124Y-129944501D01*
X-9303732Y-129947513D01*
X-9348611Y-129980119D01*
X-9355048Y-129984494D01*
X-9401880Y-130014215D01*
X-9407472Y-130020171D01*
X-9424969Y-130035597D01*
X-9431588Y-130040406D01*
X-9466947Y-130083146D01*
X-9472095Y-130088986D01*
X-9510062Y-130129417D01*
X-9514003Y-130136586D01*
X-9527114Y-130155878D01*
X-9532325Y-130162176D01*
X-9555940Y-130212360D01*
X-9559474Y-130219296D01*
X-9586198Y-130267908D01*
X-9588230Y-130275823D01*
X-9596132Y-130297774D01*
X-9599615Y-130305174D01*
X-9610007Y-130359650D01*
X-9611705Y-130367247D01*
X-9625500Y-130420980D01*
X-9625500Y-130429151D01*
X-9627696Y-130452385D01*
X-9629228Y-130460412D01*
X-9625745Y-130515759D01*
X-9625500Y-130523545D01*
X-9625500Y-135339352D01*
X-9610665Y-135456792D01*
X-9584208Y-135523613D01*
X-9575500Y-135569260D01*
X-9575500Y-138454160D01*
X-9576561Y-138470345D01*
X-9580466Y-138500000D01*
X-9576561Y-138529655D01*
X-9576561Y-138529662D01*
X-9560688Y-138650235D01*
X-9517612Y-138754227D01*
X-9517612Y-138754228D01*
X-9502699Y-138790232D01*
X-9433612Y-138880268D01*
X-9433609Y-138880271D01*
X-9410451Y-138910452D01*
X-9386714Y-138928666D01*
X-9374520Y-138939360D01*
X-8339358Y-139974522D01*
X-8328663Y-139986717D01*
X-8310655Y-140010186D01*
X-8310451Y-140010451D01*
X-8286719Y-140028661D01*
X-8286716Y-140028664D01*
X-8280270Y-140033610D01*
X-8280268Y-140033612D01*
X-8190233Y-140102699D01*
X-8190232Y-140102699D01*
X-8190231Y-140102700D01*
X-8091244Y-140143701D01*
X-8091240Y-140143702D01*
X-8050236Y-140160687D01*
X-7937720Y-140175500D01*
X-7929669Y-140176560D01*
X-7929655Y-140176561D01*
X-7900000Y-140180465D01*
X-7870345Y-140176561D01*
X-7854160Y-140175500D01*
X-3545846Y-140175500D01*
X-3529663Y-140176560D01*
X-3500000Y-140180466D01*
X-3349764Y-140160687D01*
X-3209767Y-140102698D01*
X-3089549Y-140010451D01*
X-2997302Y-139890233D01*
X-2939313Y-139750236D01*
X-2924500Y-139637720D01*
X-2919534Y-139600000D01*
X-2923440Y-139570337D01*
X-2924500Y-139554154D01*
X-2924500Y-137789742D01*
X-2915061Y-137742289D01*
X-2888181Y-137702061D01*
X-2742955Y-137556835D01*
X-2563687Y-137377566D01*
X-2503446Y-137344323D01*
X-2434755Y-137348312D01*
X-2378766Y-137388308D01*
X-2352718Y-137451995D01*
X-2348498Y-137491250D01*
X-2297469Y-137628065D01*
X-2209961Y-137744960D01*
X-2093065Y-137832468D01*
X-1956252Y-137883497D01*
X-1895769Y-137890000D01*
X-1547829Y-137890000D01*
X-1542823Y-137886932D01*
X-1485106Y-137882387D01*
X-1431617Y-137904541D01*
X-1394016Y-137948565D01*
X-1380500Y-138004861D01*
X-1380500Y-138405814D01*
X-1376210Y-138445715D01*
X-1375500Y-138458968D01*
X-1375500Y-143067256D01*
X-1377765Y-143087762D01*
X-1375561Y-143157873D01*
X-1375500Y-143161768D01*
X-1375500Y-143189349D01*
X-1374997Y-143193334D01*
X-1374082Y-143204967D01*
X-1372710Y-143248626D01*
X-1367121Y-143267860D01*
X-1363175Y-143286916D01*
X-1360665Y-143306792D01*
X-1344586Y-143347404D01*
X-1340803Y-143358451D01*
X-1328618Y-143400391D01*
X-1318420Y-143417635D01*
X-1309864Y-143435100D01*
X-1302486Y-143453732D01*
X-1302485Y-143453733D01*
X-1276820Y-143489059D01*
X-1270407Y-143498822D01*
X-1248174Y-143536416D01*
X-1248171Y-143536419D01*
X-1248170Y-143536420D01*
X-1234005Y-143550585D01*
X-1221373Y-143565375D01*
X-1209594Y-143581587D01*
X-1175942Y-143609426D01*
X-1167301Y-143617289D01*
X-46272Y-144738319D01*
X-16022Y-144787682D01*
X-11480Y-144845398D01*
X-33635Y-144898885D01*
X-77658Y-144936485D01*
X-133953Y-144950000D01*
X-13839453Y-144950000D01*
X-13876597Y-144944306D01*
X-13910330Y-144927747D01*
X-15897463Y-143543503D01*
X-35946878Y-129577005D01*
X-35985920Y-129532649D01*
X-36000000Y-129475259D01*
X-36000000Y-126511493D01*
X-35981262Y-126445950D01*
X-35930711Y-126400216D01*
X-35863625Y-126388112D01*
X-35800279Y-126413297D01*
X-35759818Y-126468160D01*
X-35758353Y-126472088D01*
X-35672189Y-126587188D01*
X-35557090Y-126673352D01*
X-35422376Y-126723597D01*
X-35362824Y-126730000D01*
X-34310000Y-126730000D01*
X-34310000Y-125980000D01*
X-33810000Y-125980000D01*
X-33810000Y-126730000D01*
X-32757176Y-126730000D01*
X-32697625Y-126723597D01*
X-32562911Y-126673352D01*
X-32447812Y-126587188D01*
X-32361648Y-126472089D01*
X-32311403Y-126337375D01*
X-32305000Y-126277824D01*
X-32305000Y-125980000D01*
X-33810000Y-125980000D01*
X-34310000Y-125980000D01*
X-34310000Y-124730000D01*
X-33810000Y-124730000D01*
X-33810000Y-125480000D01*
X-32305000Y-125480000D01*
X-32305000Y-125182176D01*
X-32311403Y-125122624D01*
X-32361648Y-124987910D01*
X-32447812Y-124872811D01*
X-32562911Y-124786647D01*
X-32697625Y-124736402D01*
X-32757176Y-124730000D01*
X-33810000Y-124730000D01*
X-34310000Y-124730000D01*
X-35362824Y-124730000D01*
X-35422376Y-124736402D01*
X-35557090Y-124786647D01*
X-35672189Y-124872811D01*
X-35758353Y-124987911D01*
X-35759818Y-124991840D01*
X-35800279Y-125046703D01*
X-35863625Y-125071888D01*
X-35930711Y-125059784D01*
X-35981262Y-125014050D01*
X-36000000Y-124948507D01*
X-36000000Y-121432923D01*
X-35981262Y-121367380D01*
X-35930711Y-121321646D01*
X-35863626Y-121309542D01*
X-35800280Y-121334727D01*
X-35759820Y-121389587D01*
X-35758796Y-121392331D01*
X-35672546Y-121507546D01*
X-35557331Y-121593796D01*
X-35422483Y-121644091D01*
X-35362873Y-121650500D01*
X-32757128Y-121650499D01*
X-32697517Y-121644091D01*
X-32562669Y-121593796D01*
X-32447454Y-121507546D01*
X-32361204Y-121392331D01*
X-32347716Y-121356165D01*
X-32321277Y-121313930D01*
X-32280347Y-121285512D01*
X-32231534Y-121275500D01*
X-31195452Y-121275500D01*
X-31147999Y-121284939D01*
G37*
%TD.AperFunction*%
%TA.AperFunction,Conductor*%
G36*
X25037818Y-141245811D02*
G01*
X25087181Y-141276061D01*
X25188181Y-141377061D01*
X25215061Y-141417289D01*
X25224500Y-141464742D01*
X25224500Y-141831617D01*
X25230913Y-141902193D01*
X25230914Y-141902196D01*
X25281522Y-142064606D01*
X25281523Y-142064607D01*
X25369528Y-142210186D01*
X25472015Y-142312673D01*
X25504109Y-142368260D01*
X25504109Y-142432448D01*
X25472015Y-142488035D01*
X25369925Y-142590124D01*
X25281980Y-142735603D01*
X25231409Y-142897893D01*
X25225000Y-142968424D01*
X25225000Y-142975000D01*
X27174999Y-142975000D01*
X27174999Y-142968421D01*
X27168591Y-142897895D01*
X27118018Y-142735602D01*
X27030075Y-142590126D01*
X26927984Y-142488036D01*
X26895890Y-142432448D01*
X26895890Y-142368260D01*
X26927982Y-142312674D01*
X27030472Y-142210185D01*
X27118478Y-142064606D01*
X27169086Y-141902196D01*
X27174158Y-141846378D01*
X27199464Y-141781868D01*
X27255434Y-141741009D01*
X27324589Y-141736564D01*
X27385330Y-141769921D01*
X28561038Y-142945629D01*
X28585277Y-142979926D01*
X28596678Y-143020348D01*
X28614326Y-143188257D01*
X28672820Y-143368284D01*
X28767466Y-143532216D01*
X28889302Y-143667528D01*
X28916584Y-143717154D01*
X28918956Y-143773735D01*
X28895922Y-143825470D01*
X28852287Y-143861568D01*
X28797152Y-143874500D01*
X27236649Y-143874500D01*
X27180688Y-143861154D01*
X27136773Y-143823990D01*
X27114356Y-143771007D01*
X27118264Y-143713609D01*
X27168590Y-143552105D01*
X27175000Y-143481576D01*
X27175000Y-143475000D01*
X25225001Y-143475000D01*
X25225001Y-143481579D01*
X25231408Y-143552103D01*
X25281736Y-143713609D01*
X25285644Y-143771007D01*
X25263227Y-143823990D01*
X25219312Y-143861154D01*
X25163351Y-143874500D01*
X24809454Y-143874500D01*
X24753159Y-143860985D01*
X24709136Y-143823385D01*
X24686981Y-143769898D01*
X24691523Y-143712182D01*
X24716445Y-143671512D01*
X24715330Y-143670647D01*
X24720117Y-143664473D01*
X24720120Y-143664471D01*
X24722581Y-143661298D01*
X24730156Y-143652427D01*
X24760062Y-143620582D01*
X24769712Y-143603027D01*
X24780400Y-143586757D01*
X24792673Y-143570936D01*
X24810026Y-143530832D01*
X24815157Y-143520362D01*
X24826999Y-143498822D01*
X24836197Y-143482092D01*
X24841175Y-143462699D01*
X24847481Y-143444282D01*
X24855379Y-143426032D01*
X24855438Y-143425896D01*
X24862272Y-143382745D01*
X24864635Y-143371331D01*
X24875500Y-143329019D01*
X24875500Y-143308984D01*
X24877027Y-143289585D01*
X24878983Y-143277233D01*
X24880160Y-143269804D01*
X24876050Y-143226325D01*
X24875500Y-143214656D01*
X24875500Y-141363742D01*
X24889015Y-141307447D01*
X24926615Y-141263424D01*
X24980102Y-141241269D01*
X25037818Y-141245811D01*
G37*
%TD.AperFunction*%
%TA.AperFunction,Conductor*%
G36*
X-4339585Y-131127027D02*
G01*
X-4319804Y-131130160D01*
X-4276326Y-131126050D01*
X-4264656Y-131125500D01*
X-4260650Y-131125500D01*
X10189548Y-131125500D01*
X10237001Y-131134939D01*
X10277229Y-131161819D01*
X13038181Y-133922772D01*
X13065061Y-133963000D01*
X13074500Y-134010453D01*
X13074500Y-139117256D01*
X13072235Y-139137762D01*
X13074439Y-139207873D01*
X13074500Y-139211768D01*
X13074500Y-139239349D01*
X13075003Y-139243334D01*
X13075918Y-139254967D01*
X13077290Y-139298626D01*
X13082879Y-139317860D01*
X13086825Y-139336916D01*
X13089335Y-139356792D01*
X13105414Y-139397404D01*
X13109197Y-139408451D01*
X13121382Y-139450391D01*
X13131580Y-139467635D01*
X13140136Y-139485100D01*
X13147514Y-139503732D01*
X13147515Y-139503733D01*
X13173180Y-139539059D01*
X13179593Y-139548822D01*
X13201826Y-139586416D01*
X13201829Y-139586419D01*
X13201830Y-139586420D01*
X13215995Y-139600585D01*
X13228627Y-139615375D01*
X13240406Y-139631587D01*
X13274058Y-139659426D01*
X13282699Y-139667289D01*
X13999196Y-140383787D01*
X14012096Y-140399888D01*
X14063223Y-140447900D01*
X14066020Y-140450611D01*
X14085529Y-140470120D01*
X14088711Y-140472588D01*
X14097571Y-140480155D01*
X14129418Y-140510062D01*
X14146972Y-140519712D01*
X14163236Y-140530396D01*
X14174972Y-140539499D01*
X14179064Y-140542673D01*
X14202720Y-140552910D01*
X14219152Y-140560021D01*
X14229631Y-140565154D01*
X14267908Y-140586197D01*
X14287306Y-140591177D01*
X14305708Y-140597477D01*
X14324104Y-140605438D01*
X14367261Y-140612273D01*
X14378664Y-140614634D01*
X14420981Y-140625500D01*
X14441016Y-140625500D01*
X14460413Y-140627026D01*
X14480196Y-140630160D01*
X14523674Y-140626050D01*
X14535344Y-140625500D01*
X19417256Y-140625500D01*
X19437762Y-140627764D01*
X19440665Y-140627672D01*
X19440667Y-140627673D01*
X19507872Y-140625561D01*
X19511768Y-140625500D01*
X19539349Y-140625500D01*
X19539350Y-140625500D01*
X19543319Y-140624998D01*
X19554965Y-140624080D01*
X19598627Y-140622709D01*
X19617859Y-140617120D01*
X19636918Y-140613174D01*
X19644091Y-140612268D01*
X19656792Y-140610664D01*
X19697407Y-140594582D01*
X19708444Y-140590803D01*
X19750390Y-140578618D01*
X19767629Y-140568422D01*
X19785102Y-140559862D01*
X19803732Y-140552486D01*
X19839064Y-140526814D01*
X19848830Y-140520400D01*
X19866313Y-140510061D01*
X19886420Y-140498170D01*
X19900585Y-140484004D01*
X19915373Y-140471373D01*
X19931587Y-140459594D01*
X19959438Y-140425926D01*
X19967279Y-140417309D01*
X22183789Y-138200800D01*
X22199885Y-138187906D01*
X22201873Y-138185787D01*
X22201877Y-138185786D01*
X22247948Y-138136723D01*
X22250566Y-138134023D01*
X22270120Y-138114471D01*
X22272581Y-138111298D01*
X22280156Y-138102427D01*
X22310062Y-138070582D01*
X22319717Y-138053018D01*
X22330394Y-138036764D01*
X22342673Y-138020936D01*
X22360018Y-137980852D01*
X22365160Y-137970356D01*
X22386197Y-137932092D01*
X22391179Y-137912684D01*
X22397481Y-137894280D01*
X22405437Y-137875896D01*
X22412269Y-137832752D01*
X22414633Y-137821338D01*
X22425500Y-137779019D01*
X22425500Y-137758984D01*
X22427027Y-137739585D01*
X22427218Y-137738380D01*
X22430160Y-137719804D01*
X22426050Y-137676325D01*
X22425500Y-137664656D01*
X22425500Y-137610452D01*
X22434938Y-137563002D01*
X22461811Y-137522778D01*
X22472100Y-137512489D01*
X22524843Y-137481193D01*
X22586137Y-137479002D01*
X22640983Y-137506455D01*
X22675964Y-137556835D01*
X22702531Y-137628065D01*
X22790039Y-137744960D01*
X22906935Y-137832468D01*
X23043748Y-137883497D01*
X23104231Y-137890000D01*
X23452171Y-137890000D01*
X23457177Y-137886932D01*
X23514894Y-137882387D01*
X23568383Y-137904541D01*
X23605984Y-137948565D01*
X23619500Y-138004861D01*
X23619500Y-138405814D01*
X23623790Y-138445715D01*
X23624500Y-138458968D01*
X23624500Y-142939548D01*
X23615061Y-142987001D01*
X23588181Y-143027229D01*
X22777228Y-143838181D01*
X22737000Y-143865061D01*
X22689547Y-143874500D01*
X17774019Y-143874500D01*
X910453Y-143874500D01*
X863000Y-143865061D01*
X822772Y-143838181D01*
X628065Y-143643474D01*
X596300Y-143589091D01*
X595349Y-143526117D01*
X625457Y-143470799D01*
X678854Y-143437408D01*
X739606Y-143418478D01*
X885185Y-143330472D01*
X987674Y-143227982D01*
X1043260Y-143195890D01*
X1107448Y-143195890D01*
X1163036Y-143227984D01*
X1265126Y-143330075D01*
X1410603Y-143418019D01*
X1572893Y-143468590D01*
X1643424Y-143475000D01*
X1650000Y-143475000D01*
X1650000Y-142750000D01*
X2150000Y-142750000D01*
X2150000Y-143474999D01*
X2156579Y-143474999D01*
X2227104Y-143468591D01*
X2389397Y-143418018D01*
X2534875Y-143330074D01*
X2655074Y-143209875D01*
X2743019Y-143064396D01*
X2793590Y-142902106D01*
X2800000Y-142831576D01*
X2800000Y-142750000D01*
X2150000Y-142750000D01*
X1650000Y-142750000D01*
X1650000Y-141525001D01*
X1643421Y-141525001D01*
X1572895Y-141531408D01*
X1410602Y-141581981D01*
X1265124Y-141669925D01*
X1163035Y-141772015D01*
X1107448Y-141804109D01*
X1043260Y-141804109D01*
X987673Y-141772015D01*
X911819Y-141696161D01*
X884939Y-141655933D01*
X875500Y-141608480D01*
X875500Y-141525000D01*
X2150000Y-141525000D01*
X2150000Y-142250000D01*
X2799999Y-142250000D01*
X2799999Y-142168421D01*
X2793591Y-142097895D01*
X2743018Y-141935602D01*
X2655074Y-141790124D01*
X2534875Y-141669925D01*
X2389396Y-141581980D01*
X2227106Y-141531409D01*
X2156576Y-141525000D01*
X2150000Y-141525000D01*
X875500Y-141525000D01*
X875500Y-140959452D01*
X889015Y-140903157D01*
X926615Y-140859134D01*
X980102Y-140836979D01*
X1037818Y-140841521D01*
X1087181Y-140871771D01*
X1099197Y-140883787D01*
X1112098Y-140899889D01*
X1114212Y-140901874D01*
X1114214Y-140901877D01*
X1161561Y-140946339D01*
X1163240Y-140947916D01*
X1166036Y-140950626D01*
X1185530Y-140970120D01*
X1188704Y-140972582D01*
X1197568Y-140980153D01*
X1229418Y-141010062D01*
X1239914Y-141015832D01*
X1246974Y-141019714D01*
X1263231Y-141030392D01*
X1279064Y-141042674D01*
X1295185Y-141049649D01*
X1319156Y-141060023D01*
X1329643Y-141065160D01*
X1367908Y-141086197D01*
X1387316Y-141091180D01*
X1405710Y-141097478D01*
X1424105Y-141105438D01*
X1467254Y-141112271D01*
X1478680Y-141114638D01*
X1494222Y-141118629D01*
X1520980Y-141125500D01*
X1520981Y-141125500D01*
X1541016Y-141125500D01*
X1560413Y-141127026D01*
X1580196Y-141130160D01*
X1623674Y-141126050D01*
X1635344Y-141125500D01*
X3517256Y-141125500D01*
X3537762Y-141127764D01*
X3540665Y-141127672D01*
X3540667Y-141127673D01*
X3607872Y-141125561D01*
X3611768Y-141125500D01*
X3639349Y-141125500D01*
X3639350Y-141125500D01*
X3643319Y-141124998D01*
X3654965Y-141124080D01*
X3698627Y-141122709D01*
X3717859Y-141117120D01*
X3736918Y-141113174D01*
X3744091Y-141112268D01*
X3756792Y-141110664D01*
X3797407Y-141094582D01*
X3808444Y-141090803D01*
X3850390Y-141078618D01*
X3867629Y-141068422D01*
X3885102Y-141059862D01*
X3903732Y-141052486D01*
X3939064Y-141026814D01*
X3948830Y-141020400D01*
X3986418Y-140998171D01*
X3986417Y-140998171D01*
X3986420Y-140998170D01*
X4000585Y-140984004D01*
X4015373Y-140971373D01*
X4031587Y-140959594D01*
X4059438Y-140925926D01*
X4067279Y-140917309D01*
X4418786Y-140565802D01*
X4434881Y-140552910D01*
X4436873Y-140550788D01*
X4436877Y-140550786D01*
X4482948Y-140501723D01*
X4485566Y-140499023D01*
X4505120Y-140479471D01*
X4507581Y-140476298D01*
X4515156Y-140467427D01*
X4545062Y-140435582D01*
X4554712Y-140418027D01*
X4565400Y-140401757D01*
X4577671Y-140385938D01*
X4577673Y-140385936D01*
X4595026Y-140345832D01*
X4600157Y-140335362D01*
X4621197Y-140297092D01*
X4626175Y-140277699D01*
X4632481Y-140259282D01*
X4634018Y-140255728D01*
X4640438Y-140240896D01*
X4647272Y-140197745D01*
X4649635Y-140186331D01*
X4660500Y-140144019D01*
X4660500Y-140123984D01*
X4662027Y-140104585D01*
X4665160Y-140084804D01*
X4661050Y-140041325D01*
X4660500Y-140029656D01*
X4660500Y-138955870D01*
X4673846Y-138899909D01*
X4711010Y-138855994D01*
X4763993Y-138833578D01*
X4821386Y-138837483D01*
X4922804Y-138869086D01*
X4967271Y-138873127D01*
X4993383Y-138875500D01*
X4993384Y-138875500D01*
X5506616Y-138875500D01*
X5506617Y-138875500D01*
X5524260Y-138873896D01*
X5577196Y-138869086D01*
X5739606Y-138818478D01*
X5885185Y-138730472D01*
X5987674Y-138627982D01*
X6043260Y-138595890D01*
X6107448Y-138595890D01*
X6163036Y-138627984D01*
X6265126Y-138730075D01*
X6410603Y-138818019D01*
X6572893Y-138868590D01*
X6643424Y-138875000D01*
X6650000Y-138875000D01*
X6650000Y-138150000D01*
X7150000Y-138150000D01*
X7150000Y-138874999D01*
X7156579Y-138874999D01*
X7227104Y-138868591D01*
X7389397Y-138818018D01*
X7534875Y-138730074D01*
X7655074Y-138609875D01*
X7743019Y-138464396D01*
X7793590Y-138302106D01*
X7800000Y-138231576D01*
X7800000Y-138150000D01*
X7150000Y-138150000D01*
X6650000Y-138150000D01*
X6650000Y-136925001D01*
X6643421Y-136925001D01*
X6572895Y-136931408D01*
X6410602Y-136981981D01*
X6265124Y-137069925D01*
X6163035Y-137172015D01*
X6107448Y-137204109D01*
X6043260Y-137204109D01*
X5987673Y-137172015D01*
X5885186Y-137069528D01*
X5769691Y-136999709D01*
X5739606Y-136981522D01*
X5578785Y-136931409D01*
X5577193Y-136930913D01*
X5512120Y-136925000D01*
X7150000Y-136925000D01*
X7150000Y-137650000D01*
X7799999Y-137650000D01*
X7799999Y-137568421D01*
X7793591Y-137497895D01*
X7743018Y-137335602D01*
X7655074Y-137190124D01*
X7534875Y-137069925D01*
X7389396Y-136981980D01*
X7227106Y-136931409D01*
X7156576Y-136925000D01*
X7150000Y-136925000D01*
X5512120Y-136925000D01*
X5506617Y-136924500D01*
X5506616Y-136924500D01*
X4993384Y-136924500D01*
X4993383Y-136924500D01*
X4922806Y-136930913D01*
X4760390Y-136981523D01*
X4730307Y-136999709D01*
X4672152Y-137017446D01*
X4612556Y-137005407D01*
X4565848Y-136966486D01*
X4561809Y-136960927D01*
X4555409Y-136951184D01*
X4533170Y-136913579D01*
X4519006Y-136899415D01*
X4506369Y-136884620D01*
X4502852Y-136879779D01*
X4494594Y-136868413D01*
X4494593Y-136868412D01*
X4485387Y-136855741D01*
X4488188Y-136853705D01*
X4467231Y-136824216D01*
X4461189Y-136760315D01*
X4487907Y-136701954D01*
X4509421Y-136675947D01*
X4517280Y-136667310D01*
X4520120Y-136664471D01*
X4520120Y-136664469D01*
X4534343Y-136650249D01*
X4534351Y-136650238D01*
X4570617Y-136613973D01*
X4616671Y-136584851D01*
X4670762Y-136578283D01*
X4722446Y-136595537D01*
X4760394Y-136618478D01*
X4922804Y-136669086D01*
X4948730Y-136671442D01*
X4993383Y-136675500D01*
X4993384Y-136675500D01*
X5506616Y-136675500D01*
X5506617Y-136675500D01*
X5524260Y-136673896D01*
X5577196Y-136669086D01*
X5739606Y-136618478D01*
X5885185Y-136530472D01*
X5987674Y-136427982D01*
X6043260Y-136395890D01*
X6107448Y-136395890D01*
X6163036Y-136427984D01*
X6265126Y-136530075D01*
X6410603Y-136618019D01*
X6572893Y-136668590D01*
X6643424Y-136675000D01*
X6650000Y-136675000D01*
X6650000Y-135950000D01*
X7150000Y-135950000D01*
X7150000Y-136674999D01*
X7156579Y-136674999D01*
X7227104Y-136668591D01*
X7389397Y-136618018D01*
X7534875Y-136530074D01*
X7655074Y-136409875D01*
X7743019Y-136264396D01*
X7793590Y-136102106D01*
X7800000Y-136031576D01*
X7800000Y-135950000D01*
X7150000Y-135950000D01*
X6650000Y-135950000D01*
X6650000Y-134725001D01*
X6643421Y-134725001D01*
X6572895Y-134731408D01*
X6410602Y-134781981D01*
X6265124Y-134869925D01*
X6163035Y-134972015D01*
X6107448Y-135004109D01*
X6043260Y-135004109D01*
X5987673Y-134972015D01*
X5885186Y-134869528D01*
X5765709Y-134797302D01*
X5739606Y-134781522D01*
X5578785Y-134731409D01*
X5577193Y-134730913D01*
X5512120Y-134725000D01*
X7150000Y-134725000D01*
X7150000Y-135450000D01*
X7799999Y-135450000D01*
X7799999Y-135368421D01*
X7793591Y-135297895D01*
X7743018Y-135135602D01*
X7655074Y-134990124D01*
X7534875Y-134869925D01*
X7389396Y-134781980D01*
X7227106Y-134731409D01*
X7156576Y-134725000D01*
X7150000Y-134725000D01*
X5512120Y-134725000D01*
X5506617Y-134724500D01*
X5506616Y-134724500D01*
X4993384Y-134724500D01*
X4993383Y-134724500D01*
X4922806Y-134730913D01*
X4841599Y-134756217D01*
X4760394Y-134781522D01*
X4760392Y-134781522D01*
X4760392Y-134781523D01*
X4613650Y-134870232D01*
X4551373Y-134888101D01*
X4488584Y-134872121D01*
X4442426Y-134826655D01*
X4425500Y-134764115D01*
X4425500Y-133132740D01*
X4427763Y-133112236D01*
X4425561Y-133042144D01*
X4425500Y-133038250D01*
X4425500Y-133010657D01*
X4425500Y-133010650D01*
X4424995Y-133006653D01*
X4424080Y-132995023D01*
X4422709Y-132951372D01*
X4417119Y-132932134D01*
X4413174Y-132913082D01*
X4410664Y-132893208D01*
X4410663Y-132893207D01*
X4394578Y-132852581D01*
X4390805Y-132841560D01*
X4378617Y-132799610D01*
X4368421Y-132782369D01*
X4359863Y-132764902D01*
X4352486Y-132746268D01*
X4326798Y-132710912D01*
X4320409Y-132701184D01*
X4298170Y-132663579D01*
X4284006Y-132649415D01*
X4271369Y-132634620D01*
X4259595Y-132618414D01*
X4259594Y-132618413D01*
X4225935Y-132590568D01*
X4217305Y-132582714D01*
X3750802Y-132116211D01*
X3737906Y-132100113D01*
X3686775Y-132052098D01*
X3683978Y-132049387D01*
X3664470Y-132029879D01*
X3661290Y-132027412D01*
X3652424Y-132019839D01*
X3620582Y-131989938D01*
X3603024Y-131980285D01*
X3586764Y-131969604D01*
X3570936Y-131957327D01*
X3530851Y-131939980D01*
X3520361Y-131934841D01*
X3482091Y-131913802D01*
X3462691Y-131908821D01*
X3444284Y-131902519D01*
X3425897Y-131894562D01*
X3382758Y-131887729D01*
X3371324Y-131885361D01*
X3329019Y-131874500D01*
X3308984Y-131874500D01*
X3289586Y-131872973D01*
X3282162Y-131871797D01*
X3269805Y-131869840D01*
X3269804Y-131869840D01*
X3236751Y-131872964D01*
X3226325Y-131873950D01*
X3214656Y-131874500D01*
X-1170981Y-131874500D01*
X-1191016Y-131874500D01*
X-1210414Y-131872973D01*
X-1217838Y-131871797D01*
X-1230195Y-131869840D01*
X-1230196Y-131869840D01*
X-1263249Y-131872964D01*
X-1273675Y-131873950D01*
X-1285344Y-131874500D01*
X-5796253Y-131874500D01*
X-5846688Y-131863780D01*
X-5888402Y-131833473D01*
X-5894129Y-131827112D01*
X-6047270Y-131715849D01*
X-6047271Y-131715848D01*
X-6047273Y-131715847D01*
X-6220198Y-131638855D01*
X-6405352Y-131599500D01*
X-6405354Y-131599500D01*
X-6594646Y-131599500D01*
X-6594648Y-131599500D01*
X-6779803Y-131638855D01*
X-6952731Y-131715848D01*
X-7105871Y-131827110D01*
X-7156618Y-131883472D01*
X-7198333Y-131913780D01*
X-7248768Y-131924500D01*
X-7254160Y-131924500D01*
X-7270345Y-131923439D01*
X-7300000Y-131919534D01*
X-7329655Y-131923439D01*
X-7329667Y-131923439D01*
X-7450238Y-131939313D01*
X-7491240Y-131956297D01*
X-7491242Y-131956297D01*
X-7590233Y-131997300D01*
X-7676987Y-132063870D01*
X-7677019Y-132063893D01*
X-7710451Y-132089547D01*
X-7728666Y-132113285D01*
X-7739359Y-132125477D01*
X-8162819Y-132548939D01*
X-8212182Y-132579189D01*
X-8269898Y-132583731D01*
X-8323385Y-132561576D01*
X-8360985Y-132517553D01*
X-8374500Y-132461258D01*
X-8374500Y-131249500D01*
X-8357887Y-131187500D01*
X-8312500Y-131142113D01*
X-8250500Y-131125500D01*
X-4579019Y-131125500D01*
X-4460650Y-131125500D01*
X-4379019Y-131125500D01*
X-4358984Y-131125500D01*
X-4339585Y-131127027D01*
G37*
%TD.AperFunction*%
%TA.AperFunction,Conductor*%
G36*
X-2301518Y-112641354D02*
G01*
X-2261678Y-112675876D01*
X-2209963Y-112744959D01*
X-2093065Y-112832468D01*
X-1956252Y-112883497D01*
X-1895769Y-112890000D01*
X-1547829Y-112890000D01*
X-1542823Y-112886932D01*
X-1485106Y-112882387D01*
X-1431617Y-112904541D01*
X-1394016Y-112948565D01*
X-1380500Y-113004861D01*
X-1380500Y-113405814D01*
X-1376210Y-113445715D01*
X-1375500Y-113458968D01*
X-1375500Y-118167256D01*
X-1377765Y-118187762D01*
X-1375561Y-118257873D01*
X-1375500Y-118261768D01*
X-1375500Y-118289349D01*
X-1374997Y-118293334D01*
X-1374082Y-118304967D01*
X-1372710Y-118348626D01*
X-1367121Y-118367860D01*
X-1363175Y-118386916D01*
X-1360665Y-118406792D01*
X-1344586Y-118447404D01*
X-1340803Y-118458451D01*
X-1328618Y-118500391D01*
X-1318420Y-118517635D01*
X-1309864Y-118535100D01*
X-1302486Y-118553732D01*
X-1302485Y-118553733D01*
X-1276820Y-118589059D01*
X-1270407Y-118598822D01*
X-1248174Y-118636416D01*
X-1248171Y-118636419D01*
X-1248170Y-118636420D01*
X-1234005Y-118650585D01*
X-1221373Y-118665375D01*
X-1209594Y-118681587D01*
X-1175942Y-118709426D01*
X-1167301Y-118717289D01*
X499197Y-120383787D01*
X512098Y-120399889D01*
X514212Y-120401874D01*
X514214Y-120401877D01*
X540996Y-120427027D01*
X563240Y-120447916D01*
X566036Y-120450626D01*
X585530Y-120470120D01*
X588704Y-120472582D01*
X597568Y-120480153D01*
X629418Y-120510062D01*
X639914Y-120515832D01*
X646974Y-120519714D01*
X663231Y-120530392D01*
X679064Y-120542674D01*
X695185Y-120549649D01*
X719156Y-120560023D01*
X729643Y-120565160D01*
X767908Y-120586197D01*
X787316Y-120591180D01*
X805710Y-120597478D01*
X824105Y-120605438D01*
X867254Y-120612271D01*
X878680Y-120614638D01*
X894222Y-120618629D01*
X920980Y-120625500D01*
X920981Y-120625500D01*
X941016Y-120625500D01*
X960413Y-120627026D01*
X980196Y-120630160D01*
X1023674Y-120626050D01*
X1035344Y-120625500D01*
X17920981Y-120625500D01*
X18039350Y-120625500D01*
X22220981Y-120625500D01*
X22317256Y-120625500D01*
X22337762Y-120627764D01*
X22340665Y-120627672D01*
X22340667Y-120627673D01*
X22407872Y-120625561D01*
X22411768Y-120625500D01*
X22439349Y-120625500D01*
X22439350Y-120625500D01*
X22443319Y-120624998D01*
X22454965Y-120624080D01*
X22498627Y-120622709D01*
X22517859Y-120617120D01*
X22536918Y-120613174D01*
X22544091Y-120612268D01*
X22556792Y-120610664D01*
X22597407Y-120594582D01*
X22608444Y-120590803D01*
X22650390Y-120578618D01*
X22667629Y-120568422D01*
X22685102Y-120559862D01*
X22703732Y-120552486D01*
X22739064Y-120526814D01*
X22748830Y-120520400D01*
X22786418Y-120498171D01*
X22786417Y-120498171D01*
X22786420Y-120498170D01*
X22800585Y-120484004D01*
X22815373Y-120471373D01*
X22831587Y-120459594D01*
X22859438Y-120425926D01*
X22867279Y-120417309D01*
X24162320Y-119122269D01*
X24217905Y-119090177D01*
X24282093Y-119090177D01*
X24337680Y-119122271D01*
X25399196Y-120183787D01*
X25412096Y-120199888D01*
X25463223Y-120247900D01*
X25466020Y-120250611D01*
X25485529Y-120270120D01*
X25488711Y-120272588D01*
X25497571Y-120280155D01*
X25529418Y-120310062D01*
X25546970Y-120319711D01*
X25563238Y-120330397D01*
X25579064Y-120342673D01*
X25619146Y-120360017D01*
X25629633Y-120365155D01*
X25667907Y-120386197D01*
X25676410Y-120388379D01*
X25687308Y-120391178D01*
X25705713Y-120397478D01*
X25724104Y-120405437D01*
X25767250Y-120412270D01*
X25778668Y-120414635D01*
X25820981Y-120425500D01*
X25841016Y-120425500D01*
X25860415Y-120427027D01*
X25880196Y-120430160D01*
X25923674Y-120426050D01*
X25935344Y-120425500D01*
X28753652Y-120425500D01*
X28774158Y-120427764D01*
X28777061Y-120427672D01*
X28777063Y-120427673D01*
X28844268Y-120425561D01*
X28848164Y-120425500D01*
X28875745Y-120425500D01*
X28875746Y-120425500D01*
X28879715Y-120424998D01*
X28891361Y-120424080D01*
X28935023Y-120422709D01*
X28954255Y-120417120D01*
X28973314Y-120413174D01*
X28980495Y-120412267D01*
X28993188Y-120410664D01*
X29033803Y-120394582D01*
X29044840Y-120390803D01*
X29086786Y-120378618D01*
X29104025Y-120368422D01*
X29121498Y-120359862D01*
X29140128Y-120352486D01*
X29175460Y-120326814D01*
X29185226Y-120320400D01*
X29222814Y-120298171D01*
X29222813Y-120298171D01*
X29222816Y-120298170D01*
X29236981Y-120284004D01*
X29251769Y-120271373D01*
X29267983Y-120259594D01*
X29295834Y-120225926D01*
X29303675Y-120217309D01*
X31662818Y-117858168D01*
X31712182Y-117827918D01*
X31769898Y-117823376D01*
X31823385Y-117845531D01*
X31860985Y-117889554D01*
X31874500Y-117945849D01*
X31874500Y-135285188D01*
X31860985Y-135341483D01*
X31823385Y-135385506D01*
X31769898Y-135407661D01*
X31712182Y-135403119D01*
X31662819Y-135372869D01*
X31659875Y-135369925D01*
X31514396Y-135281980D01*
X31352106Y-135231409D01*
X31281576Y-135225000D01*
X31275000Y-135225000D01*
X31275000Y-137174999D01*
X31281579Y-137174999D01*
X31352104Y-137168591D01*
X31514397Y-137118018D01*
X31659875Y-137030074D01*
X31662819Y-137027131D01*
X31712182Y-136996881D01*
X31769898Y-136992339D01*
X31823385Y-137014494D01*
X31860985Y-137058517D01*
X31874500Y-137114812D01*
X31874500Y-138304248D01*
X31857574Y-138366788D01*
X31811416Y-138412254D01*
X31748627Y-138428234D01*
X31686350Y-138410365D01*
X31639396Y-138381980D01*
X31477106Y-138331409D01*
X31406576Y-138325000D01*
X31400000Y-138325000D01*
X31400000Y-140274999D01*
X31406579Y-140274999D01*
X31477104Y-140268591D01*
X31639397Y-140218018D01*
X31686350Y-140189635D01*
X31748627Y-140171766D01*
X31811416Y-140187746D01*
X31857574Y-140233212D01*
X31874500Y-140295752D01*
X31874500Y-142189547D01*
X31865061Y-142237000D01*
X31838181Y-142277228D01*
X30410778Y-143704630D01*
X30356234Y-143736439D01*
X30293097Y-143737265D01*
X30237739Y-143706893D01*
X30204514Y-143653199D01*
X30202037Y-143590106D01*
X30226036Y-143543513D01*
X30226017Y-143543503D01*
X30226245Y-143543106D01*
X30230949Y-143533974D01*
X30232533Y-143532216D01*
X30327179Y-143368284D01*
X30385674Y-143188256D01*
X30405460Y-143000000D01*
X30385674Y-142811744D01*
X30327179Y-142631716D01*
X30327179Y-142631715D01*
X30232533Y-142467783D01*
X30105870Y-142327110D01*
X29952730Y-142215848D01*
X29779802Y-142138855D01*
X29594648Y-142099500D01*
X29594646Y-142099500D01*
X29535452Y-142099500D01*
X29487999Y-142090061D01*
X29447771Y-142063181D01*
X26411819Y-139027228D01*
X26384939Y-138987000D01*
X26375500Y-138939547D01*
X26375500Y-138458965D01*
X26376211Y-138445708D01*
X26377849Y-138430471D01*
X26380500Y-138405817D01*
X26380499Y-138004857D01*
X26394014Y-137948565D01*
X26431613Y-137904542D01*
X26485101Y-137882387D01*
X26542817Y-137886929D01*
X26547827Y-137889999D01*
X26895769Y-137889999D01*
X26956250Y-137883497D01*
X27093065Y-137832468D01*
X27209960Y-137744960D01*
X27297468Y-137628064D01*
X27348497Y-137491251D01*
X27353336Y-137446246D01*
X27373935Y-137389998D01*
X27418498Y-137349969D01*
X27476626Y-137335500D01*
X27945258Y-137335500D01*
X27992711Y-137344939D01*
X28032939Y-137371819D01*
X28888181Y-138227061D01*
X28915061Y-138267289D01*
X28924500Y-138314742D01*
X28924500Y-138363511D01*
X28908505Y-138424428D01*
X28875265Y-138458685D01*
X28875461Y-138458881D01*
X28744528Y-138589813D01*
X28656523Y-138735392D01*
X28605913Y-138897806D01*
X28599500Y-138968383D01*
X28599500Y-139631617D01*
X28605913Y-139702193D01*
X28605914Y-139702196D01*
X28656522Y-139864606D01*
X28656523Y-139864607D01*
X28744528Y-140010186D01*
X28864813Y-140130471D01*
X28864815Y-140130472D01*
X29010394Y-140218478D01*
X29172804Y-140269086D01*
X29219857Y-140273361D01*
X29243383Y-140275500D01*
X29243384Y-140275500D01*
X29756616Y-140275500D01*
X29756617Y-140275500D01*
X29774260Y-140273896D01*
X29827196Y-140269086D01*
X29989606Y-140218478D01*
X30135185Y-140130472D01*
X30237674Y-140027982D01*
X30293260Y-139995890D01*
X30357448Y-139995890D01*
X30413036Y-140027984D01*
X30515126Y-140130075D01*
X30660603Y-140218019D01*
X30822893Y-140268590D01*
X30893424Y-140275000D01*
X30900000Y-140275000D01*
X30900000Y-138325001D01*
X30893421Y-138325001D01*
X30822895Y-138331408D01*
X30660602Y-138381981D01*
X30515124Y-138469925D01*
X30413035Y-138572015D01*
X30357448Y-138604109D01*
X30293260Y-138604109D01*
X30237673Y-138572015D01*
X30124539Y-138458881D01*
X30124734Y-138458685D01*
X30091495Y-138424428D01*
X30075500Y-138363511D01*
X30075500Y-138045846D01*
X30076561Y-138029660D01*
X30080466Y-137999999D01*
X30060687Y-137849764D01*
X30023084Y-137758984D01*
X30002698Y-137709767D01*
X29910451Y-137589549D01*
X29910449Y-137589548D01*
X29910449Y-137589547D01*
X29779269Y-137488889D01*
X29767074Y-137478194D01*
X29661032Y-137372152D01*
X29629267Y-137317769D01*
X29628316Y-137254795D01*
X29658424Y-137199477D01*
X29711821Y-137166086D01*
X29864606Y-137118478D01*
X30010185Y-137030472D01*
X30112674Y-136927982D01*
X30168260Y-136895890D01*
X30232448Y-136895890D01*
X30288036Y-136927984D01*
X30390126Y-137030075D01*
X30535603Y-137118019D01*
X30697893Y-137168590D01*
X30768424Y-137175000D01*
X30775000Y-137175000D01*
X30775000Y-135225001D01*
X30768421Y-135225001D01*
X30697895Y-135231408D01*
X30535602Y-135281981D01*
X30390124Y-135369925D01*
X30288035Y-135472015D01*
X30232448Y-135504109D01*
X30168260Y-135504109D01*
X30112673Y-135472015D01*
X30010186Y-135369528D01*
X29891690Y-135297895D01*
X29864606Y-135281522D01*
X29703785Y-135231409D01*
X29702193Y-135230913D01*
X29631617Y-135224500D01*
X29631616Y-135224500D01*
X29118384Y-135224500D01*
X29118383Y-135224500D01*
X29047806Y-135230913D01*
X28966599Y-135256217D01*
X28885394Y-135281522D01*
X28885392Y-135281522D01*
X28885392Y-135281523D01*
X28739813Y-135369528D01*
X28619528Y-135489813D01*
X28538017Y-135624650D01*
X28492816Y-135668506D01*
X28431900Y-135684500D01*
X27476625Y-135684500D01*
X27418497Y-135670031D01*
X27373933Y-135630001D01*
X27353335Y-135573752D01*
X27348497Y-135528749D01*
X27297468Y-135391934D01*
X27209960Y-135275039D01*
X27093064Y-135187531D01*
X26956251Y-135136502D01*
X26895769Y-135130000D01*
X26565000Y-135130000D01*
X26565000Y-135505500D01*
X26548389Y-135567497D01*
X26503006Y-135612884D01*
X26441010Y-135629500D01*
X26435010Y-135629500D01*
X26429008Y-135629500D01*
X26367006Y-135612892D01*
X26321615Y-135567504D01*
X26305000Y-135505501D01*
X26305000Y-135205000D01*
X25744000Y-135205000D01*
X25682000Y-135188387D01*
X25636613Y-135143000D01*
X25620000Y-135081000D01*
X25620000Y-134155001D01*
X25579228Y-134155001D01*
X25513252Y-134162092D01*
X25486956Y-134162114D01*
X25486455Y-134162061D01*
X25467090Y-134155000D01*
X25880000Y-134155000D01*
X25880000Y-134945000D01*
X26379999Y-134945000D01*
X26379999Y-134614231D01*
X26373497Y-134553749D01*
X26322468Y-134416934D01*
X26234960Y-134300039D01*
X26118064Y-134212531D01*
X25981251Y-134161502D01*
X25920769Y-134155000D01*
X25880000Y-134155000D01*
X25467090Y-134155000D01*
X25430114Y-134141518D01*
X25390001Y-134096939D01*
X25375500Y-134038749D01*
X25375500Y-133749500D01*
X25392113Y-133687500D01*
X25437500Y-133642113D01*
X25499500Y-133625500D01*
X28503844Y-133625500D01*
X28554279Y-133636220D01*
X28595994Y-133666528D01*
X28621775Y-133711182D01*
X28672820Y-133868284D01*
X28767466Y-134032216D01*
X28894129Y-134172889D01*
X29047269Y-134284151D01*
X29220197Y-134361144D01*
X29405352Y-134400500D01*
X29405354Y-134400500D01*
X29594646Y-134400500D01*
X29594648Y-134400500D01*
X29718084Y-134374262D01*
X29779803Y-134361144D01*
X29952730Y-134284151D01*
X30105871Y-134172888D01*
X30232533Y-134032216D01*
X30327179Y-133868284D01*
X30385674Y-133688256D01*
X30405460Y-133500000D01*
X30385674Y-133311744D01*
X30336960Y-133161819D01*
X30327179Y-133131715D01*
X30232533Y-132967783D01*
X30105870Y-132827110D01*
X29952730Y-132715848D01*
X29779802Y-132638855D01*
X29594648Y-132599500D01*
X29594646Y-132599500D01*
X29536348Y-132599500D01*
X29490700Y-132590792D01*
X29451464Y-132565892D01*
X29436775Y-132552098D01*
X29433978Y-132549387D01*
X29414470Y-132529879D01*
X29411290Y-132527412D01*
X29402424Y-132519839D01*
X29370582Y-132489938D01*
X29353024Y-132480285D01*
X29336764Y-132469604D01*
X29320936Y-132457327D01*
X29280851Y-132439980D01*
X29270361Y-132434841D01*
X29232091Y-132413802D01*
X29212691Y-132408821D01*
X29194284Y-132402519D01*
X29175897Y-132394562D01*
X29132758Y-132387729D01*
X29121324Y-132385361D01*
X29079019Y-132374500D01*
X29058984Y-132374500D01*
X29039586Y-132372973D01*
X29032162Y-132371797D01*
X29019805Y-132369840D01*
X29019804Y-132369840D01*
X28993484Y-132372328D01*
X28976325Y-132373950D01*
X28964656Y-132374500D01*
X25079019Y-132374500D01*
X24579019Y-132374500D01*
X24558984Y-132374500D01*
X24539586Y-132372973D01*
X24532162Y-132371797D01*
X24519805Y-132369840D01*
X24519804Y-132369840D01*
X24493484Y-132372328D01*
X24476325Y-132373950D01*
X24464656Y-132374500D01*
X19379019Y-132374500D01*
X17182740Y-132374500D01*
X17162236Y-132372236D01*
X17092144Y-132374439D01*
X17088250Y-132374500D01*
X17060648Y-132374500D01*
X17056653Y-132375004D01*
X17045029Y-132375918D01*
X17001368Y-132377290D01*
X16982128Y-132382880D01*
X16963081Y-132386825D01*
X16943209Y-132389335D01*
X16902599Y-132405413D01*
X16891554Y-132409194D01*
X16849611Y-132421380D01*
X16832369Y-132431578D01*
X16814897Y-132440138D01*
X16796266Y-132447514D01*
X16760938Y-132473181D01*
X16751180Y-132479591D01*
X16713579Y-132501829D01*
X16699410Y-132515998D01*
X16684622Y-132528628D01*
X16668413Y-132540405D01*
X16640572Y-132574058D01*
X16632711Y-132582696D01*
X15729880Y-133485529D01*
X14537181Y-134678228D01*
X14487818Y-134708478D01*
X14430102Y-134713020D01*
X14376615Y-134690865D01*
X14339015Y-134646842D01*
X14325500Y-134590547D01*
X14325500Y-133782740D01*
X14327763Y-133762236D01*
X14325561Y-133692144D01*
X14325500Y-133688250D01*
X14325500Y-133660657D01*
X14325500Y-133660650D01*
X14324995Y-133656653D01*
X14324080Y-133645023D01*
X14323989Y-133642113D01*
X14322709Y-133601372D01*
X14317119Y-133582134D01*
X14313174Y-133563082D01*
X14310664Y-133543208D01*
X14310663Y-133543207D01*
X14294578Y-133502581D01*
X14290805Y-133491560D01*
X14278617Y-133449610D01*
X14268421Y-133432369D01*
X14259863Y-133414902D01*
X14252486Y-133396268D01*
X14226798Y-133360912D01*
X14220409Y-133351184D01*
X14198170Y-133313579D01*
X14184006Y-133299415D01*
X14171369Y-133284620D01*
X14159595Y-133268414D01*
X14159594Y-133268413D01*
X14125935Y-133240568D01*
X14117305Y-133232714D01*
X11000802Y-130116211D01*
X10987906Y-130100113D01*
X10936775Y-130052098D01*
X10933978Y-130049387D01*
X10914470Y-130029879D01*
X10911290Y-130027412D01*
X10902424Y-130019839D01*
X10870582Y-129989938D01*
X10853024Y-129980285D01*
X10836764Y-129969604D01*
X10820936Y-129957327D01*
X10780851Y-129939980D01*
X10770361Y-129934841D01*
X10732091Y-129913802D01*
X10712691Y-129908821D01*
X10694284Y-129902519D01*
X10675897Y-129894562D01*
X10632758Y-129887729D01*
X10621324Y-129885361D01*
X10579019Y-129874500D01*
X10558984Y-129874500D01*
X10539586Y-129872973D01*
X10525689Y-129870772D01*
X10519805Y-129869840D01*
X10519804Y-129869840D01*
X10493738Y-129872304D01*
X10476325Y-129873950D01*
X10464656Y-129874500D01*
X-3989547Y-129874500D01*
X-4037000Y-129865061D01*
X-4077228Y-129838181D01*
X-6647729Y-127267680D01*
X-6679823Y-127212093D01*
X-6679823Y-127147905D01*
X-6647729Y-127092318D01*
X-5479911Y-125924500D01*
X-4216211Y-124660800D01*
X-4200115Y-124647906D01*
X-4198127Y-124645787D01*
X-4198123Y-124645786D01*
X-4152052Y-124596723D01*
X-4149434Y-124594023D01*
X-4129880Y-124574471D01*
X-4127419Y-124571298D01*
X-4119844Y-124562427D01*
X-4089938Y-124530582D01*
X-4080288Y-124513027D01*
X-4069600Y-124496757D01*
X-4057327Y-124480936D01*
X-4039974Y-124440832D01*
X-4034843Y-124430362D01*
X-4029936Y-124421437D01*
X-4013803Y-124392092D01*
X-4008825Y-124372699D01*
X-4002519Y-124354282D01*
X-3995551Y-124338181D01*
X-3994562Y-124335896D01*
X-3987728Y-124292745D01*
X-3985365Y-124281331D01*
X-3974500Y-124239019D01*
X-3974500Y-124218984D01*
X-3972973Y-124199585D01*
X-3971179Y-124188256D01*
X-3969840Y-124179804D01*
X-3973950Y-124136325D01*
X-3974500Y-124124656D01*
X-3974500Y-123360648D01*
X-3989336Y-123243207D01*
X-4015792Y-123176387D01*
X-4024500Y-123130740D01*
X-4024500Y-117689742D01*
X-4015061Y-117642289D01*
X-3988181Y-117602061D01*
X-3772837Y-117386717D01*
X-3125472Y-116739350D01*
X-3113294Y-116728670D01*
X-3089549Y-116710451D01*
X-3086281Y-116706191D01*
X-3078892Y-116696563D01*
X-3078891Y-116696562D01*
X-3062792Y-116675582D01*
X-2997301Y-116590233D01*
X-2944100Y-116461792D01*
X-2939313Y-116450236D01*
X-2924500Y-116337720D01*
X-2923439Y-116329662D01*
X-2923439Y-116329655D01*
X-2919535Y-116300000D01*
X-2923439Y-116270345D01*
X-2924500Y-116254160D01*
X-2924500Y-113189742D01*
X-2915061Y-113142289D01*
X-2888181Y-113102061D01*
X-2668507Y-112882387D01*
X-2448624Y-112662503D01*
X-2404279Y-112634004D01*
X-2352099Y-112626502D01*
X-2301518Y-112641354D01*
G37*
%TD.AperFunction*%
%TA.AperFunction,Conductor*%
G36*
X3232001Y-137394939D02*
G01*
X3272226Y-137421816D01*
X3373183Y-137522774D01*
X3400061Y-137563001D01*
X3409500Y-137610453D01*
X3409500Y-139750500D01*
X3392887Y-139812500D01*
X3347500Y-139857887D01*
X3285500Y-139874500D01*
X1910452Y-139874500D01*
X1862999Y-139865061D01*
X1822771Y-139838181D01*
X1411819Y-139427228D01*
X1384939Y-139387000D01*
X1375500Y-139339547D01*
X1375500Y-138458965D01*
X1376211Y-138445708D01*
X1377849Y-138430471D01*
X1380500Y-138405817D01*
X1380499Y-138004857D01*
X1394014Y-137948565D01*
X1431613Y-137904542D01*
X1485101Y-137882387D01*
X1542817Y-137886929D01*
X1547827Y-137889999D01*
X1895769Y-137889999D01*
X1956250Y-137883497D01*
X2093065Y-137832468D01*
X2209960Y-137744960D01*
X2297468Y-137628064D01*
X2353941Y-137476658D01*
X2354990Y-137477049D01*
X2368560Y-137439997D01*
X2413123Y-137399968D01*
X2471251Y-137385500D01*
X2539350Y-137385500D01*
X3184548Y-137385500D01*
X3232001Y-137394939D01*
G37*
%TD.AperFunction*%
%TA.AperFunction,Conductor*%
G36*
X24062500Y-133642113D02*
G01*
X24107887Y-133687500D01*
X24124500Y-133749500D01*
X24124500Y-134038749D01*
X24110032Y-134096876D01*
X24070004Y-134141439D01*
X24032951Y-134155008D01*
X24033343Y-134156059D01*
X23881934Y-134212531D01*
X23765039Y-134300039D01*
X23677531Y-134416935D01*
X23626502Y-134553748D01*
X23620000Y-134614231D01*
X23620000Y-134995650D01*
X23605989Y-135052907D01*
X23567123Y-135097225D01*
X23512185Y-135118589D01*
X23475345Y-135123439D01*
X23459160Y-135124500D01*
X22589742Y-135124500D01*
X22542289Y-135115061D01*
X22502061Y-135088181D01*
X22339360Y-134925480D01*
X22328666Y-134913286D01*
X22310453Y-134889551D01*
X22310451Y-134889550D01*
X22310451Y-134889549D01*
X22280270Y-134866390D01*
X22280268Y-134866388D01*
X22190233Y-134797302D01*
X22152137Y-134781522D01*
X22050235Y-134739312D01*
X21929668Y-134723439D01*
X21929655Y-134723439D01*
X21900000Y-134719534D01*
X21870345Y-134723439D01*
X21854160Y-134724500D01*
X21031828Y-134724500D01*
X20970912Y-134708506D01*
X20925711Y-134664649D01*
X20880472Y-134589814D01*
X20760186Y-134469528D01*
X20645999Y-134400500D01*
X20614606Y-134381522D01*
X20453785Y-134331409D01*
X20452193Y-134330913D01*
X20381617Y-134324500D01*
X20381616Y-134324500D01*
X19868384Y-134324500D01*
X19868383Y-134324500D01*
X19797806Y-134330913D01*
X19716599Y-134356217D01*
X19635394Y-134381522D01*
X19635392Y-134381522D01*
X19635392Y-134381523D01*
X19489813Y-134469528D01*
X19387327Y-134572015D01*
X19331740Y-134604109D01*
X19267552Y-134604109D01*
X19211965Y-134572015D01*
X19109875Y-134469925D01*
X18964396Y-134381980D01*
X18802106Y-134331409D01*
X18731576Y-134325000D01*
X18725000Y-134325000D01*
X18725000Y-136274999D01*
X18731579Y-136274999D01*
X18802104Y-136268591D01*
X18964397Y-136218018D01*
X19109873Y-136130075D01*
X19211964Y-136027984D01*
X19267552Y-135995890D01*
X19331740Y-135995890D01*
X19387325Y-136027982D01*
X19489815Y-136130472D01*
X19635394Y-136218478D01*
X19797804Y-136269086D01*
X19844857Y-136273361D01*
X19868383Y-136275500D01*
X19868384Y-136275500D01*
X20011258Y-136275500D01*
X20067553Y-136289015D01*
X20111576Y-136326615D01*
X20133731Y-136380102D01*
X20129189Y-136437818D01*
X20098939Y-136487181D01*
X19657535Y-136928583D01*
X19606746Y-136959287D01*
X19535394Y-136981521D01*
X19389815Y-137069527D01*
X19287680Y-137171662D01*
X19232092Y-137203755D01*
X19167905Y-137203755D01*
X19112319Y-137171662D01*
X19010185Y-137069528D01*
X19010184Y-137069527D01*
X18903157Y-137004827D01*
X18864606Y-136981522D01*
X18703785Y-136931409D01*
X18702193Y-136930913D01*
X18631617Y-136924500D01*
X18631616Y-136924500D01*
X18118384Y-136924500D01*
X18118383Y-136924500D01*
X18047806Y-136930913D01*
X17968823Y-136955525D01*
X17885394Y-136981522D01*
X17885392Y-136981522D01*
X17885392Y-136981523D01*
X17739813Y-137069528D01*
X17619528Y-137189813D01*
X17535089Y-137329493D01*
X17531522Y-137335394D01*
X17520172Y-137371819D01*
X17480913Y-137497806D01*
X17474500Y-137568383D01*
X17474500Y-138089548D01*
X17465061Y-138137001D01*
X17438181Y-138177229D01*
X16777228Y-138838181D01*
X16737000Y-138865061D01*
X16689547Y-138874500D01*
X15810452Y-138874500D01*
X15762999Y-138865061D01*
X15722771Y-138838181D01*
X15161819Y-138277228D01*
X15134939Y-138237000D01*
X15125500Y-138189547D01*
X15125500Y-135910452D01*
X15134939Y-135862999D01*
X15161819Y-135822771D01*
X15434590Y-135550000D01*
X17575001Y-135550000D01*
X17575001Y-135631579D01*
X17581408Y-135702104D01*
X17631981Y-135864397D01*
X17719925Y-136009875D01*
X17840124Y-136130074D01*
X17985603Y-136218019D01*
X18147893Y-136268590D01*
X18218424Y-136275000D01*
X18225000Y-136275000D01*
X18225000Y-135550000D01*
X17575001Y-135550000D01*
X15434590Y-135550000D01*
X15896409Y-135088181D01*
X15934590Y-135050000D01*
X17575000Y-135050000D01*
X18225000Y-135050000D01*
X18225000Y-134325001D01*
X18218421Y-134325001D01*
X18147895Y-134331408D01*
X17985602Y-134381981D01*
X17840124Y-134469925D01*
X17719925Y-134590124D01*
X17631980Y-134735603D01*
X17581409Y-134897893D01*
X17575000Y-134968424D01*
X17575000Y-135050000D01*
X15934590Y-135050000D01*
X16670120Y-134314471D01*
X16670121Y-134314468D01*
X16680910Y-134303680D01*
X16680912Y-134303676D01*
X17322771Y-133661819D01*
X17363000Y-133634939D01*
X17410453Y-133625500D01*
X19020981Y-133625500D01*
X19220981Y-133625500D01*
X19339350Y-133625500D01*
X24000500Y-133625500D01*
X24062500Y-133642113D01*
G37*
%TD.AperFunction*%
%TA.AperFunction,Conductor*%
G36*
X-1512999Y-133134939D02*
G01*
X-1472771Y-133161819D01*
X-911819Y-133722771D01*
X-884939Y-133762999D01*
X-875500Y-133810452D01*
X-875500Y-134038749D01*
X-889968Y-134096876D01*
X-929996Y-134141439D01*
X-967049Y-134155008D01*
X-966657Y-134156059D01*
X-1118066Y-134212531D01*
X-1234961Y-134300039D01*
X-1322469Y-134416935D01*
X-1373498Y-134553748D01*
X-1380000Y-134614231D01*
X-1380000Y-134962174D01*
X-1376931Y-134967182D01*
X-1372389Y-135024898D01*
X-1394544Y-135078385D01*
X-1438567Y-135115985D01*
X-1494862Y-135129500D01*
X-1895814Y-135129500D01*
X-1956360Y-135136009D01*
X-2065407Y-135176682D01*
X-2108740Y-135184500D01*
X-3325258Y-135184500D01*
X-3372711Y-135175061D01*
X-3412939Y-135148181D01*
X-3638181Y-134922939D01*
X-3665061Y-134882711D01*
X-3674500Y-134835258D01*
X-3674500Y-134468383D01*
X-3676638Y-134444857D01*
X-3680914Y-134397804D01*
X-3731522Y-134235394D01*
X-3819528Y-134089815D01*
X-3819529Y-134089813D01*
X-3939814Y-133969528D01*
X-4084635Y-133881981D01*
X-4085394Y-133881522D01*
X-4246215Y-133831409D01*
X-4247807Y-133830913D01*
X-4318383Y-133824500D01*
X-4318384Y-133824500D01*
X-4831616Y-133824500D01*
X-4831617Y-133824500D01*
X-4902194Y-133830913D01*
X-4983402Y-133856218D01*
X-5064606Y-133881522D01*
X-5064608Y-133881522D01*
X-5064608Y-133881523D01*
X-5210187Y-133969528D01*
X-5312673Y-134072015D01*
X-5368260Y-134104109D01*
X-5432448Y-134104109D01*
X-5488035Y-134072015D01*
X-5590125Y-133969925D01*
X-5735604Y-133881980D01*
X-5897894Y-133831409D01*
X-5968424Y-133825000D01*
X-5975000Y-133825000D01*
X-5975000Y-135774999D01*
X-5968421Y-135774999D01*
X-5897896Y-135768591D01*
X-5735603Y-135718018D01*
X-5590127Y-135630075D01*
X-5488036Y-135527984D01*
X-5432448Y-135495890D01*
X-5368260Y-135495890D01*
X-5312675Y-135527982D01*
X-5210185Y-135630472D01*
X-5064606Y-135718478D01*
X-4902196Y-135769086D01*
X-4855143Y-135773362D01*
X-4831617Y-135775500D01*
X-4831616Y-135775500D01*
X-4688743Y-135775500D01*
X-4632448Y-135789015D01*
X-4588425Y-135826615D01*
X-4566270Y-135880102D01*
X-4570812Y-135937818D01*
X-4601062Y-135987181D01*
X-4949523Y-136335641D01*
X-4961715Y-136346334D01*
X-4985453Y-136364549D01*
X-5011095Y-136397965D01*
X-5011128Y-136398010D01*
X-5073322Y-136479064D01*
X-5073323Y-136479065D01*
X-5077698Y-136484766D01*
X-5135687Y-136624764D01*
X-5142172Y-136674021D01*
X-5161320Y-136725683D01*
X-5200958Y-136763949D01*
X-5202043Y-136764606D01*
X-5210185Y-136769528D01*
X-5312319Y-136871662D01*
X-5367907Y-136903755D01*
X-5432094Y-136903755D01*
X-5487681Y-136871661D01*
X-5589814Y-136769528D01*
X-5677821Y-136716326D01*
X-5735394Y-136681522D01*
X-5897804Y-136630914D01*
X-5897807Y-136630913D01*
X-5968383Y-136624500D01*
X-5968384Y-136624500D01*
X-6335258Y-136624500D01*
X-6382711Y-136615061D01*
X-6422939Y-136588181D01*
X-7788181Y-135222939D01*
X-7815061Y-135182711D01*
X-7824500Y-135135258D01*
X-7824500Y-135050000D01*
X-7124999Y-135050000D01*
X-7124999Y-135131579D01*
X-7118592Y-135202104D01*
X-7068019Y-135364397D01*
X-6980075Y-135509875D01*
X-6859876Y-135630074D01*
X-6714397Y-135718019D01*
X-6552107Y-135768590D01*
X-6481576Y-135775000D01*
X-6475000Y-135775000D01*
X-6475000Y-135050000D01*
X-7124999Y-135050000D01*
X-7824500Y-135050000D01*
X-7824500Y-134550000D01*
X-7125000Y-134550000D01*
X-6475000Y-134550000D01*
X-6475000Y-133825001D01*
X-6481579Y-133825001D01*
X-6552105Y-133831408D01*
X-6714398Y-133881981D01*
X-6859876Y-133969925D01*
X-6980075Y-134090124D01*
X-7068020Y-134235603D01*
X-7118591Y-134397893D01*
X-7125000Y-134468424D01*
X-7125000Y-134550000D01*
X-7824500Y-134550000D01*
X-7824500Y-133889742D01*
X-7815061Y-133842289D01*
X-7788181Y-133802061D01*
X-7646770Y-133660650D01*
X-7211533Y-133225411D01*
X-7162172Y-133195163D01*
X-7104456Y-133190621D01*
X-7050972Y-133212774D01*
X-6983426Y-133261849D01*
X-6952728Y-133284153D01*
X-6779803Y-133361144D01*
X-6594648Y-133400500D01*
X-6594646Y-133400500D01*
X-6405354Y-133400500D01*
X-6405352Y-133400500D01*
X-6229268Y-133363072D01*
X-6220197Y-133361144D01*
X-6047270Y-133284151D01*
X-5894129Y-133172888D01*
X-5888402Y-133166526D01*
X-5846688Y-133136220D01*
X-5796253Y-133125500D01*
X-1560452Y-133125500D01*
X-1512999Y-133134939D01*
G37*
%TD.AperFunction*%
%TA.AperFunction,Conductor*%
G36*
X2987001Y-133134939D02*
G01*
X3027226Y-133161816D01*
X3138183Y-133272774D01*
X3165061Y-133313001D01*
X3174500Y-133360453D01*
X3174500Y-135017256D01*
X3172235Y-135037762D01*
X3174439Y-135107873D01*
X3174500Y-135111768D01*
X3174500Y-135139349D01*
X3175003Y-135143334D01*
X3175918Y-135154967D01*
X3177290Y-135198626D01*
X3182879Y-135217860D01*
X3186825Y-135236916D01*
X3189335Y-135256792D01*
X3205414Y-135297404D01*
X3209197Y-135308451D01*
X3221382Y-135350391D01*
X3231580Y-135367635D01*
X3240137Y-135385101D01*
X3247513Y-135403731D01*
X3251811Y-135409647D01*
X3264866Y-135427616D01*
X3288166Y-135490771D01*
X3275033Y-135556795D01*
X3229338Y-135606227D01*
X3164548Y-135624500D01*
X3070849Y-135624500D01*
X3047615Y-135622304D01*
X3039587Y-135620772D01*
X2984241Y-135624255D01*
X2976455Y-135624500D01*
X2960649Y-135624500D01*
X2944962Y-135626481D01*
X2937216Y-135627212D01*
X2930755Y-135627619D01*
X2869699Y-135631461D01*
X2850515Y-135634500D01*
X2471251Y-135634500D01*
X2413124Y-135620032D01*
X2368561Y-135580004D01*
X2354991Y-135542951D01*
X2353941Y-135543343D01*
X2297468Y-135391934D01*
X2209960Y-135275039D01*
X2093064Y-135187531D01*
X1956251Y-135136502D01*
X1895769Y-135130000D01*
X1565000Y-135130000D01*
X1565000Y-135505500D01*
X1548389Y-135567497D01*
X1503006Y-135612884D01*
X1441010Y-135629500D01*
X1435010Y-135629500D01*
X1429008Y-135629500D01*
X1367006Y-135612892D01*
X1321615Y-135567504D01*
X1305000Y-135505501D01*
X1305000Y-135205000D01*
X744000Y-135205000D01*
X682000Y-135188387D01*
X636613Y-135143000D01*
X620000Y-135081000D01*
X620000Y-134155001D01*
X579228Y-134155001D01*
X513252Y-134162092D01*
X486956Y-134162114D01*
X486455Y-134162061D01*
X467090Y-134155000D01*
X880000Y-134155000D01*
X880000Y-134945000D01*
X1379999Y-134945000D01*
X1379999Y-134614231D01*
X1373497Y-134553749D01*
X1322468Y-134416934D01*
X1234960Y-134300039D01*
X1118064Y-134212531D01*
X981251Y-134161502D01*
X920769Y-134155000D01*
X880000Y-134155000D01*
X467090Y-134155000D01*
X430114Y-134141518D01*
X390001Y-134096939D01*
X375500Y-134038749D01*
X375500Y-133582744D01*
X377764Y-133562236D01*
X375561Y-133492113D01*
X375500Y-133488219D01*
X375500Y-133460654D01*
X375500Y-133460650D01*
X374997Y-133456670D01*
X374081Y-133445028D01*
X372710Y-133401373D01*
X367118Y-133382126D01*
X363174Y-133363085D01*
X360664Y-133343208D01*
X344579Y-133302583D01*
X340798Y-133291535D01*
X338634Y-133284084D01*
X335732Y-133227214D01*
X358555Y-133175044D01*
X402290Y-133138575D01*
X457713Y-133125500D01*
X2939548Y-133125500D01*
X2987001Y-133134939D01*
G37*
%TD.AperFunction*%
%TA.AperFunction,Conductor*%
G36*
X32837500Y-103516613D02*
G01*
X32882887Y-103562000D01*
X32899500Y-103624000D01*
X32899500Y-103796927D01*
X32886855Y-103851481D01*
X32851499Y-103894908D01*
X32800642Y-103918351D01*
X32744658Y-103917030D01*
X32724175Y-103911770D01*
X32702223Y-103903866D01*
X32694826Y-103900386D01*
X32694824Y-103900385D01*
X32640356Y-103889994D01*
X32632759Y-103888296D01*
X32579021Y-103874500D01*
X32579019Y-103874500D01*
X32570849Y-103874500D01*
X32547615Y-103872304D01*
X32539587Y-103870772D01*
X32484241Y-103874255D01*
X32476455Y-103874500D01*
X-9417256Y-103874500D01*
X-9437764Y-103872235D01*
X-9507887Y-103874439D01*
X-9511781Y-103874500D01*
X-9539350Y-103874500D01*
X-9543329Y-103875002D01*
X-9554959Y-103875917D01*
X-9598628Y-103877289D01*
X-9617872Y-103882880D01*
X-9636916Y-103886824D01*
X-9656792Y-103889335D01*
X-9697400Y-103905413D01*
X-9708446Y-103909194D01*
X-9735411Y-103917030D01*
X-9750393Y-103921383D01*
X-9767635Y-103931579D01*
X-9785096Y-103940133D01*
X-9803733Y-103947512D01*
X-9839069Y-103973185D01*
X-9848826Y-103979595D01*
X-9886420Y-104001829D01*
X-9900587Y-104015996D01*
X-9915376Y-104028626D01*
X-9931587Y-104040404D01*
X-9959428Y-104074058D01*
X-9967289Y-104082697D01*
X-10883792Y-104999199D01*
X-10899890Y-105012096D01*
X-10947904Y-105063225D01*
X-10950609Y-105066017D01*
X-10970126Y-105085534D01*
X-10972585Y-105088705D01*
X-10980158Y-105097572D01*
X-11010065Y-105129420D01*
X-11019715Y-105146974D01*
X-11030391Y-105163228D01*
X-11042674Y-105179063D01*
X-11060025Y-105219158D01*
X-11065162Y-105229644D01*
X-11086198Y-105267907D01*
X-11091179Y-105287309D01*
X-11097480Y-105305711D01*
X-11105439Y-105324102D01*
X-11112272Y-105367242D01*
X-11114640Y-105378674D01*
X-11125500Y-105420978D01*
X-11125500Y-105441016D01*
X-11127027Y-105460415D01*
X-11130160Y-105480194D01*
X-11126050Y-105523675D01*
X-11125500Y-105535344D01*
X-11125500Y-119075500D01*
X-11142113Y-119137500D01*
X-11187500Y-119182887D01*
X-11249500Y-119199500D01*
X-11829160Y-119199500D01*
X-11845345Y-119198439D01*
X-11875000Y-119194534D01*
X-11904655Y-119198439D01*
X-11904669Y-119198439D01*
X-12025236Y-119214312D01*
X-12107181Y-119248256D01*
X-12165234Y-119272302D01*
X-12251990Y-119338872D01*
X-12252035Y-119338905D01*
X-12298401Y-119374485D01*
X-12299310Y-119373300D01*
X-12338950Y-119402362D01*
X-12408196Y-119406898D01*
X-12469035Y-119373519D01*
X-12510635Y-119331919D01*
X-12652103Y-119248255D01*
X-12809928Y-119202402D01*
X-12832056Y-119200660D01*
X-12846806Y-119199500D01*
X-14153194Y-119199500D01*
X-14165486Y-119200467D01*
X-14190073Y-119202402D01*
X-14347898Y-119248255D01*
X-14489366Y-119331919D01*
X-14605581Y-119448134D01*
X-14689245Y-119589602D01*
X-14735098Y-119747427D01*
X-14738000Y-119784308D01*
X-14738000Y-120025500D01*
X-14754613Y-120087500D01*
X-14800000Y-120132887D01*
X-14862000Y-120149500D01*
X-16028194Y-120149500D01*
X-16040486Y-120150467D01*
X-16065073Y-120152402D01*
X-16222898Y-120198255D01*
X-16364366Y-120281919D01*
X-16420627Y-120338181D01*
X-16460855Y-120365061D01*
X-16508308Y-120374500D01*
X-23321934Y-120374500D01*
X-23372825Y-120363576D01*
X-23414749Y-120332727D01*
X-23440319Y-120287390D01*
X-23456521Y-120235396D01*
X-23464960Y-120221437D01*
X-23526520Y-120119604D01*
X-23544529Y-120089813D01*
X-23664814Y-119969528D01*
X-23767142Y-119907669D01*
X-23810394Y-119881522D01*
X-23972804Y-119830914D01*
X-23972807Y-119830913D01*
X-24043383Y-119824500D01*
X-24043384Y-119824500D01*
X-24556616Y-119824500D01*
X-24556617Y-119824500D01*
X-24627194Y-119830913D01*
X-24708401Y-119856217D01*
X-24789606Y-119881522D01*
X-24789608Y-119881522D01*
X-24789608Y-119881523D01*
X-24935185Y-119969527D01*
X-25037320Y-120071662D01*
X-25092908Y-120103755D01*
X-25157095Y-120103755D01*
X-25212681Y-120071662D01*
X-25314815Y-119969528D01*
X-25314816Y-119969527D01*
X-25417142Y-119907669D01*
X-25460394Y-119881522D01*
X-25622804Y-119830914D01*
X-25622807Y-119830913D01*
X-25693383Y-119824500D01*
X-25693384Y-119824500D01*
X-26206616Y-119824500D01*
X-26206617Y-119824500D01*
X-26277194Y-119830913D01*
X-26358401Y-119856217D01*
X-26439606Y-119881522D01*
X-26439608Y-119881522D01*
X-26439608Y-119881523D01*
X-26585187Y-119969528D01*
X-26705472Y-120089813D01*
X-26793480Y-120235396D01*
X-26831415Y-120357138D01*
X-26864807Y-120410537D01*
X-26920125Y-120440645D01*
X-26983098Y-120439694D01*
X-27037481Y-120407929D01*
X-28958182Y-118487228D01*
X-28985062Y-118447000D01*
X-28994501Y-118399547D01*
X-28994501Y-118025000D01*
X-26974999Y-118025000D01*
X-26974999Y-118048315D01*
X-26964857Y-118147605D01*
X-26911547Y-118308486D01*
X-26822574Y-118452732D01*
X-26702733Y-118572573D01*
X-26558487Y-118661546D01*
X-26397607Y-118714856D01*
X-26298315Y-118725000D01*
X-26250000Y-118725000D01*
X-26250000Y-118025000D01*
X-25750000Y-118025000D01*
X-25750000Y-118724999D01*
X-25701685Y-118724999D01*
X-25602395Y-118714856D01*
X-25441514Y-118661546D01*
X-25297268Y-118572573D01*
X-25177427Y-118452732D01*
X-25088454Y-118308486D01*
X-25035144Y-118147606D01*
X-25025000Y-118048315D01*
X-25025000Y-118025000D01*
X-25750000Y-118025000D01*
X-26250000Y-118025000D01*
X-26974999Y-118025000D01*
X-28994501Y-118025000D01*
X-28994501Y-117562130D01*
X-28997448Y-117534714D01*
X-29000909Y-117502517D01*
X-29042883Y-117389979D01*
X-29050665Y-117343699D01*
X-29040688Y-117297837D01*
X-29014384Y-117258972D01*
X-28642230Y-116886819D01*
X-28602001Y-116859939D01*
X-28554548Y-116850500D01*
X-26924584Y-116850500D01*
X-26864155Y-116866221D01*
X-26834770Y-116894349D01*
X-26833216Y-116892796D01*
X-26813341Y-116912671D01*
X-26781248Y-116968256D01*
X-26781246Y-117032441D01*
X-26813336Y-117088029D01*
X-26822574Y-117097267D01*
X-26911547Y-117241513D01*
X-26964857Y-117402393D01*
X-26975000Y-117501685D01*
X-26975000Y-117525000D01*
X-25025001Y-117525000D01*
X-25025001Y-117501685D01*
X-25035144Y-117402394D01*
X-25088454Y-117241513D01*
X-25177426Y-117097269D01*
X-25186659Y-117088036D01*
X-25218755Y-117032448D01*
X-25218755Y-116968258D01*
X-25186661Y-116912672D01*
X-25177032Y-116903044D01*
X-25087997Y-116758697D01*
X-25034651Y-116597708D01*
X-25024500Y-116498345D01*
X-25024501Y-116199498D01*
X-25007888Y-116137500D01*
X-24962501Y-116092113D01*
X-24900501Y-116075500D01*
X-23833308Y-116075500D01*
X-23785855Y-116084939D01*
X-23745627Y-116111819D01*
X-23689365Y-116168081D01*
X-23636238Y-116199500D01*
X-23547898Y-116251744D01*
X-23390073Y-116297597D01*
X-23390069Y-116297598D01*
X-23353194Y-116300500D01*
X-22196808Y-116300500D01*
X-22196806Y-116300500D01*
X-22159931Y-116297598D01*
X-22002102Y-116251744D01*
X-21860635Y-116168081D01*
X-21744419Y-116051865D01*
X-21744233Y-116051549D01*
X-21735934Y-116043379D01*
X-21733342Y-116040788D01*
X-21733322Y-116040808D01*
X-21698938Y-116006959D01*
X-21637500Y-115990669D01*
X-21576062Y-116006959D01*
X-21541679Y-116040808D01*
X-21541658Y-116040788D01*
X-21539067Y-116043379D01*
X-21530768Y-116051549D01*
X-21530581Y-116051865D01*
X-21414365Y-116168081D01*
X-21361238Y-116199500D01*
X-21272898Y-116251744D01*
X-21115073Y-116297597D01*
X-21115069Y-116297598D01*
X-21078194Y-116300500D01*
X-19921808Y-116300500D01*
X-19921806Y-116300500D01*
X-19884931Y-116297598D01*
X-19727102Y-116251744D01*
X-19585635Y-116168081D01*
X-19469419Y-116051865D01*
X-19385756Y-115910398D01*
X-19339902Y-115752569D01*
X-19337000Y-115715694D01*
X-19337000Y-115284306D01*
X-19339902Y-115247431D01*
X-19357926Y-115185394D01*
X-19385756Y-115089602D01*
X-19469420Y-114948134D01*
X-19585635Y-114831919D01*
X-19727103Y-114748255D01*
X-19884928Y-114702402D01*
X-19907056Y-114700660D01*
X-19921806Y-114699500D01*
X-21078194Y-114699500D01*
X-21090486Y-114700467D01*
X-21115073Y-114702402D01*
X-21272898Y-114748255D01*
X-21427848Y-114839893D01*
X-21428397Y-114838966D01*
X-21469366Y-114862262D01*
X-21535104Y-114860969D01*
X-21590940Y-114826248D01*
X-21615204Y-114800000D01*
X-21880685Y-114800000D01*
X-21943806Y-114782732D01*
X-22002103Y-114748255D01*
X-22159928Y-114702402D01*
X-22182056Y-114700660D01*
X-22196806Y-114699500D01*
X-23353194Y-114699500D01*
X-23365486Y-114700467D01*
X-23390073Y-114702402D01*
X-23547898Y-114748255D01*
X-23606194Y-114782732D01*
X-23669315Y-114800000D01*
X-23934795Y-114800000D01*
X-23938060Y-114803531D01*
X-23948656Y-114856797D01*
X-23994351Y-114906228D01*
X-24059140Y-114924500D01*
X-24240548Y-114924500D01*
X-24296843Y-114910985D01*
X-24340866Y-114873385D01*
X-24363021Y-114819898D01*
X-24358479Y-114762182D01*
X-24328229Y-114712819D01*
X-23951729Y-114336319D01*
X-23911501Y-114309439D01*
X-23864048Y-114300000D01*
X-23669315Y-114300000D01*
X-23606194Y-114317268D01*
X-23547898Y-114351744D01*
X-23390073Y-114397597D01*
X-23390069Y-114397598D01*
X-23353194Y-114400500D01*
X-22196808Y-114400500D01*
X-22196806Y-114400500D01*
X-22159931Y-114397598D01*
X-22002102Y-114351744D01*
X-21943807Y-114317268D01*
X-21880685Y-114300000D01*
X-21615204Y-114300000D01*
X-21590941Y-114273752D01*
X-21535103Y-114239029D01*
X-21469362Y-114237738D01*
X-21428397Y-114261033D01*
X-21427848Y-114260107D01*
X-21414366Y-114268080D01*
X-21414365Y-114268081D01*
X-21344432Y-114309439D01*
X-21272898Y-114351744D01*
X-21115073Y-114397597D01*
X-21115069Y-114397598D01*
X-21078194Y-114400500D01*
X-19921808Y-114400500D01*
X-19921806Y-114400500D01*
X-19884931Y-114397598D01*
X-19727102Y-114351744D01*
X-19585635Y-114268081D01*
X-19579373Y-114261818D01*
X-19539145Y-114234939D01*
X-19491692Y-114225500D01*
X-17674637Y-114225500D01*
X-17609540Y-114243962D01*
X-17458700Y-114337002D01*
X-17458698Y-114337002D01*
X-17458697Y-114337003D01*
X-17297708Y-114390349D01*
X-17198345Y-114400500D01*
X-16601656Y-114400499D01*
X-16502292Y-114390349D01*
X-16341303Y-114337003D01*
X-16340194Y-114336319D01*
X-16190460Y-114243962D01*
X-16125363Y-114225500D01*
X-14460452Y-114225500D01*
X-14412999Y-114234939D01*
X-14372771Y-114261819D01*
X-14161819Y-114472772D01*
X-14134939Y-114513000D01*
X-14125500Y-114560453D01*
X-14125500Y-115801313D01*
X-14133736Y-115845751D01*
X-14157348Y-115884282D01*
X-14180861Y-115910397D01*
X-14232536Y-115967786D01*
X-14327180Y-116131715D01*
X-14385674Y-116311742D01*
X-14405460Y-116499999D01*
X-14385674Y-116688257D01*
X-14327180Y-116868284D01*
X-14232534Y-117032216D01*
X-14105871Y-117172889D01*
X-13952731Y-117284151D01*
X-13779803Y-117361144D01*
X-13594648Y-117400500D01*
X-13594646Y-117400500D01*
X-13405354Y-117400500D01*
X-13405352Y-117400500D01*
X-13250895Y-117367669D01*
X-13220197Y-117361144D01*
X-13047270Y-117284151D01*
X-13003643Y-117252454D01*
X-12894130Y-117172889D01*
X-12767467Y-117032216D01*
X-12672821Y-116868284D01*
X-12663423Y-116839360D01*
X-12614326Y-116688256D01*
X-12594540Y-116500000D01*
X-12614326Y-116311744D01*
X-12644668Y-116218363D01*
X-12672821Y-116131715D01*
X-12767465Y-115967786D01*
X-12819139Y-115910397D01*
X-12842653Y-115884282D01*
X-12866264Y-115845751D01*
X-12874500Y-115801313D01*
X-12874500Y-114560453D01*
X-12865061Y-114513001D01*
X-12838182Y-114472773D01*
X-12802229Y-114436819D01*
X-12762001Y-114409938D01*
X-12714547Y-114400499D01*
X-12401655Y-114400499D01*
X-12351974Y-114395423D01*
X-12302292Y-114390349D01*
X-12141303Y-114337003D01*
X-12125753Y-114327412D01*
X-11996956Y-114247968D01*
X-11877032Y-114128044D01*
X-11787998Y-113983699D01*
X-11787637Y-113982612D01*
X-11734651Y-113822708D01*
X-11724500Y-113723345D01*
X-11724501Y-113176656D01*
X-11729897Y-113123836D01*
X-11734651Y-113077292D01*
X-11748466Y-113035602D01*
X-11787997Y-112916303D01*
X-11787998Y-112916302D01*
X-11787998Y-112916300D01*
X-11877031Y-112771957D01*
X-11886659Y-112762329D01*
X-11918755Y-112706741D01*
X-11918755Y-112642551D01*
X-11886659Y-112586963D01*
X-11877428Y-112577732D01*
X-11788454Y-112433484D01*
X-11735144Y-112272606D01*
X-11725000Y-112173315D01*
X-11725000Y-112150000D01*
X-13674999Y-112150000D01*
X-13674999Y-112173315D01*
X-13664857Y-112272605D01*
X-13611547Y-112433486D01*
X-13522574Y-112577732D01*
X-13513341Y-112586965D01*
X-13481247Y-112642551D01*
X-13481247Y-112706738D01*
X-13513339Y-112762325D01*
X-13522969Y-112771954D01*
X-13612002Y-112916299D01*
X-13638408Y-112995987D01*
X-13669512Y-113045729D01*
X-13719999Y-113075606D01*
X-13778571Y-113078931D01*
X-13814404Y-113062889D01*
X-13814688Y-113063548D01*
X-13869149Y-113039980D01*
X-13879639Y-113034841D01*
X-13917909Y-113013802D01*
X-13937309Y-113008821D01*
X-13955716Y-113002519D01*
X-13974103Y-112994562D01*
X-14017242Y-112987729D01*
X-14028676Y-112985361D01*
X-14070981Y-112974500D01*
X-14091016Y-112974500D01*
X-14110414Y-112972973D01*
X-14117838Y-112971797D01*
X-14130195Y-112969840D01*
X-14130196Y-112969840D01*
X-14155532Y-112972235D01*
X-14173675Y-112973950D01*
X-14185344Y-112974500D01*
X-15882894Y-112974500D01*
X-15943326Y-112958778D01*
X-15988432Y-112915597D01*
X-16077031Y-112771957D01*
X-16086659Y-112762329D01*
X-16118755Y-112706741D01*
X-16118755Y-112642551D01*
X-16086659Y-112586963D01*
X-16077428Y-112577732D01*
X-15988454Y-112433484D01*
X-15935144Y-112272606D01*
X-15925000Y-112173315D01*
X-15925000Y-112150000D01*
X-17874999Y-112150000D01*
X-17874999Y-112173315D01*
X-17864857Y-112272605D01*
X-17811547Y-112433486D01*
X-17722574Y-112577732D01*
X-17713341Y-112586965D01*
X-17681247Y-112642551D01*
X-17681247Y-112706738D01*
X-17713339Y-112762325D01*
X-17722969Y-112771954D01*
X-17811568Y-112915597D01*
X-17856674Y-112958778D01*
X-17917106Y-112974500D01*
X-19491692Y-112974500D01*
X-19539145Y-112965061D01*
X-19579373Y-112938181D01*
X-19585635Y-112931919D01*
X-19727103Y-112848255D01*
X-19884928Y-112802402D01*
X-19907056Y-112800660D01*
X-19921806Y-112799500D01*
X-21078194Y-112799500D01*
X-21090486Y-112800467D01*
X-21115073Y-112802402D01*
X-21272898Y-112848255D01*
X-21414366Y-112931919D01*
X-21530581Y-113048134D01*
X-21530769Y-113048453D01*
X-21539098Y-113056651D01*
X-21541658Y-113059212D01*
X-21541679Y-113059191D01*
X-21576064Y-113093041D01*
X-21637500Y-113109330D01*
X-21698936Y-113093041D01*
X-21733322Y-113059191D01*
X-21733342Y-113059212D01*
X-21735903Y-113056651D01*
X-21744231Y-113048453D01*
X-21744420Y-113048134D01*
X-21860635Y-112931919D01*
X-22002103Y-112848255D01*
X-22159928Y-112802402D01*
X-22182056Y-112800660D01*
X-22196806Y-112799500D01*
X-23353194Y-112799500D01*
X-23365486Y-112800467D01*
X-23390073Y-112802402D01*
X-23547898Y-112848255D01*
X-23689366Y-112931919D01*
X-23695627Y-112938181D01*
X-23735855Y-112965061D01*
X-23783308Y-112974500D01*
X-24017256Y-112974500D01*
X-24037764Y-112972235D01*
X-24107887Y-112974439D01*
X-24111781Y-112974500D01*
X-24139350Y-112974500D01*
X-24143329Y-112975002D01*
X-24154959Y-112975917D01*
X-24198628Y-112977289D01*
X-24217872Y-112982880D01*
X-24236916Y-112986824D01*
X-24256792Y-112989335D01*
X-24297400Y-113005413D01*
X-24308446Y-113009194D01*
X-24350390Y-113021382D01*
X-24350393Y-113021383D01*
X-24367635Y-113031579D01*
X-24385096Y-113040133D01*
X-24403733Y-113047512D01*
X-24439069Y-113073185D01*
X-24448826Y-113079595D01*
X-24486420Y-113101829D01*
X-24500587Y-113115996D01*
X-24515376Y-113128626D01*
X-24531587Y-113140404D01*
X-24559428Y-113174058D01*
X-24567289Y-113182697D01*
X-26383792Y-114999199D01*
X-26399890Y-115012096D01*
X-26447904Y-115063225D01*
X-26450609Y-115066017D01*
X-26470126Y-115085534D01*
X-26472585Y-115088705D01*
X-26480158Y-115097572D01*
X-26510065Y-115129420D01*
X-26519715Y-115146974D01*
X-26530391Y-115163228D01*
X-26542674Y-115179063D01*
X-26560025Y-115219158D01*
X-26565162Y-115229644D01*
X-26586198Y-115267907D01*
X-26591179Y-115287309D01*
X-26597480Y-115305711D01*
X-26611658Y-115338477D01*
X-26612906Y-115337937D01*
X-26623302Y-115364553D01*
X-26661404Y-115401347D01*
X-26703044Y-115427031D01*
X-26833216Y-115557204D01*
X-26834770Y-115555650D01*
X-26864155Y-115583779D01*
X-26924584Y-115599500D01*
X-28782256Y-115599500D01*
X-28802764Y-115597235D01*
X-28872887Y-115599439D01*
X-28876781Y-115599500D01*
X-28904350Y-115599500D01*
X-28908329Y-115600002D01*
X-28919959Y-115600917D01*
X-28963628Y-115602289D01*
X-28982872Y-115607880D01*
X-29001916Y-115611824D01*
X-29021792Y-115614335D01*
X-29062400Y-115630413D01*
X-29073446Y-115634194D01*
X-29115390Y-115646382D01*
X-29115393Y-115646383D01*
X-29132635Y-115656579D01*
X-29150096Y-115665133D01*
X-29168733Y-115672512D01*
X-29204069Y-115698185D01*
X-29213826Y-115704595D01*
X-29251420Y-115726829D01*
X-29265587Y-115740996D01*
X-29280376Y-115753626D01*
X-29296587Y-115765404D01*
X-29324428Y-115799058D01*
X-29332289Y-115807697D01*
X-30597774Y-117073181D01*
X-30638002Y-117100061D01*
X-30685455Y-117109500D01*
X-32052870Y-117109500D01*
X-32112485Y-117115909D01*
X-32247331Y-117166204D01*
X-32362546Y-117252454D01*
X-32448796Y-117367668D01*
X-32499091Y-117502516D01*
X-32499111Y-117502699D01*
X-32502552Y-117534713D01*
X-32505500Y-117562130D01*
X-32505500Y-118657869D01*
X-32499091Y-118717484D01*
X-32473944Y-118784907D01*
X-32448796Y-118852331D01*
X-32362546Y-118967546D01*
X-32247331Y-119053796D01*
X-32112483Y-119104091D01*
X-32052873Y-119110500D01*
X-30155453Y-119110499D01*
X-30108000Y-119119938D01*
X-30067772Y-119146818D01*
X-27427743Y-121786847D01*
X-27396228Y-121840348D01*
X-27394602Y-121902420D01*
X-27423272Y-121957497D01*
X-27432532Y-121967781D01*
X-27527180Y-122131715D01*
X-27585674Y-122311742D01*
X-27605460Y-122499999D01*
X-27585674Y-122688259D01*
X-27564079Y-122754720D01*
X-27560996Y-122820087D01*
X-27591618Y-122877921D01*
X-27647415Y-122912113D01*
X-27712848Y-122913141D01*
X-27769691Y-122880718D01*
X-30384198Y-120266211D01*
X-30397094Y-120250113D01*
X-30448225Y-120202098D01*
X-30451022Y-120199387D01*
X-30470530Y-120179879D01*
X-30473710Y-120177412D01*
X-30482576Y-120169839D01*
X-30514418Y-120139938D01*
X-30531976Y-120130285D01*
X-30548236Y-120119604D01*
X-30564064Y-120107327D01*
X-30604149Y-120089980D01*
X-30614639Y-120084841D01*
X-30652909Y-120063802D01*
X-30672309Y-120058821D01*
X-30690716Y-120052519D01*
X-30709103Y-120044562D01*
X-30752242Y-120037729D01*
X-30763676Y-120035361D01*
X-30805981Y-120024500D01*
X-30826016Y-120024500D01*
X-30845414Y-120022973D01*
X-30852838Y-120021797D01*
X-30865195Y-120019840D01*
X-30865196Y-120019840D01*
X-30898249Y-120022964D01*
X-30908675Y-120023950D01*
X-30920344Y-120024500D01*
X-32231534Y-120024500D01*
X-32280347Y-120014488D01*
X-32321277Y-119986070D01*
X-32347716Y-119943833D01*
X-32351898Y-119932620D01*
X-32361204Y-119907669D01*
X-32447454Y-119792454D01*
X-32562669Y-119706204D01*
X-32697517Y-119655909D01*
X-32757127Y-119649500D01*
X-32757131Y-119649500D01*
X-35362870Y-119649500D01*
X-35422485Y-119655909D01*
X-35557331Y-119706204D01*
X-35672546Y-119792454D01*
X-35758796Y-119907668D01*
X-35758797Y-119907669D01*
X-35758796Y-119907669D01*
X-35759820Y-119910412D01*
X-35800280Y-119965273D01*
X-35863626Y-119990458D01*
X-35930711Y-119978354D01*
X-35981262Y-119932620D01*
X-36000000Y-119867077D01*
X-36000000Y-115822239D01*
X-35981213Y-115756617D01*
X-35930544Y-115710879D01*
X-27639583Y-111650000D01*
X-17875000Y-111650000D01*
X-17150000Y-111650000D01*
X-17150000Y-110950001D01*
X-17198315Y-110950001D01*
X-17297606Y-110960143D01*
X-17458487Y-111013453D01*
X-17602733Y-111102426D01*
X-17722574Y-111222267D01*
X-17811547Y-111366513D01*
X-17864857Y-111527393D01*
X-17875000Y-111626685D01*
X-17875000Y-111650000D01*
X-27639583Y-111650000D01*
X-26210416Y-110950000D01*
X-16650000Y-110950000D01*
X-16650000Y-111650000D01*
X-15925001Y-111650000D01*
X-13675000Y-111650000D01*
X-12950000Y-111650000D01*
X-12950000Y-110950001D01*
X-12998315Y-110950001D01*
X-13097606Y-110960143D01*
X-13258487Y-111013453D01*
X-13402733Y-111102426D01*
X-13522574Y-111222267D01*
X-13611547Y-111366513D01*
X-13664857Y-111527393D01*
X-13675000Y-111626685D01*
X-13675000Y-111650000D01*
X-15925001Y-111650000D01*
X-15925001Y-111626685D01*
X-15935144Y-111527394D01*
X-15988454Y-111366513D01*
X-16077427Y-111222267D01*
X-16197268Y-111102426D01*
X-16341514Y-111013453D01*
X-16502394Y-110960143D01*
X-16601685Y-110950000D01*
X-12450000Y-110950000D01*
X-12450000Y-111650000D01*
X-11725001Y-111650000D01*
X-11725001Y-111626685D01*
X-11735144Y-111527394D01*
X-11788454Y-111366513D01*
X-11877427Y-111222267D01*
X-11997268Y-111102426D01*
X-12141514Y-111013453D01*
X-12302394Y-110960143D01*
X-12401685Y-110950000D01*
X-12450000Y-110950000D01*
X-16601685Y-110950000D01*
X-16650000Y-110950000D01*
X-26210416Y-110950000D01*
X-19696134Y-107759331D01*
X-11025807Y-103512639D01*
X-10971263Y-103500000D01*
X32775500Y-103500000D01*
X32837500Y-103516613D01*
G37*
%TD.AperFunction*%
%TA.AperFunction,Conductor*%
G36*
X8237001Y-106134939D02*
G01*
X8277229Y-106161819D01*
X14888181Y-112772772D01*
X14915061Y-112813000D01*
X14924500Y-112860453D01*
X14924500Y-115654160D01*
X14923439Y-115670345D01*
X14919534Y-115700000D01*
X14923439Y-115729655D01*
X14923439Y-115729662D01*
X14939312Y-115850235D01*
X14968617Y-115920981D01*
X14968617Y-115920982D01*
X14997300Y-115990230D01*
X14997301Y-115990232D01*
X14997302Y-115990233D01*
X15066388Y-116080268D01*
X15066390Y-116080270D01*
X15089401Y-116110258D01*
X15089551Y-116110453D01*
X15113286Y-116128666D01*
X15125480Y-116139360D01*
X16360642Y-117374522D01*
X16371337Y-117386717D01*
X16389549Y-117410452D01*
X16419729Y-117433610D01*
X16419729Y-117433609D01*
X16419732Y-117433612D01*
X16509768Y-117502699D01*
X16587058Y-117534713D01*
X16649764Y-117560687D01*
X16762280Y-117575500D01*
X16800000Y-117580466D01*
X16829662Y-117576560D01*
X16845846Y-117575500D01*
X20054160Y-117575500D01*
X20070345Y-117576561D01*
X20100000Y-117580465D01*
X20129655Y-117576561D01*
X20129668Y-117576560D01*
X20137719Y-117575500D01*
X20137720Y-117575500D01*
X20250236Y-117560687D01*
X20390233Y-117502698D01*
X20402614Y-117493198D01*
X20480268Y-117433612D01*
X20480270Y-117433609D01*
X20510451Y-117410451D01*
X20528670Y-117386706D01*
X20539350Y-117374528D01*
X21174528Y-116739350D01*
X21186706Y-116728670D01*
X21210451Y-116710451D01*
X21221110Y-116696560D01*
X21233610Y-116680269D01*
X21233612Y-116680268D01*
X21302698Y-116590233D01*
X21360687Y-116450236D01*
X21362335Y-116437720D01*
X21375500Y-116337720D01*
X21376561Y-116329662D01*
X21376561Y-116329655D01*
X21380465Y-116300000D01*
X21376561Y-116270345D01*
X21375500Y-116254160D01*
X21375500Y-114451113D01*
X21384939Y-114403660D01*
X21411819Y-114363432D01*
X21647207Y-114128044D01*
X22876699Y-112898550D01*
X22915562Y-112872247D01*
X22961425Y-112862271D01*
X23007711Y-112870055D01*
X23043750Y-112883498D01*
X23104231Y-112890000D01*
X23452171Y-112890000D01*
X23457177Y-112886932D01*
X23514894Y-112882387D01*
X23568383Y-112904541D01*
X23605984Y-112948565D01*
X23619500Y-113004861D01*
X23619500Y-113405814D01*
X23623790Y-113445715D01*
X23624500Y-113458968D01*
X23624500Y-117839548D01*
X23615061Y-117887001D01*
X23588181Y-117927229D01*
X22177228Y-119338181D01*
X22137000Y-119365061D01*
X22089547Y-119374500D01*
X18079019Y-119374500D01*
X1310452Y-119374500D01*
X1262999Y-119365061D01*
X1222771Y-119338181D01*
X267476Y-118382885D01*
X235382Y-118327296D01*
X235383Y-118263108D01*
X250000Y-118237792D01*
X250000Y-117575000D01*
X750000Y-117575000D01*
X750000Y-118224999D01*
X831579Y-118224999D01*
X902104Y-118218591D01*
X1064397Y-118168018D01*
X1209875Y-118080074D01*
X1330074Y-117959875D01*
X1418019Y-117814396D01*
X1468590Y-117652106D01*
X1475000Y-117581576D01*
X1475000Y-117575000D01*
X750000Y-117575000D01*
X250000Y-117575000D01*
X250000Y-117199000D01*
X266613Y-117137000D01*
X312000Y-117091613D01*
X374000Y-117075000D01*
X1474999Y-117075000D01*
X1474999Y-117068421D01*
X1468591Y-116997895D01*
X1418018Y-116835602D01*
X1330075Y-116690126D01*
X1227984Y-116588036D01*
X1195890Y-116532448D01*
X1195890Y-116468260D01*
X1227982Y-116412674D01*
X1330472Y-116310185D01*
X1418478Y-116164606D01*
X1469086Y-116002196D01*
X1475500Y-115931616D01*
X1475500Y-115418384D01*
X1470685Y-115365401D01*
X1479903Y-115306036D01*
X1515946Y-115257971D01*
X1570352Y-115232489D01*
X1630350Y-115235573D01*
X1681857Y-115266498D01*
X1799146Y-115383787D01*
X1812046Y-115399888D01*
X1863173Y-115447900D01*
X1865969Y-115450610D01*
X1885479Y-115470120D01*
X1888661Y-115472588D01*
X1897521Y-115480155D01*
X1917514Y-115498930D01*
X1929368Y-115510062D01*
X1946920Y-115519711D01*
X1963188Y-115530397D01*
X1979014Y-115542673D01*
X2019096Y-115560017D01*
X2029583Y-115565155D01*
X2067857Y-115586197D01*
X2076360Y-115588379D01*
X2087258Y-115591178D01*
X2105663Y-115597478D01*
X2124054Y-115605437D01*
X2167200Y-115612270D01*
X2178618Y-115614635D01*
X2220931Y-115625500D01*
X2240966Y-115625500D01*
X2260365Y-115627027D01*
X2280146Y-115630160D01*
X2323624Y-115626050D01*
X2335294Y-115625500D01*
X3417256Y-115625500D01*
X3437762Y-115627764D01*
X3440665Y-115627672D01*
X3440667Y-115627673D01*
X3507872Y-115625561D01*
X3511768Y-115625500D01*
X3539349Y-115625500D01*
X3539350Y-115625500D01*
X3543319Y-115624998D01*
X3554965Y-115624080D01*
X3598627Y-115622709D01*
X3617859Y-115617120D01*
X3636918Y-115613174D01*
X3644099Y-115612267D01*
X3656792Y-115610664D01*
X3697407Y-115594582D01*
X3708444Y-115590803D01*
X3750390Y-115578618D01*
X3767629Y-115568422D01*
X3785102Y-115559862D01*
X3791815Y-115557204D01*
X3803732Y-115552486D01*
X3839064Y-115526814D01*
X3848830Y-115520400D01*
X3886418Y-115498171D01*
X3886417Y-115498171D01*
X3886420Y-115498170D01*
X3900585Y-115484004D01*
X3915373Y-115471373D01*
X3931587Y-115459594D01*
X3959438Y-115425926D01*
X3967279Y-115417309D01*
X4758788Y-114625801D01*
X4774885Y-114612906D01*
X4776873Y-114610787D01*
X4776877Y-114610786D01*
X4822948Y-114561723D01*
X4825566Y-114559023D01*
X4845120Y-114539471D01*
X4850642Y-114533950D01*
X4851102Y-114534410D01*
X4878287Y-114510207D01*
X5010185Y-114430472D01*
X5112674Y-114327982D01*
X5168260Y-114295890D01*
X5232448Y-114295890D01*
X5288036Y-114327984D01*
X5390126Y-114430075D01*
X5535603Y-114518019D01*
X5697893Y-114568590D01*
X5768424Y-114575000D01*
X5775000Y-114575000D01*
X5775000Y-113850000D01*
X6275000Y-113850000D01*
X6275000Y-114574999D01*
X6281579Y-114574999D01*
X6352104Y-114568591D01*
X6514397Y-114518018D01*
X6659875Y-114430074D01*
X6780074Y-114309875D01*
X6868019Y-114164396D01*
X6918590Y-114002106D01*
X6925000Y-113931576D01*
X6925000Y-113850000D01*
X6275000Y-113850000D01*
X5775000Y-113850000D01*
X5775000Y-113474000D01*
X5791613Y-113412000D01*
X5837000Y-113366613D01*
X5899000Y-113350000D01*
X6924999Y-113350000D01*
X6924999Y-113268421D01*
X6918591Y-113197895D01*
X6868018Y-113035602D01*
X6780074Y-112890124D01*
X6659875Y-112769925D01*
X6514396Y-112681980D01*
X6469161Y-112667885D01*
X6411276Y-112629461D01*
X6383145Y-112565933D01*
X6393599Y-112497246D01*
X6439356Y-112444964D01*
X6506051Y-112425500D01*
X8317256Y-112425500D01*
X8337762Y-112427764D01*
X8340665Y-112427672D01*
X8340667Y-112427673D01*
X8407872Y-112425561D01*
X8411768Y-112425500D01*
X8439349Y-112425500D01*
X8439350Y-112425500D01*
X8443319Y-112424998D01*
X8454965Y-112424080D01*
X8498627Y-112422709D01*
X8517859Y-112417120D01*
X8536918Y-112413174D01*
X8543196Y-112412381D01*
X8556792Y-112410664D01*
X8597407Y-112394582D01*
X8608444Y-112390803D01*
X8650390Y-112378618D01*
X8667629Y-112368422D01*
X8685102Y-112359862D01*
X8703732Y-112352486D01*
X8739064Y-112326814D01*
X8748830Y-112320400D01*
X8750622Y-112319340D01*
X8786420Y-112298170D01*
X8800585Y-112284004D01*
X8815373Y-112271373D01*
X8831587Y-112259594D01*
X8859438Y-112225926D01*
X8867279Y-112217309D01*
X9283786Y-111800802D01*
X9299887Y-111787904D01*
X9301874Y-111785787D01*
X9301877Y-111785786D01*
X9347932Y-111736741D01*
X9350613Y-111733976D01*
X9370120Y-111714470D01*
X9372581Y-111711295D01*
X9380152Y-111702431D01*
X9410062Y-111670582D01*
X9419712Y-111653027D01*
X9430400Y-111636757D01*
X9442673Y-111620936D01*
X9460022Y-111580841D01*
X9465157Y-111570362D01*
X9486196Y-111532093D01*
X9486197Y-111532092D01*
X9491178Y-111512690D01*
X9497478Y-111494287D01*
X9505438Y-111475895D01*
X9512270Y-111432748D01*
X9514639Y-111421315D01*
X9525500Y-111379020D01*
X9525500Y-111358984D01*
X9527027Y-111339585D01*
X9530160Y-111319804D01*
X9526050Y-111276325D01*
X9525500Y-111264656D01*
X9525500Y-108882740D01*
X9527763Y-108862236D01*
X9527096Y-108841016D01*
X9525561Y-108792144D01*
X9525500Y-108788250D01*
X9525500Y-108760657D01*
X9525500Y-108760650D01*
X9524995Y-108756653D01*
X9524080Y-108745023D01*
X9522709Y-108701372D01*
X9517119Y-108682134D01*
X9513174Y-108663082D01*
X9513014Y-108661819D01*
X9510664Y-108643208D01*
X9494578Y-108602581D01*
X9490805Y-108591560D01*
X9478617Y-108549610D01*
X9468421Y-108532369D01*
X9459863Y-108514902D01*
X9452486Y-108496268D01*
X9426798Y-108460912D01*
X9420409Y-108451184D01*
X9398170Y-108413579D01*
X9384006Y-108399415D01*
X9371369Y-108384620D01*
X9359595Y-108368414D01*
X9353510Y-108363380D01*
X9325935Y-108340568D01*
X9317305Y-108332714D01*
X8700802Y-107716211D01*
X8687906Y-107700113D01*
X8636775Y-107652098D01*
X8633978Y-107649387D01*
X8614470Y-107629879D01*
X8611290Y-107627412D01*
X8602424Y-107619839D01*
X8570582Y-107589938D01*
X8553024Y-107580285D01*
X8536764Y-107569604D01*
X8520936Y-107557327D01*
X8480851Y-107539980D01*
X8470361Y-107534841D01*
X8432091Y-107513802D01*
X8412691Y-107508821D01*
X8394284Y-107502519D01*
X8375897Y-107494562D01*
X8332758Y-107487729D01*
X8321324Y-107485361D01*
X8279019Y-107474500D01*
X8258984Y-107474500D01*
X8239586Y-107472973D01*
X8232162Y-107471797D01*
X8219805Y-107469840D01*
X8219804Y-107469840D01*
X8194468Y-107472235D01*
X8176325Y-107473950D01*
X8164656Y-107474500D01*
X482744Y-107474500D01*
X462237Y-107472235D01*
X392127Y-107474439D01*
X388232Y-107474500D01*
X360650Y-107474500D01*
X356665Y-107475003D01*
X345033Y-107475918D01*
X301369Y-107477290D01*
X282129Y-107482880D01*
X263081Y-107486825D01*
X243209Y-107489335D01*
X202599Y-107505413D01*
X191554Y-107509194D01*
X149610Y-107521381D01*
X132365Y-107531579D01*
X114904Y-107540133D01*
X96267Y-107547512D01*
X60931Y-107573185D01*
X51174Y-107579595D01*
X13580Y-107601829D01*
X-587Y-107615996D01*
X-15376Y-107628626D01*
X-31587Y-107640404D01*
X-59428Y-107674058D01*
X-67288Y-107682696D01*
X-162321Y-107777729D01*
X-217906Y-107809822D01*
X-282093Y-107809822D01*
X-337681Y-107777728D01*
X-499198Y-107616211D01*
X-512094Y-107600113D01*
X-563225Y-107552098D01*
X-566022Y-107549387D01*
X-585530Y-107529879D01*
X-588710Y-107527412D01*
X-597576Y-107519839D01*
X-629418Y-107489938D01*
X-646976Y-107480285D01*
X-663236Y-107469604D01*
X-679064Y-107457327D01*
X-719149Y-107439980D01*
X-729639Y-107434841D01*
X-767909Y-107413802D01*
X-787309Y-107408821D01*
X-805716Y-107402519D01*
X-824103Y-107394562D01*
X-867242Y-107387729D01*
X-878676Y-107385361D01*
X-920981Y-107374500D01*
X-941016Y-107374500D01*
X-960414Y-107372973D01*
X-964487Y-107372328D01*
X-980199Y-107369839D01*
X-991517Y-107370909D01*
X-1051536Y-107361642D01*
X-1099957Y-107324987D01*
X-1125165Y-107269734D01*
X-1121113Y-107209141D01*
X-1114326Y-107188256D01*
X-1094540Y-107000000D01*
X-1114326Y-106811744D01*
X-1172821Y-106631716D01*
X-1172821Y-106631715D01*
X-1267467Y-106467783D01*
X-1389302Y-106332472D01*
X-1416584Y-106282846D01*
X-1418956Y-106226265D01*
X-1395922Y-106174530D01*
X-1352287Y-106138432D01*
X-1297152Y-106125500D01*
X8189548Y-106125500D01*
X8237001Y-106134939D01*
G37*
%TD.AperFunction*%
%TA.AperFunction,Conductor*%
G36*
X26836951Y-115434939D02*
G01*
X26877178Y-115461818D01*
X27803540Y-116388181D01*
X28699146Y-117283787D01*
X28712046Y-117299888D01*
X28763173Y-117347900D01*
X28765969Y-117350610D01*
X28785479Y-117370120D01*
X28788661Y-117372588D01*
X28797521Y-117380155D01*
X28821201Y-117402393D01*
X28829368Y-117410062D01*
X28846920Y-117419711D01*
X28863188Y-117430397D01*
X28879014Y-117442673D01*
X28919096Y-117460017D01*
X28929583Y-117465155D01*
X28967857Y-117486197D01*
X28976360Y-117488379D01*
X28987258Y-117491178D01*
X29005663Y-117497478D01*
X29024054Y-117505437D01*
X29067200Y-117512270D01*
X29078618Y-117514635D01*
X29120931Y-117525500D01*
X29140966Y-117525500D01*
X29160365Y-117527027D01*
X29180146Y-117530160D01*
X29223624Y-117526050D01*
X29235294Y-117525500D01*
X29717256Y-117525500D01*
X29737762Y-117527764D01*
X29740665Y-117527672D01*
X29740667Y-117527673D01*
X29807872Y-117525561D01*
X29811768Y-117525500D01*
X29839349Y-117525500D01*
X29839350Y-117525500D01*
X29843319Y-117524998D01*
X29854965Y-117524080D01*
X29898627Y-117522709D01*
X29900643Y-117522122D01*
X29965320Y-117520899D01*
X30021813Y-117552417D01*
X30054746Y-117608097D01*
X30055154Y-117672787D01*
X30022926Y-117728878D01*
X28613624Y-119138181D01*
X28573396Y-119165061D01*
X28525943Y-119174500D01*
X26210453Y-119174500D01*
X26163000Y-119165061D01*
X26122772Y-119138181D01*
X25542376Y-118557785D01*
X25509019Y-118497043D01*
X25513465Y-118427887D01*
X25554326Y-118371916D01*
X25618841Y-118346612D01*
X25652108Y-118343590D01*
X25814397Y-118293018D01*
X25959875Y-118205074D01*
X26080074Y-118084875D01*
X26168019Y-117939396D01*
X26218590Y-117777106D01*
X26225000Y-117706576D01*
X26225000Y-117700000D01*
X25124000Y-117700000D01*
X25062000Y-117683387D01*
X25016613Y-117638000D01*
X25000000Y-117576000D01*
X25000000Y-117324000D01*
X25016613Y-117262000D01*
X25062000Y-117216613D01*
X25124000Y-117200000D01*
X26224999Y-117200000D01*
X26224999Y-117193421D01*
X26218591Y-117122895D01*
X26168018Y-116960602D01*
X26080075Y-116815126D01*
X25977984Y-116713036D01*
X25945890Y-116657448D01*
X25945890Y-116593260D01*
X25977982Y-116537674D01*
X26080472Y-116435185D01*
X26168478Y-116289606D01*
X26219086Y-116127196D01*
X26225045Y-116061620D01*
X26225500Y-116056617D01*
X26225500Y-115550844D01*
X26236890Y-115498930D01*
X26268969Y-115456554D01*
X26315842Y-115431500D01*
X26368898Y-115428371D01*
X26380193Y-115430160D01*
X26380194Y-115430159D01*
X26380196Y-115430160D01*
X26423674Y-115426050D01*
X26435344Y-115425500D01*
X26789498Y-115425500D01*
X26836951Y-115434939D01*
G37*
%TD.AperFunction*%
%TA.AperFunction,Conductor*%
G36*
X29025180Y-110939060D02*
G01*
X30938681Y-112852561D01*
X30965561Y-112892789D01*
X30975000Y-112940242D01*
X30975000Y-114789048D01*
X30965561Y-114836501D01*
X30938681Y-114876728D01*
X30262924Y-115552485D01*
X29587656Y-116227753D01*
X29532069Y-116259847D01*
X29467881Y-116259847D01*
X29412294Y-116227753D01*
X27600752Y-114416211D01*
X27587856Y-114400113D01*
X27536725Y-114352098D01*
X27533928Y-114349387D01*
X27514420Y-114329879D01*
X27511240Y-114327412D01*
X27502374Y-114319839D01*
X27470532Y-114289938D01*
X27452974Y-114280285D01*
X27436714Y-114269604D01*
X27420886Y-114257327D01*
X27380801Y-114239980D01*
X27370311Y-114234841D01*
X27332041Y-114213802D01*
X27312641Y-114208821D01*
X27294234Y-114202519D01*
X27275847Y-114194562D01*
X27232708Y-114187729D01*
X27221274Y-114185361D01*
X27178969Y-114174500D01*
X27158934Y-114174500D01*
X27139536Y-114172973D01*
X27131252Y-114171661D01*
X27119755Y-114169840D01*
X27119754Y-114169840D01*
X27086701Y-114172964D01*
X27076275Y-114173950D01*
X27064606Y-114174500D01*
X26710452Y-114174500D01*
X26662999Y-114165061D01*
X26622771Y-114138181D01*
X26411819Y-113927228D01*
X26384939Y-113887000D01*
X26375500Y-113839547D01*
X26375500Y-113458965D01*
X26376211Y-113445708D01*
X26379835Y-113412000D01*
X26380500Y-113405817D01*
X26380499Y-113004857D01*
X26394014Y-112948565D01*
X26431613Y-112904542D01*
X26485101Y-112882387D01*
X26542817Y-112886929D01*
X26547827Y-112889999D01*
X26895769Y-112889999D01*
X26956250Y-112883497D01*
X27091615Y-112833009D01*
X27137900Y-112825226D01*
X27183762Y-112835203D01*
X27222630Y-112861510D01*
X28138181Y-113777061D01*
X28165061Y-113817289D01*
X28174500Y-113864742D01*
X28174500Y-114231617D01*
X28180913Y-114302193D01*
X28180914Y-114302196D01*
X28231522Y-114464606D01*
X28258414Y-114509090D01*
X28319528Y-114610186D01*
X28439813Y-114730471D01*
X28439815Y-114730472D01*
X28585394Y-114818478D01*
X28747804Y-114869086D01*
X28794857Y-114873362D01*
X28818383Y-114875500D01*
X28818384Y-114875500D01*
X29331616Y-114875500D01*
X29331617Y-114875500D01*
X29349260Y-114873896D01*
X29402196Y-114869086D01*
X29564606Y-114818478D01*
X29710185Y-114730472D01*
X29812674Y-114627982D01*
X29868260Y-114595890D01*
X29932448Y-114595890D01*
X29988036Y-114627984D01*
X30090126Y-114730075D01*
X30235603Y-114818019D01*
X30397893Y-114868590D01*
X30468424Y-114875000D01*
X30475000Y-114875000D01*
X30475000Y-112925001D01*
X30468421Y-112925001D01*
X30397895Y-112931408D01*
X30235602Y-112981981D01*
X30090124Y-113069925D01*
X29988035Y-113172015D01*
X29932448Y-113204109D01*
X29868260Y-113204109D01*
X29812673Y-113172015D01*
X29710186Y-113069528D01*
X29603213Y-113004861D01*
X29564606Y-112981522D01*
X29405421Y-112931919D01*
X29402193Y-112930913D01*
X29331617Y-112924500D01*
X29331616Y-112924500D01*
X28964742Y-112924500D01*
X28917289Y-112915061D01*
X28877061Y-112888181D01*
X27957096Y-111968216D01*
X27926116Y-111916530D01*
X27923160Y-111856343D01*
X27948924Y-111801870D01*
X27997325Y-111765974D01*
X28005233Y-111762698D01*
X28035708Y-111739314D01*
X28035709Y-111739313D01*
X28042664Y-111733976D01*
X28095268Y-111693612D01*
X28095268Y-111693610D01*
X28111560Y-111681110D01*
X28111561Y-111681108D01*
X28125451Y-111670451D01*
X28143670Y-111646706D01*
X28154350Y-111634528D01*
X28849822Y-110939057D01*
X28905405Y-110906966D01*
X28969593Y-110906966D01*
X29025180Y-110939060D01*
G37*
%TD.AperFunction*%
%TA.AperFunction,Conductor*%
G36*
X-2687500Y-107642113D02*
G01*
X-2642113Y-107687500D01*
X-2625500Y-107749500D01*
X-2625500Y-107929151D01*
X-2627696Y-107952385D01*
X-2629228Y-107960412D01*
X-2625745Y-108015759D01*
X-2625500Y-108023545D01*
X-2625500Y-108039350D01*
X-2623519Y-108055037D01*
X-2622787Y-108062787D01*
X-2619305Y-108118137D01*
X-2616780Y-108125908D01*
X-2611690Y-108148678D01*
X-2610665Y-108156788D01*
X-2610664Y-108156792D01*
X-2608319Y-108162714D01*
X-2590247Y-108208360D01*
X-2587610Y-108215684D01*
X-2579245Y-108241427D01*
X-2570467Y-108268441D01*
X-2570466Y-108268442D01*
X-2566090Y-108275339D01*
X-2555500Y-108296123D01*
X-2552487Y-108303732D01*
X-2519880Y-108348612D01*
X-2515502Y-108355053D01*
X-2485786Y-108401877D01*
X-2479833Y-108407467D01*
X-2464397Y-108424976D01*
X-2459594Y-108431587D01*
X-2416854Y-108466945D01*
X-2411022Y-108472087D01*
X-2370582Y-108510062D01*
X-2363422Y-108513998D01*
X-2344117Y-108527117D01*
X-2337821Y-108532326D01*
X-2287637Y-108555941D01*
X-2280698Y-108559476D01*
X-2245069Y-108579063D01*
X-2232092Y-108586197D01*
X-2224178Y-108588228D01*
X-2202226Y-108596132D01*
X-2200047Y-108597157D01*
X-2194826Y-108599614D01*
X-2140327Y-108610010D01*
X-2132737Y-108611707D01*
X-2079019Y-108625500D01*
X-2070849Y-108625500D01*
X-2047615Y-108627696D01*
X-2039588Y-108629227D01*
X-1984241Y-108625745D01*
X-1976455Y-108625500D01*
X-1310452Y-108625500D01*
X-1262999Y-108634939D01*
X-1222771Y-108661819D01*
X-929656Y-108954935D01*
X-898360Y-109007681D01*
X-896171Y-109068974D01*
X-923624Y-109123818D01*
X-974003Y-109158797D01*
X-1118063Y-109212529D01*
X-1234961Y-109300039D01*
X-1322469Y-109416935D01*
X-1373498Y-109553748D01*
X-1380000Y-109614231D01*
X-1380000Y-109962174D01*
X-1376931Y-109967182D01*
X-1372389Y-110024898D01*
X-1394544Y-110078385D01*
X-1438567Y-110115985D01*
X-1494862Y-110129500D01*
X-1895814Y-110129500D01*
X-1956360Y-110136009D01*
X-2065407Y-110176682D01*
X-2108740Y-110184500D01*
X-2650258Y-110184500D01*
X-2697711Y-110175061D01*
X-2737939Y-110148181D01*
X-2860640Y-110025480D01*
X-2871334Y-110013286D01*
X-2889547Y-109989551D01*
X-2889549Y-109989550D01*
X-2889549Y-109989549D01*
X-2919730Y-109966390D01*
X-2919732Y-109966388D01*
X-3009767Y-109897302D01*
X-3016381Y-109894562D01*
X-3016382Y-109894561D01*
X-3016382Y-109894562D01*
X-3149765Y-109839312D01*
X-3270332Y-109823439D01*
X-3270345Y-109823439D01*
X-3300000Y-109819534D01*
X-3329655Y-109823439D01*
X-3345840Y-109824500D01*
X-3868172Y-109824500D01*
X-3929088Y-109808506D01*
X-3974289Y-109764649D01*
X-4019528Y-109689814D01*
X-4139814Y-109569528D01*
X-4227820Y-109516326D01*
X-4285394Y-109481522D01*
X-4447804Y-109430914D01*
X-4447807Y-109430913D01*
X-4518383Y-109424500D01*
X-4518384Y-109424500D01*
X-5031616Y-109424500D01*
X-5031617Y-109424500D01*
X-5102194Y-109430913D01*
X-5183401Y-109456217D01*
X-5264606Y-109481522D01*
X-5264608Y-109481522D01*
X-5264608Y-109481523D01*
X-5410187Y-109569528D01*
X-5512673Y-109672015D01*
X-5568260Y-109704109D01*
X-5632448Y-109704109D01*
X-5688035Y-109672015D01*
X-5790125Y-109569925D01*
X-5935604Y-109481980D01*
X-6097894Y-109431409D01*
X-6168424Y-109425000D01*
X-6175000Y-109425000D01*
X-6175000Y-111374999D01*
X-6168421Y-111374999D01*
X-6097896Y-111368591D01*
X-5935603Y-111318018D01*
X-5790127Y-111230075D01*
X-5688036Y-111127984D01*
X-5632448Y-111095890D01*
X-5568260Y-111095890D01*
X-5512675Y-111127982D01*
X-5410185Y-111230472D01*
X-5264606Y-111318478D01*
X-5102196Y-111369086D01*
X-5055143Y-111373362D01*
X-5031617Y-111375500D01*
X-4588743Y-111375500D01*
X-4532448Y-111389015D01*
X-4488425Y-111426615D01*
X-4466270Y-111480102D01*
X-4470812Y-111537818D01*
X-4501062Y-111587181D01*
X-4774523Y-111860641D01*
X-4786715Y-111871334D01*
X-4810453Y-111889549D01*
X-4836122Y-111923001D01*
X-4836124Y-111923003D01*
X-4836123Y-111923004D01*
X-4851394Y-111942905D01*
X-4851395Y-111942907D01*
X-4902698Y-112009766D01*
X-4960688Y-112149764D01*
X-4976561Y-112270338D01*
X-4976561Y-112270345D01*
X-4980466Y-112300000D01*
X-4976561Y-112329655D01*
X-4975500Y-112345840D01*
X-4975500Y-113818172D01*
X-4991494Y-113879088D01*
X-5035351Y-113924289D01*
X-5110186Y-113969527D01*
X-5212319Y-114071661D01*
X-5267906Y-114103755D01*
X-5332094Y-114103755D01*
X-5387681Y-114071661D01*
X-5489814Y-113969528D01*
X-5577821Y-113916326D01*
X-5635394Y-113881522D01*
X-5797804Y-113830914D01*
X-5797807Y-113830913D01*
X-5868383Y-113824500D01*
X-5868384Y-113824500D01*
X-6164548Y-113824500D01*
X-6212001Y-113815061D01*
X-6252229Y-113788181D01*
X-7238181Y-112802228D01*
X-7265061Y-112762000D01*
X-7274500Y-112714547D01*
X-7274500Y-111314812D01*
X-7260985Y-111258517D01*
X-7223385Y-111214494D01*
X-7169898Y-111192339D01*
X-7112182Y-111196881D01*
X-7062819Y-111227131D01*
X-7059876Y-111230074D01*
X-6914397Y-111318019D01*
X-6752107Y-111368590D01*
X-6681576Y-111375000D01*
X-6675000Y-111375000D01*
X-6675000Y-109425001D01*
X-6681569Y-109425001D01*
X-6735213Y-109429874D01*
X-6794578Y-109420653D01*
X-6842641Y-109384610D01*
X-6868121Y-109330204D01*
X-6865037Y-109270207D01*
X-6834114Y-109218703D01*
X-5277230Y-107661819D01*
X-5237001Y-107634939D01*
X-5189548Y-107625500D01*
X-2749500Y-107625500D01*
X-2687500Y-107642113D01*
G37*
%TD.AperFunction*%
%TA.AperFunction,Conductor*%
G36*
X31812500Y-105142113D02*
G01*
X31857887Y-105187500D01*
X31874500Y-105249500D01*
X31874500Y-109132354D01*
X31858136Y-109193921D01*
X31813363Y-109239238D01*
X31751998Y-109256345D01*
X31690238Y-109240726D01*
X31644383Y-109196504D01*
X31580074Y-109090124D01*
X31459875Y-108969925D01*
X31314396Y-108881980D01*
X31152106Y-108831409D01*
X31081576Y-108825000D01*
X31075000Y-108825000D01*
X31075000Y-110774999D01*
X31081579Y-110774999D01*
X31152104Y-110768591D01*
X31314397Y-110718018D01*
X31459875Y-110630074D01*
X31580074Y-110509875D01*
X31644383Y-110403496D01*
X31690238Y-110359274D01*
X31751998Y-110343655D01*
X31813363Y-110360762D01*
X31858136Y-110406079D01*
X31874500Y-110467646D01*
X31874500Y-111861258D01*
X31860985Y-111917553D01*
X31823385Y-111961576D01*
X31769898Y-111983731D01*
X31712182Y-111979189D01*
X31662819Y-111948939D01*
X30611319Y-110897439D01*
X30584439Y-110857211D01*
X30575000Y-110809758D01*
X30575000Y-108825001D01*
X30568421Y-108825001D01*
X30497895Y-108831408D01*
X30335602Y-108881981D01*
X30190124Y-108969925D01*
X30088035Y-109072015D01*
X30032448Y-109104109D01*
X29968260Y-109104109D01*
X29912673Y-109072015D01*
X29799539Y-108958881D01*
X29799734Y-108958685D01*
X29766495Y-108924428D01*
X29750500Y-108863511D01*
X29750500Y-108414743D01*
X29759938Y-108367292D01*
X29786815Y-108327065D01*
X29793776Y-108320102D01*
X29813342Y-108300536D01*
X29859018Y-108271549D01*
X29886228Y-108261754D01*
X30016937Y-108172923D01*
X30121450Y-108054378D01*
X30193197Y-107913564D01*
X30227672Y-107759332D01*
X30222709Y-107601372D01*
X30187530Y-107480288D01*
X30178617Y-107449609D01*
X30126594Y-107361642D01*
X30098170Y-107313579D01*
X29400802Y-106616210D01*
X29387906Y-106600113D01*
X29336775Y-106552098D01*
X29333978Y-106549387D01*
X29314470Y-106529879D01*
X29311290Y-106527412D01*
X29302424Y-106519839D01*
X29270582Y-106489938D01*
X29253024Y-106480285D01*
X29236764Y-106469604D01*
X29220936Y-106457327D01*
X29180851Y-106439980D01*
X29170361Y-106434841D01*
X29132091Y-106413802D01*
X29112691Y-106408821D01*
X29094284Y-106402519D01*
X29075897Y-106394562D01*
X29032758Y-106387729D01*
X29021324Y-106385361D01*
X28979019Y-106374500D01*
X28958984Y-106374500D01*
X28939586Y-106372973D01*
X28930367Y-106371513D01*
X28919805Y-106369840D01*
X28919804Y-106369840D01*
X28902106Y-106371513D01*
X28876325Y-106373950D01*
X28864656Y-106374500D01*
X28203747Y-106374500D01*
X28153312Y-106363780D01*
X28111598Y-106333473D01*
X28105871Y-106327112D01*
X27952730Y-106215849D01*
X27952729Y-106215848D01*
X27952727Y-106215847D01*
X27779802Y-106138855D01*
X27594648Y-106099500D01*
X27594646Y-106099500D01*
X27405354Y-106099500D01*
X27405352Y-106099500D01*
X27220197Y-106138855D01*
X27047272Y-106215847D01*
X26955085Y-106282825D01*
X26894129Y-106327112D01*
X26888401Y-106333473D01*
X26846688Y-106363780D01*
X26796253Y-106374500D01*
X26582744Y-106374500D01*
X26562236Y-106372235D01*
X26492113Y-106374439D01*
X26488219Y-106374500D01*
X26460650Y-106374500D01*
X26456671Y-106375002D01*
X26445041Y-106375917D01*
X26401372Y-106377289D01*
X26382128Y-106382880D01*
X26363084Y-106386824D01*
X26343208Y-106389335D01*
X26302600Y-106405413D01*
X26291554Y-106409194D01*
X26249610Y-106421382D01*
X26249607Y-106421383D01*
X26232365Y-106431579D01*
X26214904Y-106440133D01*
X26196267Y-106447512D01*
X26160931Y-106473185D01*
X26151174Y-106479595D01*
X26113580Y-106501829D01*
X26099413Y-106515996D01*
X26084624Y-106528626D01*
X26068413Y-106540404D01*
X26040572Y-106574058D01*
X26032711Y-106582697D01*
X24837681Y-107777728D01*
X24782094Y-107809822D01*
X24717906Y-107809822D01*
X24662319Y-107777728D01*
X24500802Y-107616211D01*
X24487906Y-107600113D01*
X24436775Y-107552098D01*
X24433978Y-107549387D01*
X24414470Y-107529879D01*
X24411290Y-107527412D01*
X24402424Y-107519839D01*
X24370582Y-107489938D01*
X24353024Y-107480285D01*
X24336764Y-107469604D01*
X24320936Y-107457327D01*
X24280851Y-107439980D01*
X24270361Y-107434841D01*
X24232091Y-107413802D01*
X24212691Y-107408821D01*
X24194284Y-107402519D01*
X24175897Y-107394562D01*
X24132758Y-107387729D01*
X24121324Y-107385361D01*
X24079019Y-107374500D01*
X24058984Y-107374500D01*
X24039586Y-107372973D01*
X24026554Y-107370909D01*
X24019805Y-107369840D01*
X24019804Y-107369840D01*
X23993484Y-107372328D01*
X23976325Y-107373950D01*
X23964656Y-107374500D01*
X15682740Y-107374500D01*
X15662236Y-107372236D01*
X15592144Y-107374439D01*
X15588250Y-107374500D01*
X15560648Y-107374500D01*
X15556653Y-107375004D01*
X15545029Y-107375918D01*
X15501368Y-107377290D01*
X15482128Y-107382880D01*
X15463081Y-107386825D01*
X15443209Y-107389335D01*
X15402599Y-107405413D01*
X15391554Y-107409194D01*
X15349611Y-107421380D01*
X15332369Y-107431578D01*
X15314897Y-107440138D01*
X15296266Y-107447514D01*
X15260938Y-107473181D01*
X15251180Y-107479591D01*
X15213579Y-107501829D01*
X15199410Y-107515998D01*
X15184622Y-107528628D01*
X15168413Y-107540405D01*
X15140572Y-107574058D01*
X15132711Y-107582696D01*
X14316208Y-108399199D01*
X14300110Y-108412096D01*
X14252096Y-108463225D01*
X14249391Y-108466017D01*
X14229874Y-108485534D01*
X14227415Y-108488705D01*
X14219842Y-108497572D01*
X14189935Y-108529420D01*
X14180285Y-108546974D01*
X14169609Y-108563228D01*
X14157326Y-108579063D01*
X14139975Y-108619158D01*
X14134838Y-108629644D01*
X14113802Y-108667907D01*
X14108821Y-108687309D01*
X14102520Y-108705711D01*
X14094561Y-108724102D01*
X14087728Y-108767242D01*
X14085360Y-108778674D01*
X14074500Y-108820978D01*
X14074500Y-108841016D01*
X14072973Y-108860413D01*
X14069840Y-108880196D01*
X14073390Y-108917751D01*
X14073950Y-108923675D01*
X14074500Y-108935344D01*
X14074500Y-109890548D01*
X14060985Y-109946843D01*
X14023385Y-109990866D01*
X13969898Y-110013021D01*
X13912182Y-110008479D01*
X13862819Y-109978229D01*
X9221772Y-105337181D01*
X9191522Y-105287818D01*
X9186980Y-105230102D01*
X9209135Y-105176615D01*
X9253158Y-105139015D01*
X9309453Y-105125500D01*
X31750500Y-105125500D01*
X31812500Y-105142113D01*
G37*
%TD.AperFunction*%
%TA.AperFunction,Conductor*%
G36*
X7937001Y-108734939D02*
G01*
X7977229Y-108761819D01*
X8238181Y-109022772D01*
X8265061Y-109063000D01*
X8274500Y-109110453D01*
X8274500Y-110989547D01*
X8265061Y-111037000D01*
X8238181Y-111077229D01*
X8177227Y-111138182D01*
X8136998Y-111165061D01*
X8089546Y-111174500D01*
X6957230Y-111174500D01*
X6901269Y-111161154D01*
X6857354Y-111123990D01*
X6834937Y-111071007D01*
X6838845Y-111013610D01*
X6873590Y-110902106D01*
X6880000Y-110831576D01*
X6880000Y-110750000D01*
X5854000Y-110750000D01*
X5792000Y-110733387D01*
X5746613Y-110688000D01*
X5730000Y-110626000D01*
X5730000Y-109525001D01*
X5723421Y-109525001D01*
X5652895Y-109531408D01*
X5490602Y-109581981D01*
X5345124Y-109669925D01*
X5243035Y-109772015D01*
X5187448Y-109804109D01*
X5123260Y-109804109D01*
X5067673Y-109772015D01*
X4965186Y-109669528D01*
X4820365Y-109581981D01*
X4819606Y-109581522D01*
X4658785Y-109531409D01*
X4657193Y-109530913D01*
X4592120Y-109525000D01*
X6230000Y-109525000D01*
X6230000Y-110250000D01*
X6879999Y-110250000D01*
X6879999Y-110168421D01*
X6873591Y-110097895D01*
X6823018Y-109935602D01*
X6735074Y-109790124D01*
X6614875Y-109669925D01*
X6469396Y-109581980D01*
X6307106Y-109531409D01*
X6236576Y-109525000D01*
X6230000Y-109525000D01*
X4592120Y-109525000D01*
X4586617Y-109524500D01*
X4586616Y-109524500D01*
X4073384Y-109524500D01*
X4073383Y-109524500D01*
X4002806Y-109530913D01*
X3929526Y-109553748D01*
X3840394Y-109581522D01*
X3840392Y-109581522D01*
X3840392Y-109581523D01*
X3694813Y-109669528D01*
X3574528Y-109789813D01*
X3494051Y-109922939D01*
X3486522Y-109935394D01*
X3469647Y-109989549D01*
X3435913Y-110097806D01*
X3429500Y-110168383D01*
X3429500Y-110535258D01*
X3420061Y-110582711D01*
X3393181Y-110622939D01*
X3367939Y-110648181D01*
X3327711Y-110675061D01*
X3280258Y-110684500D01*
X2476625Y-110684500D01*
X2418497Y-110670031D01*
X2373933Y-110630001D01*
X2353335Y-110573752D01*
X2348497Y-110528749D01*
X2297468Y-110391934D01*
X2209960Y-110275039D01*
X2093064Y-110187531D01*
X1956251Y-110136502D01*
X1895769Y-110130000D01*
X1565000Y-110130000D01*
X1565000Y-110505500D01*
X1548389Y-110567497D01*
X1503006Y-110612884D01*
X1441010Y-110629500D01*
X1435010Y-110629500D01*
X1429008Y-110629500D01*
X1367006Y-110612892D01*
X1321615Y-110567504D01*
X1305000Y-110505501D01*
X1305000Y-110205000D01*
X744000Y-110205000D01*
X682000Y-110188387D01*
X636613Y-110143000D01*
X620000Y-110081000D01*
X620000Y-109155001D01*
X579227Y-109155001D01*
X536946Y-109159545D01*
X504524Y-109155000D01*
X880000Y-109155000D01*
X880000Y-109945000D01*
X1379999Y-109945000D01*
X1379999Y-109614231D01*
X1373497Y-109553749D01*
X1322468Y-109416934D01*
X1234960Y-109300039D01*
X1118064Y-109212531D01*
X981251Y-109161502D01*
X920769Y-109155000D01*
X880000Y-109155000D01*
X504524Y-109155000D01*
X477059Y-109151150D01*
X428263Y-109115430D01*
X402165Y-109060878D01*
X404972Y-109000470D01*
X436011Y-108948578D01*
X622774Y-108761816D01*
X663001Y-108734939D01*
X710453Y-108725500D01*
X7889548Y-108725500D01*
X7937001Y-108734939D01*
G37*
%TD.AperFunction*%
%TA.AperFunction,Conductor*%
G36*
X23737001Y-108634939D02*
G01*
X23777229Y-108661819D01*
X24070344Y-108954935D01*
X24101640Y-109007681D01*
X24103829Y-109068974D01*
X24076376Y-109123818D01*
X24025997Y-109158797D01*
X23881937Y-109212529D01*
X23765039Y-109300039D01*
X23677531Y-109416935D01*
X23626502Y-109553748D01*
X23620000Y-109614231D01*
X23620000Y-109962174D01*
X23623069Y-109967182D01*
X23627611Y-110024898D01*
X23605456Y-110078385D01*
X23561433Y-110115985D01*
X23505138Y-110129500D01*
X23104186Y-110129500D01*
X23043641Y-110136009D01*
X23043642Y-110136009D01*
X22906693Y-110187088D01*
X22889753Y-110199768D01*
X22854605Y-110218154D01*
X22815446Y-110224500D01*
X19531828Y-110224500D01*
X19470912Y-110208506D01*
X19425711Y-110164649D01*
X19380472Y-110089814D01*
X19260186Y-109969528D01*
X19140709Y-109897302D01*
X19114606Y-109881522D01*
X18953785Y-109831409D01*
X18952193Y-109830913D01*
X18881617Y-109824500D01*
X18881616Y-109824500D01*
X18368384Y-109824500D01*
X18368383Y-109824500D01*
X18297806Y-109830913D01*
X18216599Y-109856217D01*
X18135394Y-109881522D01*
X18135392Y-109881522D01*
X18135392Y-109881523D01*
X17989813Y-109969528D01*
X17887327Y-110072015D01*
X17831740Y-110104109D01*
X17767552Y-110104109D01*
X17711965Y-110072015D01*
X17609875Y-109969925D01*
X17464396Y-109881980D01*
X17302106Y-109831409D01*
X17231576Y-109825000D01*
X17225000Y-109825000D01*
X17225000Y-110926000D01*
X17208387Y-110988000D01*
X17163000Y-111033387D01*
X17101000Y-111050000D01*
X16849000Y-111050000D01*
X16787000Y-111033387D01*
X16741613Y-110988000D01*
X16725000Y-110926000D01*
X16725000Y-109825001D01*
X16718421Y-109825001D01*
X16647895Y-109831408D01*
X16485602Y-109881981D01*
X16340124Y-109969925D01*
X16219925Y-110090124D01*
X16131980Y-110235603D01*
X16081409Y-110397893D01*
X16075000Y-110468424D01*
X16075000Y-110691047D01*
X16061485Y-110747342D01*
X16023885Y-110791365D01*
X15970398Y-110813520D01*
X15912682Y-110808978D01*
X15863319Y-110778728D01*
X15361819Y-110277228D01*
X15334939Y-110237000D01*
X15325500Y-110189547D01*
X15325500Y-109210452D01*
X15334939Y-109162999D01*
X15361819Y-109122771D01*
X15822772Y-108661819D01*
X15863000Y-108634939D01*
X15910453Y-108625500D01*
X23689548Y-108625500D01*
X23737001Y-108634939D01*
G37*
%TD.AperFunction*%
%TA.AperFunction,Conductor*%
G36*
X28646912Y-107644199D02*
G01*
X28692643Y-107694656D01*
X28704834Y-107761654D01*
X28679807Y-107824985D01*
X28674515Y-107831882D01*
X28672301Y-107834768D01*
X28614312Y-107974764D01*
X28598439Y-108095338D01*
X28598439Y-108095345D01*
X28594534Y-108124999D01*
X28598439Y-108154655D01*
X28599500Y-108170840D01*
X28599500Y-108863511D01*
X28583505Y-108924428D01*
X28550265Y-108958685D01*
X28550461Y-108958881D01*
X28419528Y-109089813D01*
X28346600Y-109210452D01*
X28331522Y-109235394D01*
X28329861Y-109240726D01*
X28280913Y-109397806D01*
X28274500Y-109468383D01*
X28274500Y-109835258D01*
X28265061Y-109882711D01*
X28238181Y-109922939D01*
X27559320Y-110601799D01*
X27499076Y-110635045D01*
X27430382Y-110631053D01*
X27374393Y-110591055D01*
X27354758Y-110543038D01*
X27353941Y-110543343D01*
X27297468Y-110391934D01*
X27209960Y-110275039D01*
X27093064Y-110187531D01*
X26956251Y-110136502D01*
X26895769Y-110130000D01*
X26565000Y-110130000D01*
X26565000Y-110505500D01*
X26548389Y-110567497D01*
X26503006Y-110612884D01*
X26441010Y-110629500D01*
X26435010Y-110629500D01*
X26429008Y-110629500D01*
X26367006Y-110612892D01*
X26321615Y-110567504D01*
X26305000Y-110505501D01*
X26305000Y-110205000D01*
X25744000Y-110205000D01*
X25682000Y-110188387D01*
X25636613Y-110143000D01*
X25620000Y-110081000D01*
X25620000Y-109155001D01*
X25579227Y-109155001D01*
X25536946Y-109159545D01*
X25504520Y-109155000D01*
X25880000Y-109155000D01*
X25880000Y-109945000D01*
X26379999Y-109945000D01*
X26379999Y-109614231D01*
X26373497Y-109553749D01*
X26322468Y-109416934D01*
X26234960Y-109300039D01*
X26118064Y-109212531D01*
X25981251Y-109161502D01*
X25920769Y-109155000D01*
X25880000Y-109155000D01*
X25504520Y-109155000D01*
X25477059Y-109151151D01*
X25428264Y-109115430D01*
X25402165Y-109060878D01*
X25404972Y-109000471D01*
X25436013Y-108948576D01*
X26715301Y-107669288D01*
X26772982Y-107636654D01*
X26839234Y-107638389D01*
X26882881Y-107666196D01*
X26883586Y-107665227D01*
X26894126Y-107672884D01*
X26894129Y-107672888D01*
X27047270Y-107784151D01*
X27047271Y-107784151D01*
X27047272Y-107784152D01*
X27220197Y-107861144D01*
X27405352Y-107900500D01*
X27405354Y-107900500D01*
X27594646Y-107900500D01*
X27594648Y-107900500D01*
X27718083Y-107874262D01*
X27779803Y-107861144D01*
X27952730Y-107784151D01*
X28105871Y-107672888D01*
X28111598Y-107666526D01*
X28153312Y-107636220D01*
X28203747Y-107625500D01*
X28581431Y-107625500D01*
X28646912Y-107644199D01*
G37*
%TD.AperFunction*%
%TD*%
M02*
