%TF.GenerationSoftware,KiCad,Pcbnew,7.0.7*%
%TF.CreationDate,2023-10-03T17:06:42-05:00*%
%TF.ProjectId,MLX90393_board3,4d4c5839-3033-4393-935f-626f61726433,rev?*%
%TF.SameCoordinates,Original*%
%TF.FileFunction,Copper,L2,Inr*%
%TF.FilePolarity,Positive*%
%FSLAX46Y46*%
G04 Gerber Fmt 4.6, Leading zero omitted, Abs format (unit mm)*
G04 Created by KiCad (PCBNEW 7.0.7) date 2023-10-03 17:06:42*
%MOMM*%
%LPD*%
G01*
G04 APERTURE LIST*
%TA.AperFunction,ViaPad*%
%ADD10C,0.800000*%
%TD*%
G04 APERTURE END LIST*
D10*
%TO.N,+3.3V*%
X180900000Y-108300000D03*
X145261689Y-123158415D03*
X176016689Y-108248415D03*
X167016689Y-112748415D03*
X167016689Y-117248415D03*
X149561689Y-112958415D03*
X167016689Y-122348415D03*
X176016689Y-122248415D03*
X167016689Y-103748415D03*
X171516689Y-122148415D03*
X167016689Y-108248415D03*
X176016689Y-117248415D03*
X180516689Y-103748415D03*
X180516689Y-122148415D03*
X176016689Y-103748415D03*
X171516689Y-117248415D03*
X180516689Y-117248415D03*
X171516689Y-108248415D03*
X180516689Y-112748415D03*
X128350000Y-102000000D03*
X171516689Y-103748415D03*
X176016689Y-112748415D03*
X170998471Y-112658997D03*
%TO.N,GND*%
X182416689Y-106548415D03*
X172516689Y-122448415D03*
X162600000Y-118600000D03*
X182016689Y-115448415D03*
X138361689Y-128158415D03*
X134700000Y-101950000D03*
X137861689Y-123658415D03*
X162700000Y-105800000D03*
X171890716Y-107375685D03*
X172567646Y-111700281D03*
X162900000Y-114900000D03*
X162800000Y-110500000D03*
X136161689Y-118958415D03*
X182616689Y-110948415D03*
X182016689Y-119948415D03*
%TO.N,SCL_3V*%
X172516689Y-103748415D03*
X163545429Y-112748415D03*
X163545429Y-103748415D03*
X168045429Y-117248415D03*
X168016689Y-103748415D03*
X163545429Y-117248415D03*
X172516689Y-112648415D03*
X172545429Y-117248415D03*
X176962938Y-103669876D03*
X177045429Y-117248415D03*
X177045429Y-108148415D03*
X168045429Y-112748415D03*
X172616689Y-108248415D03*
X163545429Y-108248415D03*
X168024106Y-108148415D03*
X177045429Y-112748415D03*
%TO.N,SDA_3V*%
X163316689Y-116148415D03*
X173365320Y-112222526D03*
X174029928Y-121724959D03*
X162816689Y-120548415D03*
X168651363Y-112017389D03*
X173041320Y-107399155D03*
X176894571Y-116310973D03*
X176977383Y-111801354D03*
X168616689Y-107387986D03*
X162916689Y-107448415D03*
X177129672Y-107202657D03*
X176916689Y-120848415D03*
X162116689Y-111848415D03*
X168186155Y-121062126D03*
X172500000Y-116300000D03*
X168498212Y-116413824D03*
X156416689Y-114948415D03*
%TD*%
%TA.AperFunction,Conductor*%
%TO.N,GND*%
G36*
X180141997Y-91120185D02*
G01*
X180187752Y-91172989D01*
X180197696Y-91242147D01*
X180168671Y-91305703D01*
X180117368Y-91341022D01*
X179888897Y-91424178D01*
X179888891Y-91424181D01*
X179597380Y-91570584D01*
X179324815Y-91749852D01*
X179074931Y-91959530D01*
X179074930Y-91959531D01*
X179074924Y-91959536D01*
X179074923Y-91959538D01*
X178851057Y-92196823D01*
X178851054Y-92196826D01*
X178851052Y-92196829D01*
X178851045Y-92196837D01*
X178656251Y-92458490D01*
X178493143Y-92741003D01*
X178493137Y-92741016D01*
X178363931Y-93040547D01*
X178270369Y-93353067D01*
X178270367Y-93353075D01*
X178213723Y-93674319D01*
X178213722Y-93674330D01*
X178194754Y-93999996D01*
X178194754Y-94000003D01*
X178213722Y-94325669D01*
X178213723Y-94325680D01*
X178270367Y-94646924D01*
X178270369Y-94646932D01*
X178363931Y-94959452D01*
X178493137Y-95258983D01*
X178493143Y-95258996D01*
X178656251Y-95541509D01*
X178851045Y-95803162D01*
X178851050Y-95803168D01*
X178851057Y-95803177D01*
X179074923Y-96040462D01*
X179074929Y-96040467D01*
X179074930Y-96040468D01*
X179074931Y-96040469D01*
X179324815Y-96250147D01*
X179324818Y-96250149D01*
X179324823Y-96250153D01*
X179597377Y-96429414D01*
X179888899Y-96575822D01*
X180195446Y-96687396D01*
X180195452Y-96687397D01*
X180195454Y-96687398D01*
X180512858Y-96762625D01*
X180512865Y-96762626D01*
X180512874Y-96762628D01*
X180836889Y-96800500D01*
X180836896Y-96800500D01*
X181163104Y-96800500D01*
X181163111Y-96800500D01*
X181487126Y-96762628D01*
X181487135Y-96762625D01*
X181487141Y-96762625D01*
X181743176Y-96701942D01*
X181804554Y-96687396D01*
X182111101Y-96575822D01*
X182402623Y-96429414D01*
X182675177Y-96250153D01*
X182925077Y-96040462D01*
X183148943Y-95803177D01*
X183343749Y-95541508D01*
X183506859Y-95258992D01*
X183636069Y-94959451D01*
X183656709Y-94890507D01*
X183694794Y-94831930D01*
X183758502Y-94803242D01*
X183827607Y-94813551D01*
X183880168Y-94859584D01*
X183899500Y-94926071D01*
X183899500Y-130073928D01*
X183879815Y-130140967D01*
X183827011Y-130186722D01*
X183757853Y-130196666D01*
X183694297Y-130167641D01*
X183656709Y-130109492D01*
X183636068Y-130040547D01*
X183506859Y-129741008D01*
X183343749Y-129458492D01*
X183343748Y-129458490D01*
X183148954Y-129196837D01*
X183148947Y-129196829D01*
X183148943Y-129196823D01*
X182925077Y-128959538D01*
X182925069Y-128959531D01*
X182925068Y-128959530D01*
X182675184Y-128749852D01*
X182675179Y-128749848D01*
X182675177Y-128749847D01*
X182402623Y-128570586D01*
X182397684Y-128568105D01*
X182111108Y-128424181D01*
X182111102Y-128424178D01*
X181804566Y-128312608D01*
X181804545Y-128312601D01*
X181487141Y-128237374D01*
X181487126Y-128237372D01*
X181487125Y-128237372D01*
X181163111Y-128199500D01*
X180836889Y-128199500D01*
X180553375Y-128232638D01*
X180512873Y-128237372D01*
X180512858Y-128237374D01*
X180195454Y-128312601D01*
X180195433Y-128312608D01*
X179888897Y-128424178D01*
X179888891Y-128424181D01*
X179597380Y-128570584D01*
X179324815Y-128749852D01*
X179074931Y-128959530D01*
X179074930Y-128959531D01*
X179074924Y-128959536D01*
X179074923Y-128959538D01*
X178851057Y-129196823D01*
X178851054Y-129196826D01*
X178851052Y-129196829D01*
X178851045Y-129196837D01*
X178656251Y-129458490D01*
X178493143Y-129741003D01*
X178493137Y-129741016D01*
X178363931Y-130040547D01*
X178270369Y-130353067D01*
X178270367Y-130353075D01*
X178213723Y-130674319D01*
X178213722Y-130674330D01*
X178194754Y-130999996D01*
X178194754Y-131000003D01*
X178213722Y-131325669D01*
X178213723Y-131325680D01*
X178270367Y-131646924D01*
X178270369Y-131646932D01*
X178363931Y-131959452D01*
X178493137Y-132258983D01*
X178493143Y-132258996D01*
X178656251Y-132541509D01*
X178851045Y-132803162D01*
X178851050Y-132803168D01*
X178851057Y-132803177D01*
X179074923Y-133040462D01*
X179074929Y-133040467D01*
X179074930Y-133040468D01*
X179074931Y-133040469D01*
X179324815Y-133250147D01*
X179324818Y-133250149D01*
X179324823Y-133250153D01*
X179597377Y-133429414D01*
X179888899Y-133575822D01*
X180069463Y-133641542D01*
X180117368Y-133658978D01*
X180173632Y-133700404D01*
X180198568Y-133765673D01*
X180184258Y-133834062D01*
X180135246Y-133883857D01*
X180074958Y-133899500D01*
X127875042Y-133899500D01*
X127808003Y-133879815D01*
X127762248Y-133827011D01*
X127752304Y-133757853D01*
X127781329Y-133694297D01*
X127832632Y-133658978D01*
X127855916Y-133650502D01*
X128061101Y-133575822D01*
X128352623Y-133429414D01*
X128625177Y-133250153D01*
X128875077Y-133040462D01*
X129098943Y-132803177D01*
X129293749Y-132541508D01*
X129456859Y-132258992D01*
X129586069Y-131959451D01*
X129679630Y-131646934D01*
X129736278Y-131325669D01*
X129755246Y-131000000D01*
X129736278Y-130674331D01*
X129679630Y-130353066D01*
X129586069Y-130040549D01*
X129456859Y-129741008D01*
X129293749Y-129458492D01*
X129293748Y-129458490D01*
X129098954Y-129196837D01*
X129098947Y-129196829D01*
X129098943Y-129196823D01*
X128875077Y-128959538D01*
X128875069Y-128959531D01*
X128875068Y-128959530D01*
X128625184Y-128749852D01*
X128625179Y-128749848D01*
X128625177Y-128749847D01*
X128352623Y-128570586D01*
X128347684Y-128568105D01*
X128061108Y-128424181D01*
X128061102Y-128424178D01*
X127754566Y-128312608D01*
X127754545Y-128312601D01*
X127437141Y-128237374D01*
X127437126Y-128237372D01*
X127437125Y-128237372D01*
X127113111Y-128199500D01*
X126786889Y-128199500D01*
X126503375Y-128232638D01*
X126462873Y-128237372D01*
X126462858Y-128237374D01*
X126145454Y-128312601D01*
X126145433Y-128312608D01*
X125838897Y-128424178D01*
X125838891Y-128424181D01*
X125547380Y-128570584D01*
X125274815Y-128749852D01*
X125024931Y-128959530D01*
X125024930Y-128959531D01*
X125024924Y-128959536D01*
X125024923Y-128959538D01*
X124801057Y-129196823D01*
X124801054Y-129196826D01*
X124801052Y-129196829D01*
X124801045Y-129196837D01*
X124606251Y-129458490D01*
X124443143Y-129741003D01*
X124443137Y-129741016D01*
X124313931Y-130040547D01*
X124293291Y-130109492D01*
X124255206Y-130168069D01*
X124191497Y-130196758D01*
X124122392Y-130186448D01*
X124069831Y-130140415D01*
X124050500Y-130073928D01*
X124050500Y-123158415D01*
X144356229Y-123158415D01*
X144376015Y-123346671D01*
X144376016Y-123346674D01*
X144434507Y-123526692D01*
X144434510Y-123526699D01*
X144529156Y-123690631D01*
X144655818Y-123831303D01*
X144808954Y-123942563D01*
X144808959Y-123942566D01*
X144981881Y-124019557D01*
X144981886Y-124019559D01*
X145167043Y-124058915D01*
X145167044Y-124058915D01*
X145356333Y-124058915D01*
X145356335Y-124058915D01*
X145541492Y-124019559D01*
X145714419Y-123942566D01*
X145867560Y-123831303D01*
X145994222Y-123690631D01*
X146088868Y-123526699D01*
X146147363Y-123346671D01*
X146167149Y-123158415D01*
X146147363Y-122970159D01*
X146088868Y-122790131D01*
X145994222Y-122626199D01*
X145867560Y-122485527D01*
X145867559Y-122485526D01*
X145714423Y-122374266D01*
X145714418Y-122374263D01*
X145656363Y-122348415D01*
X166111229Y-122348415D01*
X166131015Y-122536671D01*
X166131016Y-122536674D01*
X166189507Y-122716692D01*
X166189510Y-122716699D01*
X166284156Y-122880631D01*
X166330916Y-122932563D01*
X166410818Y-123021303D01*
X166563954Y-123132563D01*
X166563959Y-123132566D01*
X166736881Y-123209557D01*
X166736886Y-123209559D01*
X166922043Y-123248915D01*
X166922044Y-123248915D01*
X167111333Y-123248915D01*
X167111335Y-123248915D01*
X167296492Y-123209559D01*
X167469419Y-123132566D01*
X167622560Y-123021303D01*
X167749222Y-122880631D01*
X167843868Y-122716699D01*
X167902363Y-122536671D01*
X167922149Y-122348415D01*
X167902363Y-122160159D01*
X167898547Y-122148415D01*
X170611229Y-122148415D01*
X170631015Y-122336671D01*
X170631016Y-122336674D01*
X170689507Y-122516692D01*
X170689510Y-122516699D01*
X170784156Y-122680631D01*
X170816626Y-122716692D01*
X170910818Y-122821303D01*
X171063954Y-122932563D01*
X171063959Y-122932566D01*
X171236881Y-123009557D01*
X171236886Y-123009559D01*
X171422043Y-123048915D01*
X171422044Y-123048915D01*
X171611333Y-123048915D01*
X171611335Y-123048915D01*
X171796492Y-123009559D01*
X171969419Y-122932566D01*
X172122560Y-122821303D01*
X172249222Y-122680631D01*
X172343868Y-122516699D01*
X172402363Y-122336671D01*
X172422149Y-122148415D01*
X172402363Y-121960159D01*
X172343868Y-121780131D01*
X172312014Y-121724959D01*
X173124468Y-121724959D01*
X173144254Y-121913215D01*
X173144255Y-121913218D01*
X173202746Y-122093236D01*
X173202749Y-122093243D01*
X173297395Y-122257175D01*
X173379548Y-122348415D01*
X173424057Y-122397847D01*
X173577193Y-122509107D01*
X173577198Y-122509110D01*
X173750120Y-122586101D01*
X173750125Y-122586103D01*
X173935282Y-122625459D01*
X173935283Y-122625459D01*
X174124572Y-122625459D01*
X174124574Y-122625459D01*
X174309731Y-122586103D01*
X174482658Y-122509110D01*
X174635799Y-122397847D01*
X174762461Y-122257175D01*
X174767519Y-122248415D01*
X175111229Y-122248415D01*
X175131015Y-122436671D01*
X175131016Y-122436674D01*
X175189507Y-122616692D01*
X175189510Y-122616699D01*
X175284156Y-122780631D01*
X175374195Y-122880629D01*
X175410818Y-122921303D01*
X175563954Y-123032563D01*
X175563959Y-123032566D01*
X175736881Y-123109557D01*
X175736886Y-123109559D01*
X175922043Y-123148915D01*
X175922044Y-123148915D01*
X176111333Y-123148915D01*
X176111335Y-123148915D01*
X176296492Y-123109559D01*
X176469419Y-123032566D01*
X176622560Y-122921303D01*
X176749222Y-122780631D01*
X176843868Y-122616699D01*
X176902363Y-122436671D01*
X176922149Y-122248415D01*
X176911639Y-122148415D01*
X179611229Y-122148415D01*
X179631015Y-122336671D01*
X179631016Y-122336674D01*
X179689507Y-122516692D01*
X179689510Y-122516699D01*
X179784156Y-122680631D01*
X179816626Y-122716692D01*
X179910818Y-122821303D01*
X180063954Y-122932563D01*
X180063959Y-122932566D01*
X180236881Y-123009557D01*
X180236886Y-123009559D01*
X180422043Y-123048915D01*
X180422044Y-123048915D01*
X180611333Y-123048915D01*
X180611335Y-123048915D01*
X180796492Y-123009559D01*
X180969419Y-122932566D01*
X181122560Y-122821303D01*
X181249222Y-122680631D01*
X181343868Y-122516699D01*
X181402363Y-122336671D01*
X181422149Y-122148415D01*
X181402363Y-121960159D01*
X181343868Y-121780131D01*
X181249222Y-121616199D01*
X181122560Y-121475527D01*
X181107058Y-121464264D01*
X180969423Y-121364266D01*
X180969418Y-121364263D01*
X180796496Y-121287272D01*
X180796491Y-121287270D01*
X180646728Y-121255438D01*
X180611335Y-121247915D01*
X180422043Y-121247915D01*
X180389586Y-121254813D01*
X180236886Y-121287270D01*
X180236881Y-121287272D01*
X180063959Y-121364263D01*
X180063954Y-121364266D01*
X179910818Y-121475526D01*
X179784155Y-121616200D01*
X179689510Y-121780130D01*
X179689507Y-121780137D01*
X179643001Y-121923270D01*
X179631015Y-121960159D01*
X179611229Y-122148415D01*
X176911639Y-122148415D01*
X176902363Y-122060159D01*
X176853974Y-121911233D01*
X176851979Y-121841392D01*
X176888059Y-121781559D01*
X176950760Y-121750731D01*
X176971905Y-121748915D01*
X177011333Y-121748915D01*
X177011335Y-121748915D01*
X177196492Y-121709559D01*
X177369419Y-121632566D01*
X177522560Y-121521303D01*
X177649222Y-121380631D01*
X177743868Y-121216699D01*
X177802363Y-121036671D01*
X177822149Y-120848415D01*
X177802363Y-120660159D01*
X177743868Y-120480131D01*
X177649222Y-120316199D01*
X177522560Y-120175527D01*
X177503427Y-120161626D01*
X177369423Y-120064266D01*
X177369418Y-120064263D01*
X177196496Y-119987272D01*
X177196491Y-119987270D01*
X177050690Y-119956280D01*
X177011335Y-119947915D01*
X176822043Y-119947915D01*
X176789586Y-119954813D01*
X176636886Y-119987270D01*
X176636881Y-119987272D01*
X176463959Y-120064263D01*
X176463954Y-120064266D01*
X176310818Y-120175526D01*
X176184155Y-120316200D01*
X176089510Y-120480130D01*
X176089507Y-120480137D01*
X176031016Y-120660155D01*
X176031015Y-120660159D01*
X176011229Y-120848415D01*
X176031015Y-121036671D01*
X176031016Y-121036674D01*
X176079404Y-121185597D01*
X176081399Y-121255438D01*
X176045319Y-121315271D01*
X175982618Y-121346099D01*
X175961473Y-121347915D01*
X175922043Y-121347915D01*
X175889586Y-121354813D01*
X175736886Y-121387270D01*
X175736881Y-121387272D01*
X175563959Y-121464263D01*
X175563954Y-121464266D01*
X175410818Y-121575526D01*
X175284155Y-121716200D01*
X175189510Y-121880130D01*
X175189507Y-121880137D01*
X175137823Y-122039206D01*
X175131015Y-122060159D01*
X175111229Y-122248415D01*
X174767519Y-122248415D01*
X174857107Y-122093243D01*
X174915602Y-121913215D01*
X174935388Y-121724959D01*
X174915602Y-121536703D01*
X174857107Y-121356675D01*
X174762461Y-121192743D01*
X174635799Y-121052071D01*
X174614603Y-121036671D01*
X174482662Y-120940810D01*
X174482657Y-120940807D01*
X174309735Y-120863816D01*
X174309730Y-120863814D01*
X174163929Y-120832824D01*
X174124574Y-120824459D01*
X173935282Y-120824459D01*
X173902825Y-120831357D01*
X173750125Y-120863814D01*
X173750120Y-120863816D01*
X173577198Y-120940807D01*
X173577193Y-120940810D01*
X173424057Y-121052070D01*
X173297394Y-121192744D01*
X173202749Y-121356674D01*
X173202746Y-121356681D01*
X173144255Y-121536699D01*
X173144254Y-121536703D01*
X173124468Y-121724959D01*
X172312014Y-121724959D01*
X172249222Y-121616199D01*
X172122560Y-121475527D01*
X172107058Y-121464264D01*
X171969423Y-121364266D01*
X171969418Y-121364263D01*
X171796496Y-121287272D01*
X171796491Y-121287270D01*
X171646728Y-121255438D01*
X171611335Y-121247915D01*
X171422043Y-121247915D01*
X171389586Y-121254813D01*
X171236886Y-121287270D01*
X171236881Y-121287272D01*
X171063959Y-121364263D01*
X171063954Y-121364266D01*
X170910818Y-121475526D01*
X170784155Y-121616200D01*
X170689510Y-121780130D01*
X170689507Y-121780137D01*
X170643001Y-121923270D01*
X170631015Y-121960159D01*
X170611229Y-122148415D01*
X167898547Y-122148415D01*
X167885754Y-122109044D01*
X167883760Y-122039206D01*
X167919840Y-121979373D01*
X167982541Y-121948544D01*
X168029463Y-121949437D01*
X168091509Y-121962626D01*
X168091511Y-121962626D01*
X168280799Y-121962626D01*
X168280801Y-121962626D01*
X168465958Y-121923270D01*
X168638885Y-121846277D01*
X168792026Y-121735014D01*
X168918688Y-121594342D01*
X169013334Y-121430410D01*
X169071829Y-121250382D01*
X169091615Y-121062126D01*
X169071829Y-120873870D01*
X169013334Y-120693842D01*
X168918688Y-120529910D01*
X168792026Y-120389238D01*
X168792025Y-120389237D01*
X168638889Y-120277977D01*
X168638884Y-120277974D01*
X168465962Y-120200983D01*
X168465957Y-120200981D01*
X168320155Y-120169991D01*
X168280801Y-120161626D01*
X168091509Y-120161626D01*
X168059052Y-120168524D01*
X167906352Y-120200981D01*
X167906347Y-120200983D01*
X167733425Y-120277974D01*
X167733420Y-120277977D01*
X167580284Y-120389237D01*
X167453621Y-120529911D01*
X167358976Y-120693841D01*
X167358973Y-120693848D01*
X167300482Y-120873866D01*
X167300481Y-120873870D01*
X167280695Y-121062126D01*
X167300481Y-121250382D01*
X167300482Y-121250385D01*
X167317088Y-121301494D01*
X167319083Y-121371336D01*
X167283002Y-121431168D01*
X167220301Y-121461996D01*
X167173377Y-121461102D01*
X167111336Y-121447915D01*
X167111335Y-121447915D01*
X166922043Y-121447915D01*
X166889586Y-121454813D01*
X166736886Y-121487270D01*
X166736881Y-121487272D01*
X166563959Y-121564263D01*
X166563954Y-121564266D01*
X166410818Y-121675526D01*
X166284155Y-121816200D01*
X166189510Y-121980130D01*
X166189507Y-121980137D01*
X166152757Y-122093243D01*
X166131015Y-122160159D01*
X166111229Y-122348415D01*
X145656363Y-122348415D01*
X145541496Y-122297272D01*
X145541491Y-122297270D01*
X145395689Y-122266280D01*
X145356335Y-122257915D01*
X145167043Y-122257915D01*
X145134586Y-122264813D01*
X144981886Y-122297270D01*
X144981881Y-122297272D01*
X144808959Y-122374263D01*
X144808954Y-122374266D01*
X144655818Y-122485526D01*
X144529155Y-122626200D01*
X144434510Y-122790130D01*
X144434507Y-122790137D01*
X144376016Y-122970155D01*
X144376015Y-122970159D01*
X144356229Y-123158415D01*
X124050500Y-123158415D01*
X124050500Y-120548415D01*
X161911229Y-120548415D01*
X161931015Y-120736671D01*
X161931016Y-120736674D01*
X161989507Y-120916692D01*
X161989510Y-120916699D01*
X162084156Y-121080631D01*
X162185103Y-121192744D01*
X162210818Y-121221303D01*
X162363954Y-121332563D01*
X162363959Y-121332566D01*
X162536881Y-121409557D01*
X162536886Y-121409559D01*
X162722043Y-121448915D01*
X162722044Y-121448915D01*
X162911333Y-121448915D01*
X162911335Y-121448915D01*
X163096492Y-121409559D01*
X163269419Y-121332566D01*
X163422560Y-121221303D01*
X163549222Y-121080631D01*
X163643868Y-120916699D01*
X163702363Y-120736671D01*
X163722149Y-120548415D01*
X163702363Y-120360159D01*
X163643868Y-120180131D01*
X163549222Y-120016199D01*
X163422560Y-119875527D01*
X163422559Y-119875526D01*
X163269423Y-119764266D01*
X163269418Y-119764263D01*
X163096496Y-119687272D01*
X163096491Y-119687270D01*
X162950690Y-119656280D01*
X162911335Y-119647915D01*
X162722043Y-119647915D01*
X162689586Y-119654813D01*
X162536886Y-119687270D01*
X162536881Y-119687272D01*
X162363959Y-119764263D01*
X162363954Y-119764266D01*
X162210818Y-119875526D01*
X162084155Y-120016200D01*
X161989510Y-120180130D01*
X161989507Y-120180137D01*
X161945298Y-120316200D01*
X161931015Y-120360159D01*
X161911229Y-120548415D01*
X124050500Y-120548415D01*
X124050500Y-116148415D01*
X162411229Y-116148415D01*
X162431015Y-116336671D01*
X162431016Y-116336674D01*
X162489507Y-116516692D01*
X162489510Y-116516699D01*
X162584156Y-116680631D01*
X162632988Y-116734864D01*
X162682421Y-116789765D01*
X162712651Y-116852756D01*
X162708201Y-116911055D01*
X162659755Y-117060159D01*
X162639969Y-117248415D01*
X162659755Y-117436671D01*
X162659756Y-117436674D01*
X162718247Y-117616692D01*
X162718250Y-117616699D01*
X162812896Y-117780631D01*
X162939558Y-117921302D01*
X162939558Y-117921303D01*
X163092694Y-118032563D01*
X163092699Y-118032566D01*
X163265621Y-118109557D01*
X163265626Y-118109559D01*
X163450783Y-118148915D01*
X163450784Y-118148915D01*
X163640073Y-118148915D01*
X163640075Y-118148915D01*
X163825232Y-118109559D01*
X163998159Y-118032566D01*
X164151300Y-117921303D01*
X164277962Y-117780631D01*
X164372608Y-117616699D01*
X164431103Y-117436671D01*
X164450889Y-117248415D01*
X166111229Y-117248415D01*
X166131015Y-117436671D01*
X166131016Y-117436674D01*
X166189507Y-117616692D01*
X166189510Y-117616699D01*
X166284156Y-117780631D01*
X166410817Y-117921302D01*
X166410818Y-117921303D01*
X166563954Y-118032563D01*
X166563959Y-118032566D01*
X166736881Y-118109557D01*
X166736886Y-118109559D01*
X166922043Y-118148915D01*
X166922044Y-118148915D01*
X167111333Y-118148915D01*
X167111335Y-118148915D01*
X167296492Y-118109559D01*
X167469419Y-118032566D01*
X167469419Y-118032565D01*
X167475355Y-118029923D01*
X167475887Y-118031118D01*
X167536950Y-118016300D01*
X167586368Y-118030810D01*
X167586763Y-118029923D01*
X167765621Y-118109557D01*
X167765626Y-118109559D01*
X167950783Y-118148915D01*
X167950784Y-118148915D01*
X168140073Y-118148915D01*
X168140075Y-118148915D01*
X168325232Y-118109559D01*
X168498159Y-118032566D01*
X168651300Y-117921303D01*
X168777962Y-117780631D01*
X168872608Y-117616699D01*
X168931103Y-117436671D01*
X168950853Y-117248750D01*
X168950991Y-117248415D01*
X170611229Y-117248415D01*
X170631015Y-117436671D01*
X170631016Y-117436674D01*
X170689507Y-117616692D01*
X170689510Y-117616699D01*
X170784156Y-117780631D01*
X170910818Y-117921302D01*
X170910818Y-117921303D01*
X171063954Y-118032563D01*
X171063959Y-118032566D01*
X171236881Y-118109557D01*
X171236886Y-118109559D01*
X171422043Y-118148915D01*
X171422044Y-118148915D01*
X171611333Y-118148915D01*
X171611335Y-118148915D01*
X171796492Y-118109559D01*
X171969419Y-118032566D01*
X171969419Y-118032565D01*
X171975355Y-118029923D01*
X171975887Y-118031118D01*
X172036950Y-118016300D01*
X172086368Y-118030810D01*
X172086763Y-118029923D01*
X172265621Y-118109557D01*
X172265626Y-118109559D01*
X172450783Y-118148915D01*
X172450784Y-118148915D01*
X172640073Y-118148915D01*
X172640075Y-118148915D01*
X172825232Y-118109559D01*
X172998159Y-118032566D01*
X173151300Y-117921303D01*
X173277962Y-117780631D01*
X173372608Y-117616699D01*
X173431103Y-117436671D01*
X173450889Y-117248415D01*
X175111229Y-117248415D01*
X175131015Y-117436671D01*
X175131016Y-117436674D01*
X175189507Y-117616692D01*
X175189510Y-117616699D01*
X175284156Y-117780631D01*
X175410817Y-117921302D01*
X175410818Y-117921303D01*
X175563954Y-118032563D01*
X175563959Y-118032566D01*
X175736881Y-118109557D01*
X175736886Y-118109559D01*
X175922043Y-118148915D01*
X175922044Y-118148915D01*
X176111333Y-118148915D01*
X176111335Y-118148915D01*
X176296492Y-118109559D01*
X176469419Y-118032566D01*
X176469419Y-118032565D01*
X176475355Y-118029923D01*
X176475887Y-118031118D01*
X176536950Y-118016300D01*
X176586368Y-118030810D01*
X176586763Y-118029923D01*
X176765621Y-118109557D01*
X176765626Y-118109559D01*
X176950783Y-118148915D01*
X176950784Y-118148915D01*
X177140073Y-118148915D01*
X177140075Y-118148915D01*
X177325232Y-118109559D01*
X177498159Y-118032566D01*
X177651300Y-117921303D01*
X177777962Y-117780631D01*
X177872608Y-117616699D01*
X177931103Y-117436671D01*
X177950889Y-117248415D01*
X179611229Y-117248415D01*
X179631015Y-117436671D01*
X179631016Y-117436674D01*
X179689507Y-117616692D01*
X179689510Y-117616699D01*
X179784156Y-117780631D01*
X179910818Y-117921302D01*
X179910818Y-117921303D01*
X180063954Y-118032563D01*
X180063959Y-118032566D01*
X180236881Y-118109557D01*
X180236886Y-118109559D01*
X180422043Y-118148915D01*
X180422044Y-118148915D01*
X180611333Y-118148915D01*
X180611335Y-118148915D01*
X180796492Y-118109559D01*
X180969419Y-118032566D01*
X181122560Y-117921303D01*
X181249222Y-117780631D01*
X181343868Y-117616699D01*
X181402363Y-117436671D01*
X181422149Y-117248415D01*
X181402363Y-117060159D01*
X181343868Y-116880131D01*
X181249222Y-116716199D01*
X181122560Y-116575527D01*
X181079266Y-116544072D01*
X180969423Y-116464266D01*
X180969418Y-116464263D01*
X180796496Y-116387272D01*
X180796491Y-116387270D01*
X180634825Y-116352908D01*
X180611335Y-116347915D01*
X180422043Y-116347915D01*
X180398553Y-116352908D01*
X180236886Y-116387270D01*
X180236881Y-116387272D01*
X180063959Y-116464263D01*
X180063954Y-116464266D01*
X179910818Y-116575526D01*
X179784155Y-116716200D01*
X179689510Y-116880130D01*
X179689507Y-116880137D01*
X179631016Y-117060155D01*
X179631015Y-117060159D01*
X179611229Y-117248415D01*
X177950889Y-117248415D01*
X177931103Y-117060159D01*
X177872608Y-116880131D01*
X177816015Y-116782108D01*
X177777963Y-116716200D01*
X177777958Y-116716193D01*
X177775739Y-116713729D01*
X177774904Y-116711990D01*
X177774140Y-116710938D01*
X177774332Y-116710798D01*
X177745509Y-116650737D01*
X177749957Y-116592441D01*
X177780245Y-116499229D01*
X177800031Y-116310973D01*
X177780245Y-116122717D01*
X177721750Y-115942689D01*
X177627104Y-115778757D01*
X177500442Y-115638085D01*
X177488864Y-115629673D01*
X177347305Y-115526824D01*
X177347300Y-115526821D01*
X177174378Y-115449830D01*
X177174373Y-115449828D01*
X177028571Y-115418838D01*
X176989217Y-115410473D01*
X176799925Y-115410473D01*
X176767468Y-115417371D01*
X176614768Y-115449828D01*
X176614763Y-115449830D01*
X176441841Y-115526821D01*
X176441836Y-115526824D01*
X176288700Y-115638084D01*
X176162037Y-115778758D01*
X176067392Y-115942688D01*
X176067389Y-115942695D01*
X176012462Y-116111744D01*
X176008897Y-116122717D01*
X175998088Y-116225564D01*
X175996089Y-116244580D01*
X175969504Y-116309195D01*
X175912207Y-116349179D01*
X175898549Y-116352908D01*
X175736886Y-116387270D01*
X175736881Y-116387272D01*
X175563959Y-116464263D01*
X175563954Y-116464266D01*
X175410818Y-116575526D01*
X175284155Y-116716200D01*
X175189510Y-116880130D01*
X175189507Y-116880137D01*
X175131016Y-117060155D01*
X175131015Y-117060159D01*
X175111229Y-117248415D01*
X173450889Y-117248415D01*
X173431103Y-117060159D01*
X173372608Y-116880131D01*
X173372605Y-116880125D01*
X173324534Y-116796863D01*
X173308061Y-116728963D01*
X173324536Y-116672860D01*
X173327179Y-116668284D01*
X173385674Y-116488256D01*
X173405460Y-116300000D01*
X173385674Y-116111744D01*
X173327179Y-115931716D01*
X173232533Y-115767784D01*
X173105871Y-115627112D01*
X173090852Y-115616200D01*
X172952734Y-115515851D01*
X172952729Y-115515848D01*
X172779807Y-115438857D01*
X172779802Y-115438855D01*
X172634001Y-115407865D01*
X172594646Y-115399500D01*
X172405354Y-115399500D01*
X172372897Y-115406398D01*
X172220197Y-115438855D01*
X172220192Y-115438857D01*
X172047270Y-115515848D01*
X172047265Y-115515851D01*
X171894129Y-115627111D01*
X171767466Y-115767785D01*
X171672821Y-115931715D01*
X171672818Y-115931722D01*
X171635837Y-116045539D01*
X171614326Y-116111744D01*
X171601174Y-116236877D01*
X171574591Y-116301491D01*
X171517293Y-116341476D01*
X171477854Y-116347915D01*
X171422043Y-116347915D01*
X171398553Y-116352908D01*
X171236886Y-116387270D01*
X171236881Y-116387272D01*
X171063959Y-116464263D01*
X171063954Y-116464266D01*
X170910818Y-116575526D01*
X170784155Y-116716200D01*
X170689510Y-116880130D01*
X170689507Y-116880137D01*
X170631016Y-117060155D01*
X170631015Y-117060159D01*
X170611229Y-117248415D01*
X168950991Y-117248415D01*
X168977437Y-117184137D01*
X169001280Y-117161402D01*
X169104083Y-117086712D01*
X169230745Y-116946040D01*
X169325391Y-116782108D01*
X169383886Y-116602080D01*
X169403672Y-116413824D01*
X169383886Y-116225568D01*
X169325391Y-116045540D01*
X169230745Y-115881608D01*
X169104083Y-115740936D01*
X169092559Y-115732563D01*
X168950946Y-115629675D01*
X168950941Y-115629672D01*
X168778019Y-115552681D01*
X168778014Y-115552679D01*
X168632212Y-115521689D01*
X168592858Y-115513324D01*
X168403566Y-115513324D01*
X168371109Y-115520222D01*
X168218409Y-115552679D01*
X168218404Y-115552681D01*
X168045482Y-115629672D01*
X168045477Y-115629675D01*
X167892341Y-115740935D01*
X167765678Y-115881609D01*
X167671033Y-116045539D01*
X167671030Y-116045546D01*
X167612539Y-116225564D01*
X167612538Y-116225568D01*
X167603749Y-116309195D01*
X167600014Y-116344729D01*
X167573429Y-116409344D01*
X167516132Y-116449328D01*
X167446313Y-116451988D01*
X167426257Y-116445046D01*
X167296496Y-116387272D01*
X167296491Y-116387270D01*
X167134825Y-116352908D01*
X167111335Y-116347915D01*
X166922043Y-116347915D01*
X166898553Y-116352908D01*
X166736886Y-116387270D01*
X166736881Y-116387272D01*
X166563959Y-116464263D01*
X166563954Y-116464266D01*
X166410818Y-116575526D01*
X166284155Y-116716200D01*
X166189510Y-116880130D01*
X166189507Y-116880137D01*
X166131016Y-117060155D01*
X166131015Y-117060159D01*
X166111229Y-117248415D01*
X164450889Y-117248415D01*
X164431103Y-117060159D01*
X164372608Y-116880131D01*
X164277962Y-116716199D01*
X164219020Y-116650737D01*
X164179697Y-116607064D01*
X164149467Y-116544072D01*
X164153916Y-116485774D01*
X164202363Y-116336671D01*
X164222149Y-116148415D01*
X164202363Y-115960159D01*
X164143868Y-115780131D01*
X164049222Y-115616199D01*
X163922560Y-115475527D01*
X163922559Y-115475526D01*
X163769423Y-115364266D01*
X163769418Y-115364263D01*
X163596496Y-115287272D01*
X163596491Y-115287270D01*
X163450690Y-115256280D01*
X163411335Y-115247915D01*
X163222043Y-115247915D01*
X163189586Y-115254813D01*
X163036886Y-115287270D01*
X163036881Y-115287272D01*
X162863959Y-115364263D01*
X162863954Y-115364266D01*
X162710818Y-115475526D01*
X162584155Y-115616200D01*
X162489510Y-115780130D01*
X162489507Y-115780137D01*
X162436691Y-115942689D01*
X162431015Y-115960159D01*
X162411229Y-116148415D01*
X124050500Y-116148415D01*
X124050500Y-114948415D01*
X155511229Y-114948415D01*
X155531015Y-115136671D01*
X155531016Y-115136674D01*
X155589507Y-115316692D01*
X155589510Y-115316699D01*
X155684156Y-115480631D01*
X155806222Y-115616199D01*
X155810818Y-115621303D01*
X155963954Y-115732563D01*
X155963959Y-115732566D01*
X156136881Y-115809557D01*
X156136886Y-115809559D01*
X156322043Y-115848915D01*
X156322044Y-115848915D01*
X156511333Y-115848915D01*
X156511335Y-115848915D01*
X156696492Y-115809559D01*
X156869419Y-115732566D01*
X157022560Y-115621303D01*
X157149222Y-115480631D01*
X157243868Y-115316699D01*
X157302363Y-115136671D01*
X157322149Y-114948415D01*
X157302363Y-114760159D01*
X157243868Y-114580131D01*
X157149222Y-114416199D01*
X157022560Y-114275527D01*
X157022559Y-114275526D01*
X156869423Y-114164266D01*
X156869418Y-114164263D01*
X156696496Y-114087272D01*
X156696491Y-114087270D01*
X156550690Y-114056280D01*
X156511335Y-114047915D01*
X156322043Y-114047915D01*
X156289586Y-114054813D01*
X156136886Y-114087270D01*
X156136881Y-114087272D01*
X155963959Y-114164263D01*
X155963954Y-114164266D01*
X155810818Y-114275526D01*
X155684155Y-114416200D01*
X155589510Y-114580130D01*
X155589507Y-114580137D01*
X155531016Y-114760155D01*
X155531015Y-114760159D01*
X155511229Y-114948415D01*
X124050500Y-114948415D01*
X124050500Y-112958415D01*
X148656229Y-112958415D01*
X148676015Y-113146671D01*
X148676016Y-113146674D01*
X148734507Y-113326692D01*
X148734510Y-113326699D01*
X148829156Y-113490631D01*
X148936238Y-113609557D01*
X148955818Y-113631303D01*
X149108954Y-113742563D01*
X149108959Y-113742566D01*
X149281881Y-113819557D01*
X149281886Y-113819559D01*
X149467043Y-113858915D01*
X149467044Y-113858915D01*
X149656333Y-113858915D01*
X149656335Y-113858915D01*
X149841492Y-113819559D01*
X150014419Y-113742566D01*
X150167560Y-113631303D01*
X150294222Y-113490631D01*
X150388868Y-113326699D01*
X150447363Y-113146671D01*
X150467149Y-112958415D01*
X150447363Y-112770159D01*
X150388868Y-112590131D01*
X150294222Y-112426199D01*
X150167560Y-112285527D01*
X150155349Y-112276655D01*
X150014423Y-112174266D01*
X150014418Y-112174263D01*
X149841496Y-112097272D01*
X149841491Y-112097270D01*
X149695689Y-112066280D01*
X149656335Y-112057915D01*
X149467043Y-112057915D01*
X149434586Y-112064813D01*
X149281886Y-112097270D01*
X149281881Y-112097272D01*
X149108959Y-112174263D01*
X149108954Y-112174266D01*
X148955818Y-112285526D01*
X148829155Y-112426200D01*
X148734510Y-112590130D01*
X148734507Y-112590137D01*
X148681025Y-112754740D01*
X148676015Y-112770159D01*
X148656229Y-112958415D01*
X124050500Y-112958415D01*
X124050500Y-111848415D01*
X161211229Y-111848415D01*
X161231015Y-112036671D01*
X161231016Y-112036674D01*
X161289507Y-112216692D01*
X161289510Y-112216699D01*
X161384156Y-112380631D01*
X161411307Y-112410785D01*
X161510818Y-112521303D01*
X161663954Y-112632563D01*
X161663959Y-112632566D01*
X161836881Y-112709557D01*
X161836886Y-112709559D01*
X162022043Y-112748915D01*
X162022044Y-112748915D01*
X162211333Y-112748915D01*
X162211335Y-112748915D01*
X162396492Y-112709559D01*
X162469268Y-112677156D01*
X162538515Y-112667871D01*
X162601792Y-112697499D01*
X162639006Y-112756633D01*
X162643023Y-112777474D01*
X162645969Y-112805508D01*
X162659755Y-112936671D01*
X162659756Y-112936674D01*
X162718247Y-113116692D01*
X162718250Y-113116699D01*
X162812896Y-113280631D01*
X162939558Y-113421302D01*
X162939558Y-113421303D01*
X163092694Y-113532563D01*
X163092699Y-113532566D01*
X163265621Y-113609557D01*
X163265626Y-113609559D01*
X163450783Y-113648915D01*
X163450784Y-113648915D01*
X163640073Y-113648915D01*
X163640075Y-113648915D01*
X163825232Y-113609559D01*
X163998159Y-113532566D01*
X164151300Y-113421303D01*
X164277962Y-113280631D01*
X164372608Y-113116699D01*
X164431103Y-112936671D01*
X164450889Y-112748415D01*
X166111229Y-112748415D01*
X166131015Y-112936671D01*
X166131016Y-112936674D01*
X166189507Y-113116692D01*
X166189510Y-113116699D01*
X166284156Y-113280631D01*
X166410818Y-113421302D01*
X166410818Y-113421303D01*
X166563954Y-113532563D01*
X166563959Y-113532566D01*
X166736881Y-113609557D01*
X166736886Y-113609559D01*
X166922043Y-113648915D01*
X166922044Y-113648915D01*
X167111333Y-113648915D01*
X167111335Y-113648915D01*
X167296492Y-113609559D01*
X167469419Y-113532566D01*
X167469419Y-113532565D01*
X167475355Y-113529923D01*
X167475887Y-113531118D01*
X167536950Y-113516300D01*
X167586368Y-113530810D01*
X167586763Y-113529923D01*
X167765621Y-113609557D01*
X167765626Y-113609559D01*
X167950783Y-113648915D01*
X167950784Y-113648915D01*
X168140073Y-113648915D01*
X168140075Y-113648915D01*
X168325232Y-113609559D01*
X168498159Y-113532566D01*
X168651300Y-113421303D01*
X168777962Y-113280631D01*
X168872608Y-113116699D01*
X168931103Y-112936671D01*
X168931104Y-112936660D01*
X168931609Y-112934288D01*
X168932282Y-112933039D01*
X168933111Y-112930491D01*
X168933577Y-112930642D01*
X168964801Y-112872806D01*
X169002460Y-112846789D01*
X169104093Y-112801540D01*
X169257234Y-112690277D01*
X169285399Y-112658997D01*
X170093011Y-112658997D01*
X170112797Y-112847253D01*
X170112798Y-112847256D01*
X170171289Y-113027274D01*
X170171292Y-113027281D01*
X170265938Y-113191213D01*
X170392599Y-113331885D01*
X170392600Y-113331885D01*
X170545736Y-113443145D01*
X170545741Y-113443148D01*
X170718663Y-113520139D01*
X170718668Y-113520141D01*
X170903825Y-113559497D01*
X170903826Y-113559497D01*
X171093115Y-113559497D01*
X171093117Y-113559497D01*
X171278274Y-113520141D01*
X171451201Y-113443148D01*
X171604342Y-113331885D01*
X171670194Y-113258748D01*
X171729681Y-113222100D01*
X171799538Y-113223431D01*
X171854494Y-113258749D01*
X171910818Y-113321303D01*
X172063954Y-113432563D01*
X172063959Y-113432566D01*
X172236881Y-113509557D01*
X172236886Y-113509559D01*
X172422043Y-113548915D01*
X172422044Y-113548915D01*
X172611333Y-113548915D01*
X172611335Y-113548915D01*
X172796492Y-113509559D01*
X172969419Y-113432566D01*
X173122560Y-113321303D01*
X173249222Y-113180631D01*
X173249223Y-113180627D01*
X173253044Y-113175371D01*
X173255180Y-113176923D01*
X173297260Y-113136806D01*
X173354072Y-113123026D01*
X173459964Y-113123026D01*
X173459966Y-113123026D01*
X173645123Y-113083670D01*
X173818050Y-113006677D01*
X173971191Y-112895414D01*
X174097853Y-112754742D01*
X174101506Y-112748415D01*
X175111229Y-112748415D01*
X175131015Y-112936671D01*
X175131016Y-112936674D01*
X175189507Y-113116692D01*
X175189510Y-113116699D01*
X175284156Y-113280631D01*
X175410817Y-113421302D01*
X175410818Y-113421303D01*
X175563954Y-113532563D01*
X175563959Y-113532566D01*
X175736881Y-113609557D01*
X175736886Y-113609559D01*
X175922043Y-113648915D01*
X175922044Y-113648915D01*
X176111333Y-113648915D01*
X176111335Y-113648915D01*
X176296492Y-113609559D01*
X176469419Y-113532566D01*
X176469419Y-113532565D01*
X176475355Y-113529923D01*
X176475887Y-113531118D01*
X176536950Y-113516300D01*
X176586368Y-113530810D01*
X176586763Y-113529923D01*
X176765621Y-113609557D01*
X176765626Y-113609559D01*
X176950783Y-113648915D01*
X176950784Y-113648915D01*
X177140073Y-113648915D01*
X177140075Y-113648915D01*
X177325232Y-113609559D01*
X177498159Y-113532566D01*
X177651300Y-113421303D01*
X177777962Y-113280631D01*
X177872608Y-113116699D01*
X177931103Y-112936671D01*
X177950889Y-112748415D01*
X179611229Y-112748415D01*
X179631015Y-112936671D01*
X179631016Y-112936674D01*
X179689507Y-113116692D01*
X179689510Y-113116699D01*
X179784156Y-113280631D01*
X179910818Y-113421302D01*
X179910818Y-113421303D01*
X180063954Y-113532563D01*
X180063959Y-113532566D01*
X180236881Y-113609557D01*
X180236886Y-113609559D01*
X180422043Y-113648915D01*
X180422044Y-113648915D01*
X180611333Y-113648915D01*
X180611335Y-113648915D01*
X180796492Y-113609559D01*
X180969419Y-113532566D01*
X181122560Y-113421303D01*
X181249222Y-113280631D01*
X181343868Y-113116699D01*
X181402363Y-112936671D01*
X181422149Y-112748415D01*
X181402363Y-112560159D01*
X181345666Y-112385666D01*
X181343870Y-112380137D01*
X181343869Y-112380136D01*
X181343868Y-112380131D01*
X181249222Y-112216199D01*
X181122560Y-112075527D01*
X181122559Y-112075526D01*
X180969423Y-111964266D01*
X180969418Y-111964263D01*
X180796496Y-111887272D01*
X180796491Y-111887270D01*
X180650689Y-111856280D01*
X180611335Y-111847915D01*
X180422043Y-111847915D01*
X180392281Y-111854241D01*
X180236886Y-111887270D01*
X180236881Y-111887272D01*
X180063959Y-111964263D01*
X180063954Y-111964266D01*
X179910818Y-112075526D01*
X179784155Y-112216200D01*
X179689510Y-112380130D01*
X179689507Y-112380137D01*
X179643640Y-112521303D01*
X179631015Y-112560159D01*
X179611229Y-112748415D01*
X177950889Y-112748415D01*
X177931103Y-112560159D01*
X177874406Y-112385666D01*
X177872610Y-112380137D01*
X177872609Y-112380136D01*
X177872608Y-112380131D01*
X177812865Y-112276654D01*
X177796393Y-112208755D01*
X177804133Y-112176332D01*
X177802554Y-112175819D01*
X177828075Y-112097272D01*
X177863057Y-111989610D01*
X177882843Y-111801354D01*
X177863057Y-111613098D01*
X177804562Y-111433070D01*
X177709916Y-111269138D01*
X177583254Y-111128466D01*
X177567320Y-111116889D01*
X177430117Y-111017205D01*
X177430112Y-111017202D01*
X177257190Y-110940211D01*
X177257185Y-110940209D01*
X177111383Y-110909219D01*
X177072029Y-110900854D01*
X176882737Y-110900854D01*
X176850280Y-110907752D01*
X176697580Y-110940209D01*
X176697575Y-110940211D01*
X176524653Y-111017202D01*
X176524648Y-111017205D01*
X176371512Y-111128465D01*
X176244849Y-111269139D01*
X176150204Y-111433069D01*
X176150201Y-111433076D01*
X176091710Y-111613094D01*
X176091709Y-111613098D01*
X176078988Y-111734135D01*
X176078700Y-111736877D01*
X176052115Y-111801491D01*
X175994818Y-111841476D01*
X175955379Y-111847915D01*
X175922043Y-111847915D01*
X175892281Y-111854241D01*
X175736886Y-111887270D01*
X175736881Y-111887272D01*
X175563959Y-111964263D01*
X175563954Y-111964266D01*
X175410818Y-112075526D01*
X175284155Y-112216200D01*
X175189510Y-112380130D01*
X175189507Y-112380137D01*
X175143640Y-112521303D01*
X175131015Y-112560159D01*
X175111229Y-112748415D01*
X174101506Y-112748415D01*
X174192499Y-112590810D01*
X174250994Y-112410782D01*
X174270780Y-112222526D01*
X174250994Y-112034270D01*
X174192499Y-111854242D01*
X174097853Y-111690310D01*
X173971191Y-111549638D01*
X173882464Y-111485174D01*
X173818054Y-111438377D01*
X173818049Y-111438374D01*
X173645127Y-111361383D01*
X173645122Y-111361381D01*
X173499321Y-111330391D01*
X173459966Y-111322026D01*
X173270674Y-111322026D01*
X173238217Y-111328924D01*
X173085517Y-111361381D01*
X173085512Y-111361383D01*
X172912590Y-111438374D01*
X172912585Y-111438377D01*
X172759449Y-111549637D01*
X172632785Y-111690311D01*
X172628965Y-111695570D01*
X172626828Y-111694017D01*
X172584749Y-111734135D01*
X172527937Y-111747915D01*
X172422043Y-111747915D01*
X172389586Y-111754813D01*
X172236886Y-111787270D01*
X172236881Y-111787272D01*
X172063959Y-111864263D01*
X172063954Y-111864266D01*
X171910818Y-111975526D01*
X171910817Y-111975527D01*
X171844964Y-112048663D01*
X171785477Y-112085311D01*
X171715620Y-112083980D01*
X171660665Y-112048662D01*
X171624995Y-112009047D01*
X171604342Y-111986109D01*
X171604341Y-111986108D01*
X171451205Y-111874848D01*
X171451200Y-111874845D01*
X171278278Y-111797854D01*
X171278273Y-111797852D01*
X171132471Y-111766862D01*
X171093117Y-111758497D01*
X170903825Y-111758497D01*
X170871368Y-111765395D01*
X170718668Y-111797852D01*
X170718663Y-111797854D01*
X170545741Y-111874845D01*
X170545736Y-111874848D01*
X170392600Y-111986108D01*
X170265937Y-112126782D01*
X170171292Y-112290712D01*
X170171289Y-112290719D01*
X170127269Y-112426200D01*
X170112797Y-112470741D01*
X170093011Y-112658997D01*
X169285399Y-112658997D01*
X169383896Y-112549605D01*
X169478542Y-112385673D01*
X169537037Y-112205645D01*
X169556823Y-112017389D01*
X169537037Y-111829133D01*
X169478542Y-111649105D01*
X169383896Y-111485173D01*
X169257234Y-111344501D01*
X169218281Y-111316200D01*
X169104097Y-111233240D01*
X169104092Y-111233237D01*
X168931170Y-111156246D01*
X168931165Y-111156244D01*
X168785363Y-111125254D01*
X168746009Y-111116889D01*
X168556717Y-111116889D01*
X168524260Y-111123787D01*
X168371560Y-111156244D01*
X168371555Y-111156246D01*
X168198633Y-111233237D01*
X168198628Y-111233240D01*
X168045492Y-111344500D01*
X167918829Y-111485174D01*
X167824184Y-111649104D01*
X167824181Y-111649111D01*
X167765689Y-111829130D01*
X167765182Y-111831519D01*
X167764508Y-111832766D01*
X167763681Y-111835313D01*
X167763215Y-111835161D01*
X167731987Y-111893000D01*
X167694329Y-111919014D01*
X167586763Y-111966907D01*
X167586231Y-111965713D01*
X167525149Y-111980528D01*
X167475749Y-111966020D01*
X167475355Y-111966907D01*
X167296496Y-111887272D01*
X167296491Y-111887270D01*
X167150689Y-111856280D01*
X167111335Y-111847915D01*
X166922043Y-111847915D01*
X166892281Y-111854241D01*
X166736886Y-111887270D01*
X166736881Y-111887272D01*
X166563959Y-111964263D01*
X166563954Y-111964266D01*
X166410818Y-112075526D01*
X166284155Y-112216200D01*
X166189510Y-112380130D01*
X166189507Y-112380137D01*
X166143640Y-112521303D01*
X166131015Y-112560159D01*
X166111229Y-112748415D01*
X164450889Y-112748415D01*
X164431103Y-112560159D01*
X164374406Y-112385666D01*
X164372610Y-112380137D01*
X164372609Y-112380136D01*
X164372608Y-112380131D01*
X164277962Y-112216199D01*
X164151300Y-112075527D01*
X164151299Y-112075526D01*
X163998163Y-111964266D01*
X163998158Y-111964263D01*
X163825236Y-111887272D01*
X163825231Y-111887270D01*
X163679429Y-111856280D01*
X163640075Y-111847915D01*
X163450783Y-111847915D01*
X163400804Y-111858538D01*
X163265628Y-111887270D01*
X163192851Y-111919673D01*
X163123601Y-111928957D01*
X163060324Y-111899329D01*
X163023111Y-111840194D01*
X163019095Y-111819361D01*
X163002363Y-111660159D01*
X162943868Y-111480131D01*
X162849222Y-111316199D01*
X162722560Y-111175527D01*
X162696022Y-111156246D01*
X162569423Y-111064266D01*
X162569418Y-111064263D01*
X162396496Y-110987272D01*
X162396491Y-110987270D01*
X162250689Y-110956280D01*
X162211335Y-110947915D01*
X162022043Y-110947915D01*
X161989586Y-110954813D01*
X161836886Y-110987270D01*
X161836881Y-110987272D01*
X161663959Y-111064263D01*
X161663954Y-111064266D01*
X161510818Y-111175526D01*
X161384155Y-111316200D01*
X161289510Y-111480130D01*
X161289507Y-111480137D01*
X161231016Y-111660155D01*
X161231015Y-111660159D01*
X161211229Y-111848415D01*
X124050500Y-111848415D01*
X124050500Y-107448415D01*
X162011229Y-107448415D01*
X162031015Y-107636671D01*
X162031016Y-107636674D01*
X162089507Y-107816692D01*
X162089510Y-107816699D01*
X162184156Y-107980631D01*
X162266464Y-108072043D01*
X162310818Y-108121303D01*
X162380786Y-108172138D01*
X162463959Y-108232566D01*
X162581463Y-108284883D01*
X162634697Y-108330131D01*
X162654344Y-108385196D01*
X162659755Y-108436671D01*
X162659756Y-108436673D01*
X162659756Y-108436675D01*
X162718247Y-108616692D01*
X162718250Y-108616699D01*
X162812896Y-108780631D01*
X162939558Y-108921302D01*
X162939558Y-108921303D01*
X163092694Y-109032563D01*
X163092699Y-109032566D01*
X163265621Y-109109557D01*
X163265626Y-109109559D01*
X163450783Y-109148915D01*
X163450784Y-109148915D01*
X163640073Y-109148915D01*
X163640075Y-109148915D01*
X163825232Y-109109559D01*
X163998159Y-109032566D01*
X164151300Y-108921303D01*
X164277962Y-108780631D01*
X164372608Y-108616699D01*
X164431103Y-108436671D01*
X164450889Y-108248415D01*
X166111229Y-108248415D01*
X166131015Y-108436671D01*
X166131016Y-108436673D01*
X166131016Y-108436674D01*
X166189507Y-108616692D01*
X166189510Y-108616699D01*
X166284156Y-108780631D01*
X166410818Y-108921302D01*
X166410818Y-108921303D01*
X166563954Y-109032563D01*
X166563959Y-109032566D01*
X166736881Y-109109557D01*
X166736886Y-109109559D01*
X166922043Y-109148915D01*
X166922044Y-109148915D01*
X167111333Y-109148915D01*
X167111335Y-109148915D01*
X167296492Y-109109559D01*
X167469419Y-109032566D01*
X167535581Y-108984495D01*
X167601384Y-108961016D01*
X167658899Y-108971534D01*
X167744303Y-109009559D01*
X167929460Y-109048915D01*
X167929461Y-109048915D01*
X168118750Y-109048915D01*
X168118752Y-109048915D01*
X168303909Y-109009559D01*
X168476836Y-108932566D01*
X168629977Y-108821303D01*
X168756639Y-108680631D01*
X168851285Y-108516699D01*
X168909780Y-108336671D01*
X168912601Y-108309826D01*
X168937865Y-108248415D01*
X170611229Y-108248415D01*
X170631015Y-108436671D01*
X170631016Y-108436673D01*
X170631016Y-108436674D01*
X170689507Y-108616692D01*
X170689510Y-108616699D01*
X170784156Y-108780631D01*
X170910818Y-108921302D01*
X170910818Y-108921303D01*
X171063954Y-109032563D01*
X171063959Y-109032566D01*
X171236881Y-109109557D01*
X171236886Y-109109559D01*
X171422043Y-109148915D01*
X171422044Y-109148915D01*
X171611333Y-109148915D01*
X171611335Y-109148915D01*
X171796492Y-109109559D01*
X171969419Y-109032566D01*
X171993803Y-109014849D01*
X172059605Y-108991369D01*
X172127659Y-109007192D01*
X172139571Y-109014847D01*
X172163955Y-109032563D01*
X172163959Y-109032566D01*
X172336881Y-109109557D01*
X172336886Y-109109559D01*
X172522043Y-109148915D01*
X172522044Y-109148915D01*
X172711333Y-109148915D01*
X172711335Y-109148915D01*
X172896492Y-109109559D01*
X173069419Y-109032566D01*
X173222560Y-108921303D01*
X173349222Y-108780631D01*
X173443868Y-108616699D01*
X173502363Y-108436671D01*
X173522149Y-108248415D01*
X175111229Y-108248415D01*
X175131015Y-108436671D01*
X175131016Y-108436673D01*
X175131016Y-108436674D01*
X175189507Y-108616692D01*
X175189510Y-108616699D01*
X175284156Y-108780631D01*
X175410818Y-108921302D01*
X175410818Y-108921303D01*
X175563954Y-109032563D01*
X175563959Y-109032566D01*
X175736881Y-109109557D01*
X175736886Y-109109559D01*
X175922043Y-109148915D01*
X175922044Y-109148915D01*
X176111333Y-109148915D01*
X176111335Y-109148915D01*
X176296492Y-109109559D01*
X176469419Y-109032566D01*
X176543680Y-108978611D01*
X176609487Y-108955130D01*
X176667003Y-108965649D01*
X176765621Y-109009557D01*
X176765626Y-109009559D01*
X176950783Y-109048915D01*
X176950784Y-109048915D01*
X177140073Y-109048915D01*
X177140075Y-109048915D01*
X177325232Y-109009559D01*
X177498159Y-108932566D01*
X177651300Y-108821303D01*
X177777962Y-108680631D01*
X177872608Y-108516699D01*
X177931103Y-108336671D01*
X177934957Y-108300000D01*
X179994540Y-108300000D01*
X180014326Y-108488256D01*
X180014327Y-108488259D01*
X180072818Y-108668277D01*
X180072821Y-108668284D01*
X180167467Y-108832216D01*
X180247682Y-108921303D01*
X180294129Y-108972888D01*
X180447265Y-109084148D01*
X180447270Y-109084151D01*
X180620192Y-109161142D01*
X180620197Y-109161144D01*
X180805354Y-109200500D01*
X180805355Y-109200500D01*
X180994644Y-109200500D01*
X180994646Y-109200500D01*
X181179803Y-109161144D01*
X181352730Y-109084151D01*
X181505871Y-108972888D01*
X181632533Y-108832216D01*
X181727179Y-108668284D01*
X181785674Y-108488256D01*
X181805460Y-108300000D01*
X181785674Y-108111744D01*
X181727179Y-107931716D01*
X181632533Y-107767784D01*
X181505871Y-107627112D01*
X181505870Y-107627111D01*
X181352734Y-107515851D01*
X181352729Y-107515848D01*
X181179807Y-107438857D01*
X181179802Y-107438855D01*
X181034001Y-107407865D01*
X180994646Y-107399500D01*
X180805354Y-107399500D01*
X180772897Y-107406398D01*
X180620197Y-107438855D01*
X180620192Y-107438857D01*
X180447270Y-107515848D01*
X180447265Y-107515851D01*
X180294129Y-107627111D01*
X180167466Y-107767785D01*
X180072821Y-107931715D01*
X180072818Y-107931722D01*
X180014327Y-108111740D01*
X180014326Y-108111744D01*
X179994540Y-108300000D01*
X177934957Y-108300000D01*
X177950889Y-108148415D01*
X177931103Y-107960159D01*
X177876512Y-107792146D01*
X177874517Y-107722305D01*
X177887053Y-107691833D01*
X177956851Y-107570941D01*
X178015346Y-107390913D01*
X178035132Y-107202657D01*
X178015346Y-107014401D01*
X177956851Y-106834373D01*
X177862205Y-106670441D01*
X177735543Y-106529769D01*
X177731516Y-106526843D01*
X177582406Y-106418508D01*
X177582401Y-106418505D01*
X177409479Y-106341514D01*
X177409474Y-106341512D01*
X177263672Y-106310522D01*
X177224318Y-106302157D01*
X177035026Y-106302157D01*
X177002569Y-106309055D01*
X176849869Y-106341512D01*
X176849864Y-106341514D01*
X176676942Y-106418505D01*
X176676937Y-106418508D01*
X176523801Y-106529768D01*
X176397138Y-106670442D01*
X176302493Y-106834372D01*
X176302490Y-106834379D01*
X176243999Y-107014397D01*
X176243998Y-107014401D01*
X176237090Y-107080130D01*
X176224212Y-107202658D01*
X176225084Y-107210956D01*
X176212513Y-107279686D01*
X176164780Y-107330708D01*
X176101763Y-107347915D01*
X175922043Y-107347915D01*
X175889586Y-107354813D01*
X175736886Y-107387270D01*
X175736881Y-107387272D01*
X175563959Y-107464263D01*
X175563954Y-107464266D01*
X175410818Y-107575526D01*
X175284155Y-107716200D01*
X175189510Y-107880130D01*
X175189507Y-107880137D01*
X175156855Y-107980631D01*
X175131015Y-108060159D01*
X175111229Y-108248415D01*
X173522149Y-108248415D01*
X173521281Y-108240162D01*
X173533846Y-108171434D01*
X173571717Y-108126877D01*
X173592546Y-108111744D01*
X173647191Y-108072043D01*
X173773853Y-107931371D01*
X173868499Y-107767439D01*
X173926994Y-107587411D01*
X173946780Y-107399155D01*
X173926994Y-107210899D01*
X173868499Y-107030871D01*
X173773853Y-106866939D01*
X173647191Y-106726267D01*
X173647190Y-106726266D01*
X173494054Y-106615006D01*
X173494049Y-106615003D01*
X173321127Y-106538012D01*
X173321122Y-106538010D01*
X173175321Y-106507020D01*
X173135966Y-106498655D01*
X172946674Y-106498655D01*
X172914217Y-106505553D01*
X172761517Y-106538010D01*
X172761512Y-106538012D01*
X172588590Y-106615003D01*
X172588585Y-106615006D01*
X172435449Y-106726266D01*
X172308786Y-106866940D01*
X172214141Y-107030870D01*
X172214138Y-107030877D01*
X172155647Y-107210895D01*
X172155646Y-107210899D01*
X172147207Y-107291194D01*
X172139722Y-107362409D01*
X172113137Y-107427023D01*
X172055840Y-107467008D01*
X171986021Y-107469668D01*
X171965965Y-107462726D01*
X171796496Y-107387272D01*
X171796491Y-107387270D01*
X171650689Y-107356280D01*
X171611335Y-107347915D01*
X171422043Y-107347915D01*
X171389586Y-107354813D01*
X171236886Y-107387270D01*
X171236881Y-107387272D01*
X171063959Y-107464263D01*
X171063954Y-107464266D01*
X170910818Y-107575526D01*
X170784155Y-107716200D01*
X170689510Y-107880130D01*
X170689507Y-107880137D01*
X170656855Y-107980631D01*
X170631015Y-108060159D01*
X170611229Y-108248415D01*
X168937865Y-108248415D01*
X168939183Y-108245212D01*
X168985486Y-108209505D01*
X169069419Y-108172137D01*
X169222560Y-108060874D01*
X169349222Y-107920202D01*
X169443868Y-107756270D01*
X169502363Y-107576242D01*
X169522149Y-107387986D01*
X169502363Y-107199730D01*
X169443868Y-107019702D01*
X169349222Y-106855770D01*
X169222560Y-106715098D01*
X169222559Y-106715097D01*
X169069423Y-106603837D01*
X169069418Y-106603834D01*
X168896496Y-106526843D01*
X168896491Y-106526841D01*
X168750689Y-106495851D01*
X168711335Y-106487486D01*
X168522043Y-106487486D01*
X168489586Y-106494384D01*
X168336886Y-106526841D01*
X168336881Y-106526843D01*
X168163959Y-106603834D01*
X168163954Y-106603837D01*
X168010818Y-106715097D01*
X167884155Y-106855771D01*
X167789510Y-107019701D01*
X167789507Y-107019708D01*
X167731016Y-107199725D01*
X167731014Y-107199735D01*
X167728192Y-107226580D01*
X167701606Y-107291194D01*
X167655309Y-107326894D01*
X167571373Y-107364265D01*
X167571372Y-107364266D01*
X167505212Y-107412333D01*
X167439405Y-107435812D01*
X167381893Y-107425294D01*
X167296493Y-107387271D01*
X167296491Y-107387270D01*
X167150689Y-107356280D01*
X167111335Y-107347915D01*
X166922043Y-107347915D01*
X166889586Y-107354813D01*
X166736886Y-107387270D01*
X166736881Y-107387272D01*
X166563959Y-107464263D01*
X166563954Y-107464266D01*
X166410818Y-107575526D01*
X166284155Y-107716200D01*
X166189510Y-107880130D01*
X166189507Y-107880137D01*
X166156855Y-107980631D01*
X166131015Y-108060159D01*
X166111229Y-108248415D01*
X164450889Y-108248415D01*
X164431103Y-108060159D01*
X164372608Y-107880131D01*
X164277962Y-107716199D01*
X164151300Y-107575527D01*
X164144988Y-107570941D01*
X163998163Y-107464266D01*
X163998158Y-107464263D01*
X163880657Y-107411948D01*
X163827420Y-107366698D01*
X163807772Y-107311628D01*
X163802363Y-107260160D01*
X163802361Y-107260155D01*
X163743868Y-107080131D01*
X163649222Y-106916199D01*
X163522560Y-106775527D01*
X163522559Y-106775526D01*
X163369423Y-106664266D01*
X163369418Y-106664263D01*
X163196496Y-106587272D01*
X163196491Y-106587270D01*
X163050689Y-106556280D01*
X163011335Y-106547915D01*
X162822043Y-106547915D01*
X162789586Y-106554813D01*
X162636886Y-106587270D01*
X162636881Y-106587272D01*
X162463959Y-106664263D01*
X162463954Y-106664266D01*
X162310818Y-106775526D01*
X162184155Y-106916200D01*
X162089510Y-107080130D01*
X162089507Y-107080137D01*
X162031016Y-107260155D01*
X162031015Y-107260159D01*
X162017655Y-107387271D01*
X162012234Y-107438857D01*
X162011229Y-107448415D01*
X124050500Y-107448415D01*
X124050500Y-103748415D01*
X162639969Y-103748415D01*
X162659755Y-103936671D01*
X162659756Y-103936674D01*
X162718247Y-104116692D01*
X162718250Y-104116699D01*
X162812896Y-104280631D01*
X162868841Y-104342764D01*
X162939558Y-104421303D01*
X163092694Y-104532563D01*
X163092699Y-104532566D01*
X163265621Y-104609557D01*
X163265626Y-104609559D01*
X163450783Y-104648915D01*
X163450784Y-104648915D01*
X163640073Y-104648915D01*
X163640075Y-104648915D01*
X163825232Y-104609559D01*
X163998159Y-104532566D01*
X164151300Y-104421303D01*
X164277962Y-104280631D01*
X164372608Y-104116699D01*
X164431103Y-103936671D01*
X164450889Y-103748415D01*
X166111229Y-103748415D01*
X166131015Y-103936671D01*
X166131016Y-103936674D01*
X166189507Y-104116692D01*
X166189510Y-104116699D01*
X166284156Y-104280631D01*
X166340101Y-104342764D01*
X166410818Y-104421303D01*
X166563954Y-104532563D01*
X166563959Y-104532566D01*
X166736881Y-104609557D01*
X166736886Y-104609559D01*
X166922043Y-104648915D01*
X166922044Y-104648915D01*
X167111333Y-104648915D01*
X167111335Y-104648915D01*
X167296492Y-104609559D01*
X167466255Y-104533974D01*
X167535502Y-104524690D01*
X167567119Y-104533972D01*
X167736886Y-104609559D01*
X167922043Y-104648915D01*
X167922044Y-104648915D01*
X168111333Y-104648915D01*
X168111335Y-104648915D01*
X168296492Y-104609559D01*
X168469419Y-104532566D01*
X168622560Y-104421303D01*
X168749222Y-104280631D01*
X168843868Y-104116699D01*
X168902363Y-103936671D01*
X168922149Y-103748415D01*
X170611229Y-103748415D01*
X170631015Y-103936671D01*
X170631016Y-103936674D01*
X170689507Y-104116692D01*
X170689510Y-104116699D01*
X170784156Y-104280631D01*
X170840101Y-104342764D01*
X170910818Y-104421303D01*
X171063954Y-104532563D01*
X171063959Y-104532566D01*
X171236881Y-104609557D01*
X171236886Y-104609559D01*
X171422043Y-104648915D01*
X171422044Y-104648915D01*
X171611333Y-104648915D01*
X171611335Y-104648915D01*
X171796492Y-104609559D01*
X171966255Y-104533974D01*
X172035502Y-104524690D01*
X172067119Y-104533972D01*
X172236886Y-104609559D01*
X172422043Y-104648915D01*
X172422044Y-104648915D01*
X172611333Y-104648915D01*
X172611335Y-104648915D01*
X172796492Y-104609559D01*
X172969419Y-104532566D01*
X173122560Y-104421303D01*
X173249222Y-104280631D01*
X173343868Y-104116699D01*
X173402363Y-103936671D01*
X173422149Y-103748415D01*
X175111229Y-103748415D01*
X175131015Y-103936671D01*
X175131016Y-103936674D01*
X175189507Y-104116692D01*
X175189510Y-104116699D01*
X175284156Y-104280631D01*
X175340101Y-104342764D01*
X175410818Y-104421303D01*
X175563954Y-104532563D01*
X175563959Y-104532566D01*
X175736881Y-104609557D01*
X175736886Y-104609559D01*
X175922043Y-104648915D01*
X175922044Y-104648915D01*
X176111333Y-104648915D01*
X176111335Y-104648915D01*
X176296492Y-104609559D01*
X176469419Y-104532566D01*
X176494023Y-104514689D01*
X176559828Y-104491209D01*
X176617345Y-104501727D01*
X176683135Y-104531020D01*
X176868292Y-104570376D01*
X176868293Y-104570376D01*
X177057582Y-104570376D01*
X177057584Y-104570376D01*
X177242741Y-104531020D01*
X177415668Y-104454027D01*
X177568809Y-104342764D01*
X177695471Y-104202092D01*
X177790117Y-104038160D01*
X177848612Y-103858132D01*
X177860143Y-103748415D01*
X179611229Y-103748415D01*
X179631015Y-103936671D01*
X179631016Y-103936674D01*
X179689507Y-104116692D01*
X179689510Y-104116699D01*
X179784156Y-104280631D01*
X179840101Y-104342764D01*
X179910818Y-104421303D01*
X180063954Y-104532563D01*
X180063959Y-104532566D01*
X180236881Y-104609557D01*
X180236886Y-104609559D01*
X180422043Y-104648915D01*
X180422044Y-104648915D01*
X180611333Y-104648915D01*
X180611335Y-104648915D01*
X180796492Y-104609559D01*
X180969419Y-104532566D01*
X181122560Y-104421303D01*
X181249222Y-104280631D01*
X181343868Y-104116699D01*
X181402363Y-103936671D01*
X181422149Y-103748415D01*
X181402363Y-103560159D01*
X181343868Y-103380131D01*
X181249222Y-103216199D01*
X181122560Y-103075527D01*
X181122559Y-103075526D01*
X180969423Y-102964266D01*
X180969418Y-102964263D01*
X180796496Y-102887272D01*
X180796491Y-102887270D01*
X180650690Y-102856280D01*
X180611335Y-102847915D01*
X180422043Y-102847915D01*
X180389586Y-102854813D01*
X180236886Y-102887270D01*
X180236881Y-102887272D01*
X180063959Y-102964263D01*
X180063954Y-102964266D01*
X179910818Y-103075526D01*
X179784155Y-103216200D01*
X179689510Y-103380130D01*
X179689507Y-103380137D01*
X179631016Y-103560155D01*
X179631015Y-103560159D01*
X179611229Y-103748415D01*
X177860143Y-103748415D01*
X177868398Y-103669876D01*
X177848612Y-103481620D01*
X177790117Y-103301592D01*
X177695471Y-103137660D01*
X177568809Y-102996988D01*
X177568808Y-102996987D01*
X177415672Y-102885727D01*
X177415667Y-102885724D01*
X177242745Y-102808733D01*
X177242740Y-102808731D01*
X177096938Y-102777741D01*
X177057584Y-102769376D01*
X176868292Y-102769376D01*
X176835835Y-102776274D01*
X176683135Y-102808731D01*
X176683130Y-102808733D01*
X176510206Y-102885725D01*
X176485599Y-102903603D01*
X176419792Y-102927081D01*
X176362281Y-102916562D01*
X176296496Y-102887272D01*
X176296491Y-102887270D01*
X176150690Y-102856280D01*
X176111335Y-102847915D01*
X175922043Y-102847915D01*
X175889586Y-102854813D01*
X175736886Y-102887270D01*
X175736881Y-102887272D01*
X175563959Y-102964263D01*
X175563954Y-102964266D01*
X175410818Y-103075526D01*
X175284155Y-103216200D01*
X175189510Y-103380130D01*
X175189507Y-103380137D01*
X175131016Y-103560155D01*
X175131015Y-103560159D01*
X175111229Y-103748415D01*
X173422149Y-103748415D01*
X173402363Y-103560159D01*
X173343868Y-103380131D01*
X173249222Y-103216199D01*
X173122560Y-103075527D01*
X173122559Y-103075526D01*
X172969423Y-102964266D01*
X172969418Y-102964263D01*
X172796496Y-102887272D01*
X172796491Y-102887270D01*
X172650690Y-102856280D01*
X172611335Y-102847915D01*
X172422043Y-102847915D01*
X172389586Y-102854813D01*
X172236886Y-102887270D01*
X172236881Y-102887272D01*
X172067124Y-102962854D01*
X171997874Y-102972139D01*
X171966252Y-102962854D01*
X171796496Y-102887272D01*
X171796491Y-102887270D01*
X171650690Y-102856280D01*
X171611335Y-102847915D01*
X171422043Y-102847915D01*
X171389586Y-102854813D01*
X171236886Y-102887270D01*
X171236881Y-102887272D01*
X171063959Y-102964263D01*
X171063954Y-102964266D01*
X170910818Y-103075526D01*
X170784155Y-103216200D01*
X170689510Y-103380130D01*
X170689507Y-103380137D01*
X170631016Y-103560155D01*
X170631015Y-103560159D01*
X170611229Y-103748415D01*
X168922149Y-103748415D01*
X168902363Y-103560159D01*
X168843868Y-103380131D01*
X168749222Y-103216199D01*
X168622560Y-103075527D01*
X168622559Y-103075526D01*
X168469423Y-102964266D01*
X168469418Y-102964263D01*
X168296496Y-102887272D01*
X168296491Y-102887270D01*
X168150690Y-102856280D01*
X168111335Y-102847915D01*
X167922043Y-102847915D01*
X167889586Y-102854813D01*
X167736886Y-102887270D01*
X167736881Y-102887272D01*
X167567124Y-102962854D01*
X167497874Y-102972139D01*
X167466252Y-102962854D01*
X167296496Y-102887272D01*
X167296491Y-102887270D01*
X167150689Y-102856280D01*
X167111335Y-102847915D01*
X166922043Y-102847915D01*
X166889586Y-102854813D01*
X166736886Y-102887270D01*
X166736881Y-102887272D01*
X166563959Y-102964263D01*
X166563954Y-102964266D01*
X166410818Y-103075526D01*
X166284155Y-103216200D01*
X166189510Y-103380130D01*
X166189507Y-103380137D01*
X166131016Y-103560155D01*
X166131015Y-103560159D01*
X166111229Y-103748415D01*
X164450889Y-103748415D01*
X164431103Y-103560159D01*
X164372608Y-103380131D01*
X164277962Y-103216199D01*
X164151300Y-103075527D01*
X164151299Y-103075526D01*
X163998163Y-102964266D01*
X163998158Y-102964263D01*
X163825236Y-102887272D01*
X163825231Y-102887270D01*
X163679430Y-102856280D01*
X163640075Y-102847915D01*
X163450783Y-102847915D01*
X163418326Y-102854813D01*
X163265626Y-102887270D01*
X163265621Y-102887272D01*
X163092699Y-102964263D01*
X163092694Y-102964266D01*
X162939558Y-103075526D01*
X162812895Y-103216200D01*
X162718250Y-103380130D01*
X162718247Y-103380137D01*
X162659756Y-103560155D01*
X162659755Y-103560159D01*
X162639969Y-103748415D01*
X124050500Y-103748415D01*
X124050500Y-102000000D01*
X127444540Y-102000000D01*
X127464326Y-102188256D01*
X127464327Y-102188259D01*
X127522818Y-102368277D01*
X127522821Y-102368284D01*
X127617467Y-102532216D01*
X127744128Y-102672887D01*
X127744129Y-102672888D01*
X127897265Y-102784148D01*
X127897270Y-102784151D01*
X128070192Y-102861142D01*
X128070197Y-102861144D01*
X128255354Y-102900500D01*
X128255355Y-102900500D01*
X128444644Y-102900500D01*
X128444646Y-102900500D01*
X128629803Y-102861144D01*
X128802730Y-102784151D01*
X128955871Y-102672888D01*
X129082533Y-102532216D01*
X129177179Y-102368284D01*
X129235674Y-102188256D01*
X129255460Y-102000000D01*
X129235674Y-101811744D01*
X129177179Y-101631716D01*
X129082533Y-101467784D01*
X128955871Y-101327112D01*
X128955870Y-101327111D01*
X128802734Y-101215851D01*
X128802729Y-101215848D01*
X128629807Y-101138857D01*
X128629802Y-101138855D01*
X128484000Y-101107865D01*
X128444646Y-101099500D01*
X128255354Y-101099500D01*
X128222897Y-101106398D01*
X128070197Y-101138855D01*
X128070192Y-101138857D01*
X127897270Y-101215848D01*
X127897265Y-101215851D01*
X127744129Y-101327111D01*
X127617466Y-101467785D01*
X127522821Y-101631715D01*
X127522818Y-101631722D01*
X127464327Y-101811740D01*
X127464326Y-101811744D01*
X127444540Y-102000000D01*
X124050500Y-102000000D01*
X124050500Y-94926071D01*
X124070185Y-94859032D01*
X124122989Y-94813277D01*
X124192147Y-94803333D01*
X124255703Y-94832358D01*
X124293291Y-94890508D01*
X124313930Y-94959450D01*
X124443137Y-95258983D01*
X124443143Y-95258996D01*
X124606251Y-95541509D01*
X124801045Y-95803162D01*
X124801050Y-95803168D01*
X124801057Y-95803177D01*
X125024923Y-96040462D01*
X125024929Y-96040467D01*
X125024930Y-96040468D01*
X125024931Y-96040469D01*
X125274815Y-96250147D01*
X125274818Y-96250149D01*
X125274823Y-96250153D01*
X125547377Y-96429414D01*
X125838899Y-96575822D01*
X126145446Y-96687396D01*
X126145452Y-96687397D01*
X126145454Y-96687398D01*
X126462858Y-96762625D01*
X126462865Y-96762626D01*
X126462874Y-96762628D01*
X126786889Y-96800500D01*
X126786896Y-96800500D01*
X127113104Y-96800500D01*
X127113111Y-96800500D01*
X127437126Y-96762628D01*
X127437135Y-96762625D01*
X127437141Y-96762625D01*
X127693176Y-96701942D01*
X127754554Y-96687396D01*
X128061101Y-96575822D01*
X128352623Y-96429414D01*
X128625177Y-96250153D01*
X128875077Y-96040462D01*
X129098943Y-95803177D01*
X129293749Y-95541508D01*
X129456859Y-95258992D01*
X129586069Y-94959451D01*
X129679630Y-94646934D01*
X129736278Y-94325669D01*
X129755246Y-94000000D01*
X129736278Y-93674331D01*
X129679630Y-93353066D01*
X129586069Y-93040549D01*
X129456859Y-92741008D01*
X129293749Y-92458492D01*
X129293748Y-92458490D01*
X129098954Y-92196837D01*
X129098947Y-92196829D01*
X129098943Y-92196823D01*
X128875077Y-91959538D01*
X128875069Y-91959531D01*
X128875068Y-91959530D01*
X128625184Y-91749852D01*
X128625179Y-91749848D01*
X128625177Y-91749847D01*
X128352623Y-91570586D01*
X128347684Y-91568105D01*
X128061108Y-91424181D01*
X128061102Y-91424178D01*
X127832632Y-91341022D01*
X127776368Y-91299596D01*
X127751432Y-91234327D01*
X127765742Y-91165938D01*
X127814754Y-91116143D01*
X127875042Y-91100500D01*
X180074958Y-91100500D01*
X180141997Y-91120185D01*
G37*
%TD.AperFunction*%
%TD*%
M02*
