%TF.GenerationSoftware,KiCad,Pcbnew,7.0.7*%
%TF.CreationDate,2023-10-03T17:06:42-05:00*%
%TF.ProjectId,MLX90393_board3,4d4c5839-3033-4393-935f-626f61726433,rev?*%
%TF.SameCoordinates,Original*%
%TF.FileFunction,Legend,Top*%
%TF.FilePolarity,Positive*%
%FSLAX46Y46*%
G04 Gerber Fmt 4.6, Leading zero omitted, Abs format (unit mm)*
G04 Created by KiCad (PCBNEW 7.0.7) date 2023-10-03 17:06:42*
%MOMM*%
%LPD*%
G01*
G04 APERTURE LIST*
G04 Aperture macros list*
%AMRoundRect*
0 Rectangle with rounded corners*
0 $1 Rounding radius*
0 $2 $3 $4 $5 $6 $7 $8 $9 X,Y pos of 4 corners*
0 Add a 4 corners polygon primitive as box body*
4,1,4,$2,$3,$4,$5,$6,$7,$8,$9,$2,$3,0*
0 Add four circle primitives for the rounded corners*
1,1,$1+$1,$2,$3*
1,1,$1+$1,$4,$5*
1,1,$1+$1,$6,$7*
1,1,$1+$1,$8,$9*
0 Add four rect primitives between the rounded corners*
20,1,$1+$1,$2,$3,$4,$5,0*
20,1,$1+$1,$4,$5,$6,$7,0*
20,1,$1+$1,$6,$7,$8,$9,0*
20,1,$1+$1,$8,$9,$2,$3,0*%
G04 Aperture macros list end*
%ADD10C,0.150000*%
%ADD11C,0.155000*%
%ADD12C,0.120000*%
%ADD13C,0.152400*%
%ADD14C,0.151994*%
%ADD15C,0.059995*%
%ADD16C,0.150013*%
%ADD17C,0.254000*%
%ADD18C,0.248920*%
%ADD19RoundRect,0.200000X0.275000X-0.200000X0.275000X0.200000X-0.275000X0.200000X-0.275000X-0.200000X0*%
%ADD20R,0.664999X0.280010*%
%ADD21R,0.280010X0.664999*%
%ADD22R,1.750013X1.750013*%
%ADD23R,1.104902X0.622301*%
%ADD24R,3.170003X1.000000*%
%ADD25RoundRect,0.150000X0.587500X0.150000X-0.587500X0.150000X-0.587500X-0.150000X0.587500X-0.150000X0*%
%ADD26RoundRect,0.225000X-0.250000X0.225000X-0.250000X-0.225000X0.250000X-0.225000X0.250000X0.225000X0*%
%ADD27RoundRect,0.218750X-0.218750X-0.256250X0.218750X-0.256250X0.218750X0.256250X-0.218750X0.256250X0*%
%ADD28RoundRect,0.200000X-0.200000X-0.275000X0.200000X-0.275000X0.200000X0.275000X-0.200000X0.275000X0*%
G04 APERTURE END LIST*
D10*
X183404883Y-117826294D02*
X183404883Y-118397722D01*
X183404883Y-118112008D02*
X182404883Y-118112008D01*
X182404883Y-118112008D02*
X182547740Y-118207246D01*
X182547740Y-118207246D02*
X182642978Y-118302484D01*
X182642978Y-118302484D02*
X182690597Y-118397722D01*
X182404883Y-117492960D02*
X182404883Y-116873913D01*
X182404883Y-116873913D02*
X182785835Y-117207246D01*
X182785835Y-117207246D02*
X182785835Y-117064389D01*
X182785835Y-117064389D02*
X182833454Y-116969151D01*
X182833454Y-116969151D02*
X182881073Y-116921532D01*
X182881073Y-116921532D02*
X182976311Y-116873913D01*
X182976311Y-116873913D02*
X183214406Y-116873913D01*
X183214406Y-116873913D02*
X183309644Y-116921532D01*
X183309644Y-116921532D02*
X183357264Y-116969151D01*
X183357264Y-116969151D02*
X183404883Y-117064389D01*
X183404883Y-117064389D02*
X183404883Y-117350103D01*
X183404883Y-117350103D02*
X183357264Y-117445341D01*
X183357264Y-117445341D02*
X183309644Y-117492960D01*
X183309644Y-116445341D02*
X183357264Y-116397722D01*
X183357264Y-116397722D02*
X183404883Y-116445341D01*
X183404883Y-116445341D02*
X183357264Y-116492960D01*
X183357264Y-116492960D02*
X183309644Y-116445341D01*
X183309644Y-116445341D02*
X183404883Y-116445341D01*
X182404883Y-115492961D02*
X182404883Y-115969151D01*
X182404883Y-115969151D02*
X182881073Y-116016770D01*
X182881073Y-116016770D02*
X182833454Y-115969151D01*
X182833454Y-115969151D02*
X182785835Y-115873913D01*
X182785835Y-115873913D02*
X182785835Y-115635818D01*
X182785835Y-115635818D02*
X182833454Y-115540580D01*
X182833454Y-115540580D02*
X182881073Y-115492961D01*
X182881073Y-115492961D02*
X182976311Y-115445342D01*
X182976311Y-115445342D02*
X183214406Y-115445342D01*
X183214406Y-115445342D02*
X183309644Y-115492961D01*
X183309644Y-115492961D02*
X183357264Y-115540580D01*
X183357264Y-115540580D02*
X183404883Y-115635818D01*
X183404883Y-115635818D02*
X183404883Y-115873913D01*
X183404883Y-115873913D02*
X183357264Y-115969151D01*
X183357264Y-115969151D02*
X183309644Y-116016770D01*
X182404883Y-114826294D02*
X182404883Y-114731056D01*
X182404883Y-114731056D02*
X182452502Y-114635818D01*
X182452502Y-114635818D02*
X182500121Y-114588199D01*
X182500121Y-114588199D02*
X182595359Y-114540580D01*
X182595359Y-114540580D02*
X182785835Y-114492961D01*
X182785835Y-114492961D02*
X183023930Y-114492961D01*
X183023930Y-114492961D02*
X183214406Y-114540580D01*
X183214406Y-114540580D02*
X183309644Y-114588199D01*
X183309644Y-114588199D02*
X183357264Y-114635818D01*
X183357264Y-114635818D02*
X183404883Y-114731056D01*
X183404883Y-114731056D02*
X183404883Y-114826294D01*
X183404883Y-114826294D02*
X183357264Y-114921532D01*
X183357264Y-114921532D02*
X183309644Y-114969151D01*
X183309644Y-114969151D02*
X183214406Y-115016770D01*
X183214406Y-115016770D02*
X183023930Y-115064389D01*
X183023930Y-115064389D02*
X182785835Y-115064389D01*
X182785835Y-115064389D02*
X182595359Y-115016770D01*
X182595359Y-115016770D02*
X182500121Y-114969151D01*
X182500121Y-114969151D02*
X182452502Y-114921532D01*
X182452502Y-114921532D02*
X182404883Y-114826294D01*
X182404883Y-113873913D02*
X182404883Y-113778675D01*
X182404883Y-113778675D02*
X182452502Y-113683437D01*
X182452502Y-113683437D02*
X182500121Y-113635818D01*
X182500121Y-113635818D02*
X182595359Y-113588199D01*
X182595359Y-113588199D02*
X182785835Y-113540580D01*
X182785835Y-113540580D02*
X183023930Y-113540580D01*
X183023930Y-113540580D02*
X183214406Y-113588199D01*
X183214406Y-113588199D02*
X183309644Y-113635818D01*
X183309644Y-113635818D02*
X183357264Y-113683437D01*
X183357264Y-113683437D02*
X183404883Y-113778675D01*
X183404883Y-113778675D02*
X183404883Y-113873913D01*
X183404883Y-113873913D02*
X183357264Y-113969151D01*
X183357264Y-113969151D02*
X183309644Y-114016770D01*
X183309644Y-114016770D02*
X183214406Y-114064389D01*
X183214406Y-114064389D02*
X183023930Y-114112008D01*
X183023930Y-114112008D02*
X182785835Y-114112008D01*
X182785835Y-114112008D02*
X182595359Y-114064389D01*
X182595359Y-114064389D02*
X182500121Y-114016770D01*
X182500121Y-114016770D02*
X182452502Y-113969151D01*
X182452502Y-113969151D02*
X182404883Y-113873913D01*
X182404883Y-112921532D02*
X182404883Y-112826294D01*
X182404883Y-112826294D02*
X182452502Y-112731056D01*
X182452502Y-112731056D02*
X182500121Y-112683437D01*
X182500121Y-112683437D02*
X182595359Y-112635818D01*
X182595359Y-112635818D02*
X182785835Y-112588199D01*
X182785835Y-112588199D02*
X183023930Y-112588199D01*
X183023930Y-112588199D02*
X183214406Y-112635818D01*
X183214406Y-112635818D02*
X183309644Y-112683437D01*
X183309644Y-112683437D02*
X183357264Y-112731056D01*
X183357264Y-112731056D02*
X183404883Y-112826294D01*
X183404883Y-112826294D02*
X183404883Y-112921532D01*
X183404883Y-112921532D02*
X183357264Y-113016770D01*
X183357264Y-113016770D02*
X183309644Y-113064389D01*
X183309644Y-113064389D02*
X183214406Y-113112008D01*
X183214406Y-113112008D02*
X183023930Y-113159627D01*
X183023930Y-113159627D02*
X182785835Y-113159627D01*
X182785835Y-113159627D02*
X182595359Y-113112008D01*
X182595359Y-113112008D02*
X182500121Y-113064389D01*
X182500121Y-113064389D02*
X182452502Y-113016770D01*
X182452502Y-113016770D02*
X182404883Y-112921532D01*
X183404883Y-111397722D02*
X182738216Y-111397722D01*
X182833454Y-111397722D02*
X182785835Y-111350103D01*
X182785835Y-111350103D02*
X182738216Y-111254865D01*
X182738216Y-111254865D02*
X182738216Y-111112008D01*
X182738216Y-111112008D02*
X182785835Y-111016770D01*
X182785835Y-111016770D02*
X182881073Y-110969151D01*
X182881073Y-110969151D02*
X183404883Y-110969151D01*
X182881073Y-110969151D02*
X182785835Y-110921532D01*
X182785835Y-110921532D02*
X182738216Y-110826294D01*
X182738216Y-110826294D02*
X182738216Y-110683437D01*
X182738216Y-110683437D02*
X182785835Y-110588198D01*
X182785835Y-110588198D02*
X182881073Y-110540579D01*
X182881073Y-110540579D02*
X183404883Y-110540579D01*
X183404883Y-110064389D02*
X182738216Y-110064389D01*
X182833454Y-110064389D02*
X182785835Y-110016770D01*
X182785835Y-110016770D02*
X182738216Y-109921532D01*
X182738216Y-109921532D02*
X182738216Y-109778675D01*
X182738216Y-109778675D02*
X182785835Y-109683437D01*
X182785835Y-109683437D02*
X182881073Y-109635818D01*
X182881073Y-109635818D02*
X183404883Y-109635818D01*
X182881073Y-109635818D02*
X182785835Y-109588199D01*
X182785835Y-109588199D02*
X182738216Y-109492961D01*
X182738216Y-109492961D02*
X182738216Y-109350104D01*
X182738216Y-109350104D02*
X182785835Y-109254865D01*
X182785835Y-109254865D02*
X182881073Y-109207246D01*
X182881073Y-109207246D02*
X183404883Y-109207246D01*
X177700064Y-107028676D02*
X183536484Y-107028676D01*
X177700064Y-120528676D02*
X183536484Y-120528676D01*
X182950064Y-107028676D02*
X182950064Y-108344152D01*
X182950064Y-119213199D02*
X182950064Y-120528676D01*
X182950064Y-107028676D02*
X183536485Y-108155180D01*
X182950064Y-107028676D02*
X182363643Y-108155180D01*
X182950064Y-120528676D02*
X182363643Y-119402172D01*
X182950064Y-120528676D02*
X183536485Y-119402172D01*
X168519070Y-125903234D02*
X167947642Y-125903234D01*
X168233356Y-125903234D02*
X168233356Y-124903234D01*
X168233356Y-124903234D02*
X168138118Y-125046091D01*
X168138118Y-125046091D02*
X168042880Y-125141329D01*
X168042880Y-125141329D02*
X167947642Y-125188948D01*
X168852404Y-124903234D02*
X169471451Y-124903234D01*
X169471451Y-124903234D02*
X169138118Y-125284186D01*
X169138118Y-125284186D02*
X169280975Y-125284186D01*
X169280975Y-125284186D02*
X169376213Y-125331805D01*
X169376213Y-125331805D02*
X169423832Y-125379424D01*
X169423832Y-125379424D02*
X169471451Y-125474662D01*
X169471451Y-125474662D02*
X169471451Y-125712757D01*
X169471451Y-125712757D02*
X169423832Y-125807995D01*
X169423832Y-125807995D02*
X169376213Y-125855615D01*
X169376213Y-125855615D02*
X169280975Y-125903234D01*
X169280975Y-125903234D02*
X168995261Y-125903234D01*
X168995261Y-125903234D02*
X168900023Y-125855615D01*
X168900023Y-125855615D02*
X168852404Y-125807995D01*
X169900023Y-125807995D02*
X169947642Y-125855615D01*
X169947642Y-125855615D02*
X169900023Y-125903234D01*
X169900023Y-125903234D02*
X169852404Y-125855615D01*
X169852404Y-125855615D02*
X169900023Y-125807995D01*
X169900023Y-125807995D02*
X169900023Y-125903234D01*
X170852403Y-124903234D02*
X170376213Y-124903234D01*
X170376213Y-124903234D02*
X170328594Y-125379424D01*
X170328594Y-125379424D02*
X170376213Y-125331805D01*
X170376213Y-125331805D02*
X170471451Y-125284186D01*
X170471451Y-125284186D02*
X170709546Y-125284186D01*
X170709546Y-125284186D02*
X170804784Y-125331805D01*
X170804784Y-125331805D02*
X170852403Y-125379424D01*
X170852403Y-125379424D02*
X170900022Y-125474662D01*
X170900022Y-125474662D02*
X170900022Y-125712757D01*
X170900022Y-125712757D02*
X170852403Y-125807995D01*
X170852403Y-125807995D02*
X170804784Y-125855615D01*
X170804784Y-125855615D02*
X170709546Y-125903234D01*
X170709546Y-125903234D02*
X170471451Y-125903234D01*
X170471451Y-125903234D02*
X170376213Y-125855615D01*
X170376213Y-125855615D02*
X170328594Y-125807995D01*
X171519070Y-124903234D02*
X171614308Y-124903234D01*
X171614308Y-124903234D02*
X171709546Y-124950853D01*
X171709546Y-124950853D02*
X171757165Y-124998472D01*
X171757165Y-124998472D02*
X171804784Y-125093710D01*
X171804784Y-125093710D02*
X171852403Y-125284186D01*
X171852403Y-125284186D02*
X171852403Y-125522281D01*
X171852403Y-125522281D02*
X171804784Y-125712757D01*
X171804784Y-125712757D02*
X171757165Y-125807995D01*
X171757165Y-125807995D02*
X171709546Y-125855615D01*
X171709546Y-125855615D02*
X171614308Y-125903234D01*
X171614308Y-125903234D02*
X171519070Y-125903234D01*
X171519070Y-125903234D02*
X171423832Y-125855615D01*
X171423832Y-125855615D02*
X171376213Y-125807995D01*
X171376213Y-125807995D02*
X171328594Y-125712757D01*
X171328594Y-125712757D02*
X171280975Y-125522281D01*
X171280975Y-125522281D02*
X171280975Y-125284186D01*
X171280975Y-125284186D02*
X171328594Y-125093710D01*
X171328594Y-125093710D02*
X171376213Y-124998472D01*
X171376213Y-124998472D02*
X171423832Y-124950853D01*
X171423832Y-124950853D02*
X171519070Y-124903234D01*
X172471451Y-124903234D02*
X172566689Y-124903234D01*
X172566689Y-124903234D02*
X172661927Y-124950853D01*
X172661927Y-124950853D02*
X172709546Y-124998472D01*
X172709546Y-124998472D02*
X172757165Y-125093710D01*
X172757165Y-125093710D02*
X172804784Y-125284186D01*
X172804784Y-125284186D02*
X172804784Y-125522281D01*
X172804784Y-125522281D02*
X172757165Y-125712757D01*
X172757165Y-125712757D02*
X172709546Y-125807995D01*
X172709546Y-125807995D02*
X172661927Y-125855615D01*
X172661927Y-125855615D02*
X172566689Y-125903234D01*
X172566689Y-125903234D02*
X172471451Y-125903234D01*
X172471451Y-125903234D02*
X172376213Y-125855615D01*
X172376213Y-125855615D02*
X172328594Y-125807995D01*
X172328594Y-125807995D02*
X172280975Y-125712757D01*
X172280975Y-125712757D02*
X172233356Y-125522281D01*
X172233356Y-125522281D02*
X172233356Y-125284186D01*
X172233356Y-125284186D02*
X172280975Y-125093710D01*
X172280975Y-125093710D02*
X172328594Y-124998472D01*
X172328594Y-124998472D02*
X172376213Y-124950853D01*
X172376213Y-124950853D02*
X172471451Y-124903234D01*
X173423832Y-124903234D02*
X173519070Y-124903234D01*
X173519070Y-124903234D02*
X173614308Y-124950853D01*
X173614308Y-124950853D02*
X173661927Y-124998472D01*
X173661927Y-124998472D02*
X173709546Y-125093710D01*
X173709546Y-125093710D02*
X173757165Y-125284186D01*
X173757165Y-125284186D02*
X173757165Y-125522281D01*
X173757165Y-125522281D02*
X173709546Y-125712757D01*
X173709546Y-125712757D02*
X173661927Y-125807995D01*
X173661927Y-125807995D02*
X173614308Y-125855615D01*
X173614308Y-125855615D02*
X173519070Y-125903234D01*
X173519070Y-125903234D02*
X173423832Y-125903234D01*
X173423832Y-125903234D02*
X173328594Y-125855615D01*
X173328594Y-125855615D02*
X173280975Y-125807995D01*
X173280975Y-125807995D02*
X173233356Y-125712757D01*
X173233356Y-125712757D02*
X173185737Y-125522281D01*
X173185737Y-125522281D02*
X173185737Y-125284186D01*
X173185737Y-125284186D02*
X173233356Y-125093710D01*
X173233356Y-125093710D02*
X173280975Y-124998472D01*
X173280975Y-124998472D02*
X173328594Y-124950853D01*
X173328594Y-124950853D02*
X173423832Y-124903234D01*
X174947642Y-125903234D02*
X174947642Y-125236567D01*
X174947642Y-125331805D02*
X174995261Y-125284186D01*
X174995261Y-125284186D02*
X175090499Y-125236567D01*
X175090499Y-125236567D02*
X175233356Y-125236567D01*
X175233356Y-125236567D02*
X175328594Y-125284186D01*
X175328594Y-125284186D02*
X175376213Y-125379424D01*
X175376213Y-125379424D02*
X175376213Y-125903234D01*
X175376213Y-125379424D02*
X175423832Y-125284186D01*
X175423832Y-125284186D02*
X175519070Y-125236567D01*
X175519070Y-125236567D02*
X175661927Y-125236567D01*
X175661927Y-125236567D02*
X175757166Y-125284186D01*
X175757166Y-125284186D02*
X175804785Y-125379424D01*
X175804785Y-125379424D02*
X175804785Y-125903234D01*
X176280975Y-125903234D02*
X176280975Y-125236567D01*
X176280975Y-125331805D02*
X176328594Y-125284186D01*
X176328594Y-125284186D02*
X176423832Y-125236567D01*
X176423832Y-125236567D02*
X176566689Y-125236567D01*
X176566689Y-125236567D02*
X176661927Y-125284186D01*
X176661927Y-125284186D02*
X176709546Y-125379424D01*
X176709546Y-125379424D02*
X176709546Y-125903234D01*
X176709546Y-125379424D02*
X176757165Y-125284186D01*
X176757165Y-125284186D02*
X176852403Y-125236567D01*
X176852403Y-125236567D02*
X176995260Y-125236567D01*
X176995260Y-125236567D02*
X177090499Y-125284186D01*
X177090499Y-125284186D02*
X177138118Y-125379424D01*
X177138118Y-125379424D02*
X177138118Y-125903234D01*
X165816689Y-119948415D02*
X165816689Y-126034835D01*
X179316689Y-119948415D02*
X179316689Y-126034835D01*
X165816689Y-125448415D02*
X167132166Y-125448415D01*
X178001213Y-125448415D02*
X179316689Y-125448415D01*
X165816689Y-125448415D02*
X166943193Y-124861994D01*
X165816689Y-125448415D02*
X166943193Y-126034836D01*
X179316689Y-125448415D02*
X178190185Y-126034836D01*
X179316689Y-125448415D02*
X178190185Y-124861994D01*
X164066689Y-112698415D02*
X181066689Y-112698415D01*
X172566689Y-104198415D02*
X172566689Y-121198415D01*
D11*
X140099784Y-120612974D02*
X140099784Y-121422497D01*
X140099784Y-121422497D02*
X140147403Y-121517735D01*
X140147403Y-121517735D02*
X140195022Y-121565355D01*
X140195022Y-121565355D02*
X140290260Y-121612974D01*
X140290260Y-121612974D02*
X140480736Y-121612974D01*
X140480736Y-121612974D02*
X140575974Y-121565355D01*
X140575974Y-121565355D02*
X140623593Y-121517735D01*
X140623593Y-121517735D02*
X140671212Y-121422497D01*
X140671212Y-121422497D02*
X140671212Y-120612974D01*
X141623593Y-120612974D02*
X141147403Y-120612974D01*
X141147403Y-120612974D02*
X141099784Y-121089164D01*
X141099784Y-121089164D02*
X141147403Y-121041545D01*
X141147403Y-121041545D02*
X141242641Y-120993926D01*
X141242641Y-120993926D02*
X141480736Y-120993926D01*
X141480736Y-120993926D02*
X141575974Y-121041545D01*
X141575974Y-121041545D02*
X141623593Y-121089164D01*
X141623593Y-121089164D02*
X141671212Y-121184402D01*
X141671212Y-121184402D02*
X141671212Y-121422497D01*
X141671212Y-121422497D02*
X141623593Y-121517735D01*
X141623593Y-121517735D02*
X141575974Y-121565355D01*
X141575974Y-121565355D02*
X141480736Y-121612974D01*
X141480736Y-121612974D02*
X141242641Y-121612974D01*
X141242641Y-121612974D02*
X141147403Y-121565355D01*
X141147403Y-121565355D02*
X141099784Y-121517735D01*
X142566248Y-112891748D02*
X143280533Y-112891748D01*
X143280533Y-112891748D02*
X143423390Y-112939367D01*
X143423390Y-112939367D02*
X143518629Y-113034605D01*
X143518629Y-113034605D02*
X143566248Y-113177462D01*
X143566248Y-113177462D02*
X143566248Y-113272700D01*
X143566248Y-111891748D02*
X143566248Y-112463176D01*
X143566248Y-112177462D02*
X142566248Y-112177462D01*
X142566248Y-112177462D02*
X142709105Y-112272700D01*
X142709105Y-112272700D02*
X142804343Y-112367938D01*
X142804343Y-112367938D02*
X142851962Y-112463176D01*
X133321009Y-127600081D02*
X133368629Y-127647700D01*
X133368629Y-127647700D02*
X133416248Y-127790557D01*
X133416248Y-127790557D02*
X133416248Y-127885795D01*
X133416248Y-127885795D02*
X133368629Y-128028652D01*
X133368629Y-128028652D02*
X133273390Y-128123890D01*
X133273390Y-128123890D02*
X133178152Y-128171509D01*
X133178152Y-128171509D02*
X132987676Y-128219128D01*
X132987676Y-128219128D02*
X132844819Y-128219128D01*
X132844819Y-128219128D02*
X132654343Y-128171509D01*
X132654343Y-128171509D02*
X132559105Y-128123890D01*
X132559105Y-128123890D02*
X132463867Y-128028652D01*
X132463867Y-128028652D02*
X132416248Y-127885795D01*
X132416248Y-127885795D02*
X132416248Y-127790557D01*
X132416248Y-127790557D02*
X132463867Y-127647700D01*
X132463867Y-127647700D02*
X132511486Y-127600081D01*
X132416248Y-127266747D02*
X132416248Y-126647700D01*
X132416248Y-126647700D02*
X132797200Y-126981033D01*
X132797200Y-126981033D02*
X132797200Y-126838176D01*
X132797200Y-126838176D02*
X132844819Y-126742938D01*
X132844819Y-126742938D02*
X132892438Y-126695319D01*
X132892438Y-126695319D02*
X132987676Y-126647700D01*
X132987676Y-126647700D02*
X133225771Y-126647700D01*
X133225771Y-126647700D02*
X133321009Y-126695319D01*
X133321009Y-126695319D02*
X133368629Y-126742938D01*
X133368629Y-126742938D02*
X133416248Y-126838176D01*
X133416248Y-126838176D02*
X133416248Y-127123890D01*
X133416248Y-127123890D02*
X133368629Y-127219128D01*
X133368629Y-127219128D02*
X133321009Y-127266747D01*
X174021248Y-103557938D02*
X173021248Y-103557938D01*
X173021248Y-103557938D02*
X173735533Y-103224605D01*
X173735533Y-103224605D02*
X173021248Y-102891272D01*
X173021248Y-102891272D02*
X174021248Y-102891272D01*
X174021248Y-101891272D02*
X174021248Y-102462700D01*
X174021248Y-102176986D02*
X173021248Y-102176986D01*
X173021248Y-102176986D02*
X173164105Y-102272224D01*
X173164105Y-102272224D02*
X173259343Y-102367462D01*
X173259343Y-102367462D02*
X173306962Y-102462700D01*
X153818831Y-111012974D02*
X153485498Y-110536783D01*
X153247403Y-111012974D02*
X153247403Y-110012974D01*
X153247403Y-110012974D02*
X153628355Y-110012974D01*
X153628355Y-110012974D02*
X153723593Y-110060593D01*
X153723593Y-110060593D02*
X153771212Y-110108212D01*
X153771212Y-110108212D02*
X153818831Y-110203450D01*
X153818831Y-110203450D02*
X153818831Y-110346307D01*
X153818831Y-110346307D02*
X153771212Y-110441545D01*
X153771212Y-110441545D02*
X153723593Y-110489164D01*
X153723593Y-110489164D02*
X153628355Y-110536783D01*
X153628355Y-110536783D02*
X153247403Y-110536783D01*
X154771212Y-111012974D02*
X154199784Y-111012974D01*
X154485498Y-111012974D02*
X154485498Y-110012974D01*
X154485498Y-110012974D02*
X154390260Y-110155831D01*
X154390260Y-110155831D02*
X154295022Y-110251069D01*
X154295022Y-110251069D02*
X154199784Y-110298688D01*
X155247403Y-111012974D02*
X155437879Y-111012974D01*
X155437879Y-111012974D02*
X155533117Y-110965355D01*
X155533117Y-110965355D02*
X155580736Y-110917735D01*
X155580736Y-110917735D02*
X155675974Y-110774878D01*
X155675974Y-110774878D02*
X155723593Y-110584402D01*
X155723593Y-110584402D02*
X155723593Y-110203450D01*
X155723593Y-110203450D02*
X155675974Y-110108212D01*
X155675974Y-110108212D02*
X155628355Y-110060593D01*
X155628355Y-110060593D02*
X155533117Y-110012974D01*
X155533117Y-110012974D02*
X155342641Y-110012974D01*
X155342641Y-110012974D02*
X155247403Y-110060593D01*
X155247403Y-110060593D02*
X155199784Y-110108212D01*
X155199784Y-110108212D02*
X155152165Y-110203450D01*
X155152165Y-110203450D02*
X155152165Y-110441545D01*
X155152165Y-110441545D02*
X155199784Y-110536783D01*
X155199784Y-110536783D02*
X155247403Y-110584402D01*
X155247403Y-110584402D02*
X155342641Y-110632021D01*
X155342641Y-110632021D02*
X155533117Y-110632021D01*
X155533117Y-110632021D02*
X155628355Y-110584402D01*
X155628355Y-110584402D02*
X155675974Y-110536783D01*
X155675974Y-110536783D02*
X155723593Y-110441545D01*
X148566450Y-111008212D02*
X148471212Y-110960593D01*
X148471212Y-110960593D02*
X148375974Y-110865355D01*
X148375974Y-110865355D02*
X148233117Y-110722497D01*
X148233117Y-110722497D02*
X148137879Y-110674878D01*
X148137879Y-110674878D02*
X148042641Y-110674878D01*
X148090260Y-110912974D02*
X147995022Y-110865355D01*
X147995022Y-110865355D02*
X147899784Y-110770116D01*
X147899784Y-110770116D02*
X147852165Y-110579640D01*
X147852165Y-110579640D02*
X147852165Y-110246307D01*
X147852165Y-110246307D02*
X147899784Y-110055831D01*
X147899784Y-110055831D02*
X147995022Y-109960593D01*
X147995022Y-109960593D02*
X148090260Y-109912974D01*
X148090260Y-109912974D02*
X148280736Y-109912974D01*
X148280736Y-109912974D02*
X148375974Y-109960593D01*
X148375974Y-109960593D02*
X148471212Y-110055831D01*
X148471212Y-110055831D02*
X148518831Y-110246307D01*
X148518831Y-110246307D02*
X148518831Y-110579640D01*
X148518831Y-110579640D02*
X148471212Y-110770116D01*
X148471212Y-110770116D02*
X148375974Y-110865355D01*
X148375974Y-110865355D02*
X148280736Y-110912974D01*
X148280736Y-110912974D02*
X148090260Y-110912974D01*
X149471212Y-110912974D02*
X148899784Y-110912974D01*
X149185498Y-110912974D02*
X149185498Y-109912974D01*
X149185498Y-109912974D02*
X149090260Y-110055831D01*
X149090260Y-110055831D02*
X148995022Y-110151069D01*
X148995022Y-110151069D02*
X148899784Y-110198688D01*
D10*
X131161905Y-100874819D02*
X131161905Y-99874819D01*
X131161905Y-99874819D02*
X131400000Y-99874819D01*
X131400000Y-99874819D02*
X131542857Y-99922438D01*
X131542857Y-99922438D02*
X131638095Y-100017676D01*
X131638095Y-100017676D02*
X131685714Y-100112914D01*
X131685714Y-100112914D02*
X131733333Y-100303390D01*
X131733333Y-100303390D02*
X131733333Y-100446247D01*
X131733333Y-100446247D02*
X131685714Y-100636723D01*
X131685714Y-100636723D02*
X131638095Y-100731961D01*
X131638095Y-100731961D02*
X131542857Y-100827200D01*
X131542857Y-100827200D02*
X131400000Y-100874819D01*
X131400000Y-100874819D02*
X131161905Y-100874819D01*
X132685714Y-100874819D02*
X132114286Y-100874819D01*
X132400000Y-100874819D02*
X132400000Y-99874819D01*
X132400000Y-99874819D02*
X132304762Y-100017676D01*
X132304762Y-100017676D02*
X132209524Y-100112914D01*
X132209524Y-100112914D02*
X132114286Y-100160533D01*
D11*
X183571248Y-103357938D02*
X182571248Y-103357938D01*
X182571248Y-103357938D02*
X183285533Y-103024605D01*
X183285533Y-103024605D02*
X182571248Y-102691272D01*
X182571248Y-102691272D02*
X183571248Y-102691272D01*
X182904581Y-101786510D02*
X183571248Y-101786510D01*
X182523629Y-102024605D02*
X183237914Y-102262700D01*
X183237914Y-102262700D02*
X183237914Y-101643653D01*
X148118831Y-112662974D02*
X147785498Y-112186783D01*
X147547403Y-112662974D02*
X147547403Y-111662974D01*
X147547403Y-111662974D02*
X147928355Y-111662974D01*
X147928355Y-111662974D02*
X148023593Y-111710593D01*
X148023593Y-111710593D02*
X148071212Y-111758212D01*
X148071212Y-111758212D02*
X148118831Y-111853450D01*
X148118831Y-111853450D02*
X148118831Y-111996307D01*
X148118831Y-111996307D02*
X148071212Y-112091545D01*
X148071212Y-112091545D02*
X148023593Y-112139164D01*
X148023593Y-112139164D02*
X147928355Y-112186783D01*
X147928355Y-112186783D02*
X147547403Y-112186783D01*
X149071212Y-112662974D02*
X148499784Y-112662974D01*
X148785498Y-112662974D02*
X148785498Y-111662974D01*
X148785498Y-111662974D02*
X148690260Y-111805831D01*
X148690260Y-111805831D02*
X148595022Y-111901069D01*
X148595022Y-111901069D02*
X148499784Y-111948688D01*
X149642641Y-112091545D02*
X149547403Y-112043926D01*
X149547403Y-112043926D02*
X149499784Y-111996307D01*
X149499784Y-111996307D02*
X149452165Y-111901069D01*
X149452165Y-111901069D02*
X149452165Y-111853450D01*
X149452165Y-111853450D02*
X149499784Y-111758212D01*
X149499784Y-111758212D02*
X149547403Y-111710593D01*
X149547403Y-111710593D02*
X149642641Y-111662974D01*
X149642641Y-111662974D02*
X149833117Y-111662974D01*
X149833117Y-111662974D02*
X149928355Y-111710593D01*
X149928355Y-111710593D02*
X149975974Y-111758212D01*
X149975974Y-111758212D02*
X150023593Y-111853450D01*
X150023593Y-111853450D02*
X150023593Y-111901069D01*
X150023593Y-111901069D02*
X149975974Y-111996307D01*
X149975974Y-111996307D02*
X149928355Y-112043926D01*
X149928355Y-112043926D02*
X149833117Y-112091545D01*
X149833117Y-112091545D02*
X149642641Y-112091545D01*
X149642641Y-112091545D02*
X149547403Y-112139164D01*
X149547403Y-112139164D02*
X149499784Y-112186783D01*
X149499784Y-112186783D02*
X149452165Y-112282021D01*
X149452165Y-112282021D02*
X149452165Y-112472497D01*
X149452165Y-112472497D02*
X149499784Y-112567735D01*
X149499784Y-112567735D02*
X149547403Y-112615355D01*
X149547403Y-112615355D02*
X149642641Y-112662974D01*
X149642641Y-112662974D02*
X149833117Y-112662974D01*
X149833117Y-112662974D02*
X149928355Y-112615355D01*
X149928355Y-112615355D02*
X149975974Y-112567735D01*
X149975974Y-112567735D02*
X150023593Y-112472497D01*
X150023593Y-112472497D02*
X150023593Y-112282021D01*
X150023593Y-112282021D02*
X149975974Y-112186783D01*
X149975974Y-112186783D02*
X149928355Y-112139164D01*
X149928355Y-112139164D02*
X149833117Y-112091545D01*
X144221009Y-130525081D02*
X144268629Y-130572700D01*
X144268629Y-130572700D02*
X144316248Y-130715557D01*
X144316248Y-130715557D02*
X144316248Y-130810795D01*
X144316248Y-130810795D02*
X144268629Y-130953652D01*
X144268629Y-130953652D02*
X144173390Y-131048890D01*
X144173390Y-131048890D02*
X144078152Y-131096509D01*
X144078152Y-131096509D02*
X143887676Y-131144128D01*
X143887676Y-131144128D02*
X143744819Y-131144128D01*
X143744819Y-131144128D02*
X143554343Y-131096509D01*
X143554343Y-131096509D02*
X143459105Y-131048890D01*
X143459105Y-131048890D02*
X143363867Y-130953652D01*
X143363867Y-130953652D02*
X143316248Y-130810795D01*
X143316248Y-130810795D02*
X143316248Y-130715557D01*
X143316248Y-130715557D02*
X143363867Y-130572700D01*
X143363867Y-130572700D02*
X143411486Y-130525081D01*
X144316248Y-129572700D02*
X144316248Y-130144128D01*
X144316248Y-129858414D02*
X143316248Y-129858414D01*
X143316248Y-129858414D02*
X143459105Y-129953652D01*
X143459105Y-129953652D02*
X143554343Y-130048890D01*
X143554343Y-130048890D02*
X143601962Y-130144128D01*
X141721009Y-130725081D02*
X141768629Y-130772700D01*
X141768629Y-130772700D02*
X141816248Y-130915557D01*
X141816248Y-130915557D02*
X141816248Y-131010795D01*
X141816248Y-131010795D02*
X141768629Y-131153652D01*
X141768629Y-131153652D02*
X141673390Y-131248890D01*
X141673390Y-131248890D02*
X141578152Y-131296509D01*
X141578152Y-131296509D02*
X141387676Y-131344128D01*
X141387676Y-131344128D02*
X141244819Y-131344128D01*
X141244819Y-131344128D02*
X141054343Y-131296509D01*
X141054343Y-131296509D02*
X140959105Y-131248890D01*
X140959105Y-131248890D02*
X140863867Y-131153652D01*
X140863867Y-131153652D02*
X140816248Y-131010795D01*
X140816248Y-131010795D02*
X140816248Y-130915557D01*
X140816248Y-130915557D02*
X140863867Y-130772700D01*
X140863867Y-130772700D02*
X140911486Y-130725081D01*
X140911486Y-130344128D02*
X140863867Y-130296509D01*
X140863867Y-130296509D02*
X140816248Y-130201271D01*
X140816248Y-130201271D02*
X140816248Y-129963176D01*
X140816248Y-129963176D02*
X140863867Y-129867938D01*
X140863867Y-129867938D02*
X140911486Y-129820319D01*
X140911486Y-129820319D02*
X141006724Y-129772700D01*
X141006724Y-129772700D02*
X141101962Y-129772700D01*
X141101962Y-129772700D02*
X141244819Y-129820319D01*
X141244819Y-129820319D02*
X141816248Y-130391747D01*
X141816248Y-130391747D02*
X141816248Y-129772700D01*
X145318831Y-121612974D02*
X144985498Y-121136783D01*
X144747403Y-121612974D02*
X144747403Y-120612974D01*
X144747403Y-120612974D02*
X145128355Y-120612974D01*
X145128355Y-120612974D02*
X145223593Y-120660593D01*
X145223593Y-120660593D02*
X145271212Y-120708212D01*
X145271212Y-120708212D02*
X145318831Y-120803450D01*
X145318831Y-120803450D02*
X145318831Y-120946307D01*
X145318831Y-120946307D02*
X145271212Y-121041545D01*
X145271212Y-121041545D02*
X145223593Y-121089164D01*
X145223593Y-121089164D02*
X145128355Y-121136783D01*
X145128355Y-121136783D02*
X144747403Y-121136783D01*
X146271212Y-121612974D02*
X145699784Y-121612974D01*
X145985498Y-121612974D02*
X145985498Y-120612974D01*
X145985498Y-120612974D02*
X145890260Y-120755831D01*
X145890260Y-120755831D02*
X145795022Y-120851069D01*
X145795022Y-120851069D02*
X145699784Y-120898688D01*
X146604546Y-120612974D02*
X147271212Y-120612974D01*
X147271212Y-120612974D02*
X146842641Y-121612974D01*
D12*
%TO.C,R20*%
X153539189Y-116095673D02*
X153539189Y-115621157D01*
X154584189Y-116095673D02*
X154584189Y-115621157D01*
D13*
%TO.C,M16*%
X180892889Y-117872215D02*
X180892889Y-118367922D01*
X180397182Y-117872215D02*
X180892889Y-117872215D01*
X178236196Y-117872215D02*
X177740489Y-117872215D01*
X177740489Y-117872215D02*
X177740489Y-118367922D01*
D14*
X177740489Y-118367922D02*
X178236196Y-117872215D01*
D13*
X180892889Y-121024615D02*
X180892889Y-120528908D01*
X180397182Y-121024615D02*
X180892889Y-121024615D01*
X178236196Y-121024615D02*
X177740489Y-121024615D01*
X177740489Y-121024615D02*
X177740489Y-120528908D01*
D15*
X177846534Y-117948542D02*
G75*
G03*
X177846534Y-117948542I-29972J0D01*
G01*
D16*
X177486615Y-118305413D02*
G75*
G03*
X177486615Y-118305413I-74930J0D01*
G01*
D17*
%TO.C,U5*%
X141362070Y-122271242D02*
X141362070Y-125070328D01*
X140361308Y-122271242D02*
X141362070Y-122271242D01*
X141362070Y-125070328D02*
X140361308Y-125070328D01*
X140361308Y-125070328D02*
X140361308Y-122271242D01*
D18*
X139340226Y-121881326D02*
G75*
G03*
X139340227Y-121878837I124454J1194D01*
G01*
D15*
X139491610Y-122208047D02*
G75*
G03*
X139491610Y-122208047I-29972J0D01*
G01*
D17*
%TO.C,J1*%
X132881763Y-107638379D02*
X130351740Y-107638379D01*
X130351740Y-107638379D02*
X130341758Y-107638379D01*
X130341758Y-107638379D02*
X130341758Y-117798400D01*
X130341758Y-108901753D02*
X124341732Y-108901753D01*
X134351740Y-108908382D02*
X132881763Y-108908382D01*
X130341758Y-111441758D02*
X124341732Y-111441758D01*
X134351740Y-111448387D02*
X132881763Y-111448387D01*
X130341758Y-113981814D02*
X124341732Y-113981814D01*
X134351740Y-113988443D02*
X132881763Y-113988443D01*
X130341758Y-116521819D02*
X124341732Y-116521819D01*
X134351740Y-116528397D02*
X132951740Y-116528448D01*
X132881763Y-117798400D02*
X132881763Y-107638379D01*
X130341758Y-117798400D02*
X132881763Y-117798400D01*
D15*
X141411709Y-107638405D02*
G75*
G03*
X141411709Y-107638405I-29972J0D01*
G01*
D12*
%TO.C,Q2*%
X147561689Y-117418415D02*
X149236689Y-117418415D01*
X147561689Y-117418415D02*
X146911689Y-117418415D01*
X147561689Y-114298415D02*
X148211689Y-114298415D01*
X147561689Y-114298415D02*
X146911689Y-114298415D01*
%TO.C,C3*%
X135371689Y-127292835D02*
X135371689Y-127573995D01*
X134351689Y-127292835D02*
X134351689Y-127573995D01*
D13*
%TO.C,M8*%
X180892889Y-108872215D02*
X180892889Y-109367922D01*
X180397182Y-108872215D02*
X180892889Y-108872215D01*
X178236196Y-108872215D02*
X177740489Y-108872215D01*
X177740489Y-108872215D02*
X177740489Y-109367922D01*
D14*
X177740489Y-109367922D02*
X178236196Y-108872215D01*
D13*
X180892889Y-112024615D02*
X180892889Y-111528908D01*
X180397182Y-112024615D02*
X180892889Y-112024615D01*
X178236196Y-112024615D02*
X177740489Y-112024615D01*
X177740489Y-112024615D02*
X177740489Y-111528908D01*
D15*
X177846534Y-108948542D02*
G75*
G03*
X177846534Y-108948542I-29972J0D01*
G01*
D16*
X177486615Y-109305413D02*
G75*
G03*
X177486615Y-109305413I-74930J0D01*
G01*
D13*
%TO.C,M11*%
X176392889Y-113372215D02*
X176392889Y-113867922D01*
X175897182Y-113372215D02*
X176392889Y-113372215D01*
X173736196Y-113372215D02*
X173240489Y-113372215D01*
X173240489Y-113372215D02*
X173240489Y-113867922D01*
D14*
X173240489Y-113867922D02*
X173736196Y-113372215D01*
D13*
X176392889Y-116524615D02*
X176392889Y-116028908D01*
X175897182Y-116524615D02*
X176392889Y-116524615D01*
X173736196Y-116524615D02*
X173240489Y-116524615D01*
X173240489Y-116524615D02*
X173240489Y-116028908D01*
D15*
X173346534Y-113448542D02*
G75*
G03*
X173346534Y-113448542I-29972J0D01*
G01*
D16*
X172986615Y-113805413D02*
G75*
G03*
X172986615Y-113805413I-74930J0D01*
G01*
D13*
%TO.C,M1*%
X171892889Y-104372215D02*
X171892889Y-104867922D01*
X171397182Y-104372215D02*
X171892889Y-104372215D01*
X169236196Y-104372215D02*
X168740489Y-104372215D01*
X168740489Y-104372215D02*
X168740489Y-104867922D01*
D14*
X168740489Y-104867922D02*
X169236196Y-104372215D01*
D13*
X171892889Y-107524615D02*
X171892889Y-107028908D01*
X171397182Y-107524615D02*
X171892889Y-107524615D01*
X169236196Y-107524615D02*
X168740489Y-107524615D01*
X168740489Y-107524615D02*
X168740489Y-107028908D01*
D15*
X168846534Y-104448542D02*
G75*
G03*
X168846534Y-104448542I-29972J0D01*
G01*
D16*
X168486615Y-104805413D02*
G75*
G03*
X168486615Y-104805413I-74930J0D01*
G01*
D13*
%TO.C,M2*%
X176392889Y-104372215D02*
X176392889Y-104867922D01*
X175897182Y-104372215D02*
X176392889Y-104372215D01*
X173736196Y-104372215D02*
X173240489Y-104372215D01*
X173240489Y-104372215D02*
X173240489Y-104867922D01*
D14*
X173240489Y-104867922D02*
X173736196Y-104372215D01*
D13*
X176392889Y-107524615D02*
X176392889Y-107028908D01*
X175897182Y-107524615D02*
X176392889Y-107524615D01*
X173736196Y-107524615D02*
X173240489Y-107524615D01*
X173240489Y-107524615D02*
X173240489Y-107028908D01*
D15*
X173346534Y-104448542D02*
G75*
G03*
X173346534Y-104448542I-29972J0D01*
G01*
D16*
X172986615Y-104805413D02*
G75*
G03*
X172986615Y-104805413I-74930J0D01*
G01*
D12*
%TO.C,R19*%
X153639189Y-108195673D02*
X153639189Y-107721157D01*
X154684189Y-108195673D02*
X154684189Y-107721157D01*
D13*
%TO.C,M9*%
X167392889Y-113372215D02*
X167392889Y-113867922D01*
X166897182Y-113372215D02*
X167392889Y-113372215D01*
X164736196Y-113372215D02*
X164240489Y-113372215D01*
X164240489Y-113372215D02*
X164240489Y-113867922D01*
D14*
X164240489Y-113867922D02*
X164736196Y-113372215D01*
D13*
X167392889Y-116524615D02*
X167392889Y-116028908D01*
X166897182Y-116524615D02*
X167392889Y-116524615D01*
X164736196Y-116524615D02*
X164240489Y-116524615D01*
X164240489Y-116524615D02*
X164240489Y-116028908D01*
D15*
X164346534Y-113448542D02*
G75*
G03*
X164346534Y-113448542I-29972J0D01*
G01*
D16*
X163986615Y-113805413D02*
G75*
G03*
X163986615Y-113805413I-74930J0D01*
G01*
D13*
%TO.C,M10*%
X171892889Y-113372215D02*
X171892889Y-113867922D01*
X171397182Y-113372215D02*
X171892889Y-113372215D01*
X169236196Y-113372215D02*
X168740489Y-113372215D01*
X168740489Y-113372215D02*
X168740489Y-113867922D01*
D14*
X168740489Y-113867922D02*
X169236196Y-113372215D01*
D13*
X171892889Y-116524615D02*
X171892889Y-116028908D01*
X171397182Y-116524615D02*
X171892889Y-116524615D01*
X169236196Y-116524615D02*
X168740489Y-116524615D01*
X168740489Y-116524615D02*
X168740489Y-116028908D01*
D15*
X168846534Y-113448542D02*
G75*
G03*
X168846534Y-113448542I-29972J0D01*
G01*
D16*
X168486615Y-113805413D02*
G75*
G03*
X168486615Y-113805413I-74930J0D01*
G01*
D12*
%TO.C,Q1*%
X147461689Y-109518415D02*
X149136689Y-109518415D01*
X147461689Y-109518415D02*
X146811689Y-109518415D01*
X147461689Y-106398415D02*
X148111689Y-106398415D01*
X147461689Y-106398415D02*
X146811689Y-106398415D01*
%TO.C,D1*%
X130415000Y-101115000D02*
X130415000Y-102585000D01*
X130415000Y-102585000D02*
X132700000Y-102585000D01*
X132700000Y-101115000D02*
X130415000Y-101115000D01*
D13*
%TO.C,M4*%
X180892889Y-104372215D02*
X180892889Y-104867922D01*
X180397182Y-104372215D02*
X180892889Y-104372215D01*
X178236196Y-104372215D02*
X177740489Y-104372215D01*
X177740489Y-104372215D02*
X177740489Y-104867922D01*
D14*
X177740489Y-104867922D02*
X178236196Y-104372215D01*
D13*
X180892889Y-107524615D02*
X180892889Y-107028908D01*
X180397182Y-107524615D02*
X180892889Y-107524615D01*
X178236196Y-107524615D02*
X177740489Y-107524615D01*
X177740489Y-107524615D02*
X177740489Y-107028908D01*
D15*
X177846534Y-104448542D02*
G75*
G03*
X177846534Y-104448542I-29972J0D01*
G01*
D16*
X177486615Y-104805413D02*
G75*
G03*
X177486615Y-104805413I-74930J0D01*
G01*
D12*
%TO.C,R18*%
X145424431Y-111585915D02*
X145898947Y-111585915D01*
X145424431Y-112630915D02*
X145898947Y-112630915D01*
D13*
%TO.C,M15*%
X176392889Y-117872215D02*
X176392889Y-118367922D01*
X175897182Y-117872215D02*
X176392889Y-117872215D01*
X173736196Y-117872215D02*
X173240489Y-117872215D01*
X173240489Y-117872215D02*
X173240489Y-118367922D01*
D14*
X173240489Y-118367922D02*
X173736196Y-117872215D01*
D13*
X176392889Y-121024615D02*
X176392889Y-120528908D01*
X175897182Y-121024615D02*
X176392889Y-121024615D01*
X173736196Y-121024615D02*
X173240489Y-121024615D01*
X173240489Y-121024615D02*
X173240489Y-120528908D01*
D15*
X173346534Y-117948542D02*
G75*
G03*
X173346534Y-117948542I-29972J0D01*
G01*
D16*
X172986615Y-118305413D02*
G75*
G03*
X172986615Y-118305413I-74930J0D01*
G01*
D12*
%TO.C,C1*%
X144271689Y-127317835D02*
X144271689Y-127598995D01*
X143251689Y-127317835D02*
X143251689Y-127598995D01*
%TO.C,C2*%
X141871689Y-127317835D02*
X141871689Y-127598995D01*
X140851689Y-127317835D02*
X140851689Y-127598995D01*
D13*
%TO.C,M14*%
X171892889Y-117872215D02*
X171892889Y-118367922D01*
X171397182Y-117872215D02*
X171892889Y-117872215D01*
X169236196Y-117872215D02*
X168740489Y-117872215D01*
X168740489Y-117872215D02*
X168740489Y-118367922D01*
D14*
X168740489Y-118367922D02*
X169236196Y-117872215D01*
D13*
X171892889Y-121024615D02*
X171892889Y-120528908D01*
X171397182Y-121024615D02*
X171892889Y-121024615D01*
X169236196Y-121024615D02*
X168740489Y-121024615D01*
X168740489Y-121024615D02*
X168740489Y-120528908D01*
D15*
X168846534Y-117948542D02*
G75*
G03*
X168846534Y-117948542I-29972J0D01*
G01*
D16*
X168486615Y-118305413D02*
G75*
G03*
X168486615Y-118305413I-74930J0D01*
G01*
D12*
%TO.C,R17*%
X145524431Y-118835915D02*
X145998947Y-118835915D01*
X145524431Y-119880915D02*
X145998947Y-119880915D01*
D13*
%TO.C,M12*%
X180892889Y-113372215D02*
X180892889Y-113867922D01*
X180397182Y-113372215D02*
X180892889Y-113372215D01*
X178236196Y-113372215D02*
X177740489Y-113372215D01*
X177740489Y-113372215D02*
X177740489Y-113867922D01*
D14*
X177740489Y-113867922D02*
X178236196Y-113372215D01*
D13*
X180892889Y-116524615D02*
X180892889Y-116028908D01*
X180397182Y-116524615D02*
X180892889Y-116524615D01*
X178236196Y-116524615D02*
X177740489Y-116524615D01*
X177740489Y-116524615D02*
X177740489Y-116028908D01*
D15*
X177846534Y-113448542D02*
G75*
G03*
X177846534Y-113448542I-29972J0D01*
G01*
D16*
X177486615Y-113805413D02*
G75*
G03*
X177486615Y-113805413I-74930J0D01*
G01*
D13*
%TO.C,M13*%
X167392889Y-117872215D02*
X167392889Y-118367922D01*
X166897182Y-117872215D02*
X167392889Y-117872215D01*
X164736196Y-117872215D02*
X164240489Y-117872215D01*
X164240489Y-117872215D02*
X164240489Y-118367922D01*
D14*
X164240489Y-118367922D02*
X164736196Y-117872215D01*
D13*
X167392889Y-121024615D02*
X167392889Y-120528908D01*
X166897182Y-121024615D02*
X167392889Y-121024615D01*
X164736196Y-121024615D02*
X164240489Y-121024615D01*
X164240489Y-121024615D02*
X164240489Y-120528908D01*
D15*
X164346534Y-117948542D02*
G75*
G03*
X164346534Y-117948542I-29972J0D01*
G01*
D16*
X163986615Y-118305413D02*
G75*
G03*
X163986615Y-118305413I-74930J0D01*
G01*
D13*
%TO.C,M7*%
X176392889Y-108872215D02*
X176392889Y-109367922D01*
X175897182Y-108872215D02*
X176392889Y-108872215D01*
X173736196Y-108872215D02*
X173240489Y-108872215D01*
X173240489Y-108872215D02*
X173240489Y-109367922D01*
D14*
X173240489Y-109367922D02*
X173736196Y-108872215D01*
D13*
X176392889Y-112024615D02*
X176392889Y-111528908D01*
X175897182Y-112024615D02*
X176392889Y-112024615D01*
X173736196Y-112024615D02*
X173240489Y-112024615D01*
X173240489Y-112024615D02*
X173240489Y-111528908D01*
D15*
X173346534Y-108948542D02*
G75*
G03*
X173346534Y-108948542I-29972J0D01*
G01*
D16*
X172986615Y-109305413D02*
G75*
G03*
X172986615Y-109305413I-74930J0D01*
G01*
D13*
%TO.C,M5*%
X167392889Y-108872215D02*
X167392889Y-109367922D01*
X166897182Y-108872215D02*
X167392889Y-108872215D01*
X164736196Y-108872215D02*
X164240489Y-108872215D01*
X164240489Y-108872215D02*
X164240489Y-109367922D01*
D14*
X164240489Y-109367922D02*
X164736196Y-108872215D01*
D13*
X167392889Y-112024615D02*
X167392889Y-111528908D01*
X166897182Y-112024615D02*
X167392889Y-112024615D01*
X164736196Y-112024615D02*
X164240489Y-112024615D01*
X164240489Y-112024615D02*
X164240489Y-111528908D01*
D15*
X164346534Y-108948542D02*
G75*
G03*
X164346534Y-108948542I-29972J0D01*
G01*
D16*
X163986615Y-109305413D02*
G75*
G03*
X163986615Y-109305413I-74930J0D01*
G01*
D13*
%TO.C,M3*%
X167392889Y-104372215D02*
X167392889Y-104867922D01*
X166897182Y-104372215D02*
X167392889Y-104372215D01*
X164736196Y-104372215D02*
X164240489Y-104372215D01*
X164240489Y-104372215D02*
X164240489Y-104867922D01*
D14*
X164240489Y-104867922D02*
X164736196Y-104372215D01*
D13*
X167392889Y-107524615D02*
X167392889Y-107028908D01*
X166897182Y-107524615D02*
X167392889Y-107524615D01*
X164736196Y-107524615D02*
X164240489Y-107524615D01*
X164240489Y-107524615D02*
X164240489Y-107028908D01*
D15*
X164346534Y-104448542D02*
G75*
G03*
X164346534Y-104448542I-29972J0D01*
G01*
D16*
X163986615Y-104805413D02*
G75*
G03*
X163986615Y-104805413I-74930J0D01*
G01*
D13*
%TO.C,M6*%
X171892889Y-108872215D02*
X171892889Y-109367922D01*
X171397182Y-108872215D02*
X171892889Y-108872215D01*
X169236196Y-108872215D02*
X168740489Y-108872215D01*
X168740489Y-108872215D02*
X168740489Y-109367922D01*
D14*
X168740489Y-109367922D02*
X169236196Y-108872215D01*
D13*
X171892889Y-112024615D02*
X171892889Y-111528908D01*
X171397182Y-112024615D02*
X171892889Y-112024615D01*
X169236196Y-112024615D02*
X168740489Y-112024615D01*
X168740489Y-112024615D02*
X168740489Y-111528908D01*
D15*
X168846534Y-108948542D02*
G75*
G03*
X168846534Y-108948542I-29972J0D01*
G01*
D16*
X168486615Y-109305413D02*
G75*
G03*
X168486615Y-109305413I-74930J0D01*
G01*
%TD*%
%LPC*%
D19*
%TO.C,R20*%
X154061689Y-116683415D03*
X154061689Y-115033415D03*
%TD*%
D20*
%TO.C,M16*%
X177909272Y-118698351D03*
X177909272Y-119198479D03*
X177909272Y-119698351D03*
X177909272Y-120198479D03*
D21*
X178566625Y-120855832D03*
X179066753Y-120855832D03*
X179566625Y-120855832D03*
X180066753Y-120855832D03*
D20*
X180724106Y-120198479D03*
X180724106Y-119698351D03*
X180724106Y-119198479D03*
X180724106Y-118698351D03*
D21*
X180066753Y-118040998D03*
X179566625Y-118040998D03*
X179066753Y-118040998D03*
X178566625Y-118040998D03*
D22*
X179316689Y-119448415D03*
%TD*%
D23*
%TO.C,U5*%
X139561714Y-122708682D03*
X139561714Y-123657882D03*
X139561714Y-124608097D03*
X142161664Y-124608097D03*
X142161664Y-122708682D03*
%TD*%
D24*
%TO.C,J1*%
X140781534Y-108908407D03*
X136121641Y-108908407D03*
X140781534Y-111448412D03*
X136121641Y-111448412D03*
X140781534Y-113988418D03*
X136121641Y-113988418D03*
X140781534Y-116528423D03*
X136121641Y-116528423D03*
%TD*%
D25*
%TO.C,Q2*%
X148499189Y-116808415D03*
X148499189Y-114908415D03*
X146624189Y-115858415D03*
%TD*%
D26*
%TO.C,C3*%
X134861689Y-126658415D03*
X134861689Y-128208415D03*
%TD*%
D20*
%TO.C,M8*%
X177909272Y-109698351D03*
X177909272Y-110198479D03*
X177909272Y-110698351D03*
X177909272Y-111198479D03*
D21*
X178566625Y-111855832D03*
X179066753Y-111855832D03*
X179566625Y-111855832D03*
X180066753Y-111855832D03*
D20*
X180724106Y-111198479D03*
X180724106Y-110698351D03*
X180724106Y-110198479D03*
X180724106Y-109698351D03*
D21*
X180066753Y-109040998D03*
X179566625Y-109040998D03*
X179066753Y-109040998D03*
X178566625Y-109040998D03*
D22*
X179316689Y-110448415D03*
%TD*%
D20*
%TO.C,M11*%
X173409272Y-114198351D03*
X173409272Y-114698479D03*
X173409272Y-115198351D03*
X173409272Y-115698479D03*
D21*
X174066625Y-116355832D03*
X174566753Y-116355832D03*
X175066625Y-116355832D03*
X175566753Y-116355832D03*
D20*
X176224106Y-115698479D03*
X176224106Y-115198351D03*
X176224106Y-114698479D03*
X176224106Y-114198351D03*
D21*
X175566753Y-113540998D03*
X175066625Y-113540998D03*
X174566753Y-113540998D03*
X174066625Y-113540998D03*
D22*
X174816689Y-114948415D03*
%TD*%
D20*
%TO.C,M1*%
X168909272Y-105198351D03*
X168909272Y-105698479D03*
X168909272Y-106198351D03*
X168909272Y-106698479D03*
D21*
X169566625Y-107355832D03*
X170066753Y-107355832D03*
X170566625Y-107355832D03*
X171066753Y-107355832D03*
D20*
X171724106Y-106698479D03*
X171724106Y-106198351D03*
X171724106Y-105698479D03*
X171724106Y-105198351D03*
D21*
X171066753Y-104540998D03*
X170566625Y-104540998D03*
X170066753Y-104540998D03*
X169566625Y-104540998D03*
D22*
X170316689Y-105948415D03*
%TD*%
D20*
%TO.C,M2*%
X173409272Y-105198351D03*
X173409272Y-105698479D03*
X173409272Y-106198351D03*
X173409272Y-106698479D03*
D21*
X174066625Y-107355832D03*
X174566753Y-107355832D03*
X175066625Y-107355832D03*
X175566753Y-107355832D03*
D20*
X176224106Y-106698479D03*
X176224106Y-106198351D03*
X176224106Y-105698479D03*
X176224106Y-105198351D03*
D21*
X175566753Y-104540998D03*
X175066625Y-104540998D03*
X174566753Y-104540998D03*
X174066625Y-104540998D03*
D22*
X174816689Y-105948415D03*
%TD*%
D19*
%TO.C,R19*%
X154161689Y-108783415D03*
X154161689Y-107133415D03*
%TD*%
D20*
%TO.C,M9*%
X164409272Y-114198351D03*
X164409272Y-114698479D03*
X164409272Y-115198351D03*
X164409272Y-115698479D03*
D21*
X165066625Y-116355832D03*
X165566753Y-116355832D03*
X166066625Y-116355832D03*
X166566753Y-116355832D03*
D20*
X167224106Y-115698479D03*
X167224106Y-115198351D03*
X167224106Y-114698479D03*
X167224106Y-114198351D03*
D21*
X166566753Y-113540998D03*
X166066625Y-113540998D03*
X165566753Y-113540998D03*
X165066625Y-113540998D03*
D22*
X165816689Y-114948415D03*
%TD*%
D20*
%TO.C,M10*%
X168909272Y-114198351D03*
X168909272Y-114698479D03*
X168909272Y-115198351D03*
X168909272Y-115698479D03*
D21*
X169566625Y-116355832D03*
X170066753Y-116355832D03*
X170566625Y-116355832D03*
X171066753Y-116355832D03*
D20*
X171724106Y-115698479D03*
X171724106Y-115198351D03*
X171724106Y-114698479D03*
X171724106Y-114198351D03*
D21*
X171066753Y-113540998D03*
X170566625Y-113540998D03*
X170066753Y-113540998D03*
X169566625Y-113540998D03*
D22*
X170316689Y-114948415D03*
%TD*%
D25*
%TO.C,Q1*%
X148399189Y-108908415D03*
X148399189Y-107008415D03*
X146524189Y-107958415D03*
%TD*%
D27*
%TO.C,D1*%
X131112500Y-101850000D03*
X132687500Y-101850000D03*
%TD*%
D20*
%TO.C,M4*%
X177909272Y-105198351D03*
X177909272Y-105698479D03*
X177909272Y-106198351D03*
X177909272Y-106698479D03*
D21*
X178566625Y-107355832D03*
X179066753Y-107355832D03*
X179566625Y-107355832D03*
X180066753Y-107355832D03*
D20*
X180724106Y-106698479D03*
X180724106Y-106198351D03*
X180724106Y-105698479D03*
X180724106Y-105198351D03*
D21*
X180066753Y-104540998D03*
X179566625Y-104540998D03*
X179066753Y-104540998D03*
X178566625Y-104540998D03*
D22*
X179316689Y-105948415D03*
%TD*%
D28*
%TO.C,R18*%
X144836689Y-112108415D03*
X146486689Y-112108415D03*
%TD*%
D20*
%TO.C,M15*%
X173409272Y-118698351D03*
X173409272Y-119198479D03*
X173409272Y-119698351D03*
X173409272Y-120198479D03*
D21*
X174066625Y-120855832D03*
X174566753Y-120855832D03*
X175066625Y-120855832D03*
X175566753Y-120855832D03*
D20*
X176224106Y-120198479D03*
X176224106Y-119698351D03*
X176224106Y-119198479D03*
X176224106Y-118698351D03*
D21*
X175566753Y-118040998D03*
X175066625Y-118040998D03*
X174566753Y-118040998D03*
X174066625Y-118040998D03*
D22*
X174816689Y-119448415D03*
%TD*%
D26*
%TO.C,C1*%
X143761689Y-126683415D03*
X143761689Y-128233415D03*
%TD*%
%TO.C,C2*%
X141361689Y-126683415D03*
X141361689Y-128233415D03*
%TD*%
D20*
%TO.C,M14*%
X168909272Y-118698351D03*
X168909272Y-119198479D03*
X168909272Y-119698351D03*
X168909272Y-120198479D03*
D21*
X169566625Y-120855832D03*
X170066753Y-120855832D03*
X170566625Y-120855832D03*
X171066753Y-120855832D03*
D20*
X171724106Y-120198479D03*
X171724106Y-119698351D03*
X171724106Y-119198479D03*
X171724106Y-118698351D03*
D21*
X171066753Y-118040998D03*
X170566625Y-118040998D03*
X170066753Y-118040998D03*
X169566625Y-118040998D03*
D22*
X170316689Y-119448415D03*
%TD*%
D28*
%TO.C,R17*%
X144936689Y-119358415D03*
X146586689Y-119358415D03*
%TD*%
D20*
%TO.C,M12*%
X177909272Y-114198351D03*
X177909272Y-114698479D03*
X177909272Y-115198351D03*
X177909272Y-115698479D03*
D21*
X178566625Y-116355832D03*
X179066753Y-116355832D03*
X179566625Y-116355832D03*
X180066753Y-116355832D03*
D20*
X180724106Y-115698479D03*
X180724106Y-115198351D03*
X180724106Y-114698479D03*
X180724106Y-114198351D03*
D21*
X180066753Y-113540998D03*
X179566625Y-113540998D03*
X179066753Y-113540998D03*
X178566625Y-113540998D03*
D22*
X179316689Y-114948415D03*
%TD*%
D20*
%TO.C,M13*%
X164409272Y-118698351D03*
X164409272Y-119198479D03*
X164409272Y-119698351D03*
X164409272Y-120198479D03*
D21*
X165066625Y-120855832D03*
X165566753Y-120855832D03*
X166066625Y-120855832D03*
X166566753Y-120855832D03*
D20*
X167224106Y-120198479D03*
X167224106Y-119698351D03*
X167224106Y-119198479D03*
X167224106Y-118698351D03*
D21*
X166566753Y-118040998D03*
X166066625Y-118040998D03*
X165566753Y-118040998D03*
X165066625Y-118040998D03*
D22*
X165816689Y-119448415D03*
%TD*%
D20*
%TO.C,M7*%
X173409272Y-109698351D03*
X173409272Y-110198479D03*
X173409272Y-110698351D03*
X173409272Y-111198479D03*
D21*
X174066625Y-111855832D03*
X174566753Y-111855832D03*
X175066625Y-111855832D03*
X175566753Y-111855832D03*
D20*
X176224106Y-111198479D03*
X176224106Y-110698351D03*
X176224106Y-110198479D03*
X176224106Y-109698351D03*
D21*
X175566753Y-109040998D03*
X175066625Y-109040998D03*
X174566753Y-109040998D03*
X174066625Y-109040998D03*
D22*
X174816689Y-110448415D03*
%TD*%
D20*
%TO.C,M5*%
X164409272Y-109698351D03*
X164409272Y-110198479D03*
X164409272Y-110698351D03*
X164409272Y-111198479D03*
D21*
X165066625Y-111855832D03*
X165566753Y-111855832D03*
X166066625Y-111855832D03*
X166566753Y-111855832D03*
D20*
X167224106Y-111198479D03*
X167224106Y-110698351D03*
X167224106Y-110198479D03*
X167224106Y-109698351D03*
D21*
X166566753Y-109040998D03*
X166066625Y-109040998D03*
X165566753Y-109040998D03*
X165066625Y-109040998D03*
D22*
X165816689Y-110448415D03*
%TD*%
D20*
%TO.C,M3*%
X164409272Y-105198351D03*
X164409272Y-105698479D03*
X164409272Y-106198351D03*
X164409272Y-106698479D03*
D21*
X165066625Y-107355832D03*
X165566753Y-107355832D03*
X166066625Y-107355832D03*
X166566753Y-107355832D03*
D20*
X167224106Y-106698479D03*
X167224106Y-106198351D03*
X167224106Y-105698479D03*
X167224106Y-105198351D03*
D21*
X166566753Y-104540998D03*
X166066625Y-104540998D03*
X165566753Y-104540998D03*
X165066625Y-104540998D03*
D22*
X165816689Y-105948415D03*
%TD*%
D20*
%TO.C,M6*%
X168909272Y-109698351D03*
X168909272Y-110198479D03*
X168909272Y-110698351D03*
X168909272Y-111198479D03*
D21*
X169566625Y-111855832D03*
X170066753Y-111855832D03*
X170566625Y-111855832D03*
X171066753Y-111855832D03*
D20*
X171724106Y-111198479D03*
X171724106Y-110698351D03*
X171724106Y-110198479D03*
X171724106Y-109698351D03*
D21*
X171066753Y-109040998D03*
X170566625Y-109040998D03*
X170066753Y-109040998D03*
X169566625Y-109040998D03*
D22*
X170316689Y-110448415D03*
%TD*%
%LPD*%
M02*
