%TF.GenerationSoftware,KiCad,Pcbnew,7.0.7*%
%TF.CreationDate,2023-10-27T13:52:55-05:00*%
%TF.ProjectId,MLX90393_board3,4d4c5839-3033-4393-935f-626f61726433,rev?*%
%TF.SameCoordinates,Original*%
%TF.FileFunction,Copper,L1,Top*%
%TF.FilePolarity,Positive*%
%FSLAX46Y46*%
G04 Gerber Fmt 4.6, Leading zero omitted, Abs format (unit mm)*
G04 Created by KiCad (PCBNEW 7.0.7) date 2023-10-27 13:52:55*
%MOMM*%
%LPD*%
G01*
G04 APERTURE LIST*
G04 Aperture macros list*
%AMRoundRect*
0 Rectangle with rounded corners*
0 $1 Rounding radius*
0 $2 $3 $4 $5 $6 $7 $8 $9 X,Y pos of 4 corners*
0 Add a 4 corners polygon primitive as box body*
4,1,4,$2,$3,$4,$5,$6,$7,$8,$9,$2,$3,0*
0 Add four circle primitives for the rounded corners*
1,1,$1+$1,$2,$3*
1,1,$1+$1,$4,$5*
1,1,$1+$1,$6,$7*
1,1,$1+$1,$8,$9*
0 Add four rect primitives between the rounded corners*
20,1,$1+$1,$2,$3,$4,$5,0*
20,1,$1+$1,$4,$5,$6,$7,0*
20,1,$1+$1,$6,$7,$8,$9,0*
20,1,$1+$1,$8,$9,$2,$3,0*%
G04 Aperture macros list end*
%TA.AperFunction,SMDPad,CuDef*%
%ADD10RoundRect,0.200000X0.275000X-0.200000X0.275000X0.200000X-0.275000X0.200000X-0.275000X-0.200000X0*%
%TD*%
%TA.AperFunction,SMDPad,CuDef*%
%ADD11R,0.664999X0.280010*%
%TD*%
%TA.AperFunction,SMDPad,CuDef*%
%ADD12R,0.280010X0.664999*%
%TD*%
%TA.AperFunction,SMDPad,CuDef*%
%ADD13R,1.750013X1.750013*%
%TD*%
%TA.AperFunction,SMDPad,CuDef*%
%ADD14R,1.104902X0.622301*%
%TD*%
%TA.AperFunction,SMDPad,CuDef*%
%ADD15R,3.170003X1.000000*%
%TD*%
%TA.AperFunction,SMDPad,CuDef*%
%ADD16RoundRect,0.150000X0.587500X0.150000X-0.587500X0.150000X-0.587500X-0.150000X0.587500X-0.150000X0*%
%TD*%
%TA.AperFunction,SMDPad,CuDef*%
%ADD17RoundRect,0.225000X-0.250000X0.225000X-0.250000X-0.225000X0.250000X-0.225000X0.250000X0.225000X0*%
%TD*%
%TA.AperFunction,SMDPad,CuDef*%
%ADD18RoundRect,0.218750X-0.218750X-0.256250X0.218750X-0.256250X0.218750X0.256250X-0.218750X0.256250X0*%
%TD*%
%TA.AperFunction,SMDPad,CuDef*%
%ADD19RoundRect,0.200000X-0.200000X-0.275000X0.200000X-0.275000X0.200000X0.275000X-0.200000X0.275000X0*%
%TD*%
%TA.AperFunction,ViaPad*%
%ADD20C,0.800000*%
%TD*%
%TA.AperFunction,Conductor*%
%ADD21C,0.150000*%
%TD*%
G04 APERTURE END LIST*
D10*
%TO.P,R20,1*%
%TO.N,+3.3V*%
X154061689Y-116683415D03*
%TO.P,R20,2*%
%TO.N,SDA_3V*%
X154061689Y-115033415D03*
%TD*%
D11*
%TO.P,M16,1,INT*%
%TO.N,unconnected-(M16-INT-Pad1)*%
X177909272Y-118698351D03*
%TO.P,M16,2,SENB/CS*%
%TO.N,+3.3V*%
X177909272Y-119198479D03*
%TO.P,M16,3,SCL/SCLK*%
%TO.N,SCL_3V*%
X177909272Y-119698351D03*
%TO.P,M16,4,NC*%
%TO.N,GND*%
X177909272Y-120198479D03*
D12*
%TO.P,M16,5,SDA/MOSI*%
%TO.N,SDA_3V*%
X178566625Y-120855832D03*
%TO.P,M16,6,MISO*%
%TO.N,unconnected-(M16-MISO-Pad6)*%
X179066753Y-120855832D03*
%TO.P,M16,7,INT/TRG*%
%TO.N,unconnected-(M16-INT{slash}TRG-Pad7)*%
X179566625Y-120855832D03*
%TO.P,M16,8,VDD_IO*%
%TO.N,+3.3V*%
X180066753Y-120855832D03*
D11*
%TO.P,M16,9,NC*%
%TO.N,GND*%
X180724106Y-120198479D03*
%TO.P,M16,10,NC*%
X180724106Y-119698351D03*
%TO.P,M16,11,A1*%
%TO.N,+3.3V*%
X180724106Y-119198479D03*
%TO.P,M16,12,A0*%
X180724106Y-118698351D03*
D12*
%TO.P,M16,13,VSS*%
%TO.N,GND*%
X180066753Y-118040998D03*
%TO.P,M16,14,NC*%
X179566625Y-118040998D03*
%TO.P,M16,15,VDD*%
%TO.N,+3.3V*%
X179066753Y-118040998D03*
%TO.P,M16,16,NC*%
%TO.N,GND*%
X178566625Y-118040998D03*
D13*
%TO.P,M16,17,EP*%
X179316689Y-119448415D03*
%TD*%
D14*
%TO.P,U5,1,VIN*%
%TO.N,VCC*%
X139561714Y-122708682D03*
%TO.P,U5,2,GND*%
%TO.N,GND*%
X139561714Y-123657882D03*
%TO.P,U5,3,EN*%
%TO.N,VCC*%
X139561714Y-124608097D03*
%TO.P,U5,4,NC*%
%TO.N,unconnected-(U5-NC-Pad4)*%
X142161664Y-124608097D03*
%TO.P,U5,5,VOUT*%
%TO.N,+3.3V*%
X142161664Y-122708682D03*
%TD*%
D15*
%TO.P,J1,1,1*%
%TO.N,unconnected-(J1-Pad1)*%
X140781534Y-108908407D03*
%TO.P,J1,2,2*%
%TO.N,VCC*%
X136121641Y-108908407D03*
%TO.P,J1,3,3*%
%TO.N,SDA*%
X140781534Y-111448412D03*
%TO.P,J1,4,4*%
%TO.N,unconnected-(J1-Pad4)*%
X136121641Y-111448412D03*
%TO.P,J1,5,5*%
%TO.N,SCL*%
X140781534Y-113988418D03*
%TO.P,J1,6,6*%
%TO.N,GND*%
X136121641Y-113988418D03*
%TO.P,J1,7,7*%
%TO.N,unconnected-(J1-Pad7)*%
X140781534Y-116528423D03*
%TO.P,J1,8,8*%
%TO.N,unconnected-(J1-Pad8)*%
X136121641Y-116528423D03*
%TD*%
D16*
%TO.P,Q2,1,G*%
%TO.N,+3.3V*%
X148499189Y-116808415D03*
%TO.P,Q2,2,S*%
%TO.N,SDA_3V*%
X148499189Y-114908415D03*
%TO.P,Q2,3,D*%
%TO.N,SDA*%
X146624189Y-115858415D03*
%TD*%
D17*
%TO.P,C3,1*%
%TO.N,VCC*%
X134861689Y-126658415D03*
%TO.P,C3,2*%
%TO.N,GND*%
X134861689Y-128208415D03*
%TD*%
D11*
%TO.P,M8,1,INT*%
%TO.N,unconnected-(M8-INT-Pad1)*%
X177909272Y-109698351D03*
%TO.P,M8,2,SENB/CS*%
%TO.N,+3.3V*%
X177909272Y-110198479D03*
%TO.P,M8,3,SCL/SCLK*%
%TO.N,SCL_3V*%
X177909272Y-110698351D03*
%TO.P,M8,4,NC*%
%TO.N,GND*%
X177909272Y-111198479D03*
D12*
%TO.P,M8,5,SDA/MOSI*%
%TO.N,SDA_3V*%
X178566625Y-111855832D03*
%TO.P,M8,6,MISO*%
%TO.N,unconnected-(M8-MISO-Pad6)*%
X179066753Y-111855832D03*
%TO.P,M8,7,INT/TRG*%
%TO.N,unconnected-(M8-INT{slash}TRG-Pad7)*%
X179566625Y-111855832D03*
%TO.P,M8,8,VDD_IO*%
%TO.N,+3.3V*%
X180066753Y-111855832D03*
D11*
%TO.P,M8,9,NC*%
%TO.N,GND*%
X180724106Y-111198479D03*
%TO.P,M8,10,NC*%
X180724106Y-110698351D03*
%TO.P,M8,11,A1*%
%TO.N,+3.3V*%
X180724106Y-110198479D03*
%TO.P,M8,12,A0*%
X180724106Y-109698351D03*
D12*
%TO.P,M8,13,VSS*%
%TO.N,GND*%
X180066753Y-109040998D03*
%TO.P,M8,14,NC*%
X179566625Y-109040998D03*
%TO.P,M8,15,VDD*%
%TO.N,+3.3V*%
X179066753Y-109040998D03*
%TO.P,M8,16,NC*%
%TO.N,GND*%
X178566625Y-109040998D03*
D13*
%TO.P,M8,17,EP*%
X179316689Y-110448415D03*
%TD*%
D11*
%TO.P,M11,1,INT*%
%TO.N,unconnected-(M11-INT-Pad1)*%
X173409272Y-114198351D03*
%TO.P,M11,2,SENB/CS*%
%TO.N,+3.3V*%
X173409272Y-114698479D03*
%TO.P,M11,3,SCL/SCLK*%
%TO.N,SCL_3V*%
X173409272Y-115198351D03*
%TO.P,M11,4,NC*%
%TO.N,GND*%
X173409272Y-115698479D03*
D12*
%TO.P,M11,5,SDA/MOSI*%
%TO.N,SDA_3V*%
X174066625Y-116355832D03*
%TO.P,M11,6,MISO*%
%TO.N,unconnected-(M11-MISO-Pad6)*%
X174566753Y-116355832D03*
%TO.P,M11,7,INT/TRG*%
%TO.N,unconnected-(M11-INT{slash}TRG-Pad7)*%
X175066625Y-116355832D03*
%TO.P,M11,8,VDD_IO*%
%TO.N,+3.3V*%
X175566753Y-116355832D03*
D11*
%TO.P,M11,9,NC*%
%TO.N,GND*%
X176224106Y-115698479D03*
%TO.P,M11,10,NC*%
X176224106Y-115198351D03*
%TO.P,M11,11,A1*%
%TO.N,+3.3V*%
X176224106Y-114698479D03*
%TO.P,M11,12,A0*%
%TO.N,GND*%
X176224106Y-114198351D03*
D12*
%TO.P,M11,13,VSS*%
X175566753Y-113540998D03*
%TO.P,M11,14,NC*%
X175066625Y-113540998D03*
%TO.P,M11,15,VDD*%
%TO.N,+3.3V*%
X174566753Y-113540998D03*
%TO.P,M11,16,NC*%
%TO.N,GND*%
X174066625Y-113540998D03*
D13*
%TO.P,M11,17,EP*%
X174816689Y-114948415D03*
%TD*%
D11*
%TO.P,M1,1,INT*%
%TO.N,unconnected-(M1-INT-Pad1)*%
X168909272Y-105198351D03*
%TO.P,M1,2,SENB/CS*%
%TO.N,+3.3V*%
X168909272Y-105698479D03*
%TO.P,M1,3,SCL/SCLK*%
%TO.N,SCL_3V*%
X168909272Y-106198351D03*
%TO.P,M1,4,NC*%
%TO.N,GND*%
X168909272Y-106698479D03*
D12*
%TO.P,M1,5,SDA/MOSI*%
%TO.N,SDA_3V*%
X169566625Y-107355832D03*
%TO.P,M1,6,MISO*%
%TO.N,unconnected-(M1-MISO-Pad6)*%
X170066753Y-107355832D03*
%TO.P,M1,7,INT/TRG*%
%TO.N,unconnected-(M1-INT{slash}TRG-Pad7)*%
X170566625Y-107355832D03*
%TO.P,M1,8,VDD_IO*%
%TO.N,+3.3V*%
X171066753Y-107355832D03*
D11*
%TO.P,M1,9,NC*%
%TO.N,GND*%
X171724106Y-106698479D03*
%TO.P,M1,10,NC*%
X171724106Y-106198351D03*
%TO.P,M1,11,A1*%
X171724106Y-105698479D03*
%TO.P,M1,12,A0*%
%TO.N,+3.3V*%
X171724106Y-105198351D03*
D12*
%TO.P,M1,13,VSS*%
%TO.N,GND*%
X171066753Y-104540998D03*
%TO.P,M1,14,NC*%
X170566625Y-104540998D03*
%TO.P,M1,15,VDD*%
%TO.N,+3.3V*%
X170066753Y-104540998D03*
%TO.P,M1,16,NC*%
%TO.N,GND*%
X169566625Y-104540998D03*
D13*
%TO.P,M1,17,EP*%
X170316689Y-105948415D03*
%TD*%
D11*
%TO.P,M2,1,INT*%
%TO.N,unconnected-(M2-INT-Pad1)*%
X173409272Y-105198351D03*
%TO.P,M2,2,SENB/CS*%
%TO.N,+3.3V*%
X173409272Y-105698479D03*
%TO.P,M2,3,SCL/SCLK*%
%TO.N,SCL_3V*%
X173409272Y-106198351D03*
%TO.P,M2,4,NC*%
%TO.N,GND*%
X173409272Y-106698479D03*
D12*
%TO.P,M2,5,SDA/MOSI*%
%TO.N,SDA_3V*%
X174066625Y-107355832D03*
%TO.P,M2,6,MISO*%
%TO.N,unconnected-(M2-MISO-Pad6)*%
X174566753Y-107355832D03*
%TO.P,M2,7,INT/TRG*%
%TO.N,unconnected-(M2-INT{slash}TRG-Pad7)*%
X175066625Y-107355832D03*
%TO.P,M2,8,VDD_IO*%
%TO.N,+3.3V*%
X175566753Y-107355832D03*
D11*
%TO.P,M2,9,NC*%
%TO.N,GND*%
X176224106Y-106698479D03*
%TO.P,M2,10,NC*%
X176224106Y-106198351D03*
%TO.P,M2,11,A1*%
%TO.N,+3.3V*%
X176224106Y-105698479D03*
%TO.P,M2,12,A0*%
%TO.N,GND*%
X176224106Y-105198351D03*
D12*
%TO.P,M2,13,VSS*%
X175566753Y-104540998D03*
%TO.P,M2,14,NC*%
X175066625Y-104540998D03*
%TO.P,M2,15,VDD*%
%TO.N,+3.3V*%
X174566753Y-104540998D03*
%TO.P,M2,16,NC*%
%TO.N,GND*%
X174066625Y-104540998D03*
D13*
%TO.P,M2,17,EP*%
X174816689Y-105948415D03*
%TD*%
D10*
%TO.P,R19,1*%
%TO.N,+3.3V*%
X154161689Y-108783415D03*
%TO.P,R19,2*%
%TO.N,SCL_3V*%
X154161689Y-107133415D03*
%TD*%
D11*
%TO.P,M9,1,INT*%
%TO.N,unconnected-(M9-INT-Pad1)*%
X164409272Y-114198351D03*
%TO.P,M9,2,SENB/CS*%
%TO.N,+3.3V*%
X164409272Y-114698479D03*
%TO.P,M9,3,SCL/SCLK*%
%TO.N,SCL_3V*%
X164409272Y-115198351D03*
%TO.P,M9,4,NC*%
%TO.N,GND*%
X164409272Y-115698479D03*
D12*
%TO.P,M9,5,SDA/MOSI*%
%TO.N,SDA_3V*%
X165066625Y-116355832D03*
%TO.P,M9,6,MISO*%
%TO.N,unconnected-(M9-MISO-Pad6)*%
X165566753Y-116355832D03*
%TO.P,M9,7,INT/TRG*%
%TO.N,unconnected-(M9-INT{slash}TRG-Pad7)*%
X166066625Y-116355832D03*
%TO.P,M9,8,VDD_IO*%
%TO.N,+3.3V*%
X166566753Y-116355832D03*
D11*
%TO.P,M9,9,NC*%
%TO.N,GND*%
X167224106Y-115698479D03*
%TO.P,M9,10,NC*%
X167224106Y-115198351D03*
%TO.P,M9,11,A1*%
X167224106Y-114698479D03*
%TO.P,M9,12,A0*%
X167224106Y-114198351D03*
D12*
%TO.P,M9,13,VSS*%
X166566753Y-113540998D03*
%TO.P,M9,14,NC*%
X166066625Y-113540998D03*
%TO.P,M9,15,VDD*%
%TO.N,+3.3V*%
X165566753Y-113540998D03*
%TO.P,M9,16,NC*%
%TO.N,GND*%
X165066625Y-113540998D03*
D13*
%TO.P,M9,17,EP*%
X165816689Y-114948415D03*
%TD*%
D11*
%TO.P,M10,1,INT*%
%TO.N,unconnected-(M10-INT-Pad1)*%
X168909272Y-114198351D03*
%TO.P,M10,2,SENB/CS*%
%TO.N,+3.3V*%
X168909272Y-114698479D03*
%TO.P,M10,3,SCL/SCLK*%
%TO.N,SCL_3V*%
X168909272Y-115198351D03*
%TO.P,M10,4,NC*%
%TO.N,GND*%
X168909272Y-115698479D03*
D12*
%TO.P,M10,5,SDA/MOSI*%
%TO.N,SDA_3V*%
X169566625Y-116355832D03*
%TO.P,M10,6,MISO*%
%TO.N,unconnected-(M10-MISO-Pad6)*%
X170066753Y-116355832D03*
%TO.P,M10,7,INT/TRG*%
%TO.N,unconnected-(M10-INT{slash}TRG-Pad7)*%
X170566625Y-116355832D03*
%TO.P,M10,8,VDD_IO*%
%TO.N,+3.3V*%
X171066753Y-116355832D03*
D11*
%TO.P,M10,9,NC*%
%TO.N,GND*%
X171724106Y-115698479D03*
%TO.P,M10,10,NC*%
X171724106Y-115198351D03*
%TO.P,M10,11,A1*%
X171724106Y-114698479D03*
%TO.P,M10,12,A0*%
%TO.N,+3.3V*%
X171724106Y-114198351D03*
D12*
%TO.P,M10,13,VSS*%
%TO.N,GND*%
X171066753Y-113540998D03*
%TO.P,M10,14,NC*%
X170566625Y-113540998D03*
%TO.P,M10,15,VDD*%
%TO.N,+3.3V*%
X170066753Y-113540998D03*
%TO.P,M10,16,NC*%
%TO.N,GND*%
X169566625Y-113540998D03*
D13*
%TO.P,M10,17,EP*%
X170316689Y-114948415D03*
%TD*%
D16*
%TO.P,Q1,1,G*%
%TO.N,+3.3V*%
X148399189Y-108908415D03*
%TO.P,Q1,2,S*%
%TO.N,SCL_3V*%
X148399189Y-107008415D03*
%TO.P,Q1,3,D*%
%TO.N,SCL*%
X146524189Y-107958415D03*
%TD*%
D18*
%TO.P,D1,1,K*%
%TO.N,GND*%
X131112500Y-101850000D03*
%TO.P,D1,2,A*%
%TO.N,+3.3V*%
X132687500Y-101850000D03*
%TD*%
D11*
%TO.P,M4,1,INT*%
%TO.N,unconnected-(M4-INT-Pad1)*%
X177909272Y-105198351D03*
%TO.P,M4,2,SENB/CS*%
%TO.N,+3.3V*%
X177909272Y-105698479D03*
%TO.P,M4,3,SCL/SCLK*%
%TO.N,SCL_3V*%
X177909272Y-106198351D03*
%TO.P,M4,4,NC*%
%TO.N,GND*%
X177909272Y-106698479D03*
D12*
%TO.P,M4,5,SDA/MOSI*%
%TO.N,SDA_3V*%
X178566625Y-107355832D03*
%TO.P,M4,6,MISO*%
%TO.N,unconnected-(M4-MISO-Pad6)*%
X179066753Y-107355832D03*
%TO.P,M4,7,INT/TRG*%
%TO.N,unconnected-(M4-INT{slash}TRG-Pad7)*%
X179566625Y-107355832D03*
%TO.P,M4,8,VDD_IO*%
%TO.N,+3.3V*%
X180066753Y-107355832D03*
D11*
%TO.P,M4,9,NC*%
%TO.N,GND*%
X180724106Y-106698479D03*
%TO.P,M4,10,NC*%
X180724106Y-106198351D03*
%TO.P,M4,11,A1*%
%TO.N,+3.3V*%
X180724106Y-105698479D03*
%TO.P,M4,12,A0*%
X180724106Y-105198351D03*
D12*
%TO.P,M4,13,VSS*%
%TO.N,GND*%
X180066753Y-104540998D03*
%TO.P,M4,14,NC*%
X179566625Y-104540998D03*
%TO.P,M4,15,VDD*%
%TO.N,+3.3V*%
X179066753Y-104540998D03*
%TO.P,M4,16,NC*%
%TO.N,GND*%
X178566625Y-104540998D03*
D13*
%TO.P,M4,17,EP*%
X179316689Y-105948415D03*
%TD*%
D19*
%TO.P,R18,1*%
%TO.N,VCC*%
X144836689Y-112108415D03*
%TO.P,R18,2*%
%TO.N,SCL*%
X146486689Y-112108415D03*
%TD*%
D11*
%TO.P,M15,1,INT*%
%TO.N,unconnected-(M15-INT-Pad1)*%
X173409272Y-118698351D03*
%TO.P,M15,2,SENB/CS*%
%TO.N,+3.3V*%
X173409272Y-119198479D03*
%TO.P,M15,3,SCL/SCLK*%
%TO.N,SCL_3V*%
X173409272Y-119698351D03*
%TO.P,M15,4,NC*%
%TO.N,GND*%
X173409272Y-120198479D03*
D12*
%TO.P,M15,5,SDA/MOSI*%
%TO.N,SDA_3V*%
X174066625Y-120855832D03*
%TO.P,M15,6,MISO*%
%TO.N,unconnected-(M15-MISO-Pad6)*%
X174566753Y-120855832D03*
%TO.P,M15,7,INT/TRG*%
%TO.N,unconnected-(M15-INT{slash}TRG-Pad7)*%
X175066625Y-120855832D03*
%TO.P,M15,8,VDD_IO*%
%TO.N,+3.3V*%
X175566753Y-120855832D03*
D11*
%TO.P,M15,9,NC*%
%TO.N,GND*%
X176224106Y-120198479D03*
%TO.P,M15,10,NC*%
X176224106Y-119698351D03*
%TO.P,M15,11,A1*%
%TO.N,+3.3V*%
X176224106Y-119198479D03*
%TO.P,M15,12,A0*%
%TO.N,GND*%
X176224106Y-118698351D03*
D12*
%TO.P,M15,13,VSS*%
X175566753Y-118040998D03*
%TO.P,M15,14,NC*%
X175066625Y-118040998D03*
%TO.P,M15,15,VDD*%
%TO.N,+3.3V*%
X174566753Y-118040998D03*
%TO.P,M15,16,NC*%
%TO.N,GND*%
X174066625Y-118040998D03*
D13*
%TO.P,M15,17,EP*%
X174816689Y-119448415D03*
%TD*%
D17*
%TO.P,C1,1*%
%TO.N,+3.3V*%
X143761689Y-126683415D03*
%TO.P,C1,2*%
%TO.N,GND*%
X143761689Y-128233415D03*
%TD*%
%TO.P,C2,1*%
%TO.N,+3.3V*%
X141361689Y-126683415D03*
%TO.P,C2,2*%
%TO.N,GND*%
X141361689Y-128233415D03*
%TD*%
D11*
%TO.P,M14,1,INT*%
%TO.N,unconnected-(M14-INT-Pad1)*%
X168909272Y-118698351D03*
%TO.P,M14,2,SENB/CS*%
%TO.N,+3.3V*%
X168909272Y-119198479D03*
%TO.P,M14,3,SCL/SCLK*%
%TO.N,SCL_3V*%
X168909272Y-119698351D03*
%TO.P,M14,4,NC*%
%TO.N,GND*%
X168909272Y-120198479D03*
D12*
%TO.P,M14,5,SDA/MOSI*%
%TO.N,SDA_3V*%
X169566625Y-120855832D03*
%TO.P,M14,6,MISO*%
%TO.N,unconnected-(M14-MISO-Pad6)*%
X170066753Y-120855832D03*
%TO.P,M14,7,INT/TRG*%
%TO.N,unconnected-(M14-INT{slash}TRG-Pad7)*%
X170566625Y-120855832D03*
%TO.P,M14,8,VDD_IO*%
%TO.N,+3.3V*%
X171066753Y-120855832D03*
D11*
%TO.P,M14,9,NC*%
%TO.N,GND*%
X171724106Y-120198479D03*
%TO.P,M14,10,NC*%
X171724106Y-119698351D03*
%TO.P,M14,11,A1*%
X171724106Y-119198479D03*
%TO.P,M14,12,A0*%
%TO.N,+3.3V*%
X171724106Y-118698351D03*
D12*
%TO.P,M14,13,VSS*%
%TO.N,GND*%
X171066753Y-118040998D03*
%TO.P,M14,14,NC*%
X170566625Y-118040998D03*
%TO.P,M14,15,VDD*%
%TO.N,+3.3V*%
X170066753Y-118040998D03*
%TO.P,M14,16,NC*%
%TO.N,GND*%
X169566625Y-118040998D03*
D13*
%TO.P,M14,17,EP*%
X170316689Y-119448415D03*
%TD*%
D19*
%TO.P,R17,1*%
%TO.N,VCC*%
X144936689Y-119358415D03*
%TO.P,R17,2*%
%TO.N,SDA*%
X146586689Y-119358415D03*
%TD*%
D11*
%TO.P,M12,1,INT*%
%TO.N,unconnected-(M12-INT-Pad1)*%
X177909272Y-114198351D03*
%TO.P,M12,2,SENB/CS*%
%TO.N,+3.3V*%
X177909272Y-114698479D03*
%TO.P,M12,3,SCL/SCLK*%
%TO.N,SCL_3V*%
X177909272Y-115198351D03*
%TO.P,M12,4,NC*%
%TO.N,GND*%
X177909272Y-115698479D03*
D12*
%TO.P,M12,5,SDA/MOSI*%
%TO.N,SDA_3V*%
X178566625Y-116355832D03*
%TO.P,M12,6,MISO*%
%TO.N,unconnected-(M12-MISO-Pad6)*%
X179066753Y-116355832D03*
%TO.P,M12,7,INT/TRG*%
%TO.N,unconnected-(M12-INT{slash}TRG-Pad7)*%
X179566625Y-116355832D03*
%TO.P,M12,8,VDD_IO*%
%TO.N,+3.3V*%
X180066753Y-116355832D03*
D11*
%TO.P,M12,9,NC*%
%TO.N,GND*%
X180724106Y-115698479D03*
%TO.P,M12,10,NC*%
X180724106Y-115198351D03*
%TO.P,M12,11,A1*%
%TO.N,+3.3V*%
X180724106Y-114698479D03*
%TO.P,M12,12,A0*%
X180724106Y-114198351D03*
D12*
%TO.P,M12,13,VSS*%
%TO.N,GND*%
X180066753Y-113540998D03*
%TO.P,M12,14,NC*%
X179566625Y-113540998D03*
%TO.P,M12,15,VDD*%
%TO.N,+3.3V*%
X179066753Y-113540998D03*
%TO.P,M12,16,NC*%
%TO.N,GND*%
X178566625Y-113540998D03*
D13*
%TO.P,M12,17,EP*%
X179316689Y-114948415D03*
%TD*%
D11*
%TO.P,M13,1,INT*%
%TO.N,unconnected-(M13-INT-Pad1)*%
X164409272Y-118698351D03*
%TO.P,M13,2,SENB/CS*%
%TO.N,+3.3V*%
X164409272Y-119198479D03*
%TO.P,M13,3,SCL/SCLK*%
%TO.N,SCL_3V*%
X164409272Y-119698351D03*
%TO.P,M13,4,NC*%
%TO.N,GND*%
X164409272Y-120198479D03*
D12*
%TO.P,M13,5,SDA/MOSI*%
%TO.N,SDA_3V*%
X165066625Y-120855832D03*
%TO.P,M13,6,MISO*%
%TO.N,unconnected-(M13-MISO-Pad6)*%
X165566753Y-120855832D03*
%TO.P,M13,7,INT/TRG*%
%TO.N,unconnected-(M13-INT{slash}TRG-Pad7)*%
X166066625Y-120855832D03*
%TO.P,M13,8,VDD_IO*%
%TO.N,+3.3V*%
X166566753Y-120855832D03*
D11*
%TO.P,M13,9,NC*%
%TO.N,GND*%
X167224106Y-120198479D03*
%TO.P,M13,10,NC*%
X167224106Y-119698351D03*
%TO.P,M13,11,A1*%
X167224106Y-119198479D03*
%TO.P,M13,12,A0*%
X167224106Y-118698351D03*
D12*
%TO.P,M13,13,VSS*%
X166566753Y-118040998D03*
%TO.P,M13,14,NC*%
X166066625Y-118040998D03*
%TO.P,M13,15,VDD*%
%TO.N,+3.3V*%
X165566753Y-118040998D03*
%TO.P,M13,16,NC*%
%TO.N,GND*%
X165066625Y-118040998D03*
D13*
%TO.P,M13,17,EP*%
X165816689Y-119448415D03*
%TD*%
D11*
%TO.P,M7,1,INT*%
%TO.N,unconnected-(M7-INT-Pad1)*%
X173409272Y-109698351D03*
%TO.P,M7,2,SENB/CS*%
%TO.N,+3.3V*%
X173409272Y-110198479D03*
%TO.P,M7,3,SCL/SCLK*%
%TO.N,SCL_3V*%
X173409272Y-110698351D03*
%TO.P,M7,4,NC*%
%TO.N,GND*%
X173409272Y-111198479D03*
D12*
%TO.P,M7,5,SDA/MOSI*%
%TO.N,SDA_3V*%
X174066625Y-111855832D03*
%TO.P,M7,6,MISO*%
%TO.N,unconnected-(M7-MISO-Pad6)*%
X174566753Y-111855832D03*
%TO.P,M7,7,INT/TRG*%
%TO.N,unconnected-(M7-INT{slash}TRG-Pad7)*%
X175066625Y-111855832D03*
%TO.P,M7,8,VDD_IO*%
%TO.N,+3.3V*%
X175566753Y-111855832D03*
D11*
%TO.P,M7,9,NC*%
%TO.N,GND*%
X176224106Y-111198479D03*
%TO.P,M7,10,NC*%
X176224106Y-110698351D03*
%TO.P,M7,11,A1*%
%TO.N,+3.3V*%
X176224106Y-110198479D03*
%TO.P,M7,12,A0*%
%TO.N,GND*%
X176224106Y-109698351D03*
D12*
%TO.P,M7,13,VSS*%
X175566753Y-109040998D03*
%TO.P,M7,14,NC*%
X175066625Y-109040998D03*
%TO.P,M7,15,VDD*%
%TO.N,+3.3V*%
X174566753Y-109040998D03*
%TO.P,M7,16,NC*%
%TO.N,GND*%
X174066625Y-109040998D03*
D13*
%TO.P,M7,17,EP*%
X174816689Y-110448415D03*
%TD*%
D11*
%TO.P,M5,1,INT*%
%TO.N,unconnected-(M5-INT-Pad1)*%
X164409272Y-109698351D03*
%TO.P,M5,2,SENB/CS*%
%TO.N,+3.3V*%
X164409272Y-110198479D03*
%TO.P,M5,3,SCL/SCLK*%
%TO.N,SCL_3V*%
X164409272Y-110698351D03*
%TO.P,M5,4,NC*%
%TO.N,GND*%
X164409272Y-111198479D03*
D12*
%TO.P,M5,5,SDA/MOSI*%
%TO.N,SDA_3V*%
X165066625Y-111855832D03*
%TO.P,M5,6,MISO*%
%TO.N,unconnected-(M5-MISO-Pad6)*%
X165566753Y-111855832D03*
%TO.P,M5,7,INT/TRG*%
%TO.N,unconnected-(M5-INT{slash}TRG-Pad7)*%
X166066625Y-111855832D03*
%TO.P,M5,8,VDD_IO*%
%TO.N,+3.3V*%
X166566753Y-111855832D03*
D11*
%TO.P,M5,9,NC*%
%TO.N,GND*%
X167224106Y-111198479D03*
%TO.P,M5,10,NC*%
X167224106Y-110698351D03*
%TO.P,M5,11,A1*%
X167224106Y-110198479D03*
%TO.P,M5,12,A0*%
X167224106Y-109698351D03*
D12*
%TO.P,M5,13,VSS*%
X166566753Y-109040998D03*
%TO.P,M5,14,NC*%
X166066625Y-109040998D03*
%TO.P,M5,15,VDD*%
%TO.N,+3.3V*%
X165566753Y-109040998D03*
%TO.P,M5,16,NC*%
%TO.N,GND*%
X165066625Y-109040998D03*
D13*
%TO.P,M5,17,EP*%
X165816689Y-110448415D03*
%TD*%
D11*
%TO.P,M3,1,INT*%
%TO.N,unconnected-(M3-INT-Pad1)*%
X164409272Y-105198351D03*
%TO.P,M3,2,SENB/CS*%
%TO.N,+3.3V*%
X164409272Y-105698479D03*
%TO.P,M3,3,SCL/SCLK*%
%TO.N,SCL_3V*%
X164409272Y-106198351D03*
%TO.P,M3,4,NC*%
%TO.N,GND*%
X164409272Y-106698479D03*
D12*
%TO.P,M3,5,SDA/MOSI*%
%TO.N,SDA_3V*%
X165066625Y-107355832D03*
%TO.P,M3,6,MISO*%
%TO.N,unconnected-(M3-MISO-Pad6)*%
X165566753Y-107355832D03*
%TO.P,M3,7,INT/TRG*%
%TO.N,unconnected-(M3-INT{slash}TRG-Pad7)*%
X166066625Y-107355832D03*
%TO.P,M3,8,VDD_IO*%
%TO.N,+3.3V*%
X166566753Y-107355832D03*
D11*
%TO.P,M3,9,NC*%
%TO.N,GND*%
X167224106Y-106698479D03*
%TO.P,M3,10,NC*%
X167224106Y-106198351D03*
%TO.P,M3,11,A1*%
X167224106Y-105698479D03*
%TO.P,M3,12,A0*%
X167224106Y-105198351D03*
D12*
%TO.P,M3,13,VSS*%
X166566753Y-104540998D03*
%TO.P,M3,14,NC*%
X166066625Y-104540998D03*
%TO.P,M3,15,VDD*%
%TO.N,+3.3V*%
X165566753Y-104540998D03*
%TO.P,M3,16,NC*%
%TO.N,GND*%
X165066625Y-104540998D03*
D13*
%TO.P,M3,17,EP*%
X165816689Y-105948415D03*
%TD*%
D11*
%TO.P,M6,1,INT*%
%TO.N,unconnected-(M6-INT-Pad1)*%
X168909272Y-109698351D03*
%TO.P,M6,2,SENB/CS*%
%TO.N,+3.3V*%
X168909272Y-110198479D03*
%TO.P,M6,3,SCL/SCLK*%
%TO.N,SCL_3V*%
X168909272Y-110698351D03*
%TO.P,M6,4,NC*%
%TO.N,GND*%
X168909272Y-111198479D03*
D12*
%TO.P,M6,5,SDA/MOSI*%
%TO.N,SDA_3V*%
X169566625Y-111855832D03*
%TO.P,M6,6,MISO*%
%TO.N,unconnected-(M6-MISO-Pad6)*%
X170066753Y-111855832D03*
%TO.P,M6,7,INT/TRG*%
%TO.N,unconnected-(M6-INT{slash}TRG-Pad7)*%
X170566625Y-111855832D03*
%TO.P,M6,8,VDD_IO*%
%TO.N,+3.3V*%
X171066753Y-111855832D03*
D11*
%TO.P,M6,9,NC*%
%TO.N,GND*%
X171724106Y-111198479D03*
%TO.P,M6,10,NC*%
X171724106Y-110698351D03*
%TO.P,M6,11,A1*%
X171724106Y-110198479D03*
%TO.P,M6,12,A0*%
%TO.N,+3.3V*%
X171724106Y-109698351D03*
D12*
%TO.P,M6,13,VSS*%
%TO.N,GND*%
X171066753Y-109040998D03*
%TO.P,M6,14,NC*%
X170566625Y-109040998D03*
%TO.P,M6,15,VDD*%
%TO.N,+3.3V*%
X170066753Y-109040998D03*
%TO.P,M6,16,NC*%
%TO.N,GND*%
X169566625Y-109040998D03*
D13*
%TO.P,M6,17,EP*%
X170316689Y-110448415D03*
%TD*%
D20*
%TO.N,+3.3V*%
X180900000Y-108300000D03*
X145261689Y-123158415D03*
X176016689Y-108248415D03*
X167016689Y-112748415D03*
X167016689Y-117248415D03*
X149561689Y-112958415D03*
X167016689Y-122348415D03*
X176016689Y-122248415D03*
X167016689Y-103748415D03*
X134700000Y-101950000D03*
X171516689Y-122148415D03*
X167016689Y-108248415D03*
X176016689Y-117248415D03*
X180516689Y-103748415D03*
X180516689Y-122148415D03*
X176016689Y-103748415D03*
X171516689Y-117248415D03*
X180516689Y-117248415D03*
X171516689Y-108248415D03*
X180516689Y-112748415D03*
X171516689Y-103748415D03*
X176016689Y-112748415D03*
X170998471Y-112658997D03*
%TO.N,GND*%
X182416689Y-106548415D03*
X172516689Y-122448415D03*
X162600000Y-118600000D03*
X182016689Y-115448415D03*
X138361689Y-128158415D03*
X137861689Y-123658415D03*
X162700000Y-105800000D03*
X171890716Y-107375685D03*
X172567646Y-111700281D03*
X162900000Y-114900000D03*
X162800000Y-110500000D03*
X128350000Y-102000000D03*
X136161689Y-118958415D03*
X182616689Y-110948415D03*
X182016689Y-119948415D03*
%TO.N,SCL_3V*%
X172516689Y-103748415D03*
X163545429Y-112748415D03*
X163545429Y-103748415D03*
X168045429Y-117248415D03*
X168016689Y-103748415D03*
X163545429Y-117248415D03*
X172516689Y-112648415D03*
X172545429Y-117248415D03*
X176962938Y-103669876D03*
X177045429Y-117248415D03*
X177045429Y-108148415D03*
X168045429Y-112748415D03*
X172616689Y-108248415D03*
X163545429Y-108248415D03*
X168024106Y-108148415D03*
X177045429Y-112748415D03*
%TO.N,SDA_3V*%
X163316689Y-116148415D03*
X173365320Y-112222526D03*
X174029928Y-121724959D03*
X162816689Y-120548415D03*
X168651363Y-112017389D03*
X173041320Y-107399155D03*
X177773247Y-116638632D03*
X177750000Y-112100000D03*
X168616689Y-107387986D03*
X162916689Y-107448415D03*
X177721390Y-107481608D03*
X177400000Y-122050000D03*
X162116689Y-111848415D03*
X168186155Y-121062126D03*
X172500000Y-116300000D03*
X168498212Y-116413824D03*
X156416689Y-114948415D03*
%TD*%
D21*
%TO.N,+3.3V*%
X165356669Y-112848415D02*
X165566753Y-113058499D01*
X180074170Y-107888267D02*
X180074170Y-107405768D01*
X179066753Y-113058499D02*
X179066753Y-113540998D01*
X171066753Y-120655832D02*
X171066753Y-121698479D01*
X173409272Y-114698479D02*
X172926773Y-114698479D01*
X180724106Y-118698351D02*
X180724106Y-117455832D01*
X168351773Y-117913331D02*
X168916689Y-117348415D01*
X166566753Y-116838331D02*
X166566753Y-116355832D01*
X165356669Y-103848415D02*
X165566753Y-104058499D01*
X174216689Y-108348415D02*
X175056669Y-108348415D01*
X180724106Y-117455832D02*
X180516689Y-117248415D01*
X143411689Y-122708415D02*
X144811689Y-122708415D01*
X180724106Y-103955832D02*
X180516689Y-103748415D01*
X166916689Y-117348415D02*
X167016689Y-117248415D01*
X168909272Y-105698479D02*
X168426773Y-105698479D01*
X163851773Y-113413331D02*
X164416689Y-112848415D01*
X172926773Y-119198479D02*
X172851773Y-119123479D01*
X171724106Y-103955832D02*
X171516689Y-103748415D01*
X172926773Y-114698479D02*
X172851773Y-114623479D01*
X170998471Y-112406613D02*
X171066753Y-112338331D01*
X181301521Y-114698479D02*
X181500000Y-114500000D01*
X177200000Y-105471706D02*
X177200000Y-104700000D01*
X174216689Y-112848415D02*
X175056669Y-112848415D01*
X169856669Y-103848415D02*
X170066753Y-104058499D01*
X166056669Y-112848415D02*
X166916689Y-112848415D01*
X171066753Y-112338331D02*
X171066753Y-111855832D01*
X181101521Y-105698479D02*
X181300000Y-105500000D01*
X178716689Y-117348415D02*
X179556669Y-117348415D01*
X179556669Y-112848415D02*
X180066753Y-112338331D01*
X178001649Y-108398351D02*
X179564086Y-108398351D01*
X170909053Y-112748415D02*
X169756669Y-112748415D01*
X176850000Y-107415104D02*
X176016689Y-108248415D01*
X170066753Y-108558499D02*
X170066753Y-109040998D01*
X171750000Y-112900000D02*
X171508997Y-112658997D01*
X181500000Y-108900000D02*
X181500000Y-109800000D01*
X170556669Y-103848415D02*
X171416689Y-103848415D01*
X165216689Y-117348415D02*
X166056669Y-117348415D01*
X179066753Y-104058499D02*
X179066753Y-104540998D01*
X141999189Y-122708415D02*
X143411689Y-122708415D01*
X180900000Y-108300000D02*
X181500000Y-108900000D01*
X163926773Y-110198479D02*
X163851773Y-110123479D01*
X175566753Y-116838331D02*
X175566753Y-116355832D01*
X173409272Y-105698479D02*
X172926773Y-105698479D01*
X177351773Y-113413331D02*
X177916689Y-112848415D01*
X164409272Y-105698479D02*
X163926773Y-105698479D01*
X165566753Y-104058499D02*
X165566753Y-104540998D01*
X171724106Y-108455832D02*
X171516689Y-108248415D01*
X179564086Y-108398351D02*
X180801649Y-108398351D01*
X165216689Y-112848415D02*
X166056669Y-112848415D01*
X175056669Y-112848415D02*
X175566753Y-112338331D01*
X178716689Y-112848415D02*
X179556669Y-112848415D01*
X169856669Y-117348415D02*
X170066753Y-117558499D01*
X171066753Y-107838331D02*
X171066753Y-107355832D01*
X141961689Y-125658415D02*
X141361689Y-126258415D01*
X166056669Y-108348415D02*
X166916689Y-108348415D01*
X166056669Y-112848415D02*
X166566753Y-112338331D01*
X179556669Y-117348415D02*
X180066753Y-116838331D01*
X177426773Y-119198479D02*
X177351773Y-119123479D01*
X177426773Y-105698479D02*
X177200000Y-105471706D01*
X168909272Y-110198479D02*
X168426773Y-110198479D01*
X180066753Y-116838331D02*
X180066753Y-116355832D01*
X168351773Y-108913331D02*
X168916689Y-108348415D01*
X174566753Y-104058499D02*
X174566753Y-104540998D01*
X176574215Y-114698479D02*
X177148247Y-115272511D01*
X168351773Y-113325955D02*
X168916689Y-112761039D01*
X176224106Y-114698479D02*
X176574215Y-114698479D01*
X143761689Y-125258415D02*
X143361689Y-125658415D01*
X174356669Y-117348415D02*
X174566753Y-117558499D01*
X168351773Y-110123479D02*
X168351773Y-108913331D01*
X134600000Y-101850000D02*
X134700000Y-101950000D01*
X172851773Y-110123479D02*
X172851773Y-108913331D01*
X165216689Y-103848415D02*
X166056669Y-103848415D01*
X178051585Y-103848415D02*
X179556669Y-103848415D01*
X173409272Y-110198479D02*
X172926773Y-110198479D01*
X174566753Y-117558499D02*
X174566753Y-118040998D01*
X132687500Y-101850000D02*
X134600000Y-101850000D01*
X178856669Y-117348415D02*
X179066753Y-117558499D01*
X171724106Y-114198351D02*
X171724106Y-112925894D01*
X173409272Y-119198479D02*
X172926773Y-119198479D01*
X151961689Y-116808415D02*
X153936689Y-116808415D01*
X181700000Y-119000000D02*
X181700000Y-118431726D01*
X179556669Y-112848415D02*
X180416689Y-112848415D01*
X174216689Y-103848415D02*
X175056669Y-103848415D01*
X170556669Y-108348415D02*
X171066753Y-107838331D01*
X163851773Y-105623479D02*
X163851773Y-104413331D01*
X173416689Y-108348415D02*
X174216689Y-108348415D01*
X168351773Y-114623479D02*
X168351773Y-113325955D01*
X179066753Y-117558499D02*
X179066753Y-118040998D01*
X143361689Y-125658415D02*
X143761689Y-126058415D01*
X165216689Y-108348415D02*
X166056669Y-108348415D01*
X171066753Y-116838331D02*
X171066753Y-116355832D01*
X149561689Y-111008415D02*
X149561689Y-112958415D01*
X143761689Y-126058415D02*
X143761689Y-126683415D01*
X180724106Y-119198479D02*
X181501521Y-119198479D01*
X172851773Y-114623479D02*
X172851773Y-113413331D01*
X176548479Y-105698479D02*
X176850000Y-106000000D01*
X164409272Y-119198479D02*
X163926773Y-119198479D01*
X170998471Y-112658997D02*
X170998471Y-112406613D01*
X180066753Y-121698479D02*
X180516689Y-122148415D01*
X164416689Y-103848415D02*
X165216689Y-103848415D01*
X164416689Y-112848415D02*
X165216689Y-112848415D01*
X174356669Y-108348415D02*
X174566753Y-108558499D01*
X172851773Y-113413331D02*
X173416689Y-112848415D01*
X173416689Y-117348415D02*
X174216689Y-117348415D01*
X175566753Y-121798479D02*
X176016689Y-122248415D01*
X174356669Y-112848415D02*
X174566753Y-113058499D01*
X174566753Y-113058499D02*
X174566753Y-113540998D01*
X164409272Y-110198479D02*
X163926773Y-110198479D01*
X172926773Y-105698479D02*
X172851773Y-105623479D01*
X143761689Y-123058415D02*
X143761689Y-125258415D01*
X166566753Y-112338331D02*
X166566753Y-111855832D01*
X177125000Y-111640104D02*
X176016689Y-112748415D01*
X174566753Y-108558499D02*
X174566753Y-109040998D01*
X168351773Y-104413331D02*
X168916689Y-103848415D01*
X163851773Y-117913331D02*
X164416689Y-117348415D01*
X171066753Y-121698479D02*
X171516689Y-122148415D01*
X181500000Y-114500000D02*
X181500000Y-113731726D01*
X178864086Y-108398351D02*
X179074170Y-108608435D01*
X177916689Y-110248415D02*
X177536832Y-110248415D01*
X177148247Y-115272511D02*
X177148247Y-116116857D01*
X168916689Y-103848415D02*
X169716689Y-103848415D01*
X176850000Y-106000000D02*
X176850000Y-107415104D01*
X180724106Y-105198351D02*
X180724106Y-103955832D01*
X168426773Y-105698479D02*
X168351773Y-105623479D01*
X166566753Y-121898479D02*
X167016689Y-122348415D01*
X171724106Y-105198351D02*
X171724106Y-103955832D01*
X175056669Y-103848415D02*
X175916689Y-103848415D01*
X163926773Y-119198479D02*
X163851773Y-119123479D01*
X180066753Y-112338331D02*
X180066753Y-111855832D01*
X166566753Y-107838331D02*
X166566753Y-107355832D01*
X151661689Y-108908415D02*
X149561689Y-111008415D01*
X177909272Y-105698479D02*
X177426773Y-105698479D01*
X176224106Y-110198479D02*
X176638368Y-110198479D01*
X176224106Y-105698479D02*
X176548479Y-105698479D01*
X144811689Y-122708415D02*
X145261689Y-123158415D01*
X165566753Y-108558499D02*
X165566753Y-109040998D01*
X148499189Y-119920915D02*
X148499189Y-116808415D01*
X176548479Y-119198479D02*
X176900000Y-119550000D01*
X175566753Y-112338331D02*
X175566753Y-111855832D01*
X181300000Y-105500000D02*
X181300000Y-104531726D01*
X171508997Y-112658997D02*
X170998471Y-112658997D01*
X163926773Y-105698479D02*
X163851773Y-105623479D01*
X169716689Y-117348415D02*
X170556669Y-117348415D01*
X175056669Y-112848415D02*
X175916689Y-112848415D01*
X163851773Y-114623479D02*
X163851773Y-113413331D01*
X179564086Y-108398351D02*
X180074170Y-107888267D01*
X178856669Y-103848415D02*
X179066753Y-104058499D01*
X170998471Y-112658997D02*
X170909053Y-112748415D01*
X176900000Y-121365104D02*
X176016689Y-122248415D01*
X177200000Y-109200000D02*
X178001649Y-108398351D01*
X177200000Y-104700000D02*
X178051585Y-103848415D01*
X164416689Y-117348415D02*
X165216689Y-117348415D01*
X168916689Y-112761039D02*
X168916689Y-112748415D01*
X172851773Y-117913331D02*
X173416689Y-117348415D01*
X169716689Y-103848415D02*
X170556669Y-103848415D01*
X177916689Y-117348415D02*
X178716689Y-117348415D01*
X168909272Y-119198479D02*
X168426773Y-119198479D01*
X168909272Y-114698479D02*
X168426773Y-114698479D01*
X168351773Y-119123479D02*
X168351773Y-117913331D01*
X165356669Y-108348415D02*
X165566753Y-108558499D01*
X175056669Y-108348415D02*
X175916689Y-108348415D01*
X180900000Y-108300000D02*
X180731523Y-108468477D01*
X181101521Y-110198479D02*
X180724106Y-110198479D01*
X176224106Y-119198479D02*
X176548479Y-119198479D01*
X176200000Y-108431726D02*
X176016689Y-108248415D01*
X154036689Y-108908415D02*
X154161689Y-108783415D01*
X163926773Y-114698479D02*
X163851773Y-114623479D01*
X175056669Y-108348415D02*
X175566753Y-107838331D01*
X180724106Y-114198351D02*
X180724106Y-112955832D01*
X180724106Y-114698479D02*
X181301521Y-114698479D01*
X171724106Y-112925894D02*
X171750000Y-112900000D01*
X143361689Y-125658415D02*
X141961689Y-125658415D01*
X163851773Y-108913331D02*
X164416689Y-108348415D01*
X168916689Y-108348415D02*
X169716689Y-108348415D01*
X170556669Y-117348415D02*
X171066753Y-116838331D01*
X164416689Y-108348415D02*
X165216689Y-108348415D01*
X181700000Y-118431726D02*
X180516689Y-117248415D01*
X166056669Y-103848415D02*
X166916689Y-103848415D01*
X171724106Y-117455832D02*
X171516689Y-117248415D01*
X177909272Y-114698479D02*
X177426773Y-114698479D01*
X181501521Y-119198479D02*
X181700000Y-119000000D01*
X172851773Y-105623479D02*
X172851773Y-104413331D01*
X148499189Y-116808415D02*
X151961689Y-116808415D01*
X171724106Y-118698351D02*
X171724106Y-117455832D01*
X141361689Y-126258415D02*
X141361689Y-126683415D01*
X168426773Y-119198479D02*
X168351773Y-119123479D01*
X177351773Y-119123479D02*
X177351773Y-117913331D01*
X166056669Y-117348415D02*
X166916689Y-117348415D01*
X170066753Y-113058499D02*
X170066753Y-113540998D01*
X165356669Y-117348415D02*
X165566753Y-117558499D01*
X180066753Y-120655832D02*
X180066753Y-121698479D01*
X168426773Y-110198479D02*
X168351773Y-110123479D01*
X165566753Y-117558499D02*
X165566753Y-118040998D01*
X178856669Y-112848415D02*
X179066753Y-113058499D01*
X180724106Y-112955832D02*
X180516689Y-112748415D01*
X175566753Y-120755832D02*
X175566753Y-121798479D01*
X175566753Y-107838331D02*
X175566753Y-107355832D01*
X165566753Y-113058499D02*
X165566753Y-113540998D01*
X179074170Y-108608435D02*
X179074170Y-109090934D01*
X168351773Y-105623479D02*
X168351773Y-104413331D01*
X171724106Y-109698351D02*
X171724106Y-108455832D01*
X163851773Y-119123479D02*
X163851773Y-117913331D01*
X176900000Y-119550000D02*
X176900000Y-121365104D01*
X177916689Y-112848415D02*
X178716689Y-112848415D01*
X174216689Y-117348415D02*
X175056669Y-117348415D01*
X166056669Y-117348415D02*
X166566753Y-116838331D01*
X166056669Y-108348415D02*
X166566753Y-107838331D01*
X145261689Y-123158415D02*
X148499189Y-119920915D01*
X164409272Y-114698479D02*
X163926773Y-114698479D01*
X179556669Y-117348415D02*
X180416689Y-117348415D01*
X181500000Y-113731726D02*
X180516689Y-112748415D01*
X180801649Y-108398351D02*
X180900000Y-108300000D01*
X143411689Y-122708415D02*
X143761689Y-123058415D01*
X170066753Y-104058499D02*
X170066753Y-104540998D01*
X173416689Y-112848415D02*
X174216689Y-112848415D01*
X169856669Y-108348415D02*
X170066753Y-108558499D01*
X174356669Y-103848415D02*
X174566753Y-104058499D01*
X177351773Y-117913331D02*
X177916689Y-117348415D01*
X172851773Y-119123479D02*
X172851773Y-117913331D01*
X177536832Y-110248415D02*
X177200000Y-109911583D01*
X179556669Y-103848415D02*
X180416689Y-103848415D01*
X181500000Y-109800000D02*
X181101521Y-110198479D01*
X172851773Y-104413331D02*
X173416689Y-103848415D01*
X177426773Y-114698479D02*
X177351773Y-114623479D01*
X163851773Y-110123479D02*
X163851773Y-108913331D01*
X180724106Y-105698479D02*
X181101521Y-105698479D01*
X177148247Y-116116857D02*
X176016689Y-117248415D01*
X165216689Y-117348415D02*
X165356669Y-117348415D01*
X153936689Y-116808415D02*
X154061689Y-116683415D01*
X175056669Y-117348415D02*
X175566753Y-116838331D01*
X168916689Y-112748415D02*
X169756669Y-112748415D01*
X172851773Y-108913331D02*
X173416689Y-108348415D01*
X176638368Y-110198479D02*
X177125000Y-110685111D01*
X177351773Y-114623479D02*
X177351773Y-113413331D01*
X170066753Y-117558499D02*
X170066753Y-118040998D01*
X170556669Y-117348415D02*
X171416689Y-117348415D01*
X168916689Y-117348415D02*
X169716689Y-117348415D01*
X170556669Y-108348415D02*
X171416689Y-108348415D01*
X163851773Y-104413331D02*
X164416689Y-103848415D01*
X166566753Y-120855832D02*
X166566753Y-121898479D01*
X168426773Y-114698479D02*
X168351773Y-114623479D01*
X175056669Y-117348415D02*
X175916689Y-117348415D01*
X177200000Y-109911583D02*
X177200000Y-109200000D01*
X181300000Y-104531726D02*
X180516689Y-103748415D01*
X177909272Y-119198479D02*
X177426773Y-119198479D01*
X148399189Y-108908415D02*
X151661689Y-108908415D01*
X172926773Y-110198479D02*
X172851773Y-110123479D01*
X173416689Y-103848415D02*
X174216689Y-103848415D01*
X180731523Y-108468477D02*
X180731523Y-109748287D01*
X169716689Y-108348415D02*
X170556669Y-108348415D01*
X169756669Y-112748415D02*
X170066753Y-113058499D01*
X177125000Y-110685111D02*
X177125000Y-111640104D01*
X151661689Y-108908415D02*
X154036689Y-108908415D01*
%TO.N,GND*%
X167224106Y-109698351D02*
X166566753Y-109698351D01*
X179566625Y-109040998D02*
X179566625Y-110198479D01*
X170566625Y-106198351D02*
X170316689Y-105948415D01*
X178566625Y-109698351D02*
X179316689Y-110448415D01*
X173409272Y-115698479D02*
X174066625Y-115698479D01*
X175066625Y-106198351D02*
X174816689Y-105948415D01*
X182066625Y-106198351D02*
X182416689Y-106548415D01*
X174066625Y-118698351D02*
X174816689Y-119448415D01*
X175066625Y-114698479D02*
X174816689Y-114948415D01*
X170566625Y-119198479D02*
X170316689Y-119448415D01*
X162600000Y-118600000D02*
X162600000Y-118700000D01*
X172516689Y-122448415D02*
X172516689Y-121091062D01*
X176224106Y-111198479D02*
X175566753Y-111198479D01*
X169566625Y-109040998D02*
X169566625Y-109698351D01*
X171066753Y-106698479D02*
X170316689Y-105948415D01*
X182616689Y-111048415D02*
X182466625Y-111198479D01*
X181866625Y-115698479D02*
X180724106Y-115698479D01*
X171724106Y-111198479D02*
X171066753Y-111198479D01*
X139724189Y-123658415D02*
X137861689Y-123658415D01*
X162900000Y-114900000D02*
X162952158Y-114900000D01*
X178566625Y-114198351D02*
X179316689Y-114948415D01*
X180724106Y-111198479D02*
X180066753Y-111198479D01*
X169566625Y-104540998D02*
X169566625Y-105198351D01*
X180066753Y-118698351D02*
X179316689Y-119448415D01*
X167224106Y-120198479D02*
X166566753Y-120198479D01*
X168909272Y-120198479D02*
X169566625Y-120198479D01*
X169566625Y-114198351D02*
X170316689Y-114948415D01*
X163350637Y-120198479D02*
X162600000Y-119447842D01*
X178566625Y-120198479D02*
X179316689Y-119448415D01*
X165066625Y-115698479D02*
X165816689Y-114948415D01*
X175566753Y-115698479D02*
X174816689Y-114948415D01*
X175066625Y-113540998D02*
X175066625Y-114698479D01*
X181866625Y-115198351D02*
X182116689Y-115448415D01*
X180724106Y-119698351D02*
X179566625Y-119698351D01*
X174066625Y-114198351D02*
X174816689Y-114948415D01*
X174066625Y-111198479D02*
X174816689Y-110448415D01*
X164409272Y-120198479D02*
X163350637Y-120198479D01*
X138261689Y-114258415D02*
X137991689Y-113988415D01*
X178566625Y-105198351D02*
X179316689Y-105948415D01*
X175066625Y-119198479D02*
X174816689Y-119448415D01*
X175566753Y-111198479D02*
X174816689Y-110448415D01*
X166566753Y-109040998D02*
X166566753Y-109698351D01*
X181866625Y-119698351D02*
X182116689Y-119948415D01*
X173385793Y-115675000D02*
X173409272Y-115698479D01*
X136161689Y-118958415D02*
X138261689Y-116858415D01*
X182616689Y-110948415D02*
X182616689Y-111048415D01*
X166566753Y-111198479D02*
X165816689Y-110448415D01*
X142636689Y-129358415D02*
X143761689Y-128233415D01*
X171066753Y-120198479D02*
X170316689Y-119448415D01*
X175066625Y-115198351D02*
X174816689Y-114948415D01*
X171724106Y-115198351D02*
X170566625Y-115198351D01*
X166066625Y-113540998D02*
X166066625Y-114698479D01*
X167224106Y-110698351D02*
X166066625Y-110698351D01*
X140236689Y-129358415D02*
X142636689Y-129358415D01*
X179566625Y-105698479D02*
X179316689Y-105948415D01*
X175066625Y-109040998D02*
X175066625Y-110198479D01*
X173409272Y-111198479D02*
X174066625Y-111198479D01*
X138261689Y-116858415D02*
X138261689Y-114258415D01*
X166066625Y-105698479D02*
X165816689Y-105948415D01*
X167224106Y-106698479D02*
X166566753Y-106698479D01*
X179566625Y-119198479D02*
X179316689Y-119448415D01*
X166566753Y-104540998D02*
X166566753Y-105198351D01*
X179566625Y-118040998D02*
X179566625Y-119198479D01*
X166566753Y-105198351D02*
X165816689Y-105948415D01*
X171724106Y-119698351D02*
X170566625Y-119698351D01*
X166566753Y-115698479D02*
X165816689Y-114948415D01*
X178566625Y-118040998D02*
X178566625Y-118698351D01*
X134861689Y-129158415D02*
X134861689Y-128208415D01*
X176224106Y-115698479D02*
X175566753Y-115698479D01*
X167224106Y-105698479D02*
X166066625Y-105698479D01*
X180066753Y-105198351D02*
X179316689Y-105948415D01*
X168909272Y-115698479D02*
X169566625Y-115698479D01*
X167224106Y-105198351D02*
X166566753Y-105198351D01*
X166066625Y-119698351D02*
X165816689Y-119448415D01*
X171066753Y-105198351D02*
X170316689Y-105948415D01*
X164409272Y-106698479D02*
X163598479Y-106698479D01*
X170566625Y-110198479D02*
X170316689Y-110448415D01*
X166066625Y-119198479D02*
X165816689Y-119448415D01*
X171066753Y-118040998D02*
X171066753Y-118698351D01*
X175566753Y-120198479D02*
X174816689Y-119448415D01*
X175066625Y-110698351D02*
X174816689Y-110448415D01*
X182716689Y-110948415D02*
X182716689Y-110948415D01*
X136861689Y-129358415D02*
X135061689Y-129358415D01*
X172516689Y-122448415D02*
X172516689Y-120991062D01*
X167224106Y-114198351D02*
X166566753Y-114198351D01*
X182116689Y-119948415D02*
X182116689Y-119948415D01*
X174066625Y-109698351D02*
X174816689Y-110448415D01*
X140236689Y-129358415D02*
X141361689Y-128233415D01*
X180724106Y-106198351D02*
X182066625Y-106198351D01*
X171724106Y-110198479D02*
X170566625Y-110198479D01*
X162952158Y-114900000D02*
X163750637Y-115698479D01*
X175566753Y-118040998D02*
X175566753Y-118698351D01*
X169566625Y-115698479D02*
X170316689Y-114948415D01*
X171066753Y-109698351D02*
X170316689Y-110448415D01*
X174066625Y-104540998D02*
X174066625Y-105198351D01*
X174066625Y-106698479D02*
X174816689Y-105948415D01*
X175066625Y-104540998D02*
X175066625Y-105698479D01*
X170566625Y-105698479D02*
X170316689Y-105948415D01*
X165066625Y-120198479D02*
X165816689Y-119448415D01*
X182016689Y-115548415D02*
X181866625Y-115698479D01*
X182466625Y-111198479D02*
X180724106Y-111198479D01*
X180066753Y-113540998D02*
X180066753Y-114198351D01*
X168909272Y-106698479D02*
X169566625Y-106698479D01*
X165066625Y-109698351D02*
X165816689Y-110448415D01*
X180724106Y-119698351D02*
X181866625Y-119698351D01*
X170566625Y-118040998D02*
X170566625Y-119198479D01*
X178566625Y-118698351D02*
X179316689Y-119448415D01*
X171724106Y-120198479D02*
X171066753Y-120198479D01*
X171066753Y-113540998D02*
X171066753Y-114198351D01*
X179566625Y-104540998D02*
X179566625Y-105698479D01*
X167224106Y-106198351D02*
X166066625Y-106198351D01*
X175566753Y-104540998D02*
X175566753Y-105198351D01*
X179566625Y-110698351D02*
X179316689Y-110448415D01*
X171724106Y-115698479D02*
X171747585Y-115675000D01*
X175066625Y-110198479D02*
X174816689Y-110448415D01*
X180066753Y-104540998D02*
X180066753Y-105198351D01*
X178566625Y-104540998D02*
X178566625Y-105198351D01*
X163750637Y-115698479D02*
X164409272Y-115698479D01*
X171890716Y-107375685D02*
X172567922Y-106698479D01*
X167224106Y-114698479D02*
X166066625Y-114698479D01*
X180724106Y-115698479D02*
X180066753Y-115698479D01*
X169566625Y-109698351D02*
X170316689Y-110448415D01*
X135061689Y-129358415D02*
X134861689Y-129158415D01*
X180724106Y-110698351D02*
X179566625Y-110698351D01*
X180066753Y-114198351D02*
X179316689Y-114948415D01*
X171747585Y-115675000D02*
X173385793Y-115675000D01*
X170566625Y-113540998D02*
X170566625Y-114698479D01*
X171724106Y-119198479D02*
X170566625Y-119198479D01*
X171890716Y-106865089D02*
X171724106Y-106698479D01*
X168909272Y-111198479D02*
X169566625Y-111198479D01*
X180066753Y-109698351D02*
X179316689Y-110448415D01*
X170566625Y-115198351D02*
X170316689Y-114948415D01*
X176224106Y-120198479D02*
X175566753Y-120198479D01*
X174066625Y-113540998D02*
X174066625Y-114198351D01*
X174066625Y-105198351D02*
X174816689Y-105948415D01*
X167224106Y-115698479D02*
X166566753Y-115698479D01*
X167224106Y-118698351D02*
X166566753Y-118698351D01*
X180066753Y-115698479D02*
X179316689Y-114948415D01*
X164409272Y-111198479D02*
X165066625Y-111198479D01*
X170566625Y-104540998D02*
X170566625Y-105698479D01*
X164409272Y-111198479D02*
X163498479Y-111198479D01*
X174066625Y-109040998D02*
X174066625Y-109698351D01*
X164409272Y-106698479D02*
X165066625Y-106698479D01*
X171724106Y-115698479D02*
X171066753Y-115698479D01*
X179566625Y-113540998D02*
X179566625Y-114698479D01*
X182266625Y-106698479D02*
X180724106Y-106698479D01*
X171066753Y-111198479D02*
X170316689Y-110448415D01*
X171066753Y-115698479D02*
X170316689Y-114948415D01*
X178566625Y-109040998D02*
X178566625Y-109698351D01*
X177909272Y-120198479D02*
X178566625Y-120198479D01*
X165066625Y-106698479D02*
X165816689Y-105948415D01*
X180724106Y-120198479D02*
X180066753Y-120198479D01*
X171724106Y-105698479D02*
X170566625Y-105698479D01*
X180066753Y-111198479D02*
X179316689Y-110448415D01*
X182416689Y-106548415D02*
X182266625Y-106698479D01*
X166066625Y-110198479D02*
X165816689Y-110448415D01*
X170566625Y-119698351D02*
X170316689Y-119448415D01*
X179566625Y-114698479D02*
X179316689Y-114948415D01*
X167224106Y-110198479D02*
X166066625Y-110198479D01*
X165066625Y-118698351D02*
X165816689Y-119448415D01*
X173409272Y-120198479D02*
X173409272Y-121555832D01*
X166566753Y-114198351D02*
X165816689Y-114948415D01*
X163598479Y-106698479D02*
X162700000Y-105800000D01*
X137991689Y-113988415D02*
X135911689Y-113988415D01*
X175566753Y-118698351D02*
X174816689Y-119448415D01*
X171724106Y-106698479D02*
X171066753Y-106698479D01*
X180724106Y-110698351D02*
X182466625Y-110698351D01*
X182016689Y-115448415D02*
X182016689Y-115548415D01*
X164409272Y-120198479D02*
X165066625Y-120198479D01*
X179566625Y-110198479D02*
X179316689Y-110448415D01*
X166066625Y-114698479D02*
X165816689Y-114948415D01*
X182716689Y-110948415D02*
X182616689Y-110948415D01*
X166066625Y-106198351D02*
X165816689Y-105948415D01*
X171724106Y-110698351D02*
X170566625Y-110698351D01*
X178566625Y-113540998D02*
X178566625Y-114198351D01*
X166566753Y-118040998D02*
X166566753Y-118698351D01*
X169566625Y-105198351D02*
X170316689Y-105948415D01*
X182016689Y-119948415D02*
X182016689Y-120048415D01*
X176224106Y-109698351D02*
X175566753Y-109698351D01*
X140236689Y-129358415D02*
X136861689Y-129358415D01*
X176224106Y-114198351D02*
X175566753Y-114198351D01*
X177909272Y-115698479D02*
X178566625Y-115698479D01*
X182116689Y-119948415D02*
X182016689Y-119948415D01*
X166066625Y-115198351D02*
X165816689Y-114948415D01*
X170566625Y-110698351D02*
X170316689Y-110448415D01*
X171066753Y-109040998D02*
X171066753Y-109698351D01*
X167224106Y-115198351D02*
X166066625Y-115198351D01*
X179566625Y-115198351D02*
X179316689Y-114948415D01*
X180724106Y-115198351D02*
X181866625Y-115198351D01*
X169566625Y-118040998D02*
X169566625Y-118698351D01*
X175566753Y-109698351D02*
X174816689Y-110448415D01*
X173409272Y-111198479D02*
X173069448Y-111198479D01*
X176224106Y-119698351D02*
X175066625Y-119698351D01*
X166566753Y-113540998D02*
X166566753Y-114198351D01*
X177909272Y-106698479D02*
X178566625Y-106698479D01*
X166566753Y-106698479D02*
X165816689Y-105948415D01*
X172567922Y-106698479D02*
X173409272Y-106698479D01*
X166066625Y-118040998D02*
X166066625Y-119198479D01*
X165066625Y-113540998D02*
X165066625Y-114198351D01*
X178566625Y-111198479D02*
X179316689Y-110448415D01*
X167224106Y-119198479D02*
X166066625Y-119198479D01*
X167224106Y-111198479D02*
X166566753Y-111198479D01*
X176224106Y-106198351D02*
X175066625Y-106198351D01*
X169566625Y-118698351D02*
X170316689Y-119448415D01*
X167224106Y-119698351D02*
X166066625Y-119698351D01*
X171724106Y-114698479D02*
X170566625Y-114698479D01*
X175566753Y-109040998D02*
X175566753Y-109698351D01*
X174066625Y-118040998D02*
X174066625Y-118698351D01*
X169566625Y-111198479D02*
X170316689Y-110448415D01*
X175566753Y-106698479D02*
X174816689Y-105948415D01*
X137161689Y-129358415D02*
X138361689Y-128158415D01*
X166566753Y-118698351D02*
X165816689Y-119448415D01*
X169566625Y-106698479D02*
X170316689Y-105948415D01*
X176224106Y-105198351D02*
X175566753Y-105198351D01*
X182116689Y-115448415D02*
X182016689Y-115448415D01*
X180724106Y-106198351D02*
X179566625Y-106198351D01*
X174066625Y-120198479D02*
X174816689Y-119448415D01*
X182016689Y-120048415D02*
X181866625Y-120198479D01*
X165066625Y-111198479D02*
X165816689Y-110448415D01*
X162900000Y-114900000D02*
X163000000Y-114900000D01*
X180066753Y-118040998D02*
X180066753Y-118698351D01*
X162600000Y-119447842D02*
X162600000Y-118600000D01*
X176224106Y-106698479D02*
X175566753Y-106698479D01*
X173409272Y-120198479D02*
X174066625Y-120198479D01*
X171724106Y-106198351D02*
X170566625Y-106198351D01*
X173409272Y-106698479D02*
X174066625Y-106698479D01*
X180066753Y-120198479D02*
X179316689Y-119448415D01*
X166066625Y-109040998D02*
X166066625Y-110198479D01*
X165066625Y-105198351D02*
X165816689Y-105948415D01*
X178566625Y-106698479D02*
X179316689Y-105948415D01*
X182116689Y-115448415D02*
X182116689Y-115448415D01*
X165066625Y-109040998D02*
X165066625Y-109698351D01*
X172065844Y-111198479D02*
X172567646Y-111700281D01*
X181866625Y-120198479D02*
X180724106Y-120198479D01*
X166566753Y-120198479D02*
X165816689Y-119448415D01*
X166566753Y-109698351D02*
X165816689Y-110448415D01*
X176224106Y-118698351D02*
X176416600Y-118698351D01*
X177909272Y-111198479D02*
X178566625Y-111198479D01*
X171066753Y-118698351D02*
X170316689Y-119448415D01*
X170566625Y-109040998D02*
X170566625Y-110198479D01*
X128500000Y-101850000D02*
X128350000Y-102000000D01*
X169566625Y-113540998D02*
X169566625Y-114198351D01*
X168909272Y-115698479D02*
X167224106Y-115698479D01*
X165066625Y-104540998D02*
X165066625Y-105198351D01*
X173069448Y-111198479D02*
X172567646Y-111700281D01*
X179566625Y-106198351D02*
X179316689Y-105948415D01*
X180724106Y-106698479D02*
X180066753Y-106698479D01*
X171066753Y-104540998D02*
X171066753Y-105198351D01*
X174066625Y-115698479D02*
X174816689Y-114948415D01*
X171066753Y-114198351D02*
X170316689Y-114948415D01*
X179566625Y-119698351D02*
X179316689Y-119448415D01*
X165066625Y-114198351D02*
X165816689Y-114948415D01*
X173409272Y-121555832D02*
X172516689Y-122448415D01*
X163498479Y-111198479D02*
X162800000Y-110500000D01*
X176224106Y-115198351D02*
X175066625Y-115198351D01*
X166066625Y-104540998D02*
X166066625Y-105698479D01*
X172516689Y-120991062D02*
X171724106Y-120198479D01*
X169566625Y-120198479D02*
X170316689Y-119448415D01*
X175066625Y-105698479D02*
X174816689Y-105948415D01*
X176224106Y-114198351D02*
X176416600Y-114198351D01*
X176224106Y-118698351D02*
X175566753Y-118698351D01*
X164409272Y-115698479D02*
X165066625Y-115698479D01*
X176224106Y-110698351D02*
X175066625Y-110698351D01*
X180066753Y-106698479D02*
X179316689Y-105948415D01*
X178566625Y-115698479D02*
X179316689Y-114948415D01*
X171890716Y-107375685D02*
X171890716Y-106865089D01*
X182466625Y-110698351D02*
X182716689Y-110948415D01*
X166066625Y-110698351D02*
X165816689Y-110448415D01*
X175566753Y-114198351D02*
X174816689Y-114948415D01*
X131112500Y-101850000D02*
X128500000Y-101850000D01*
X165066625Y-118040998D02*
X165066625Y-118698351D01*
X180724106Y-115198351D02*
X179566625Y-115198351D01*
X171724106Y-111198479D02*
X172065844Y-111198479D01*
X180066753Y-109040998D02*
X180066753Y-109698351D01*
X170566625Y-114698479D02*
X170316689Y-114948415D01*
X175066625Y-118040998D02*
X175066625Y-119198479D01*
X175566753Y-105198351D02*
X174816689Y-105948415D01*
X136861689Y-129358415D02*
X137161689Y-129358415D01*
X175066625Y-119698351D02*
X174816689Y-119448415D01*
X162800000Y-110500000D02*
X162600000Y-110300000D01*
X175566753Y-113540998D02*
X175566753Y-114198351D01*
%TO.N,VCC*%
X144861689Y-112083415D02*
X144836689Y-112108415D01*
X134861689Y-123358415D02*
X135411689Y-122808415D01*
X139961689Y-119358415D02*
X138861689Y-119358415D01*
X134861689Y-126658415D02*
X134861689Y-125458415D01*
X135911689Y-108908415D02*
X138111689Y-108908415D01*
X134861689Y-124158415D02*
X134861689Y-123458415D01*
X138561689Y-105458415D02*
X138861689Y-105158415D01*
X139561714Y-124608097D02*
X135662007Y-124608097D01*
X144936689Y-119358415D02*
X139961689Y-119358415D01*
X138861689Y-119358415D02*
X135411689Y-122808415D01*
X138861689Y-105158415D02*
X143061689Y-105158415D01*
X136811689Y-122708415D02*
X135511689Y-122708415D01*
X135511689Y-122708415D02*
X139724189Y-122708415D01*
X138561689Y-117958415D02*
X139961689Y-119358415D01*
X138111689Y-108908415D02*
X138561689Y-108458415D01*
X144861689Y-106958415D02*
X144861689Y-112083415D01*
X135662007Y-124608097D02*
X134861689Y-125408415D01*
X138561689Y-108458415D02*
X138561689Y-117958415D01*
X143061689Y-105158415D02*
X144861689Y-106958415D01*
X134861689Y-125458415D02*
X134861689Y-125408415D01*
X138561689Y-108458415D02*
X138561689Y-105458415D01*
X136511689Y-122708415D02*
X136811689Y-122708415D01*
X134861689Y-125408415D02*
X134861689Y-124158415D01*
X134861689Y-123458415D02*
X134861689Y-123358415D01*
X135411689Y-122808415D02*
X135511689Y-122708415D01*
%TO.N,SCL*%
X146561689Y-112183415D02*
X146486689Y-112108415D01*
X145461689Y-114108415D02*
X146561689Y-113008415D01*
X141281689Y-113908415D02*
X141481689Y-114108415D01*
X146524189Y-107958415D02*
X146524189Y-111820915D01*
X146561689Y-113008415D02*
X146561689Y-112183415D01*
X141481689Y-114108415D02*
X145461689Y-114108415D01*
%TO.N,SDA*%
X138861689Y-117458415D02*
X138861689Y-112158415D01*
X146624189Y-116795915D02*
X145661689Y-117758415D01*
X146624189Y-119320915D02*
X146586689Y-119358415D01*
X139571689Y-111448415D02*
X141361689Y-111448415D01*
X146624189Y-115858415D02*
X146624189Y-116795915D01*
X138861689Y-112158415D02*
X139571689Y-111448415D01*
X139161689Y-117758415D02*
X138861689Y-117458415D01*
X146624189Y-115858415D02*
X146624189Y-119320915D01*
X145661689Y-117758415D02*
X139161689Y-117758415D01*
%TO.N,SCL_3V*%
X163545429Y-119498479D02*
X163795365Y-119748415D01*
X177051773Y-114751773D02*
X177548415Y-115248415D01*
X172995365Y-110748415D02*
X173638012Y-110748415D01*
X168774405Y-115063484D02*
X168351773Y-115063484D01*
X156517805Y-107133415D02*
X154161689Y-107133415D01*
X168831758Y-110563484D02*
X168916689Y-110648415D01*
X163545429Y-108248415D02*
X163545429Y-110498479D01*
X163545429Y-103748415D02*
X156916689Y-103748415D01*
X168909272Y-115198351D02*
X168774405Y-115063484D01*
X163545429Y-103748415D02*
X163545429Y-105998479D01*
X176962938Y-103669876D02*
X176900000Y-103732814D01*
X168045429Y-117248415D02*
X168045429Y-119257140D01*
X163532805Y-117248415D02*
X158524747Y-112240357D01*
X168351773Y-106063484D02*
X168774405Y-106063484D01*
X163545429Y-117248415D02*
X163545429Y-119498479D01*
X177612568Y-110748415D02*
X177938012Y-110748415D01*
X163545429Y-112748415D02*
X162132805Y-112748415D01*
X168351773Y-119563484D02*
X168774405Y-119563484D01*
X168016689Y-108155832D02*
X168016689Y-110228400D01*
X154036689Y-107008415D02*
X154161689Y-107133415D01*
X176900000Y-103732814D02*
X176900000Y-105595970D01*
X168774405Y-106063484D02*
X168909272Y-106198351D01*
X163545429Y-112748415D02*
X163545429Y-114998479D01*
X163545429Y-117248415D02*
X163532805Y-117248415D01*
X172516689Y-112648415D02*
X172516689Y-114769739D01*
X172616689Y-108248415D02*
X172551773Y-108313331D01*
X172551773Y-110304823D02*
X172995365Y-110748415D01*
X172545429Y-119498479D02*
X172795365Y-119748415D01*
X158524747Y-109140357D02*
X156517805Y-107133415D01*
X168016689Y-103748415D02*
X168016689Y-105728400D01*
X168016689Y-110228400D02*
X168351773Y-110563484D01*
X177045429Y-108148415D02*
X176900000Y-108293844D01*
X176900000Y-105595970D02*
X177302509Y-105998479D01*
X172995365Y-115248415D02*
X173638012Y-115248415D01*
X163545429Y-105998479D02*
X163795365Y-106248415D01*
X176900000Y-110035847D02*
X177612568Y-110748415D01*
X172995365Y-106248415D02*
X173638012Y-106248415D01*
X163545429Y-110498479D02*
X163795365Y-110748415D01*
X177045429Y-119245429D02*
X177548415Y-119748415D01*
X158332805Y-103748415D02*
X156916689Y-103748415D01*
X163545429Y-114998479D02*
X163795365Y-115248415D01*
X177302509Y-105998479D02*
X177351773Y-105998479D01*
X163795365Y-119748415D02*
X164438012Y-119748415D01*
X172795365Y-119748415D02*
X173438012Y-119748415D01*
X156916689Y-103748415D02*
X156316689Y-103748415D01*
X156316689Y-103748415D02*
X154161689Y-105903415D01*
X177601709Y-106248415D02*
X178038012Y-106248415D01*
X172545429Y-117248415D02*
X172545429Y-119498479D01*
X168938012Y-119727091D02*
X168938012Y-119748415D01*
X172516689Y-114769739D02*
X172995365Y-115248415D01*
X168774405Y-119563484D02*
X168938012Y-119727091D01*
X168045429Y-119257140D02*
X168351773Y-119563484D01*
X163545429Y-108248415D02*
X162832805Y-108248415D01*
X158524747Y-112240357D02*
X158524747Y-109140357D01*
X168016689Y-105728400D02*
X168351773Y-106063484D01*
X177045429Y-117248415D02*
X177045429Y-119245429D01*
X168351773Y-110563484D02*
X168831758Y-110563484D01*
X163795365Y-106248415D02*
X164438012Y-106248415D01*
X177051773Y-112754759D02*
X177051773Y-114751773D01*
X163795365Y-110748415D02*
X164438012Y-110748415D01*
X154161689Y-105903415D02*
X154161689Y-107133415D01*
X168351773Y-115063484D02*
X168045429Y-114757140D01*
X177351773Y-105998479D02*
X177601709Y-106248415D01*
X177548415Y-119748415D02*
X177938012Y-119748415D01*
X177045429Y-112748415D02*
X177051773Y-112754759D01*
X172516689Y-103748415D02*
X172516689Y-105769739D01*
X168024106Y-108148415D02*
X168016689Y-108155832D01*
X168045429Y-114757140D02*
X168045429Y-112748415D01*
X154186689Y-107158415D02*
X154161689Y-107133415D01*
X163795365Y-115248415D02*
X164438012Y-115248415D01*
X162832805Y-108248415D02*
X158332805Y-103748415D01*
X172551773Y-108313331D02*
X172551773Y-110304823D01*
X176900000Y-108293844D02*
X176900000Y-110035847D01*
X148399189Y-107008415D02*
X154036689Y-107008415D01*
X162132805Y-112748415D02*
X158524747Y-109140357D01*
X172516689Y-105769739D02*
X172995365Y-106248415D01*
X177548415Y-115248415D02*
X177938012Y-115248415D01*
%TO.N,SDA_3V*%
X177721390Y-107481608D02*
X177488197Y-107248415D01*
X169566625Y-116355832D02*
X168556204Y-116355832D01*
X177773247Y-116638632D02*
X178283825Y-116638632D01*
X173365320Y-112222526D02*
X173732014Y-111855832D01*
X173809272Y-107355832D02*
X174066625Y-107355832D01*
X172576128Y-116300000D02*
X172664114Y-116387986D01*
X173716689Y-107448415D02*
X173809272Y-107355832D01*
X168648843Y-107355832D02*
X169566625Y-107355832D01*
X177994168Y-111855832D02*
X178566625Y-111855832D01*
X165066625Y-111855832D02*
X162124106Y-111855832D01*
X163009272Y-107355832D02*
X162916689Y-107448415D01*
X163316689Y-116148415D02*
X163316689Y-116248415D01*
X172500000Y-116300000D02*
X172576128Y-116300000D01*
X162124106Y-111855832D02*
X162116689Y-111848415D01*
X177847166Y-107355832D02*
X178566625Y-107355832D01*
X173365320Y-112222526D02*
X173216689Y-112073895D01*
X154061689Y-115033415D02*
X156116689Y-115033415D01*
X168186155Y-121062126D02*
X168399866Y-120848415D01*
X177400000Y-122050000D02*
X178516689Y-120933311D01*
X177750000Y-112100000D02*
X177505832Y-111855832D01*
X148499189Y-114908415D02*
X153936689Y-114908415D01*
X174066625Y-120855832D02*
X174066625Y-121698479D01*
X172555832Y-116355832D02*
X174066625Y-116355832D01*
X165066625Y-107355832D02*
X163009272Y-107355832D01*
X168651363Y-112017389D02*
X168812920Y-111855832D01*
X172500000Y-116300000D02*
X172555832Y-116355832D01*
X165066625Y-120855832D02*
X163124106Y-120855832D01*
X156416689Y-114948415D02*
X156286689Y-115033415D01*
X173090580Y-107448415D02*
X173716689Y-107448415D01*
X174066625Y-121698479D02*
X174016689Y-121748415D01*
X156286689Y-115033415D02*
X156201689Y-115033415D01*
X178516689Y-120933311D02*
X178516689Y-120848415D01*
X168812920Y-111855832D02*
X169566625Y-111855832D01*
X163124106Y-120855832D02*
X162816689Y-120548415D01*
X177721390Y-107481608D02*
X177847166Y-107355832D01*
X168556204Y-116355832D02*
X168498212Y-116413824D01*
X168399866Y-120848415D02*
X169616689Y-120848415D01*
X163424106Y-116355832D02*
X163316689Y-116148415D01*
X173732014Y-111855832D02*
X174066625Y-111855832D01*
X178283825Y-116638632D02*
X178566625Y-116355832D01*
X168616689Y-107387986D02*
X168648843Y-107355832D01*
X165066625Y-116355832D02*
X163424106Y-116355832D01*
X173041320Y-107399155D02*
X173090580Y-107448415D01*
X153936689Y-114908415D02*
X154061689Y-115033415D01*
X177750000Y-112100000D02*
X177994168Y-111855832D01*
X156116689Y-115033415D02*
X156416689Y-114948415D01*
X173216689Y-112073895D02*
X173216689Y-112048415D01*
%TD*%
M02*
