M48
; DRILL file {KiCad 7.0.7} date Tue 03 Oct 2023 05:06:42 PM CDT
; FORMAT={-:-/ absolute / inch / decimal}
; #@! TF.CreationDate,2023-10-03T17:06:42-05:00
; #@! TF.GenerationSoftware,Kicad,Pcbnew,7.0.7
; #@! TF.FileFunction,Plated,1,4,PTH
FMAT,2
INCH
; #@! TA.AperFunction,Plated,PTH,ViaDrill
T1C0.0157
%
G90
G05
T1
X5.0531Y-4.0157
X5.3031Y-4.0138
X5.3607Y-4.6834
X5.4276Y-4.8684
X5.4473Y-5.0456
X5.719Y-4.8488
X5.8883Y-4.4472
X6.1581Y-4.5255
X6.3825Y-4.4035
X6.4016Y-4.6693
X6.4055Y-4.1654
X6.4094Y-4.3504
X6.4101Y-4.746
X6.4134Y-4.5236
X6.414Y-4.2303
X6.4298Y-4.5728
X6.4388Y-4.0846
X6.4388Y-4.2617
X6.4388Y-4.4389
X6.4388Y-4.6161
X6.5755Y-4.0846
X6.5755Y-4.2617
X6.5755Y-4.4389
X6.5755Y-4.6161
X6.5755Y-4.8169
X6.6148Y-4.0846
X6.6151Y-4.2578
X6.616Y-4.4389
X6.616Y-4.6161
X6.6215Y-4.7662
X6.6338Y-4.5832
X6.6385Y-4.2279
X6.6398Y-4.4101
X6.7322Y-4.4354
X6.7526Y-4.0846
X6.7526Y-4.2617
X6.7526Y-4.6161
X6.7526Y-4.809
X6.7674Y-4.2274
X6.7913Y-4.5787
X6.792Y-4.0846
X6.792Y-4.435
X6.792Y-4.8208
X6.7931Y-4.6161
X6.794Y-4.3976
X6.7959Y-4.2617
X6.8127Y-4.2283
X6.8254Y-4.4182
X6.8516Y-4.7923
X6.9298Y-4.0846
X6.9298Y-4.2617
X6.9298Y-4.4389
X6.9298Y-4.6161
X6.9298Y-4.8129
X6.9644Y-4.5792
X6.9652Y-4.7578
X6.967Y-4.0815
X6.9676Y-4.4016
X6.9703Y-4.2578
X6.9703Y-4.4389
X6.9703Y-4.6161
X6.9736Y-4.2206
X7.107Y-4.0846
X7.107Y-4.4389
X7.107Y-4.6161
X7.107Y-4.809
X7.122Y-4.2638
X7.166Y-4.5452
X7.166Y-4.7224
X7.1818Y-4.1948
X7.1896Y-4.368
T0
M30
