%TF.GenerationSoftware,KiCad,Pcbnew,7.0.7*%
%TF.CreationDate,2023-10-03T17:06:42-05:00*%
%TF.ProjectId,MLX90393_board3,4d4c5839-3033-4393-935f-626f61726433,rev?*%
%TF.SameCoordinates,Original*%
%TF.FileFunction,Soldermask,Top*%
%TF.FilePolarity,Negative*%
%FSLAX46Y46*%
G04 Gerber Fmt 4.6, Leading zero omitted, Abs format (unit mm)*
G04 Created by KiCad (PCBNEW 7.0.7) date 2023-10-03 17:06:42*
%MOMM*%
%LPD*%
G01*
G04 APERTURE LIST*
G04 Aperture macros list*
%AMRoundRect*
0 Rectangle with rounded corners*
0 $1 Rounding radius*
0 $2 $3 $4 $5 $6 $7 $8 $9 X,Y pos of 4 corners*
0 Add a 4 corners polygon primitive as box body*
4,1,4,$2,$3,$4,$5,$6,$7,$8,$9,$2,$3,0*
0 Add four circle primitives for the rounded corners*
1,1,$1+$1,$2,$3*
1,1,$1+$1,$4,$5*
1,1,$1+$1,$6,$7*
1,1,$1+$1,$8,$9*
0 Add four rect primitives between the rounded corners*
20,1,$1+$1,$2,$3,$4,$5,0*
20,1,$1+$1,$4,$5,$6,$7,0*
20,1,$1+$1,$6,$7,$8,$9,0*
20,1,$1+$1,$8,$9,$2,$3,0*%
G04 Aperture macros list end*
%ADD10RoundRect,0.200000X0.275000X-0.200000X0.275000X0.200000X-0.275000X0.200000X-0.275000X-0.200000X0*%
%ADD11R,0.664999X0.280010*%
%ADD12R,0.280010X0.664999*%
%ADD13R,1.750013X1.750013*%
%ADD14R,1.104902X0.622301*%
%ADD15R,3.170003X1.000000*%
%ADD16RoundRect,0.150000X0.587500X0.150000X-0.587500X0.150000X-0.587500X-0.150000X0.587500X-0.150000X0*%
%ADD17RoundRect,0.225000X-0.250000X0.225000X-0.250000X-0.225000X0.250000X-0.225000X0.250000X0.225000X0*%
%ADD18RoundRect,0.218750X-0.218750X-0.256250X0.218750X-0.256250X0.218750X0.256250X-0.218750X0.256250X0*%
%ADD19RoundRect,0.200000X-0.200000X-0.275000X0.200000X-0.275000X0.200000X0.275000X-0.200000X0.275000X0*%
G04 APERTURE END LIST*
D10*
%TO.C,R20*%
X154061689Y-116683415D03*
X154061689Y-115033415D03*
%TD*%
D11*
%TO.C,M16*%
X177909272Y-118698351D03*
X177909272Y-119198479D03*
X177909272Y-119698351D03*
X177909272Y-120198479D03*
D12*
X178566625Y-120855832D03*
X179066753Y-120855832D03*
X179566625Y-120855832D03*
X180066753Y-120855832D03*
D11*
X180724106Y-120198479D03*
X180724106Y-119698351D03*
X180724106Y-119198479D03*
X180724106Y-118698351D03*
D12*
X180066753Y-118040998D03*
X179566625Y-118040998D03*
X179066753Y-118040998D03*
X178566625Y-118040998D03*
D13*
X179316689Y-119448415D03*
%TD*%
D14*
%TO.C,U5*%
X139561714Y-122708682D03*
X139561714Y-123657882D03*
X139561714Y-124608097D03*
X142161664Y-124608097D03*
X142161664Y-122708682D03*
%TD*%
D15*
%TO.C,J1*%
X140781534Y-108908407D03*
X136121641Y-108908407D03*
X140781534Y-111448412D03*
X136121641Y-111448412D03*
X140781534Y-113988418D03*
X136121641Y-113988418D03*
X140781534Y-116528423D03*
X136121641Y-116528423D03*
%TD*%
D16*
%TO.C,Q2*%
X148499189Y-116808415D03*
X148499189Y-114908415D03*
X146624189Y-115858415D03*
%TD*%
D17*
%TO.C,C3*%
X134861689Y-126658415D03*
X134861689Y-128208415D03*
%TD*%
D11*
%TO.C,M8*%
X177909272Y-109698351D03*
X177909272Y-110198479D03*
X177909272Y-110698351D03*
X177909272Y-111198479D03*
D12*
X178566625Y-111855832D03*
X179066753Y-111855832D03*
X179566625Y-111855832D03*
X180066753Y-111855832D03*
D11*
X180724106Y-111198479D03*
X180724106Y-110698351D03*
X180724106Y-110198479D03*
X180724106Y-109698351D03*
D12*
X180066753Y-109040998D03*
X179566625Y-109040998D03*
X179066753Y-109040998D03*
X178566625Y-109040998D03*
D13*
X179316689Y-110448415D03*
%TD*%
D11*
%TO.C,M11*%
X173409272Y-114198351D03*
X173409272Y-114698479D03*
X173409272Y-115198351D03*
X173409272Y-115698479D03*
D12*
X174066625Y-116355832D03*
X174566753Y-116355832D03*
X175066625Y-116355832D03*
X175566753Y-116355832D03*
D11*
X176224106Y-115698479D03*
X176224106Y-115198351D03*
X176224106Y-114698479D03*
X176224106Y-114198351D03*
D12*
X175566753Y-113540998D03*
X175066625Y-113540998D03*
X174566753Y-113540998D03*
X174066625Y-113540998D03*
D13*
X174816689Y-114948415D03*
%TD*%
D11*
%TO.C,M1*%
X168909272Y-105198351D03*
X168909272Y-105698479D03*
X168909272Y-106198351D03*
X168909272Y-106698479D03*
D12*
X169566625Y-107355832D03*
X170066753Y-107355832D03*
X170566625Y-107355832D03*
X171066753Y-107355832D03*
D11*
X171724106Y-106698479D03*
X171724106Y-106198351D03*
X171724106Y-105698479D03*
X171724106Y-105198351D03*
D12*
X171066753Y-104540998D03*
X170566625Y-104540998D03*
X170066753Y-104540998D03*
X169566625Y-104540998D03*
D13*
X170316689Y-105948415D03*
%TD*%
D11*
%TO.C,M2*%
X173409272Y-105198351D03*
X173409272Y-105698479D03*
X173409272Y-106198351D03*
X173409272Y-106698479D03*
D12*
X174066625Y-107355832D03*
X174566753Y-107355832D03*
X175066625Y-107355832D03*
X175566753Y-107355832D03*
D11*
X176224106Y-106698479D03*
X176224106Y-106198351D03*
X176224106Y-105698479D03*
X176224106Y-105198351D03*
D12*
X175566753Y-104540998D03*
X175066625Y-104540998D03*
X174566753Y-104540998D03*
X174066625Y-104540998D03*
D13*
X174816689Y-105948415D03*
%TD*%
D10*
%TO.C,R19*%
X154161689Y-108783415D03*
X154161689Y-107133415D03*
%TD*%
D11*
%TO.C,M9*%
X164409272Y-114198351D03*
X164409272Y-114698479D03*
X164409272Y-115198351D03*
X164409272Y-115698479D03*
D12*
X165066625Y-116355832D03*
X165566753Y-116355832D03*
X166066625Y-116355832D03*
X166566753Y-116355832D03*
D11*
X167224106Y-115698479D03*
X167224106Y-115198351D03*
X167224106Y-114698479D03*
X167224106Y-114198351D03*
D12*
X166566753Y-113540998D03*
X166066625Y-113540998D03*
X165566753Y-113540998D03*
X165066625Y-113540998D03*
D13*
X165816689Y-114948415D03*
%TD*%
D11*
%TO.C,M10*%
X168909272Y-114198351D03*
X168909272Y-114698479D03*
X168909272Y-115198351D03*
X168909272Y-115698479D03*
D12*
X169566625Y-116355832D03*
X170066753Y-116355832D03*
X170566625Y-116355832D03*
X171066753Y-116355832D03*
D11*
X171724106Y-115698479D03*
X171724106Y-115198351D03*
X171724106Y-114698479D03*
X171724106Y-114198351D03*
D12*
X171066753Y-113540998D03*
X170566625Y-113540998D03*
X170066753Y-113540998D03*
X169566625Y-113540998D03*
D13*
X170316689Y-114948415D03*
%TD*%
D16*
%TO.C,Q1*%
X148399189Y-108908415D03*
X148399189Y-107008415D03*
X146524189Y-107958415D03*
%TD*%
D18*
%TO.C,D1*%
X131112500Y-101850000D03*
X132687500Y-101850000D03*
%TD*%
D11*
%TO.C,M4*%
X177909272Y-105198351D03*
X177909272Y-105698479D03*
X177909272Y-106198351D03*
X177909272Y-106698479D03*
D12*
X178566625Y-107355832D03*
X179066753Y-107355832D03*
X179566625Y-107355832D03*
X180066753Y-107355832D03*
D11*
X180724106Y-106698479D03*
X180724106Y-106198351D03*
X180724106Y-105698479D03*
X180724106Y-105198351D03*
D12*
X180066753Y-104540998D03*
X179566625Y-104540998D03*
X179066753Y-104540998D03*
X178566625Y-104540998D03*
D13*
X179316689Y-105948415D03*
%TD*%
D19*
%TO.C,R18*%
X144836689Y-112108415D03*
X146486689Y-112108415D03*
%TD*%
D11*
%TO.C,M15*%
X173409272Y-118698351D03*
X173409272Y-119198479D03*
X173409272Y-119698351D03*
X173409272Y-120198479D03*
D12*
X174066625Y-120855832D03*
X174566753Y-120855832D03*
X175066625Y-120855832D03*
X175566753Y-120855832D03*
D11*
X176224106Y-120198479D03*
X176224106Y-119698351D03*
X176224106Y-119198479D03*
X176224106Y-118698351D03*
D12*
X175566753Y-118040998D03*
X175066625Y-118040998D03*
X174566753Y-118040998D03*
X174066625Y-118040998D03*
D13*
X174816689Y-119448415D03*
%TD*%
D17*
%TO.C,C1*%
X143761689Y-126683415D03*
X143761689Y-128233415D03*
%TD*%
%TO.C,C2*%
X141361689Y-126683415D03*
X141361689Y-128233415D03*
%TD*%
D11*
%TO.C,M14*%
X168909272Y-118698351D03*
X168909272Y-119198479D03*
X168909272Y-119698351D03*
X168909272Y-120198479D03*
D12*
X169566625Y-120855832D03*
X170066753Y-120855832D03*
X170566625Y-120855832D03*
X171066753Y-120855832D03*
D11*
X171724106Y-120198479D03*
X171724106Y-119698351D03*
X171724106Y-119198479D03*
X171724106Y-118698351D03*
D12*
X171066753Y-118040998D03*
X170566625Y-118040998D03*
X170066753Y-118040998D03*
X169566625Y-118040998D03*
D13*
X170316689Y-119448415D03*
%TD*%
D19*
%TO.C,R17*%
X144936689Y-119358415D03*
X146586689Y-119358415D03*
%TD*%
D11*
%TO.C,M12*%
X177909272Y-114198351D03*
X177909272Y-114698479D03*
X177909272Y-115198351D03*
X177909272Y-115698479D03*
D12*
X178566625Y-116355832D03*
X179066753Y-116355832D03*
X179566625Y-116355832D03*
X180066753Y-116355832D03*
D11*
X180724106Y-115698479D03*
X180724106Y-115198351D03*
X180724106Y-114698479D03*
X180724106Y-114198351D03*
D12*
X180066753Y-113540998D03*
X179566625Y-113540998D03*
X179066753Y-113540998D03*
X178566625Y-113540998D03*
D13*
X179316689Y-114948415D03*
%TD*%
D11*
%TO.C,M13*%
X164409272Y-118698351D03*
X164409272Y-119198479D03*
X164409272Y-119698351D03*
X164409272Y-120198479D03*
D12*
X165066625Y-120855832D03*
X165566753Y-120855832D03*
X166066625Y-120855832D03*
X166566753Y-120855832D03*
D11*
X167224106Y-120198479D03*
X167224106Y-119698351D03*
X167224106Y-119198479D03*
X167224106Y-118698351D03*
D12*
X166566753Y-118040998D03*
X166066625Y-118040998D03*
X165566753Y-118040998D03*
X165066625Y-118040998D03*
D13*
X165816689Y-119448415D03*
%TD*%
D11*
%TO.C,M7*%
X173409272Y-109698351D03*
X173409272Y-110198479D03*
X173409272Y-110698351D03*
X173409272Y-111198479D03*
D12*
X174066625Y-111855832D03*
X174566753Y-111855832D03*
X175066625Y-111855832D03*
X175566753Y-111855832D03*
D11*
X176224106Y-111198479D03*
X176224106Y-110698351D03*
X176224106Y-110198479D03*
X176224106Y-109698351D03*
D12*
X175566753Y-109040998D03*
X175066625Y-109040998D03*
X174566753Y-109040998D03*
X174066625Y-109040998D03*
D13*
X174816689Y-110448415D03*
%TD*%
D11*
%TO.C,M5*%
X164409272Y-109698351D03*
X164409272Y-110198479D03*
X164409272Y-110698351D03*
X164409272Y-111198479D03*
D12*
X165066625Y-111855832D03*
X165566753Y-111855832D03*
X166066625Y-111855832D03*
X166566753Y-111855832D03*
D11*
X167224106Y-111198479D03*
X167224106Y-110698351D03*
X167224106Y-110198479D03*
X167224106Y-109698351D03*
D12*
X166566753Y-109040998D03*
X166066625Y-109040998D03*
X165566753Y-109040998D03*
X165066625Y-109040998D03*
D13*
X165816689Y-110448415D03*
%TD*%
D11*
%TO.C,M3*%
X164409272Y-105198351D03*
X164409272Y-105698479D03*
X164409272Y-106198351D03*
X164409272Y-106698479D03*
D12*
X165066625Y-107355832D03*
X165566753Y-107355832D03*
X166066625Y-107355832D03*
X166566753Y-107355832D03*
D11*
X167224106Y-106698479D03*
X167224106Y-106198351D03*
X167224106Y-105698479D03*
X167224106Y-105198351D03*
D12*
X166566753Y-104540998D03*
X166066625Y-104540998D03*
X165566753Y-104540998D03*
X165066625Y-104540998D03*
D13*
X165816689Y-105948415D03*
%TD*%
D11*
%TO.C,M6*%
X168909272Y-109698351D03*
X168909272Y-110198479D03*
X168909272Y-110698351D03*
X168909272Y-111198479D03*
D12*
X169566625Y-111855832D03*
X170066753Y-111855832D03*
X170566625Y-111855832D03*
X171066753Y-111855832D03*
D11*
X171724106Y-111198479D03*
X171724106Y-110698351D03*
X171724106Y-110198479D03*
X171724106Y-109698351D03*
D12*
X171066753Y-109040998D03*
X170566625Y-109040998D03*
X170066753Y-109040998D03*
X169566625Y-109040998D03*
D13*
X170316689Y-110448415D03*
%TD*%
M02*
