%TF.GenerationSoftware,KiCad,Pcbnew,7.0.6*%
%TF.CreationDate,2023-08-06T23:15:07-05:00*%
%TF.ProjectId,MLX90393_board2,4d4c5839-3033-4393-935f-626f61726432,rev?*%
%TF.SameCoordinates,Original*%
%TF.FileFunction,Legend,Top*%
%TF.FilePolarity,Positive*%
%FSLAX46Y46*%
G04 Gerber Fmt 4.6, Leading zero omitted, Abs format (unit mm)*
G04 Created by KiCad (PCBNEW 7.0.6) date 2023-08-06 23:15:07*
%MOMM*%
%LPD*%
G01*
G04 APERTURE LIST*
G04 Aperture macros list*
%AMRoundRect*
0 Rectangle with rounded corners*
0 $1 Rounding radius*
0 $2 $3 $4 $5 $6 $7 $8 $9 X,Y pos of 4 corners*
0 Add a 4 corners polygon primitive as box body*
4,1,4,$2,$3,$4,$5,$6,$7,$8,$9,$2,$3,0*
0 Add four circle primitives for the rounded corners*
1,1,$1+$1,$2,$3*
1,1,$1+$1,$4,$5*
1,1,$1+$1,$6,$7*
1,1,$1+$1,$8,$9*
0 Add four rect primitives between the rounded corners*
20,1,$1+$1,$2,$3,$4,$5,0*
20,1,$1+$1,$4,$5,$6,$7,0*
20,1,$1+$1,$6,$7,$8,$9,0*
20,1,$1+$1,$8,$9,$2,$3,0*%
G04 Aperture macros list end*
%ADD10C,0.153000*%
%ADD11C,0.155000*%
%ADD12C,0.120000*%
%ADD13C,0.254000*%
%ADD14C,0.248920*%
%ADD15C,0.059995*%
%ADD16C,0.152400*%
%ADD17C,0.151994*%
%ADD18C,0.150013*%
%ADD19RoundRect,0.200000X0.275000X-0.200000X0.275000X0.200000X-0.275000X0.200000X-0.275000X-0.200000X0*%
%ADD20R,1.104902X0.622301*%
%ADD21R,3.170003X1.000000*%
%ADD22RoundRect,0.150000X0.587500X0.150000X-0.587500X0.150000X-0.587500X-0.150000X0.587500X-0.150000X0*%
%ADD23RoundRect,0.225000X-0.250000X0.225000X-0.250000X-0.225000X0.250000X-0.225000X0.250000X0.225000X0*%
%ADD24R,0.664999X0.280010*%
%ADD25R,0.280010X0.664999*%
%ADD26R,1.750013X1.750013*%
%ADD27RoundRect,0.200000X0.200000X0.275000X-0.200000X0.275000X-0.200000X-0.275000X0.200000X-0.275000X0*%
%ADD28RoundRect,0.200000X-0.200000X-0.275000X0.200000X-0.275000X0.200000X0.275000X-0.200000X0.275000X0*%
G04 APERTURE END LIST*
D10*
X150200000Y-112500000D02*
X174800000Y-112500000D01*
X162500000Y-100200000D02*
X162500000Y-124800000D01*
D11*
X170633333Y-131029559D02*
X170300000Y-130553368D01*
X170061905Y-131029559D02*
X170061905Y-130029559D01*
X170061905Y-130029559D02*
X170442857Y-130029559D01*
X170442857Y-130029559D02*
X170538095Y-130077178D01*
X170538095Y-130077178D02*
X170585714Y-130124797D01*
X170585714Y-130124797D02*
X170633333Y-130220035D01*
X170633333Y-130220035D02*
X170633333Y-130362892D01*
X170633333Y-130362892D02*
X170585714Y-130458130D01*
X170585714Y-130458130D02*
X170538095Y-130505749D01*
X170538095Y-130505749D02*
X170442857Y-130553368D01*
X170442857Y-130553368D02*
X170061905Y-130553368D01*
X170966667Y-130029559D02*
X171585714Y-130029559D01*
X171585714Y-130029559D02*
X171252381Y-130410511D01*
X171252381Y-130410511D02*
X171395238Y-130410511D01*
X171395238Y-130410511D02*
X171490476Y-130458130D01*
X171490476Y-130458130D02*
X171538095Y-130505749D01*
X171538095Y-130505749D02*
X171585714Y-130600987D01*
X171585714Y-130600987D02*
X171585714Y-130839082D01*
X171585714Y-130839082D02*
X171538095Y-130934320D01*
X171538095Y-130934320D02*
X171490476Y-130981940D01*
X171490476Y-130981940D02*
X171395238Y-131029559D01*
X171395238Y-131029559D02*
X171109524Y-131029559D01*
X171109524Y-131029559D02*
X171014286Y-130981940D01*
X171014286Y-130981940D02*
X170966667Y-130934320D01*
X170004761Y-133029559D02*
X169433333Y-133029559D01*
X169719047Y-133029559D02*
X169719047Y-132029559D01*
X169719047Y-132029559D02*
X169623809Y-132172416D01*
X169623809Y-132172416D02*
X169528571Y-132267654D01*
X169528571Y-132267654D02*
X169433333Y-132315273D01*
X170623809Y-132029559D02*
X170719047Y-132029559D01*
X170719047Y-132029559D02*
X170814285Y-132077178D01*
X170814285Y-132077178D02*
X170861904Y-132124797D01*
X170861904Y-132124797D02*
X170909523Y-132220035D01*
X170909523Y-132220035D02*
X170957142Y-132410511D01*
X170957142Y-132410511D02*
X170957142Y-132648606D01*
X170957142Y-132648606D02*
X170909523Y-132839082D01*
X170909523Y-132839082D02*
X170861904Y-132934320D01*
X170861904Y-132934320D02*
X170814285Y-132981940D01*
X170814285Y-132981940D02*
X170719047Y-133029559D01*
X170719047Y-133029559D02*
X170623809Y-133029559D01*
X170623809Y-133029559D02*
X170528571Y-132981940D01*
X170528571Y-132981940D02*
X170480952Y-132934320D01*
X170480952Y-132934320D02*
X170433333Y-132839082D01*
X170433333Y-132839082D02*
X170385714Y-132648606D01*
X170385714Y-132648606D02*
X170385714Y-132410511D01*
X170385714Y-132410511D02*
X170433333Y-132220035D01*
X170433333Y-132220035D02*
X170480952Y-132124797D01*
X170480952Y-132124797D02*
X170528571Y-132077178D01*
X170528571Y-132077178D02*
X170623809Y-132029559D01*
X171385714Y-133029559D02*
X171385714Y-132029559D01*
X171480952Y-132648606D02*
X171766666Y-133029559D01*
X171766666Y-132362892D02*
X171385714Y-132743844D01*
X153057142Y-118754559D02*
X152723809Y-118278368D01*
X152485714Y-118754559D02*
X152485714Y-117754559D01*
X152485714Y-117754559D02*
X152866666Y-117754559D01*
X152866666Y-117754559D02*
X152961904Y-117802178D01*
X152961904Y-117802178D02*
X153009523Y-117849797D01*
X153009523Y-117849797D02*
X153057142Y-117945035D01*
X153057142Y-117945035D02*
X153057142Y-118087892D01*
X153057142Y-118087892D02*
X153009523Y-118183130D01*
X153009523Y-118183130D02*
X152961904Y-118230749D01*
X152961904Y-118230749D02*
X152866666Y-118278368D01*
X152866666Y-118278368D02*
X152485714Y-118278368D01*
X153438095Y-117849797D02*
X153485714Y-117802178D01*
X153485714Y-117802178D02*
X153580952Y-117754559D01*
X153580952Y-117754559D02*
X153819047Y-117754559D01*
X153819047Y-117754559D02*
X153914285Y-117802178D01*
X153914285Y-117802178D02*
X153961904Y-117849797D01*
X153961904Y-117849797D02*
X154009523Y-117945035D01*
X154009523Y-117945035D02*
X154009523Y-118040273D01*
X154009523Y-118040273D02*
X153961904Y-118183130D01*
X153961904Y-118183130D02*
X153390476Y-118754559D01*
X153390476Y-118754559D02*
X154009523Y-118754559D01*
X154628571Y-117754559D02*
X154723809Y-117754559D01*
X154723809Y-117754559D02*
X154819047Y-117802178D01*
X154819047Y-117802178D02*
X154866666Y-117849797D01*
X154866666Y-117849797D02*
X154914285Y-117945035D01*
X154914285Y-117945035D02*
X154961904Y-118135511D01*
X154961904Y-118135511D02*
X154961904Y-118373606D01*
X154961904Y-118373606D02*
X154914285Y-118564082D01*
X154914285Y-118564082D02*
X154866666Y-118659320D01*
X154866666Y-118659320D02*
X154819047Y-118706940D01*
X154819047Y-118706940D02*
X154723809Y-118754559D01*
X154723809Y-118754559D02*
X154628571Y-118754559D01*
X154628571Y-118754559D02*
X154533333Y-118706940D01*
X154533333Y-118706940D02*
X154485714Y-118659320D01*
X154485714Y-118659320D02*
X154438095Y-118564082D01*
X154438095Y-118564082D02*
X154390476Y-118373606D01*
X154390476Y-118373606D02*
X154390476Y-118135511D01*
X154390476Y-118135511D02*
X154438095Y-117945035D01*
X154438095Y-117945035D02*
X154485714Y-117849797D01*
X154485714Y-117849797D02*
X154533333Y-117802178D01*
X154533333Y-117802178D02*
X154628571Y-117754559D01*
X139738095Y-120454559D02*
X139738095Y-121264082D01*
X139738095Y-121264082D02*
X139785714Y-121359320D01*
X139785714Y-121359320D02*
X139833333Y-121406940D01*
X139833333Y-121406940D02*
X139928571Y-121454559D01*
X139928571Y-121454559D02*
X140119047Y-121454559D01*
X140119047Y-121454559D02*
X140214285Y-121406940D01*
X140214285Y-121406940D02*
X140261904Y-121359320D01*
X140261904Y-121359320D02*
X140309523Y-121264082D01*
X140309523Y-121264082D02*
X140309523Y-120454559D01*
X141261904Y-120454559D02*
X140785714Y-120454559D01*
X140785714Y-120454559D02*
X140738095Y-120930749D01*
X140738095Y-120930749D02*
X140785714Y-120883130D01*
X140785714Y-120883130D02*
X140880952Y-120835511D01*
X140880952Y-120835511D02*
X141119047Y-120835511D01*
X141119047Y-120835511D02*
X141214285Y-120883130D01*
X141214285Y-120883130D02*
X141261904Y-120930749D01*
X141261904Y-120930749D02*
X141309523Y-121025987D01*
X141309523Y-121025987D02*
X141309523Y-121264082D01*
X141309523Y-121264082D02*
X141261904Y-121359320D01*
X141261904Y-121359320D02*
X141214285Y-121406940D01*
X141214285Y-121406940D02*
X141119047Y-121454559D01*
X141119047Y-121454559D02*
X140880952Y-121454559D01*
X140880952Y-121454559D02*
X140785714Y-121406940D01*
X140785714Y-121406940D02*
X140738095Y-121359320D01*
X142204559Y-112733333D02*
X142918844Y-112733333D01*
X142918844Y-112733333D02*
X143061701Y-112780952D01*
X143061701Y-112780952D02*
X143156940Y-112876190D01*
X143156940Y-112876190D02*
X143204559Y-113019047D01*
X143204559Y-113019047D02*
X143204559Y-113114285D01*
X143204559Y-111733333D02*
X143204559Y-112304761D01*
X143204559Y-112019047D02*
X142204559Y-112019047D01*
X142204559Y-112019047D02*
X142347416Y-112114285D01*
X142347416Y-112114285D02*
X142442654Y-112209523D01*
X142442654Y-112209523D02*
X142490273Y-112304761D01*
X147904761Y-118749797D02*
X147809523Y-118702178D01*
X147809523Y-118702178D02*
X147714285Y-118606940D01*
X147714285Y-118606940D02*
X147571428Y-118464082D01*
X147571428Y-118464082D02*
X147476190Y-118416463D01*
X147476190Y-118416463D02*
X147380952Y-118416463D01*
X147428571Y-118654559D02*
X147333333Y-118606940D01*
X147333333Y-118606940D02*
X147238095Y-118511701D01*
X147238095Y-118511701D02*
X147190476Y-118321225D01*
X147190476Y-118321225D02*
X147190476Y-117987892D01*
X147190476Y-117987892D02*
X147238095Y-117797416D01*
X147238095Y-117797416D02*
X147333333Y-117702178D01*
X147333333Y-117702178D02*
X147428571Y-117654559D01*
X147428571Y-117654559D02*
X147619047Y-117654559D01*
X147619047Y-117654559D02*
X147714285Y-117702178D01*
X147714285Y-117702178D02*
X147809523Y-117797416D01*
X147809523Y-117797416D02*
X147857142Y-117987892D01*
X147857142Y-117987892D02*
X147857142Y-118321225D01*
X147857142Y-118321225D02*
X147809523Y-118511701D01*
X147809523Y-118511701D02*
X147714285Y-118606940D01*
X147714285Y-118606940D02*
X147619047Y-118654559D01*
X147619047Y-118654559D02*
X147428571Y-118654559D01*
X148238095Y-117749797D02*
X148285714Y-117702178D01*
X148285714Y-117702178D02*
X148380952Y-117654559D01*
X148380952Y-117654559D02*
X148619047Y-117654559D01*
X148619047Y-117654559D02*
X148714285Y-117702178D01*
X148714285Y-117702178D02*
X148761904Y-117749797D01*
X148761904Y-117749797D02*
X148809523Y-117845035D01*
X148809523Y-117845035D02*
X148809523Y-117940273D01*
X148809523Y-117940273D02*
X148761904Y-118083130D01*
X148761904Y-118083130D02*
X148190476Y-118654559D01*
X148190476Y-118654559D02*
X148809523Y-118654559D01*
X132959320Y-127441666D02*
X133006940Y-127489285D01*
X133006940Y-127489285D02*
X133054559Y-127632142D01*
X133054559Y-127632142D02*
X133054559Y-127727380D01*
X133054559Y-127727380D02*
X133006940Y-127870237D01*
X133006940Y-127870237D02*
X132911701Y-127965475D01*
X132911701Y-127965475D02*
X132816463Y-128013094D01*
X132816463Y-128013094D02*
X132625987Y-128060713D01*
X132625987Y-128060713D02*
X132483130Y-128060713D01*
X132483130Y-128060713D02*
X132292654Y-128013094D01*
X132292654Y-128013094D02*
X132197416Y-127965475D01*
X132197416Y-127965475D02*
X132102178Y-127870237D01*
X132102178Y-127870237D02*
X132054559Y-127727380D01*
X132054559Y-127727380D02*
X132054559Y-127632142D01*
X132054559Y-127632142D02*
X132102178Y-127489285D01*
X132102178Y-127489285D02*
X132149797Y-127441666D01*
X132054559Y-127108332D02*
X132054559Y-126489285D01*
X132054559Y-126489285D02*
X132435511Y-126822618D01*
X132435511Y-126822618D02*
X132435511Y-126679761D01*
X132435511Y-126679761D02*
X132483130Y-126584523D01*
X132483130Y-126584523D02*
X132530749Y-126536904D01*
X132530749Y-126536904D02*
X132625987Y-126489285D01*
X132625987Y-126489285D02*
X132864082Y-126489285D01*
X132864082Y-126489285D02*
X132959320Y-126536904D01*
X132959320Y-126536904D02*
X133006940Y-126584523D01*
X133006940Y-126584523D02*
X133054559Y-126679761D01*
X133054559Y-126679761D02*
X133054559Y-126965475D01*
X133054559Y-126965475D02*
X133006940Y-127060713D01*
X133006940Y-127060713D02*
X132959320Y-127108332D01*
X153704559Y-97609523D02*
X152704559Y-97609523D01*
X152704559Y-97609523D02*
X153418844Y-97276190D01*
X153418844Y-97276190D02*
X152704559Y-96942857D01*
X152704559Y-96942857D02*
X153704559Y-96942857D01*
X153704559Y-95942857D02*
X153704559Y-96514285D01*
X153704559Y-96228571D02*
X152704559Y-96228571D01*
X152704559Y-96228571D02*
X152847416Y-96323809D01*
X152847416Y-96323809D02*
X152942654Y-96419047D01*
X152942654Y-96419047D02*
X152990273Y-96514285D01*
X180654559Y-103759523D02*
X179654559Y-103759523D01*
X179654559Y-103759523D02*
X180368844Y-103426190D01*
X180368844Y-103426190D02*
X179654559Y-103092857D01*
X179654559Y-103092857D02*
X180654559Y-103092857D01*
X179749797Y-102664285D02*
X179702178Y-102616666D01*
X179702178Y-102616666D02*
X179654559Y-102521428D01*
X179654559Y-102521428D02*
X179654559Y-102283333D01*
X179654559Y-102283333D02*
X179702178Y-102188095D01*
X179702178Y-102188095D02*
X179749797Y-102140476D01*
X179749797Y-102140476D02*
X179845035Y-102092857D01*
X179845035Y-102092857D02*
X179940273Y-102092857D01*
X179940273Y-102092857D02*
X180083130Y-102140476D01*
X180083130Y-102140476D02*
X180654559Y-102711904D01*
X180654559Y-102711904D02*
X180654559Y-102092857D01*
X153457142Y-110854559D02*
X153123809Y-110378368D01*
X152885714Y-110854559D02*
X152885714Y-109854559D01*
X152885714Y-109854559D02*
X153266666Y-109854559D01*
X153266666Y-109854559D02*
X153361904Y-109902178D01*
X153361904Y-109902178D02*
X153409523Y-109949797D01*
X153409523Y-109949797D02*
X153457142Y-110045035D01*
X153457142Y-110045035D02*
X153457142Y-110187892D01*
X153457142Y-110187892D02*
X153409523Y-110283130D01*
X153409523Y-110283130D02*
X153361904Y-110330749D01*
X153361904Y-110330749D02*
X153266666Y-110378368D01*
X153266666Y-110378368D02*
X152885714Y-110378368D01*
X154409523Y-110854559D02*
X153838095Y-110854559D01*
X154123809Y-110854559D02*
X154123809Y-109854559D01*
X154123809Y-109854559D02*
X154028571Y-109997416D01*
X154028571Y-109997416D02*
X153933333Y-110092654D01*
X153933333Y-110092654D02*
X153838095Y-110140273D01*
X154885714Y-110854559D02*
X155076190Y-110854559D01*
X155076190Y-110854559D02*
X155171428Y-110806940D01*
X155171428Y-110806940D02*
X155219047Y-110759320D01*
X155219047Y-110759320D02*
X155314285Y-110616463D01*
X155314285Y-110616463D02*
X155361904Y-110425987D01*
X155361904Y-110425987D02*
X155361904Y-110045035D01*
X155361904Y-110045035D02*
X155314285Y-109949797D01*
X155314285Y-109949797D02*
X155266666Y-109902178D01*
X155266666Y-109902178D02*
X155171428Y-109854559D01*
X155171428Y-109854559D02*
X154980952Y-109854559D01*
X154980952Y-109854559D02*
X154885714Y-109902178D01*
X154885714Y-109902178D02*
X154838095Y-109949797D01*
X154838095Y-109949797D02*
X154790476Y-110045035D01*
X154790476Y-110045035D02*
X154790476Y-110283130D01*
X154790476Y-110283130D02*
X154838095Y-110378368D01*
X154838095Y-110378368D02*
X154885714Y-110425987D01*
X154885714Y-110425987D02*
X154980952Y-110473606D01*
X154980952Y-110473606D02*
X155171428Y-110473606D01*
X155171428Y-110473606D02*
X155266666Y-110425987D01*
X155266666Y-110425987D02*
X155314285Y-110378368D01*
X155314285Y-110378368D02*
X155361904Y-110283130D01*
X155883333Y-127254559D02*
X155550000Y-126778368D01*
X155311905Y-127254559D02*
X155311905Y-126254559D01*
X155311905Y-126254559D02*
X155692857Y-126254559D01*
X155692857Y-126254559D02*
X155788095Y-126302178D01*
X155788095Y-126302178D02*
X155835714Y-126349797D01*
X155835714Y-126349797D02*
X155883333Y-126445035D01*
X155883333Y-126445035D02*
X155883333Y-126587892D01*
X155883333Y-126587892D02*
X155835714Y-126683130D01*
X155835714Y-126683130D02*
X155788095Y-126730749D01*
X155788095Y-126730749D02*
X155692857Y-126778368D01*
X155692857Y-126778368D02*
X155311905Y-126778368D01*
X156835714Y-127254559D02*
X156264286Y-127254559D01*
X156550000Y-127254559D02*
X156550000Y-126254559D01*
X156550000Y-126254559D02*
X156454762Y-126397416D01*
X156454762Y-126397416D02*
X156359524Y-126492654D01*
X156359524Y-126492654D02*
X156264286Y-126540273D01*
X155583333Y-105504559D02*
X155250000Y-105028368D01*
X155011905Y-105504559D02*
X155011905Y-104504559D01*
X155011905Y-104504559D02*
X155392857Y-104504559D01*
X155392857Y-104504559D02*
X155488095Y-104552178D01*
X155488095Y-104552178D02*
X155535714Y-104599797D01*
X155535714Y-104599797D02*
X155583333Y-104695035D01*
X155583333Y-104695035D02*
X155583333Y-104837892D01*
X155583333Y-104837892D02*
X155535714Y-104933130D01*
X155535714Y-104933130D02*
X155488095Y-104980749D01*
X155488095Y-104980749D02*
X155392857Y-105028368D01*
X155392857Y-105028368D02*
X155011905Y-105028368D01*
X156440476Y-104837892D02*
X156440476Y-105504559D01*
X156202381Y-104456940D02*
X155964286Y-105171225D01*
X155964286Y-105171225D02*
X156583333Y-105171225D01*
X148204761Y-110849797D02*
X148109523Y-110802178D01*
X148109523Y-110802178D02*
X148014285Y-110706940D01*
X148014285Y-110706940D02*
X147871428Y-110564082D01*
X147871428Y-110564082D02*
X147776190Y-110516463D01*
X147776190Y-110516463D02*
X147680952Y-110516463D01*
X147728571Y-110754559D02*
X147633333Y-110706940D01*
X147633333Y-110706940D02*
X147538095Y-110611701D01*
X147538095Y-110611701D02*
X147490476Y-110421225D01*
X147490476Y-110421225D02*
X147490476Y-110087892D01*
X147490476Y-110087892D02*
X147538095Y-109897416D01*
X147538095Y-109897416D02*
X147633333Y-109802178D01*
X147633333Y-109802178D02*
X147728571Y-109754559D01*
X147728571Y-109754559D02*
X147919047Y-109754559D01*
X147919047Y-109754559D02*
X148014285Y-109802178D01*
X148014285Y-109802178D02*
X148109523Y-109897416D01*
X148109523Y-109897416D02*
X148157142Y-110087892D01*
X148157142Y-110087892D02*
X148157142Y-110421225D01*
X148157142Y-110421225D02*
X148109523Y-110611701D01*
X148109523Y-110611701D02*
X148014285Y-110706940D01*
X148014285Y-110706940D02*
X147919047Y-110754559D01*
X147919047Y-110754559D02*
X147728571Y-110754559D01*
X149109523Y-110754559D02*
X148538095Y-110754559D01*
X148823809Y-110754559D02*
X148823809Y-109754559D01*
X148823809Y-109754559D02*
X148728571Y-109897416D01*
X148728571Y-109897416D02*
X148633333Y-109992654D01*
X148633333Y-109992654D02*
X148538095Y-110040273D01*
X179254559Y-122409523D02*
X178254559Y-122409523D01*
X178254559Y-122409523D02*
X178968844Y-122076190D01*
X178968844Y-122076190D02*
X178254559Y-121742857D01*
X178254559Y-121742857D02*
X179254559Y-121742857D01*
X178587892Y-120838095D02*
X179254559Y-120838095D01*
X178206940Y-121076190D02*
X178921225Y-121314285D01*
X178921225Y-121314285D02*
X178921225Y-120695238D01*
X147757142Y-112504559D02*
X147423809Y-112028368D01*
X147185714Y-112504559D02*
X147185714Y-111504559D01*
X147185714Y-111504559D02*
X147566666Y-111504559D01*
X147566666Y-111504559D02*
X147661904Y-111552178D01*
X147661904Y-111552178D02*
X147709523Y-111599797D01*
X147709523Y-111599797D02*
X147757142Y-111695035D01*
X147757142Y-111695035D02*
X147757142Y-111837892D01*
X147757142Y-111837892D02*
X147709523Y-111933130D01*
X147709523Y-111933130D02*
X147661904Y-111980749D01*
X147661904Y-111980749D02*
X147566666Y-112028368D01*
X147566666Y-112028368D02*
X147185714Y-112028368D01*
X148709523Y-112504559D02*
X148138095Y-112504559D01*
X148423809Y-112504559D02*
X148423809Y-111504559D01*
X148423809Y-111504559D02*
X148328571Y-111647416D01*
X148328571Y-111647416D02*
X148233333Y-111742654D01*
X148233333Y-111742654D02*
X148138095Y-111790273D01*
X149280952Y-111933130D02*
X149185714Y-111885511D01*
X149185714Y-111885511D02*
X149138095Y-111837892D01*
X149138095Y-111837892D02*
X149090476Y-111742654D01*
X149090476Y-111742654D02*
X149090476Y-111695035D01*
X149090476Y-111695035D02*
X149138095Y-111599797D01*
X149138095Y-111599797D02*
X149185714Y-111552178D01*
X149185714Y-111552178D02*
X149280952Y-111504559D01*
X149280952Y-111504559D02*
X149471428Y-111504559D01*
X149471428Y-111504559D02*
X149566666Y-111552178D01*
X149566666Y-111552178D02*
X149614285Y-111599797D01*
X149614285Y-111599797D02*
X149661904Y-111695035D01*
X149661904Y-111695035D02*
X149661904Y-111742654D01*
X149661904Y-111742654D02*
X149614285Y-111837892D01*
X149614285Y-111837892D02*
X149566666Y-111885511D01*
X149566666Y-111885511D02*
X149471428Y-111933130D01*
X149471428Y-111933130D02*
X149280952Y-111933130D01*
X149280952Y-111933130D02*
X149185714Y-111980749D01*
X149185714Y-111980749D02*
X149138095Y-112028368D01*
X149138095Y-112028368D02*
X149090476Y-112123606D01*
X149090476Y-112123606D02*
X149090476Y-112314082D01*
X149090476Y-112314082D02*
X149138095Y-112409320D01*
X149138095Y-112409320D02*
X149185714Y-112456940D01*
X149185714Y-112456940D02*
X149280952Y-112504559D01*
X149280952Y-112504559D02*
X149471428Y-112504559D01*
X149471428Y-112504559D02*
X149566666Y-112456940D01*
X149566666Y-112456940D02*
X149614285Y-112409320D01*
X149614285Y-112409320D02*
X149661904Y-112314082D01*
X149661904Y-112314082D02*
X149661904Y-112123606D01*
X149661904Y-112123606D02*
X149614285Y-112028368D01*
X149614285Y-112028368D02*
X149566666Y-111980749D01*
X149566666Y-111980749D02*
X149471428Y-111933130D01*
X143859320Y-130366666D02*
X143906940Y-130414285D01*
X143906940Y-130414285D02*
X143954559Y-130557142D01*
X143954559Y-130557142D02*
X143954559Y-130652380D01*
X143954559Y-130652380D02*
X143906940Y-130795237D01*
X143906940Y-130795237D02*
X143811701Y-130890475D01*
X143811701Y-130890475D02*
X143716463Y-130938094D01*
X143716463Y-130938094D02*
X143525987Y-130985713D01*
X143525987Y-130985713D02*
X143383130Y-130985713D01*
X143383130Y-130985713D02*
X143192654Y-130938094D01*
X143192654Y-130938094D02*
X143097416Y-130890475D01*
X143097416Y-130890475D02*
X143002178Y-130795237D01*
X143002178Y-130795237D02*
X142954559Y-130652380D01*
X142954559Y-130652380D02*
X142954559Y-130557142D01*
X142954559Y-130557142D02*
X143002178Y-130414285D01*
X143002178Y-130414285D02*
X143049797Y-130366666D01*
X143954559Y-129414285D02*
X143954559Y-129985713D01*
X143954559Y-129699999D02*
X142954559Y-129699999D01*
X142954559Y-129699999D02*
X143097416Y-129795237D01*
X143097416Y-129795237D02*
X143192654Y-129890475D01*
X143192654Y-129890475D02*
X143240273Y-129985713D01*
X141359320Y-130566666D02*
X141406940Y-130614285D01*
X141406940Y-130614285D02*
X141454559Y-130757142D01*
X141454559Y-130757142D02*
X141454559Y-130852380D01*
X141454559Y-130852380D02*
X141406940Y-130995237D01*
X141406940Y-130995237D02*
X141311701Y-131090475D01*
X141311701Y-131090475D02*
X141216463Y-131138094D01*
X141216463Y-131138094D02*
X141025987Y-131185713D01*
X141025987Y-131185713D02*
X140883130Y-131185713D01*
X140883130Y-131185713D02*
X140692654Y-131138094D01*
X140692654Y-131138094D02*
X140597416Y-131090475D01*
X140597416Y-131090475D02*
X140502178Y-130995237D01*
X140502178Y-130995237D02*
X140454559Y-130852380D01*
X140454559Y-130852380D02*
X140454559Y-130757142D01*
X140454559Y-130757142D02*
X140502178Y-130614285D01*
X140502178Y-130614285D02*
X140549797Y-130566666D01*
X140549797Y-130185713D02*
X140502178Y-130138094D01*
X140502178Y-130138094D02*
X140454559Y-130042856D01*
X140454559Y-130042856D02*
X140454559Y-129804761D01*
X140454559Y-129804761D02*
X140502178Y-129709523D01*
X140502178Y-129709523D02*
X140549797Y-129661904D01*
X140549797Y-129661904D02*
X140645035Y-129614285D01*
X140645035Y-129614285D02*
X140740273Y-129614285D01*
X140740273Y-129614285D02*
X140883130Y-129661904D01*
X140883130Y-129661904D02*
X141454559Y-130233332D01*
X141454559Y-130233332D02*
X141454559Y-129614285D01*
X144957142Y-121454559D02*
X144623809Y-120978368D01*
X144385714Y-121454559D02*
X144385714Y-120454559D01*
X144385714Y-120454559D02*
X144766666Y-120454559D01*
X144766666Y-120454559D02*
X144861904Y-120502178D01*
X144861904Y-120502178D02*
X144909523Y-120549797D01*
X144909523Y-120549797D02*
X144957142Y-120645035D01*
X144957142Y-120645035D02*
X144957142Y-120787892D01*
X144957142Y-120787892D02*
X144909523Y-120883130D01*
X144909523Y-120883130D02*
X144861904Y-120930749D01*
X144861904Y-120930749D02*
X144766666Y-120978368D01*
X144766666Y-120978368D02*
X144385714Y-120978368D01*
X145909523Y-121454559D02*
X145338095Y-121454559D01*
X145623809Y-121454559D02*
X145623809Y-120454559D01*
X145623809Y-120454559D02*
X145528571Y-120597416D01*
X145528571Y-120597416D02*
X145433333Y-120692654D01*
X145433333Y-120692654D02*
X145338095Y-120740273D01*
X146242857Y-120454559D02*
X146909523Y-120454559D01*
X146909523Y-120454559D02*
X146480952Y-121454559D01*
X179654559Y-107466666D02*
X179178368Y-107799999D01*
X179654559Y-108038094D02*
X178654559Y-108038094D01*
X178654559Y-108038094D02*
X178654559Y-107657142D01*
X178654559Y-107657142D02*
X178702178Y-107561904D01*
X178702178Y-107561904D02*
X178749797Y-107514285D01*
X178749797Y-107514285D02*
X178845035Y-107466666D01*
X178845035Y-107466666D02*
X178987892Y-107466666D01*
X178987892Y-107466666D02*
X179083130Y-107514285D01*
X179083130Y-107514285D02*
X179130749Y-107561904D01*
X179130749Y-107561904D02*
X179178368Y-107657142D01*
X179178368Y-107657142D02*
X179178368Y-108038094D01*
X178749797Y-107085713D02*
X178702178Y-107038094D01*
X178702178Y-107038094D02*
X178654559Y-106942856D01*
X178654559Y-106942856D02*
X178654559Y-106704761D01*
X178654559Y-106704761D02*
X178702178Y-106609523D01*
X178702178Y-106609523D02*
X178749797Y-106561904D01*
X178749797Y-106561904D02*
X178845035Y-106514285D01*
X178845035Y-106514285D02*
X178940273Y-106514285D01*
X178940273Y-106514285D02*
X179083130Y-106561904D01*
X179083130Y-106561904D02*
X179654559Y-107133332D01*
X179654559Y-107133332D02*
X179654559Y-106514285D01*
X146590476Y-130654559D02*
X146590476Y-129654559D01*
X146590476Y-129654559D02*
X146923809Y-130368844D01*
X146923809Y-130368844D02*
X147257142Y-129654559D01*
X147257142Y-129654559D02*
X147257142Y-130654559D01*
X147638095Y-129654559D02*
X148257142Y-129654559D01*
X148257142Y-129654559D02*
X147923809Y-130035511D01*
X147923809Y-130035511D02*
X148066666Y-130035511D01*
X148066666Y-130035511D02*
X148161904Y-130083130D01*
X148161904Y-130083130D02*
X148209523Y-130130749D01*
X148209523Y-130130749D02*
X148257142Y-130225987D01*
X148257142Y-130225987D02*
X148257142Y-130464082D01*
X148257142Y-130464082D02*
X148209523Y-130559320D01*
X148209523Y-130559320D02*
X148161904Y-130606940D01*
X148161904Y-130606940D02*
X148066666Y-130654559D01*
X148066666Y-130654559D02*
X147780952Y-130654559D01*
X147780952Y-130654559D02*
X147685714Y-130606940D01*
X147685714Y-130606940D02*
X147638095Y-130559320D01*
D12*
%TO.C,R3*%
X172277500Y-131637258D02*
X172277500Y-131162742D01*
X173322500Y-131637258D02*
X173322500Y-131162742D01*
%TO.C,R20*%
X153177500Y-115937258D02*
X153177500Y-115462742D01*
X154222500Y-115937258D02*
X154222500Y-115462742D01*
D13*
%TO.C,U5*%
X141000381Y-122112827D02*
X141000381Y-124911913D01*
X139999619Y-122112827D02*
X141000381Y-122112827D01*
X141000381Y-124911913D02*
X139999619Y-124911913D01*
X139999619Y-124911913D02*
X139999619Y-122112827D01*
D14*
X138978537Y-121722911D02*
G75*
G03*
X138978538Y-121720422I124454J1194D01*
G01*
D15*
X139129921Y-122049632D02*
G75*
G03*
X139129921Y-122049632I-29972J0D01*
G01*
D13*
%TO.C,J1*%
X132520074Y-107479964D02*
X129990051Y-107479964D01*
X129990051Y-107479964D02*
X129980069Y-107479964D01*
X129980069Y-107479964D02*
X129980069Y-117639985D01*
X129980069Y-108743338D02*
X123980043Y-108743338D01*
X133990051Y-108749967D02*
X132520074Y-108749967D01*
X129980069Y-111283343D02*
X123980043Y-111283343D01*
X133990051Y-111289972D02*
X132520074Y-111289972D01*
X129980069Y-113823399D02*
X123980043Y-113823399D01*
X133990051Y-113830028D02*
X132520074Y-113830028D01*
X129980069Y-116363404D02*
X123980043Y-116363404D01*
X133990051Y-116369982D02*
X132590051Y-116370033D01*
X132520074Y-117639985D02*
X132520074Y-107479964D01*
X129980069Y-117639985D02*
X132520074Y-117639985D01*
D15*
X141050020Y-107479990D02*
G75*
G03*
X141050020Y-107479990I-29972J0D01*
G01*
D12*
%TO.C,Q2*%
X147200000Y-117260000D02*
X148875000Y-117260000D01*
X147200000Y-117260000D02*
X146550000Y-117260000D01*
X147200000Y-114140000D02*
X147850000Y-114140000D01*
X147200000Y-114140000D02*
X146550000Y-114140000D01*
%TO.C,C3*%
X135010000Y-127134420D02*
X135010000Y-127415580D01*
X133990000Y-127134420D02*
X133990000Y-127415580D01*
D16*
%TO.C,M1*%
X151576200Y-98423800D02*
X151576200Y-98919507D01*
X151080493Y-98423800D02*
X151576200Y-98423800D01*
X148919507Y-98423800D02*
X148423800Y-98423800D01*
X148423800Y-98423800D02*
X148423800Y-98919507D01*
D17*
X148423800Y-98919507D02*
X148919507Y-98423800D01*
D16*
X151576200Y-101576200D02*
X151576200Y-101080493D01*
X151080493Y-101576200D02*
X151576200Y-101576200D01*
X148919507Y-101576200D02*
X148423800Y-101576200D01*
X148423800Y-101576200D02*
X148423800Y-101080493D01*
D15*
X148529845Y-98500127D02*
G75*
G03*
X148529845Y-98500127I-29972J0D01*
G01*
D18*
X148169926Y-98856998D02*
G75*
G03*
X148169926Y-98856998I-74930J0D01*
G01*
D16*
%TO.C,M2*%
X176576200Y-98423800D02*
X176576200Y-98919507D01*
X176080493Y-98423800D02*
X176576200Y-98423800D01*
X173919507Y-98423800D02*
X173423800Y-98423800D01*
X173423800Y-98423800D02*
X173423800Y-98919507D01*
D17*
X173423800Y-98919507D02*
X173919507Y-98423800D01*
D16*
X176576200Y-101576200D02*
X176576200Y-101080493D01*
X176080493Y-101576200D02*
X176576200Y-101576200D01*
X173919507Y-101576200D02*
X173423800Y-101576200D01*
X173423800Y-101576200D02*
X173423800Y-101080493D01*
D15*
X173529845Y-98500127D02*
G75*
G03*
X173529845Y-98500127I-29972J0D01*
G01*
D18*
X173169926Y-98856998D02*
G75*
G03*
X173169926Y-98856998I-74930J0D01*
G01*
D12*
%TO.C,R19*%
X153277500Y-108037258D02*
X153277500Y-107562742D01*
X154322500Y-108037258D02*
X154322500Y-107562742D01*
%TO.C,R1*%
X156237258Y-128922500D02*
X155762742Y-128922500D01*
X156237258Y-127877500D02*
X155762742Y-127877500D01*
%TO.C,R4*%
X155912258Y-103572500D02*
X155437742Y-103572500D01*
X155912258Y-102527500D02*
X155437742Y-102527500D01*
%TO.C,Q1*%
X147100000Y-109360000D02*
X148775000Y-109360000D01*
X147100000Y-109360000D02*
X146450000Y-109360000D01*
X147100000Y-106240000D02*
X147750000Y-106240000D01*
X147100000Y-106240000D02*
X146450000Y-106240000D01*
D16*
%TO.C,M4*%
X176576200Y-123423800D02*
X176576200Y-123919507D01*
X176080493Y-123423800D02*
X176576200Y-123423800D01*
X173919507Y-123423800D02*
X173423800Y-123423800D01*
X173423800Y-123423800D02*
X173423800Y-123919507D01*
D17*
X173423800Y-123919507D02*
X173919507Y-123423800D01*
D16*
X176576200Y-126576200D02*
X176576200Y-126080493D01*
X176080493Y-126576200D02*
X176576200Y-126576200D01*
X173919507Y-126576200D02*
X173423800Y-126576200D01*
X173423800Y-126576200D02*
X173423800Y-126080493D01*
D15*
X173529845Y-123500127D02*
G75*
G03*
X173529845Y-123500127I-29972J0D01*
G01*
D18*
X173169926Y-123856998D02*
G75*
G03*
X173169926Y-123856998I-74930J0D01*
G01*
D12*
%TO.C,R18*%
X145062742Y-111427500D02*
X145537258Y-111427500D01*
X145062742Y-112472500D02*
X145537258Y-112472500D01*
%TO.C,C1*%
X143910000Y-127159420D02*
X143910000Y-127440580D01*
X142890000Y-127159420D02*
X142890000Y-127440580D01*
%TO.C,C2*%
X141510000Y-127159420D02*
X141510000Y-127440580D01*
X140490000Y-127159420D02*
X140490000Y-127440580D01*
%TO.C,R17*%
X145162742Y-118677500D02*
X145637258Y-118677500D01*
X145162742Y-119722500D02*
X145637258Y-119722500D01*
%TO.C,R2*%
X176777500Y-107537258D02*
X176777500Y-107062742D01*
X177822500Y-107537258D02*
X177822500Y-107062742D01*
D16*
%TO.C,M3*%
X151576200Y-123423800D02*
X151576200Y-123919507D01*
X151080493Y-123423800D02*
X151576200Y-123423800D01*
X148919507Y-123423800D02*
X148423800Y-123423800D01*
X148423800Y-123423800D02*
X148423800Y-123919507D01*
D17*
X148423800Y-123919507D02*
X148919507Y-123423800D01*
D16*
X151576200Y-126576200D02*
X151576200Y-126080493D01*
X151080493Y-126576200D02*
X151576200Y-126576200D01*
X148919507Y-126576200D02*
X148423800Y-126576200D01*
X148423800Y-126576200D02*
X148423800Y-126080493D01*
D15*
X148529845Y-123500127D02*
G75*
G03*
X148529845Y-123500127I-29972J0D01*
G01*
D18*
X148169926Y-123856998D02*
G75*
G03*
X148169926Y-123856998I-74930J0D01*
G01*
%TD*%
%LPC*%
D19*
%TO.C,R3*%
X172800000Y-132225000D03*
X172800000Y-130575000D03*
%TD*%
%TO.C,R20*%
X153700000Y-116525000D03*
X153700000Y-114875000D03*
%TD*%
D20*
%TO.C,U5*%
X139200025Y-122550267D03*
X139200025Y-123499467D03*
X139200025Y-124449682D03*
X141799975Y-124449682D03*
X141799975Y-122550267D03*
%TD*%
D21*
%TO.C,J1*%
X140419845Y-108749992D03*
X135759952Y-108749992D03*
X140419845Y-111289997D03*
X135759952Y-111289997D03*
X140419845Y-113830003D03*
X135759952Y-113830003D03*
X140419845Y-116370008D03*
X135759952Y-116370008D03*
%TD*%
D22*
%TO.C,Q2*%
X148137500Y-116650000D03*
X148137500Y-114750000D03*
X146262500Y-115700000D03*
%TD*%
D23*
%TO.C,C3*%
X134500000Y-126500000D03*
X134500000Y-128050000D03*
%TD*%
D24*
%TO.C,M1*%
X148592583Y-99249936D03*
X148592583Y-99750064D03*
X148592583Y-100249936D03*
X148592583Y-100750064D03*
D25*
X149249936Y-101407417D03*
X149750064Y-101407417D03*
X150249936Y-101407417D03*
X150750064Y-101407417D03*
D24*
X151407417Y-100750064D03*
X151407417Y-100249936D03*
X151407417Y-99750064D03*
X151407417Y-99249936D03*
D25*
X150750064Y-98592583D03*
X150249936Y-98592583D03*
X149750064Y-98592583D03*
X149249936Y-98592583D03*
D26*
X150000000Y-100000000D03*
%TD*%
D24*
%TO.C,M2*%
X173592583Y-99249936D03*
X173592583Y-99750064D03*
X173592583Y-100249936D03*
X173592583Y-100750064D03*
D25*
X174249936Y-101407417D03*
X174750064Y-101407417D03*
X175249936Y-101407417D03*
X175750064Y-101407417D03*
D24*
X176407417Y-100750064D03*
X176407417Y-100249936D03*
X176407417Y-99750064D03*
X176407417Y-99249936D03*
D25*
X175750064Y-98592583D03*
X175249936Y-98592583D03*
X174750064Y-98592583D03*
X174249936Y-98592583D03*
D26*
X175000000Y-100000000D03*
%TD*%
D19*
%TO.C,R19*%
X153800000Y-108625000D03*
X153800000Y-106975000D03*
%TD*%
D27*
%TO.C,R1*%
X156825000Y-128400000D03*
X155175000Y-128400000D03*
%TD*%
%TO.C,R4*%
X156500000Y-103050000D03*
X154850000Y-103050000D03*
%TD*%
D22*
%TO.C,Q1*%
X148037500Y-108750000D03*
X148037500Y-106850000D03*
X146162500Y-107800000D03*
%TD*%
D24*
%TO.C,M4*%
X173592583Y-124249936D03*
X173592583Y-124750064D03*
X173592583Y-125249936D03*
X173592583Y-125750064D03*
D25*
X174249936Y-126407417D03*
X174750064Y-126407417D03*
X175249936Y-126407417D03*
X175750064Y-126407417D03*
D24*
X176407417Y-125750064D03*
X176407417Y-125249936D03*
X176407417Y-124750064D03*
X176407417Y-124249936D03*
D25*
X175750064Y-123592583D03*
X175249936Y-123592583D03*
X174750064Y-123592583D03*
X174249936Y-123592583D03*
D26*
X175000000Y-125000000D03*
%TD*%
D28*
%TO.C,R18*%
X144475000Y-111950000D03*
X146125000Y-111950000D03*
%TD*%
D23*
%TO.C,C1*%
X143400000Y-126525000D03*
X143400000Y-128075000D03*
%TD*%
%TO.C,C2*%
X141000000Y-126525000D03*
X141000000Y-128075000D03*
%TD*%
D28*
%TO.C,R17*%
X144575000Y-119200000D03*
X146225000Y-119200000D03*
%TD*%
D19*
%TO.C,R2*%
X177300000Y-108125000D03*
X177300000Y-106475000D03*
%TD*%
D24*
%TO.C,M3*%
X148592583Y-124249936D03*
X148592583Y-124750064D03*
X148592583Y-125249936D03*
X148592583Y-125750064D03*
D25*
X149249936Y-126407417D03*
X149750064Y-126407417D03*
X150249936Y-126407417D03*
X150750064Y-126407417D03*
D24*
X151407417Y-125750064D03*
X151407417Y-125249936D03*
X151407417Y-124750064D03*
X151407417Y-124249936D03*
D25*
X150750064Y-123592583D03*
X150249936Y-123592583D03*
X149750064Y-123592583D03*
X149249936Y-123592583D03*
D26*
X150000000Y-125000000D03*
%TD*%
%LPD*%
M02*
