%TF.GenerationSoftware,KiCad,Pcbnew,7.0.6*%
%TF.CreationDate,2023-08-06T23:15:07-05:00*%
%TF.ProjectId,MLX90393_board2,4d4c5839-3033-4393-935f-626f61726432,rev?*%
%TF.SameCoordinates,Original*%
%TF.FileFunction,Copper,L4,Bot*%
%TF.FilePolarity,Positive*%
%FSLAX46Y46*%
G04 Gerber Fmt 4.6, Leading zero omitted, Abs format (unit mm)*
G04 Created by KiCad (PCBNEW 7.0.6) date 2023-08-06 23:15:07*
%MOMM*%
%LPD*%
G01*
G04 APERTURE LIST*
%TA.AperFunction,ViaPad*%
%ADD10C,0.800000*%
%TD*%
%TA.AperFunction,Conductor*%
%ADD11C,0.150000*%
%TD*%
G04 APERTURE END LIST*
D10*
%TO.N,+3.3V*%
X170400000Y-98750000D03*
X144900000Y-123000000D03*
X174750000Y-119700000D03*
X175200000Y-95150000D03*
X145400000Y-98350000D03*
X150250000Y-94900000D03*
X149200000Y-112800000D03*
X160000000Y-123000000D03*
X151400000Y-128400000D03*
X178100000Y-104100000D03*
X149750000Y-119400000D03*
X153250000Y-102000000D03*
X183400000Y-118800000D03*
X183200000Y-128000000D03*
X183400000Y-97800000D03*
X170200000Y-123700000D03*
X176650000Y-128750000D03*
%TO.N,GND*%
X158800000Y-97200000D03*
X154750000Y-125750000D03*
X172800000Y-133400000D03*
X158400000Y-103050000D03*
X146500000Y-127000000D03*
X183400000Y-99400000D03*
X177300000Y-109900000D03*
X176600000Y-96400000D03*
X152200000Y-121200000D03*
X171200000Y-126600000D03*
X138000000Y-128000000D03*
X151400000Y-96600000D03*
X145500000Y-102000000D03*
X170950000Y-101650000D03*
X178383411Y-126583411D03*
X137500000Y-123500000D03*
X158700000Y-95750000D03*
X159800000Y-121800000D03*
X173600000Y-96400000D03*
X179200000Y-100950000D03*
X157000000Y-100874500D03*
X176600000Y-121400000D03*
X158400000Y-128350000D03*
X148500000Y-96000000D03*
X135800000Y-118800000D03*
X173600000Y-121600000D03*
X148400000Y-121400000D03*
%TO.N,SCL_3V*%
X146250000Y-100250000D03*
X157000000Y-107000000D03*
X170750000Y-125250000D03*
X170500000Y-100250000D03*
X146000000Y-125250000D03*
%TD*%
D11*
%TO.N,SCL_3V*%
X153000000Y-125000000D02*
X159000000Y-125000000D01*
X162500000Y-118350000D02*
X169400000Y-125250000D01*
X170500000Y-100250000D02*
X169225000Y-100250000D01*
X169400000Y-125250000D02*
X170750000Y-125250000D01*
X162500000Y-121500000D02*
X162500000Y-118350000D01*
X162500000Y-112500000D02*
X162500000Y-121500000D01*
X152750000Y-125250000D02*
X153000000Y-125000000D01*
X146000000Y-125250000D02*
X152750000Y-125250000D01*
X162500000Y-104000000D02*
X162500000Y-112500000D01*
X159000000Y-125000000D02*
X162500000Y-121500000D01*
X169225000Y-100250000D02*
X162500000Y-106975000D01*
X162500000Y-106975000D02*
X162500000Y-104000000D01*
X146250000Y-100250000D02*
X158750000Y-100250000D01*
X162500000Y-112500000D02*
X157000000Y-107000000D01*
X158750000Y-100250000D02*
X162500000Y-104000000D01*
%TD*%
M02*
