%TF.GenerationSoftware,KiCad,Pcbnew,7.0.6*%
%TF.CreationDate,2023-08-06T23:15:07-05:00*%
%TF.ProjectId,MLX90393_board2,4d4c5839-3033-4393-935f-626f61726432,rev?*%
%TF.SameCoordinates,Original*%
%TF.FileFunction,Copper,L2,Inr*%
%TF.FilePolarity,Positive*%
%FSLAX46Y46*%
G04 Gerber Fmt 4.6, Leading zero omitted, Abs format (unit mm)*
G04 Created by KiCad (PCBNEW 7.0.6) date 2023-08-06 23:15:07*
%MOMM*%
%LPD*%
G01*
G04 APERTURE LIST*
%TA.AperFunction,ViaPad*%
%ADD10C,0.800000*%
%TD*%
G04 APERTURE END LIST*
D10*
%TO.N,+3.3V*%
X170400000Y-98750000D03*
X144900000Y-123000000D03*
X174750000Y-119700000D03*
X175200000Y-95150000D03*
X145400000Y-98350000D03*
X150250000Y-94900000D03*
X149200000Y-112800000D03*
X160000000Y-123000000D03*
X151400000Y-128400000D03*
X178100000Y-104100000D03*
X149750000Y-119400000D03*
X153250000Y-102000000D03*
X183400000Y-118800000D03*
X183200000Y-128000000D03*
X183400000Y-97800000D03*
X170200000Y-123700000D03*
X176650000Y-128750000D03*
%TO.N,GND*%
X158800000Y-97200000D03*
X154750000Y-125750000D03*
X172800000Y-133400000D03*
X158400000Y-103050000D03*
X146500000Y-127000000D03*
X183400000Y-99400000D03*
X177300000Y-109900000D03*
X176600000Y-96400000D03*
X152200000Y-121200000D03*
X171200000Y-126600000D03*
X138000000Y-128000000D03*
X151400000Y-96600000D03*
X145500000Y-102000000D03*
X170950000Y-101650000D03*
X178383411Y-126583411D03*
X137500000Y-123500000D03*
X158700000Y-95750000D03*
X159800000Y-121800000D03*
X173600000Y-96400000D03*
X179200000Y-100950000D03*
X157000000Y-100874500D03*
X176600000Y-121400000D03*
X158400000Y-128350000D03*
X148500000Y-96000000D03*
X135800000Y-118800000D03*
X173600000Y-121600000D03*
X148400000Y-121400000D03*
%TO.N,SCL_3V*%
X146250000Y-100250000D03*
X157000000Y-107000000D03*
X170750000Y-125250000D03*
X170500000Y-100250000D03*
X146000000Y-125250000D03*
%TD*%
%TA.AperFunction,Conductor*%
%TO.N,GND*%
G36*
X180141997Y-91120185D02*
G01*
X180187752Y-91172989D01*
X180197696Y-91242147D01*
X180168671Y-91305703D01*
X180117368Y-91341022D01*
X179888897Y-91424178D01*
X179888891Y-91424181D01*
X179597380Y-91570584D01*
X179324815Y-91749852D01*
X179074931Y-91959530D01*
X179074930Y-91959531D01*
X179074924Y-91959536D01*
X179074923Y-91959538D01*
X178851057Y-92196823D01*
X178851054Y-92196826D01*
X178851052Y-92196829D01*
X178851045Y-92196837D01*
X178656251Y-92458490D01*
X178493143Y-92741003D01*
X178493137Y-92741016D01*
X178363931Y-93040547D01*
X178270369Y-93353067D01*
X178270367Y-93353075D01*
X178213723Y-93674319D01*
X178213722Y-93674330D01*
X178194754Y-93999996D01*
X178194754Y-94000003D01*
X178213722Y-94325669D01*
X178213723Y-94325680D01*
X178270367Y-94646924D01*
X178270369Y-94646932D01*
X178363931Y-94959452D01*
X178493137Y-95258983D01*
X178493143Y-95258996D01*
X178656251Y-95541509D01*
X178851045Y-95803162D01*
X178851050Y-95803168D01*
X178851057Y-95803177D01*
X179074923Y-96040462D01*
X179074929Y-96040467D01*
X179074930Y-96040468D01*
X179074931Y-96040469D01*
X179324815Y-96250147D01*
X179324818Y-96250149D01*
X179324823Y-96250153D01*
X179597377Y-96429414D01*
X179888899Y-96575822D01*
X180195446Y-96687396D01*
X180195452Y-96687397D01*
X180195454Y-96687398D01*
X180512858Y-96762625D01*
X180512865Y-96762626D01*
X180512874Y-96762628D01*
X180836889Y-96800500D01*
X180836896Y-96800500D01*
X181163104Y-96800500D01*
X181163111Y-96800500D01*
X181487126Y-96762628D01*
X181487135Y-96762625D01*
X181487141Y-96762625D01*
X181743176Y-96701942D01*
X181804554Y-96687396D01*
X182111101Y-96575822D01*
X182402623Y-96429414D01*
X182675177Y-96250153D01*
X182925077Y-96040462D01*
X183148943Y-95803177D01*
X183343749Y-95541508D01*
X183506859Y-95258992D01*
X183636069Y-94959451D01*
X183656709Y-94890507D01*
X183694794Y-94831930D01*
X183758502Y-94803242D01*
X183827607Y-94813551D01*
X183880168Y-94859584D01*
X183899500Y-94926071D01*
X183899500Y-96845728D01*
X183879815Y-96912767D01*
X183827011Y-96958522D01*
X183757853Y-96968466D01*
X183725064Y-96959007D01*
X183679807Y-96938857D01*
X183679802Y-96938855D01*
X183534000Y-96907865D01*
X183494646Y-96899500D01*
X183305354Y-96899500D01*
X183272897Y-96906398D01*
X183120197Y-96938855D01*
X183120192Y-96938857D01*
X182947270Y-97015848D01*
X182947265Y-97015851D01*
X182794129Y-97127111D01*
X182667466Y-97267785D01*
X182572821Y-97431715D01*
X182572818Y-97431722D01*
X182514327Y-97611740D01*
X182514326Y-97611744D01*
X182494540Y-97800000D01*
X182514326Y-97988256D01*
X182514327Y-97988259D01*
X182572818Y-98168277D01*
X182572821Y-98168284D01*
X182667467Y-98332216D01*
X182712043Y-98381722D01*
X182794129Y-98472888D01*
X182947265Y-98584148D01*
X182947270Y-98584151D01*
X183120192Y-98661142D01*
X183120197Y-98661144D01*
X183305354Y-98700500D01*
X183305355Y-98700500D01*
X183494644Y-98700500D01*
X183494646Y-98700500D01*
X183679803Y-98661144D01*
X183725065Y-98640991D01*
X183794312Y-98631706D01*
X183857589Y-98661334D01*
X183894804Y-98720468D01*
X183899500Y-98754271D01*
X183899500Y-117845728D01*
X183879815Y-117912767D01*
X183827011Y-117958522D01*
X183757853Y-117968466D01*
X183725064Y-117959007D01*
X183679807Y-117938857D01*
X183679802Y-117938855D01*
X183534001Y-117907865D01*
X183494646Y-117899500D01*
X183305354Y-117899500D01*
X183272897Y-117906398D01*
X183120197Y-117938855D01*
X183120192Y-117938857D01*
X182947270Y-118015848D01*
X182947265Y-118015851D01*
X182794129Y-118127111D01*
X182667466Y-118267785D01*
X182572821Y-118431715D01*
X182572818Y-118431722D01*
X182514327Y-118611740D01*
X182514326Y-118611744D01*
X182494540Y-118800000D01*
X182514326Y-118988256D01*
X182514327Y-118988259D01*
X182572818Y-119168277D01*
X182572821Y-119168284D01*
X182667467Y-119332216D01*
X182794129Y-119472888D01*
X182947265Y-119584148D01*
X182947270Y-119584151D01*
X183120192Y-119661142D01*
X183120197Y-119661144D01*
X183305354Y-119700500D01*
X183305355Y-119700500D01*
X183494644Y-119700500D01*
X183494646Y-119700500D01*
X183679803Y-119661144D01*
X183725065Y-119640991D01*
X183794312Y-119631706D01*
X183857589Y-119661334D01*
X183894804Y-119720468D01*
X183899500Y-119754271D01*
X183899500Y-127151773D01*
X183879815Y-127218812D01*
X183827011Y-127264567D01*
X183757853Y-127274511D01*
X183702616Y-127252092D01*
X183652733Y-127215851D01*
X183652729Y-127215848D01*
X183479807Y-127138857D01*
X183479802Y-127138855D01*
X183334001Y-127107865D01*
X183294646Y-127099500D01*
X183105354Y-127099500D01*
X183072897Y-127106398D01*
X182920197Y-127138855D01*
X182920192Y-127138857D01*
X182747270Y-127215848D01*
X182747265Y-127215851D01*
X182594129Y-127327111D01*
X182467466Y-127467785D01*
X182372821Y-127631715D01*
X182372818Y-127631722D01*
X182314327Y-127811740D01*
X182314326Y-127811744D01*
X182294540Y-128000000D01*
X182314326Y-128188256D01*
X182314327Y-128188259D01*
X182353806Y-128309764D01*
X182355801Y-128379605D01*
X182319720Y-128439438D01*
X182257019Y-128470266D01*
X182187605Y-128462301D01*
X182180224Y-128458892D01*
X182111108Y-128424181D01*
X182111102Y-128424178D01*
X181804566Y-128312608D01*
X181804545Y-128312601D01*
X181487141Y-128237374D01*
X181487126Y-128237372D01*
X181487125Y-128237372D01*
X181163111Y-128199500D01*
X180836889Y-128199500D01*
X180553375Y-128232638D01*
X180512873Y-128237372D01*
X180512858Y-128237374D01*
X180195454Y-128312601D01*
X180195433Y-128312608D01*
X179888897Y-128424178D01*
X179888891Y-128424181D01*
X179597380Y-128570584D01*
X179324815Y-128749852D01*
X179074931Y-128959530D01*
X179074930Y-128959531D01*
X179074924Y-128959536D01*
X179074923Y-128959538D01*
X178851057Y-129196823D01*
X178851054Y-129196826D01*
X178851052Y-129196829D01*
X178851045Y-129196837D01*
X178656251Y-129458490D01*
X178493143Y-129741003D01*
X178493137Y-129741016D01*
X178363931Y-130040547D01*
X178270369Y-130353067D01*
X178270367Y-130353075D01*
X178213723Y-130674319D01*
X178213722Y-130674330D01*
X178194754Y-130999996D01*
X178194754Y-131000003D01*
X178213722Y-131325669D01*
X178213723Y-131325680D01*
X178270367Y-131646924D01*
X178270369Y-131646932D01*
X178363931Y-131959452D01*
X178493137Y-132258983D01*
X178493143Y-132258996D01*
X178656251Y-132541509D01*
X178851045Y-132803162D01*
X178851050Y-132803168D01*
X178851057Y-132803177D01*
X179074923Y-133040462D01*
X179074929Y-133040467D01*
X179074930Y-133040468D01*
X179074931Y-133040469D01*
X179324815Y-133250147D01*
X179324818Y-133250149D01*
X179324823Y-133250153D01*
X179597377Y-133429414D01*
X179888899Y-133575822D01*
X180069463Y-133641542D01*
X180117368Y-133658978D01*
X180173632Y-133700404D01*
X180198568Y-133765673D01*
X180184258Y-133834062D01*
X180135246Y-133883857D01*
X180074958Y-133899500D01*
X127875042Y-133899500D01*
X127808003Y-133879815D01*
X127762248Y-133827011D01*
X127752304Y-133757853D01*
X127781329Y-133694297D01*
X127832632Y-133658978D01*
X127855916Y-133650502D01*
X128061101Y-133575822D01*
X128352623Y-133429414D01*
X128625177Y-133250153D01*
X128875077Y-133040462D01*
X129098943Y-132803177D01*
X129293749Y-132541508D01*
X129456859Y-132258992D01*
X129586069Y-131959451D01*
X129679630Y-131646934D01*
X129736278Y-131325669D01*
X129755246Y-131000000D01*
X129736278Y-130674331D01*
X129679630Y-130353066D01*
X129586069Y-130040549D01*
X129456859Y-129741008D01*
X129293749Y-129458492D01*
X129293748Y-129458490D01*
X129098954Y-129196837D01*
X129098947Y-129196829D01*
X129098943Y-129196823D01*
X128875077Y-128959538D01*
X128875069Y-128959531D01*
X128875068Y-128959530D01*
X128625184Y-128749852D01*
X128625179Y-128749848D01*
X128625177Y-128749847D01*
X128352623Y-128570586D01*
X128152870Y-128470266D01*
X128061108Y-128424181D01*
X128061102Y-128424178D01*
X127994674Y-128400000D01*
X150494540Y-128400000D01*
X150514326Y-128588256D01*
X150514327Y-128588259D01*
X150572818Y-128768277D01*
X150572821Y-128768284D01*
X150667467Y-128932216D01*
X150708516Y-128977805D01*
X150794129Y-129072888D01*
X150947265Y-129184148D01*
X150947270Y-129184151D01*
X151120192Y-129261142D01*
X151120197Y-129261144D01*
X151305354Y-129300500D01*
X151305355Y-129300500D01*
X151494644Y-129300500D01*
X151494646Y-129300500D01*
X151679803Y-129261144D01*
X151852730Y-129184151D01*
X152005871Y-129072888D01*
X152132533Y-128932216D01*
X152227179Y-128768284D01*
X152233120Y-128750000D01*
X175744540Y-128750000D01*
X175764326Y-128938256D01*
X175764327Y-128938259D01*
X175822818Y-129118277D01*
X175822821Y-129118284D01*
X175917467Y-129282216D01*
X176044128Y-129422888D01*
X176044129Y-129422888D01*
X176197265Y-129534148D01*
X176197270Y-129534151D01*
X176370192Y-129611142D01*
X176370197Y-129611144D01*
X176555354Y-129650500D01*
X176555355Y-129650500D01*
X176744644Y-129650500D01*
X176744646Y-129650500D01*
X176929803Y-129611144D01*
X177102730Y-129534151D01*
X177255871Y-129422888D01*
X177382533Y-129282216D01*
X177477179Y-129118284D01*
X177535674Y-128938256D01*
X177555460Y-128750000D01*
X177535674Y-128561744D01*
X177477179Y-128381716D01*
X177382533Y-128217784D01*
X177255871Y-128077112D01*
X177255870Y-128077111D01*
X177102734Y-127965851D01*
X177102729Y-127965848D01*
X176929807Y-127888857D01*
X176929802Y-127888855D01*
X176784001Y-127857865D01*
X176744646Y-127849500D01*
X176555354Y-127849500D01*
X176522897Y-127856398D01*
X176370197Y-127888855D01*
X176370192Y-127888857D01*
X176197270Y-127965848D01*
X176197265Y-127965851D01*
X176044129Y-128077111D01*
X175917466Y-128217785D01*
X175822821Y-128381715D01*
X175822818Y-128381722D01*
X175794049Y-128470266D01*
X175764326Y-128561744D01*
X175752645Y-128672888D01*
X175744556Y-128749852D01*
X175744540Y-128750000D01*
X152233120Y-128750000D01*
X152285674Y-128588256D01*
X152305460Y-128400000D01*
X152285674Y-128211744D01*
X152227179Y-128031716D01*
X152132533Y-127867784D01*
X152005871Y-127727112D01*
X152005870Y-127727111D01*
X151852734Y-127615851D01*
X151852729Y-127615848D01*
X151679807Y-127538857D01*
X151679802Y-127538855D01*
X151534001Y-127507865D01*
X151494646Y-127499500D01*
X151305354Y-127499500D01*
X151272897Y-127506398D01*
X151120197Y-127538855D01*
X151120192Y-127538857D01*
X150947270Y-127615848D01*
X150947265Y-127615851D01*
X150794129Y-127727111D01*
X150667466Y-127867785D01*
X150572821Y-128031715D01*
X150572818Y-128031722D01*
X150518304Y-128199500D01*
X150514326Y-128211744D01*
X150494540Y-128400000D01*
X127994674Y-128400000D01*
X127754566Y-128312608D01*
X127754545Y-128312601D01*
X127437141Y-128237374D01*
X127437126Y-128237372D01*
X127437125Y-128237372D01*
X127113111Y-128199500D01*
X126786889Y-128199500D01*
X126503375Y-128232638D01*
X126462873Y-128237372D01*
X126462858Y-128237374D01*
X126145454Y-128312601D01*
X126145433Y-128312608D01*
X125838897Y-128424178D01*
X125838891Y-128424181D01*
X125547380Y-128570584D01*
X125274815Y-128749852D01*
X125024931Y-128959530D01*
X125024930Y-128959531D01*
X125024924Y-128959536D01*
X125024923Y-128959538D01*
X124801057Y-129196823D01*
X124801054Y-129196826D01*
X124801052Y-129196829D01*
X124801045Y-129196837D01*
X124606251Y-129458490D01*
X124443143Y-129741003D01*
X124443137Y-129741016D01*
X124313931Y-130040547D01*
X124293291Y-130109492D01*
X124255206Y-130168069D01*
X124191497Y-130196758D01*
X124122392Y-130186448D01*
X124069831Y-130140415D01*
X124050500Y-130073928D01*
X124050500Y-125250000D01*
X145094540Y-125250000D01*
X145114326Y-125438256D01*
X145114327Y-125438259D01*
X145172818Y-125618277D01*
X145172821Y-125618284D01*
X145267467Y-125782216D01*
X145394128Y-125922888D01*
X145394129Y-125922888D01*
X145547265Y-126034148D01*
X145547270Y-126034151D01*
X145720192Y-126111142D01*
X145720197Y-126111144D01*
X145905354Y-126150500D01*
X145905355Y-126150500D01*
X146094644Y-126150500D01*
X146094646Y-126150500D01*
X146279803Y-126111144D01*
X146452730Y-126034151D01*
X146605871Y-125922888D01*
X146732533Y-125782216D01*
X146827179Y-125618284D01*
X146885674Y-125438256D01*
X146905460Y-125250000D01*
X146885674Y-125061744D01*
X146827179Y-124881716D01*
X146732533Y-124717784D01*
X146605871Y-124577112D01*
X146605870Y-124577111D01*
X146452734Y-124465851D01*
X146452729Y-124465848D01*
X146279807Y-124388857D01*
X146279802Y-124388855D01*
X146134000Y-124357865D01*
X146094646Y-124349500D01*
X145905354Y-124349500D01*
X145872897Y-124356398D01*
X145720197Y-124388855D01*
X145720192Y-124388857D01*
X145547270Y-124465848D01*
X145547265Y-124465851D01*
X145394129Y-124577111D01*
X145267466Y-124717785D01*
X145172821Y-124881715D01*
X145172818Y-124881722D01*
X145114327Y-125061740D01*
X145114326Y-125061744D01*
X145094540Y-125250000D01*
X124050500Y-125250000D01*
X124050500Y-123000000D01*
X143994540Y-123000000D01*
X144014326Y-123188256D01*
X144014327Y-123188259D01*
X144072818Y-123368277D01*
X144072821Y-123368284D01*
X144167467Y-123532216D01*
X144294128Y-123672887D01*
X144294129Y-123672888D01*
X144447265Y-123784148D01*
X144447270Y-123784151D01*
X144620192Y-123861142D01*
X144620197Y-123861144D01*
X144805354Y-123900500D01*
X144805355Y-123900500D01*
X144994644Y-123900500D01*
X144994646Y-123900500D01*
X145179803Y-123861144D01*
X145352730Y-123784151D01*
X145505871Y-123672888D01*
X145632533Y-123532216D01*
X145727179Y-123368284D01*
X145785674Y-123188256D01*
X145805460Y-123000000D01*
X159094540Y-123000000D01*
X159114326Y-123188256D01*
X159114327Y-123188259D01*
X159172818Y-123368277D01*
X159172821Y-123368284D01*
X159267467Y-123532216D01*
X159394128Y-123672887D01*
X159394129Y-123672888D01*
X159547265Y-123784148D01*
X159547270Y-123784151D01*
X159720192Y-123861142D01*
X159720197Y-123861144D01*
X159905354Y-123900500D01*
X159905355Y-123900500D01*
X160094644Y-123900500D01*
X160094646Y-123900500D01*
X160279803Y-123861144D01*
X160452730Y-123784151D01*
X160568554Y-123700000D01*
X169294540Y-123700000D01*
X169314326Y-123888256D01*
X169314327Y-123888259D01*
X169372818Y-124068277D01*
X169372821Y-124068284D01*
X169467467Y-124232216D01*
X169573070Y-124349500D01*
X169594129Y-124372888D01*
X169747265Y-124484148D01*
X169747270Y-124484151D01*
X169920191Y-124561142D01*
X169920193Y-124561142D01*
X169920197Y-124561144D01*
X169920433Y-124561194D01*
X169920557Y-124561261D01*
X169926374Y-124563151D01*
X169926028Y-124564214D01*
X169981917Y-124594379D01*
X170015700Y-124655539D01*
X170011054Y-124725254D01*
X170002051Y-124744485D01*
X169922820Y-124881718D01*
X169922818Y-124881722D01*
X169864327Y-125061740D01*
X169864326Y-125061744D01*
X169844540Y-125250000D01*
X169864326Y-125438256D01*
X169864327Y-125438259D01*
X169922818Y-125618277D01*
X169922821Y-125618284D01*
X170017467Y-125782216D01*
X170144128Y-125922888D01*
X170144129Y-125922888D01*
X170297265Y-126034148D01*
X170297270Y-126034151D01*
X170470192Y-126111142D01*
X170470197Y-126111144D01*
X170655354Y-126150500D01*
X170655355Y-126150500D01*
X170844644Y-126150500D01*
X170844646Y-126150500D01*
X171029803Y-126111144D01*
X171202730Y-126034151D01*
X171355871Y-125922888D01*
X171482533Y-125782216D01*
X171577179Y-125618284D01*
X171635674Y-125438256D01*
X171655460Y-125250000D01*
X171635674Y-125061744D01*
X171577179Y-124881716D01*
X171482533Y-124717784D01*
X171355871Y-124577112D01*
X171355870Y-124577111D01*
X171202734Y-124465851D01*
X171202729Y-124465848D01*
X171029807Y-124388857D01*
X171029803Y-124388856D01*
X171029554Y-124388803D01*
X171029423Y-124388732D01*
X171023626Y-124386849D01*
X171023970Y-124385788D01*
X170968072Y-124355610D01*
X170934296Y-124294446D01*
X170938950Y-124224732D01*
X170947944Y-124205521D01*
X171027179Y-124068284D01*
X171085674Y-123888256D01*
X171105460Y-123700000D01*
X171085674Y-123511744D01*
X171027179Y-123331716D01*
X170932533Y-123167784D01*
X170805871Y-123027112D01*
X170805870Y-123027111D01*
X170652734Y-122915851D01*
X170652729Y-122915848D01*
X170479807Y-122838857D01*
X170479802Y-122838855D01*
X170334000Y-122807865D01*
X170294646Y-122799500D01*
X170105354Y-122799500D01*
X170072897Y-122806398D01*
X169920197Y-122838855D01*
X169920192Y-122838857D01*
X169747270Y-122915848D01*
X169747265Y-122915851D01*
X169594129Y-123027111D01*
X169467466Y-123167785D01*
X169372821Y-123331715D01*
X169372818Y-123331722D01*
X169314327Y-123511740D01*
X169314326Y-123511744D01*
X169294540Y-123700000D01*
X160568554Y-123700000D01*
X160605871Y-123672888D01*
X160732533Y-123532216D01*
X160827179Y-123368284D01*
X160885674Y-123188256D01*
X160905460Y-123000000D01*
X160885674Y-122811744D01*
X160827179Y-122631716D01*
X160732533Y-122467784D01*
X160605871Y-122327112D01*
X160605870Y-122327111D01*
X160452734Y-122215851D01*
X160452729Y-122215848D01*
X160279807Y-122138857D01*
X160279802Y-122138855D01*
X160134000Y-122107865D01*
X160094646Y-122099500D01*
X159905354Y-122099500D01*
X159872897Y-122106398D01*
X159720197Y-122138855D01*
X159720192Y-122138857D01*
X159547270Y-122215848D01*
X159547265Y-122215851D01*
X159394129Y-122327111D01*
X159267466Y-122467785D01*
X159172821Y-122631715D01*
X159172818Y-122631722D01*
X159118304Y-122799500D01*
X159114326Y-122811744D01*
X159094540Y-123000000D01*
X145805460Y-123000000D01*
X145785674Y-122811744D01*
X145727179Y-122631716D01*
X145632533Y-122467784D01*
X145505871Y-122327112D01*
X145505870Y-122327111D01*
X145352734Y-122215851D01*
X145352729Y-122215848D01*
X145179807Y-122138857D01*
X145179802Y-122138855D01*
X145034000Y-122107865D01*
X144994646Y-122099500D01*
X144805354Y-122099500D01*
X144772897Y-122106398D01*
X144620197Y-122138855D01*
X144620192Y-122138857D01*
X144447270Y-122215848D01*
X144447265Y-122215851D01*
X144294129Y-122327111D01*
X144167466Y-122467785D01*
X144072821Y-122631715D01*
X144072818Y-122631722D01*
X144018304Y-122799500D01*
X144014326Y-122811744D01*
X143994540Y-123000000D01*
X124050500Y-123000000D01*
X124050500Y-119400000D01*
X148844540Y-119400000D01*
X148864326Y-119588256D01*
X148864327Y-119588259D01*
X148922818Y-119768277D01*
X148922821Y-119768284D01*
X149017467Y-119932216D01*
X149139977Y-120068277D01*
X149144129Y-120072888D01*
X149297265Y-120184148D01*
X149297270Y-120184151D01*
X149470192Y-120261142D01*
X149470197Y-120261144D01*
X149655354Y-120300500D01*
X149655355Y-120300500D01*
X149844644Y-120300500D01*
X149844646Y-120300500D01*
X150029803Y-120261144D01*
X150202730Y-120184151D01*
X150355871Y-120072888D01*
X150482533Y-119932216D01*
X150577179Y-119768284D01*
X150599366Y-119700000D01*
X173844540Y-119700000D01*
X173864326Y-119888256D01*
X173864327Y-119888259D01*
X173922818Y-120068277D01*
X173922821Y-120068284D01*
X174017467Y-120232216D01*
X174144128Y-120372887D01*
X174144129Y-120372888D01*
X174297265Y-120484148D01*
X174297270Y-120484151D01*
X174470192Y-120561142D01*
X174470197Y-120561144D01*
X174655354Y-120600500D01*
X174655355Y-120600500D01*
X174844644Y-120600500D01*
X174844646Y-120600500D01*
X175029803Y-120561144D01*
X175202730Y-120484151D01*
X175355871Y-120372888D01*
X175482533Y-120232216D01*
X175577179Y-120068284D01*
X175635674Y-119888256D01*
X175655460Y-119700000D01*
X175635674Y-119511744D01*
X175581112Y-119343823D01*
X175577181Y-119331722D01*
X175577180Y-119331721D01*
X175577179Y-119331716D01*
X175482533Y-119167784D01*
X175355871Y-119027112D01*
X175355870Y-119027111D01*
X175202734Y-118915851D01*
X175202729Y-118915848D01*
X175029807Y-118838857D01*
X175029802Y-118838855D01*
X174884000Y-118807865D01*
X174844646Y-118799500D01*
X174655354Y-118799500D01*
X174622897Y-118806398D01*
X174470197Y-118838855D01*
X174470192Y-118838857D01*
X174297270Y-118915848D01*
X174297265Y-118915851D01*
X174144129Y-119027111D01*
X174017466Y-119167785D01*
X173922821Y-119331715D01*
X173922818Y-119331722D01*
X173876951Y-119472888D01*
X173864326Y-119511744D01*
X173844540Y-119700000D01*
X150599366Y-119700000D01*
X150635674Y-119588256D01*
X150655460Y-119400000D01*
X150635674Y-119211744D01*
X150577179Y-119031716D01*
X150482533Y-118867784D01*
X150355871Y-118727112D01*
X150355870Y-118727111D01*
X150202734Y-118615851D01*
X150202729Y-118615848D01*
X150029807Y-118538857D01*
X150029802Y-118538855D01*
X149884000Y-118507865D01*
X149844646Y-118499500D01*
X149655354Y-118499500D01*
X149622897Y-118506398D01*
X149470197Y-118538855D01*
X149470192Y-118538857D01*
X149297270Y-118615848D01*
X149297265Y-118615851D01*
X149144129Y-118727111D01*
X149017466Y-118867785D01*
X148922821Y-119031715D01*
X148922818Y-119031722D01*
X148878609Y-119167785D01*
X148864326Y-119211744D01*
X148844540Y-119400000D01*
X124050500Y-119400000D01*
X124050500Y-112800000D01*
X148294540Y-112800000D01*
X148314326Y-112988256D01*
X148314327Y-112988259D01*
X148372818Y-113168277D01*
X148372821Y-113168284D01*
X148467467Y-113332216D01*
X148594128Y-113472887D01*
X148594129Y-113472888D01*
X148747265Y-113584148D01*
X148747270Y-113584151D01*
X148920192Y-113661142D01*
X148920197Y-113661144D01*
X149105354Y-113700500D01*
X149105355Y-113700500D01*
X149294644Y-113700500D01*
X149294646Y-113700500D01*
X149479803Y-113661144D01*
X149652730Y-113584151D01*
X149805871Y-113472888D01*
X149932533Y-113332216D01*
X150027179Y-113168284D01*
X150085674Y-112988256D01*
X150105460Y-112800000D01*
X150085674Y-112611744D01*
X150027179Y-112431716D01*
X149932533Y-112267784D01*
X149805871Y-112127112D01*
X149805870Y-112127111D01*
X149652734Y-112015851D01*
X149652729Y-112015848D01*
X149479807Y-111938857D01*
X149479802Y-111938855D01*
X149334000Y-111907865D01*
X149294646Y-111899500D01*
X149105354Y-111899500D01*
X149072897Y-111906398D01*
X148920197Y-111938855D01*
X148920192Y-111938857D01*
X148747270Y-112015848D01*
X148747265Y-112015851D01*
X148594129Y-112127111D01*
X148467466Y-112267785D01*
X148372821Y-112431715D01*
X148372818Y-112431722D01*
X148314327Y-112611740D01*
X148314326Y-112611744D01*
X148294540Y-112800000D01*
X124050500Y-112800000D01*
X124050500Y-107000000D01*
X156094540Y-107000000D01*
X156114326Y-107188256D01*
X156114327Y-107188259D01*
X156172818Y-107368277D01*
X156172821Y-107368284D01*
X156267467Y-107532216D01*
X156394128Y-107672888D01*
X156394129Y-107672888D01*
X156547265Y-107784148D01*
X156547270Y-107784151D01*
X156720192Y-107861142D01*
X156720197Y-107861144D01*
X156905354Y-107900500D01*
X156905355Y-107900500D01*
X157094644Y-107900500D01*
X157094646Y-107900500D01*
X157279803Y-107861144D01*
X157452730Y-107784151D01*
X157605871Y-107672888D01*
X157732533Y-107532216D01*
X157827179Y-107368284D01*
X157885674Y-107188256D01*
X157905460Y-107000000D01*
X157885674Y-106811744D01*
X157827179Y-106631716D01*
X157732533Y-106467784D01*
X157605871Y-106327112D01*
X157605870Y-106327111D01*
X157452734Y-106215851D01*
X157452729Y-106215848D01*
X157279807Y-106138857D01*
X157279802Y-106138855D01*
X157134000Y-106107865D01*
X157094646Y-106099500D01*
X156905354Y-106099500D01*
X156872897Y-106106398D01*
X156720197Y-106138855D01*
X156720192Y-106138857D01*
X156547270Y-106215848D01*
X156547265Y-106215851D01*
X156394129Y-106327111D01*
X156267466Y-106467785D01*
X156172821Y-106631715D01*
X156172818Y-106631722D01*
X156114327Y-106811740D01*
X156114326Y-106811744D01*
X156094540Y-107000000D01*
X124050500Y-107000000D01*
X124050500Y-104100000D01*
X177194540Y-104100000D01*
X177214326Y-104288256D01*
X177214327Y-104288259D01*
X177272818Y-104468277D01*
X177272821Y-104468284D01*
X177367467Y-104632216D01*
X177494128Y-104772887D01*
X177494129Y-104772888D01*
X177647265Y-104884148D01*
X177647270Y-104884151D01*
X177820192Y-104961142D01*
X177820197Y-104961144D01*
X178005354Y-105000500D01*
X178005355Y-105000500D01*
X178194644Y-105000500D01*
X178194646Y-105000500D01*
X178379803Y-104961144D01*
X178552730Y-104884151D01*
X178705871Y-104772888D01*
X178832533Y-104632216D01*
X178927179Y-104468284D01*
X178985674Y-104288256D01*
X179005460Y-104100000D01*
X178985674Y-103911744D01*
X178927179Y-103731716D01*
X178832533Y-103567784D01*
X178705871Y-103427112D01*
X178705870Y-103427111D01*
X178552734Y-103315851D01*
X178552729Y-103315848D01*
X178379807Y-103238857D01*
X178379802Y-103238855D01*
X178234000Y-103207865D01*
X178194646Y-103199500D01*
X178005354Y-103199500D01*
X177972897Y-103206398D01*
X177820197Y-103238855D01*
X177820192Y-103238857D01*
X177647270Y-103315848D01*
X177647265Y-103315851D01*
X177494129Y-103427111D01*
X177367466Y-103567785D01*
X177272821Y-103731715D01*
X177272818Y-103731722D01*
X177214327Y-103911740D01*
X177214326Y-103911744D01*
X177194540Y-104100000D01*
X124050500Y-104100000D01*
X124050500Y-102000000D01*
X152344540Y-102000000D01*
X152364326Y-102188256D01*
X152364327Y-102188259D01*
X152422818Y-102368277D01*
X152422821Y-102368284D01*
X152517467Y-102532216D01*
X152644128Y-102672888D01*
X152644129Y-102672888D01*
X152797265Y-102784148D01*
X152797270Y-102784151D01*
X152970192Y-102861142D01*
X152970197Y-102861144D01*
X153155354Y-102900500D01*
X153155355Y-102900500D01*
X153344644Y-102900500D01*
X153344646Y-102900500D01*
X153529803Y-102861144D01*
X153702730Y-102784151D01*
X153855871Y-102672888D01*
X153982533Y-102532216D01*
X154077179Y-102368284D01*
X154135674Y-102188256D01*
X154155460Y-102000000D01*
X154135674Y-101811744D01*
X154077179Y-101631716D01*
X153982533Y-101467784D01*
X153855871Y-101327112D01*
X153855870Y-101327111D01*
X153702734Y-101215851D01*
X153702729Y-101215848D01*
X153529807Y-101138857D01*
X153529802Y-101138855D01*
X153384000Y-101107865D01*
X153344646Y-101099500D01*
X153155354Y-101099500D01*
X153122897Y-101106398D01*
X152970197Y-101138855D01*
X152970192Y-101138857D01*
X152797270Y-101215848D01*
X152797265Y-101215851D01*
X152644129Y-101327111D01*
X152517466Y-101467785D01*
X152422821Y-101631715D01*
X152422818Y-101631722D01*
X152364327Y-101811740D01*
X152364326Y-101811744D01*
X152344540Y-102000000D01*
X124050500Y-102000000D01*
X124050500Y-100250000D01*
X145344540Y-100250000D01*
X145364326Y-100438256D01*
X145364327Y-100438259D01*
X145422818Y-100618277D01*
X145422821Y-100618284D01*
X145517467Y-100782216D01*
X145644128Y-100922888D01*
X145644129Y-100922888D01*
X145797265Y-101034148D01*
X145797270Y-101034151D01*
X145970192Y-101111142D01*
X145970197Y-101111144D01*
X146155354Y-101150500D01*
X146155355Y-101150500D01*
X146344644Y-101150500D01*
X146344646Y-101150500D01*
X146529803Y-101111144D01*
X146702730Y-101034151D01*
X146855871Y-100922888D01*
X146982533Y-100782216D01*
X147077179Y-100618284D01*
X147135674Y-100438256D01*
X147155460Y-100250000D01*
X147135674Y-100061744D01*
X147077179Y-99881716D01*
X146982533Y-99717784D01*
X146855871Y-99577112D01*
X146855870Y-99577111D01*
X146702734Y-99465851D01*
X146702729Y-99465848D01*
X146529807Y-99388857D01*
X146529802Y-99388855D01*
X146384001Y-99357865D01*
X146344646Y-99349500D01*
X146155354Y-99349500D01*
X146122897Y-99356398D01*
X145970197Y-99388855D01*
X145970192Y-99388857D01*
X145797270Y-99465848D01*
X145797265Y-99465851D01*
X145644129Y-99577111D01*
X145517466Y-99717785D01*
X145422821Y-99881715D01*
X145422818Y-99881722D01*
X145364327Y-100061740D01*
X145364326Y-100061744D01*
X145344540Y-100250000D01*
X124050500Y-100250000D01*
X124050500Y-98350000D01*
X144494540Y-98350000D01*
X144514326Y-98538256D01*
X144514327Y-98538259D01*
X144572818Y-98718277D01*
X144572821Y-98718284D01*
X144667467Y-98882216D01*
X144794128Y-99022888D01*
X144794129Y-99022888D01*
X144947265Y-99134148D01*
X144947270Y-99134151D01*
X145120192Y-99211142D01*
X145120197Y-99211144D01*
X145305354Y-99250500D01*
X145305355Y-99250500D01*
X145494644Y-99250500D01*
X145494646Y-99250500D01*
X145679803Y-99211144D01*
X145852730Y-99134151D01*
X146005871Y-99022888D01*
X146132533Y-98882216D01*
X146208868Y-98750000D01*
X169494540Y-98750000D01*
X169514326Y-98938256D01*
X169514327Y-98938259D01*
X169572818Y-99118277D01*
X169572821Y-99118284D01*
X169667467Y-99282216D01*
X169763487Y-99388857D01*
X169794129Y-99422888D01*
X169827114Y-99446853D01*
X169869780Y-99502183D01*
X169875759Y-99571796D01*
X169846379Y-99630143D01*
X169767466Y-99717785D01*
X169672821Y-99881715D01*
X169672818Y-99881722D01*
X169614327Y-100061740D01*
X169614326Y-100061744D01*
X169594540Y-100250000D01*
X169614326Y-100438256D01*
X169614327Y-100438259D01*
X169672818Y-100618277D01*
X169672821Y-100618284D01*
X169767467Y-100782216D01*
X169894128Y-100922887D01*
X169894129Y-100922888D01*
X170047265Y-101034148D01*
X170047270Y-101034151D01*
X170220192Y-101111142D01*
X170220197Y-101111144D01*
X170405354Y-101150500D01*
X170405355Y-101150500D01*
X170594644Y-101150500D01*
X170594646Y-101150500D01*
X170779803Y-101111144D01*
X170952730Y-101034151D01*
X171105871Y-100922888D01*
X171232533Y-100782216D01*
X171327179Y-100618284D01*
X171385674Y-100438256D01*
X171405460Y-100250000D01*
X171385674Y-100061744D01*
X171327179Y-99881716D01*
X171232533Y-99717784D01*
X171105871Y-99577112D01*
X171072883Y-99553145D01*
X171030219Y-99497816D01*
X171024240Y-99428203D01*
X171053619Y-99369858D01*
X171132533Y-99282216D01*
X171227179Y-99118284D01*
X171285674Y-98938256D01*
X171305460Y-98750000D01*
X171285674Y-98561744D01*
X171227179Y-98381716D01*
X171132533Y-98217784D01*
X171005871Y-98077112D01*
X171005870Y-98077111D01*
X170852734Y-97965851D01*
X170852729Y-97965848D01*
X170679807Y-97888857D01*
X170679802Y-97888855D01*
X170534000Y-97857865D01*
X170494646Y-97849500D01*
X170305354Y-97849500D01*
X170272897Y-97856398D01*
X170120197Y-97888855D01*
X170120192Y-97888857D01*
X169947270Y-97965848D01*
X169947265Y-97965851D01*
X169794129Y-98077111D01*
X169667466Y-98217785D01*
X169572821Y-98381715D01*
X169572818Y-98381722D01*
X169514327Y-98561740D01*
X169514326Y-98561744D01*
X169494540Y-98750000D01*
X146208868Y-98750000D01*
X146227179Y-98718284D01*
X146285674Y-98538256D01*
X146305460Y-98350000D01*
X146285674Y-98161744D01*
X146227179Y-97981716D01*
X146132533Y-97817784D01*
X146005871Y-97677112D01*
X146005870Y-97677111D01*
X145852734Y-97565851D01*
X145852729Y-97565848D01*
X145679807Y-97488857D01*
X145679802Y-97488855D01*
X145534001Y-97457865D01*
X145494646Y-97449500D01*
X145305354Y-97449500D01*
X145272897Y-97456398D01*
X145120197Y-97488855D01*
X145120192Y-97488857D01*
X144947270Y-97565848D01*
X144947265Y-97565851D01*
X144794129Y-97677111D01*
X144667466Y-97817785D01*
X144572821Y-97981715D01*
X144572818Y-97981722D01*
X144514327Y-98161740D01*
X144514326Y-98161744D01*
X144494540Y-98350000D01*
X124050500Y-98350000D01*
X124050500Y-94926071D01*
X124070185Y-94859032D01*
X124122989Y-94813277D01*
X124192147Y-94803333D01*
X124255703Y-94832358D01*
X124293291Y-94890508D01*
X124313930Y-94959450D01*
X124443137Y-95258983D01*
X124443143Y-95258996D01*
X124606251Y-95541509D01*
X124801045Y-95803162D01*
X124801050Y-95803168D01*
X124801057Y-95803177D01*
X125024923Y-96040462D01*
X125024929Y-96040467D01*
X125024930Y-96040468D01*
X125024931Y-96040469D01*
X125274815Y-96250147D01*
X125274818Y-96250149D01*
X125274823Y-96250153D01*
X125547377Y-96429414D01*
X125838899Y-96575822D01*
X126145446Y-96687396D01*
X126145452Y-96687397D01*
X126145454Y-96687398D01*
X126462858Y-96762625D01*
X126462865Y-96762626D01*
X126462874Y-96762628D01*
X126786889Y-96800500D01*
X126786896Y-96800500D01*
X127113104Y-96800500D01*
X127113111Y-96800500D01*
X127437126Y-96762628D01*
X127437135Y-96762625D01*
X127437141Y-96762625D01*
X127693176Y-96701942D01*
X127754554Y-96687396D01*
X128061101Y-96575822D01*
X128352623Y-96429414D01*
X128625177Y-96250153D01*
X128875077Y-96040462D01*
X129098943Y-95803177D01*
X129293749Y-95541508D01*
X129456859Y-95258992D01*
X129586069Y-94959451D01*
X129603867Y-94900000D01*
X149344540Y-94900000D01*
X149364326Y-95088256D01*
X149364327Y-95088259D01*
X149422818Y-95268277D01*
X149422821Y-95268284D01*
X149517467Y-95432216D01*
X149615874Y-95541508D01*
X149644129Y-95572888D01*
X149797265Y-95684148D01*
X149797270Y-95684151D01*
X149970192Y-95761142D01*
X149970197Y-95761144D01*
X150155354Y-95800500D01*
X150155355Y-95800500D01*
X150344644Y-95800500D01*
X150344646Y-95800500D01*
X150529803Y-95761144D01*
X150702730Y-95684151D01*
X150855871Y-95572888D01*
X150982533Y-95432216D01*
X151077179Y-95268284D01*
X151115612Y-95150000D01*
X174294540Y-95150000D01*
X174314326Y-95338256D01*
X174314327Y-95338259D01*
X174372818Y-95518277D01*
X174372821Y-95518284D01*
X174467467Y-95682216D01*
X174573971Y-95800500D01*
X174594129Y-95822888D01*
X174747265Y-95934148D01*
X174747270Y-95934151D01*
X174920192Y-96011142D01*
X174920197Y-96011144D01*
X175105354Y-96050500D01*
X175105355Y-96050500D01*
X175294644Y-96050500D01*
X175294646Y-96050500D01*
X175479803Y-96011144D01*
X175652730Y-95934151D01*
X175805871Y-95822888D01*
X175932533Y-95682216D01*
X176027179Y-95518284D01*
X176085674Y-95338256D01*
X176105460Y-95150000D01*
X176085674Y-94961744D01*
X176027179Y-94781716D01*
X175932533Y-94617784D01*
X175805871Y-94477112D01*
X175805870Y-94477111D01*
X175652734Y-94365851D01*
X175652729Y-94365848D01*
X175479807Y-94288857D01*
X175479802Y-94288855D01*
X175334001Y-94257865D01*
X175294646Y-94249500D01*
X175105354Y-94249500D01*
X175072897Y-94256398D01*
X174920197Y-94288855D01*
X174920192Y-94288857D01*
X174747270Y-94365848D01*
X174747265Y-94365851D01*
X174594129Y-94477111D01*
X174467466Y-94617785D01*
X174372821Y-94781715D01*
X174372818Y-94781722D01*
X174314327Y-94961740D01*
X174314326Y-94961744D01*
X174294540Y-95150000D01*
X151115612Y-95150000D01*
X151135674Y-95088256D01*
X151155460Y-94900000D01*
X151135674Y-94711744D01*
X151077179Y-94531716D01*
X150982533Y-94367784D01*
X150855871Y-94227112D01*
X150855870Y-94227111D01*
X150702734Y-94115851D01*
X150702729Y-94115848D01*
X150529807Y-94038857D01*
X150529802Y-94038855D01*
X150347012Y-94000003D01*
X150344646Y-93999500D01*
X150155354Y-93999500D01*
X150152988Y-94000003D01*
X149970197Y-94038855D01*
X149970192Y-94038857D01*
X149797270Y-94115848D01*
X149797265Y-94115851D01*
X149644129Y-94227111D01*
X149517466Y-94367785D01*
X149422821Y-94531715D01*
X149422818Y-94531722D01*
X149385384Y-94646934D01*
X149364326Y-94711744D01*
X149344540Y-94900000D01*
X129603867Y-94900000D01*
X129679630Y-94646934D01*
X129736278Y-94325669D01*
X129755246Y-94000000D01*
X129736278Y-93674331D01*
X129679630Y-93353066D01*
X129586069Y-93040549D01*
X129456859Y-92741008D01*
X129293749Y-92458492D01*
X129293748Y-92458490D01*
X129098954Y-92196837D01*
X129098947Y-92196829D01*
X129098943Y-92196823D01*
X128875077Y-91959538D01*
X128875069Y-91959531D01*
X128875068Y-91959530D01*
X128625184Y-91749852D01*
X128625179Y-91749848D01*
X128625177Y-91749847D01*
X128352623Y-91570586D01*
X128347684Y-91568105D01*
X128061108Y-91424181D01*
X128061102Y-91424178D01*
X127832632Y-91341022D01*
X127776368Y-91299596D01*
X127751432Y-91234327D01*
X127765742Y-91165938D01*
X127814754Y-91116143D01*
X127875042Y-91100500D01*
X180074958Y-91100500D01*
X180141997Y-91120185D01*
G37*
%TD.AperFunction*%
%TD*%
M02*
