%TF.GenerationSoftware,KiCad,Pcbnew,7.0.6*%
%TF.CreationDate,2023-08-06T23:15:07-05:00*%
%TF.ProjectId,MLX90393_board2,4d4c5839-3033-4393-935f-626f61726432,rev?*%
%TF.SameCoordinates,Original*%
%TF.FileFunction,Copper,L1,Top*%
%TF.FilePolarity,Positive*%
%FSLAX46Y46*%
G04 Gerber Fmt 4.6, Leading zero omitted, Abs format (unit mm)*
G04 Created by KiCad (PCBNEW 7.0.6) date 2023-08-06 23:15:07*
%MOMM*%
%LPD*%
G01*
G04 APERTURE LIST*
G04 Aperture macros list*
%AMRoundRect*
0 Rectangle with rounded corners*
0 $1 Rounding radius*
0 $2 $3 $4 $5 $6 $7 $8 $9 X,Y pos of 4 corners*
0 Add a 4 corners polygon primitive as box body*
4,1,4,$2,$3,$4,$5,$6,$7,$8,$9,$2,$3,0*
0 Add four circle primitives for the rounded corners*
1,1,$1+$1,$2,$3*
1,1,$1+$1,$4,$5*
1,1,$1+$1,$6,$7*
1,1,$1+$1,$8,$9*
0 Add four rect primitives between the rounded corners*
20,1,$1+$1,$2,$3,$4,$5,0*
20,1,$1+$1,$4,$5,$6,$7,0*
20,1,$1+$1,$6,$7,$8,$9,0*
20,1,$1+$1,$8,$9,$2,$3,0*%
G04 Aperture macros list end*
%TA.AperFunction,SMDPad,CuDef*%
%ADD10RoundRect,0.200000X0.275000X-0.200000X0.275000X0.200000X-0.275000X0.200000X-0.275000X-0.200000X0*%
%TD*%
%TA.AperFunction,SMDPad,CuDef*%
%ADD11R,1.104902X0.622301*%
%TD*%
%TA.AperFunction,SMDPad,CuDef*%
%ADD12R,3.170003X1.000000*%
%TD*%
%TA.AperFunction,SMDPad,CuDef*%
%ADD13RoundRect,0.150000X0.587500X0.150000X-0.587500X0.150000X-0.587500X-0.150000X0.587500X-0.150000X0*%
%TD*%
%TA.AperFunction,SMDPad,CuDef*%
%ADD14RoundRect,0.225000X-0.250000X0.225000X-0.250000X-0.225000X0.250000X-0.225000X0.250000X0.225000X0*%
%TD*%
%TA.AperFunction,SMDPad,CuDef*%
%ADD15R,0.664999X0.280010*%
%TD*%
%TA.AperFunction,SMDPad,CuDef*%
%ADD16R,0.280010X0.664999*%
%TD*%
%TA.AperFunction,SMDPad,CuDef*%
%ADD17R,1.750013X1.750013*%
%TD*%
%TA.AperFunction,SMDPad,CuDef*%
%ADD18RoundRect,0.200000X0.200000X0.275000X-0.200000X0.275000X-0.200000X-0.275000X0.200000X-0.275000X0*%
%TD*%
%TA.AperFunction,SMDPad,CuDef*%
%ADD19RoundRect,0.200000X-0.200000X-0.275000X0.200000X-0.275000X0.200000X0.275000X-0.200000X0.275000X0*%
%TD*%
%TA.AperFunction,ViaPad*%
%ADD20C,0.800000*%
%TD*%
%TA.AperFunction,Conductor*%
%ADD21C,0.150000*%
%TD*%
G04 APERTURE END LIST*
D10*
%TO.P,R3,1*%
%TO.N,GND*%
X172800000Y-132225000D03*
%TO.P,R3,2*%
%TO.N,Net-(M4-INT{slash}TRG)*%
X172800000Y-130575000D03*
%TD*%
%TO.P,R20,1*%
%TO.N,+3.3V*%
X153700000Y-116525000D03*
%TO.P,R20,2*%
%TO.N,SDA_3V*%
X153700000Y-114875000D03*
%TD*%
D11*
%TO.P,U5,1,VIN*%
%TO.N,VCC*%
X139200025Y-122550267D03*
%TO.P,U5,2,GND*%
%TO.N,GND*%
X139200025Y-123499467D03*
%TO.P,U5,3,EN*%
%TO.N,unconnected-(U5-EN-Pad3)*%
X139200025Y-124449682D03*
%TO.P,U5,4,NC*%
%TO.N,unconnected-(U5-NC-Pad4)*%
X141799975Y-124449682D03*
%TO.P,U5,5,VOUT*%
%TO.N,+3.3V*%
X141799975Y-122550267D03*
%TD*%
D12*
%TO.P,J1,1,1*%
%TO.N,unconnected-(J1-Pad1)*%
X140419845Y-108749992D03*
%TO.P,J1,2,2*%
%TO.N,VCC*%
X135759952Y-108749992D03*
%TO.P,J1,3,3*%
%TO.N,SDA*%
X140419845Y-111289997D03*
%TO.P,J1,4,4*%
%TO.N,unconnected-(J1-Pad4)*%
X135759952Y-111289997D03*
%TO.P,J1,5,5*%
%TO.N,SCL*%
X140419845Y-113830003D03*
%TO.P,J1,6,6*%
%TO.N,GND*%
X135759952Y-113830003D03*
%TO.P,J1,7,7*%
%TO.N,unconnected-(J1-Pad7)*%
X140419845Y-116370008D03*
%TO.P,J1,8,8*%
%TO.N,unconnected-(J1-Pad8)*%
X135759952Y-116370008D03*
%TD*%
D13*
%TO.P,Q2,1,G*%
%TO.N,+3.3V*%
X148137500Y-116650000D03*
%TO.P,Q2,2,S*%
%TO.N,SDA_3V*%
X148137500Y-114750000D03*
%TO.P,Q2,3,D*%
%TO.N,SDA*%
X146262500Y-115700000D03*
%TD*%
D14*
%TO.P,C3,1*%
%TO.N,VCC*%
X134500000Y-126500000D03*
%TO.P,C3,2*%
%TO.N,GND*%
X134500000Y-128050000D03*
%TD*%
D15*
%TO.P,M1,1,INT*%
%TO.N,unconnected-(M1-INT-Pad1)*%
X148592583Y-99249936D03*
%TO.P,M1,2,SENB/CS*%
%TO.N,+3.3V*%
X148592583Y-99750064D03*
%TO.P,M1,3,SCL/SCLK*%
%TO.N,SCL_3V*%
X148592583Y-100249936D03*
%TO.P,M1,4,NC*%
%TO.N,GND*%
X148592583Y-100750064D03*
D16*
%TO.P,M1,5,SDA/MOSI*%
%TO.N,SDA_3V*%
X149249936Y-101407417D03*
%TO.P,M1,6,MISO*%
%TO.N,unconnected-(M1-MISO-Pad6)*%
X149750064Y-101407417D03*
%TO.P,M1,7,INT/TRG*%
%TO.N,Net-(M1-INT{slash}TRG)*%
X150249936Y-101407417D03*
%TO.P,M1,8,VDD_IO*%
%TO.N,+3.3V*%
X150750064Y-101407417D03*
D15*
%TO.P,M1,9,NC*%
%TO.N,GND*%
X151407417Y-100750064D03*
%TO.P,M1,10,NC*%
X151407417Y-100249936D03*
%TO.P,M1,11,A1*%
X151407417Y-99750064D03*
%TO.P,M1,12,A0*%
X151407417Y-99249936D03*
D16*
%TO.P,M1,13,VSS*%
X150750064Y-98592583D03*
%TO.P,M1,14,NC*%
X150249936Y-98592583D03*
%TO.P,M1,15,VDD*%
%TO.N,+3.3V*%
X149750064Y-98592583D03*
%TO.P,M1,16,NC*%
%TO.N,GND*%
X149249936Y-98592583D03*
D17*
%TO.P,M1,17,EP*%
%TO.N,unconnected-(M1-EP-Pad17)*%
X150000000Y-100000000D03*
%TD*%
D15*
%TO.P,M2,1,INT*%
%TO.N,unconnected-(M2-INT-Pad1)*%
X173592583Y-99249936D03*
%TO.P,M2,2,SENB/CS*%
%TO.N,+3.3V*%
X173592583Y-99750064D03*
%TO.P,M2,3,SCL/SCLK*%
%TO.N,SCL_3V*%
X173592583Y-100249936D03*
%TO.P,M2,4,NC*%
%TO.N,GND*%
X173592583Y-100750064D03*
D16*
%TO.P,M2,5,SDA/MOSI*%
%TO.N,SDA_3V*%
X174249936Y-101407417D03*
%TO.P,M2,6,MISO*%
%TO.N,unconnected-(M2-MISO-Pad6)*%
X174750064Y-101407417D03*
%TO.P,M2,7,INT/TRG*%
%TO.N,Net-(M2-INT{slash}TRG)*%
X175249936Y-101407417D03*
%TO.P,M2,8,VDD_IO*%
%TO.N,+3.3V*%
X175750064Y-101407417D03*
D15*
%TO.P,M2,9,NC*%
%TO.N,GND*%
X176407417Y-100750064D03*
%TO.P,M2,10,NC*%
X176407417Y-100249936D03*
%TO.P,M2,11,A1*%
X176407417Y-99750064D03*
%TO.P,M2,12,A0*%
%TO.N,+3.3V*%
X176407417Y-99249936D03*
D16*
%TO.P,M2,13,VSS*%
%TO.N,GND*%
X175750064Y-98592583D03*
%TO.P,M2,14,NC*%
X175249936Y-98592583D03*
%TO.P,M2,15,VDD*%
%TO.N,+3.3V*%
X174750064Y-98592583D03*
%TO.P,M2,16,NC*%
%TO.N,GND*%
X174249936Y-98592583D03*
D17*
%TO.P,M2,17,EP*%
%TO.N,unconnected-(M2-EP-Pad17)*%
X175000000Y-100000000D03*
%TD*%
D10*
%TO.P,R19,1*%
%TO.N,+3.3V*%
X153800000Y-108625000D03*
%TO.P,R19,2*%
%TO.N,SCL_3V*%
X153800000Y-106975000D03*
%TD*%
D18*
%TO.P,R1,1*%
%TO.N,GND*%
X156825000Y-128400000D03*
%TO.P,R1,2*%
%TO.N,Net-(M3-INT{slash}TRG)*%
X155175000Y-128400000D03*
%TD*%
%TO.P,R4,1*%
%TO.N,GND*%
X156500000Y-103050000D03*
%TO.P,R4,2*%
%TO.N,Net-(M1-INT{slash}TRG)*%
X154850000Y-103050000D03*
%TD*%
D13*
%TO.P,Q1,1,G*%
%TO.N,+3.3V*%
X148037500Y-108750000D03*
%TO.P,Q1,2,S*%
%TO.N,SCL_3V*%
X148037500Y-106850000D03*
%TO.P,Q1,3,D*%
%TO.N,SCL*%
X146162500Y-107800000D03*
%TD*%
D15*
%TO.P,M4,1,INT*%
%TO.N,unconnected-(M4-INT-Pad1)*%
X173592583Y-124249936D03*
%TO.P,M4,2,SENB/CS*%
%TO.N,+3.3V*%
X173592583Y-124750064D03*
%TO.P,M4,3,SCL/SCLK*%
%TO.N,SCL_3V*%
X173592583Y-125249936D03*
%TO.P,M4,4,NC*%
%TO.N,GND*%
X173592583Y-125750064D03*
D16*
%TO.P,M4,5,SDA/MOSI*%
%TO.N,SDA_3V*%
X174249936Y-126407417D03*
%TO.P,M4,6,MISO*%
%TO.N,unconnected-(M4-MISO-Pad6)*%
X174750064Y-126407417D03*
%TO.P,M4,7,INT/TRG*%
%TO.N,Net-(M4-INT{slash}TRG)*%
X175249936Y-126407417D03*
%TO.P,M4,8,VDD_IO*%
%TO.N,+3.3V*%
X175750064Y-126407417D03*
D15*
%TO.P,M4,9,NC*%
%TO.N,GND*%
X176407417Y-125750064D03*
%TO.P,M4,10,NC*%
X176407417Y-125249936D03*
%TO.P,M4,11,A1*%
%TO.N,+3.3V*%
X176407417Y-124750064D03*
%TO.P,M4,12,A0*%
X176407417Y-124249936D03*
D16*
%TO.P,M4,13,VSS*%
%TO.N,GND*%
X175750064Y-123592583D03*
%TO.P,M4,14,NC*%
X175249936Y-123592583D03*
%TO.P,M4,15,VDD*%
%TO.N,+3.3V*%
X174750064Y-123592583D03*
%TO.P,M4,16,NC*%
%TO.N,GND*%
X174249936Y-123592583D03*
D17*
%TO.P,M4,17,EP*%
%TO.N,unconnected-(M4-EP-Pad17)*%
X175000000Y-125000000D03*
%TD*%
D19*
%TO.P,R18,1*%
%TO.N,VCC*%
X144475000Y-111950000D03*
%TO.P,R18,2*%
%TO.N,SCL*%
X146125000Y-111950000D03*
%TD*%
D14*
%TO.P,C1,1*%
%TO.N,+3.3V*%
X143400000Y-126525000D03*
%TO.P,C1,2*%
%TO.N,GND*%
X143400000Y-128075000D03*
%TD*%
%TO.P,C2,1*%
%TO.N,+3.3V*%
X141000000Y-126525000D03*
%TO.P,C2,2*%
%TO.N,GND*%
X141000000Y-128075000D03*
%TD*%
D19*
%TO.P,R17,1*%
%TO.N,VCC*%
X144575000Y-119200000D03*
%TO.P,R17,2*%
%TO.N,SDA*%
X146225000Y-119200000D03*
%TD*%
D10*
%TO.P,R2,1*%
%TO.N,GND*%
X177300000Y-108125000D03*
%TO.P,R2,2*%
%TO.N,Net-(M2-INT{slash}TRG)*%
X177300000Y-106475000D03*
%TD*%
D15*
%TO.P,M3,1,INT*%
%TO.N,unconnected-(M3-INT-Pad1)*%
X148592583Y-124249936D03*
%TO.P,M3,2,SENB/CS*%
%TO.N,+3.3V*%
X148592583Y-124750064D03*
%TO.P,M3,3,SCL/SCLK*%
%TO.N,SCL_3V*%
X148592583Y-125249936D03*
%TO.P,M3,4,NC*%
%TO.N,GND*%
X148592583Y-125750064D03*
D16*
%TO.P,M3,5,SDA/MOSI*%
%TO.N,SDA_3V*%
X149249936Y-126407417D03*
%TO.P,M3,6,MISO*%
%TO.N,unconnected-(M3-MISO-Pad6)*%
X149750064Y-126407417D03*
%TO.P,M3,7,INT/TRG*%
%TO.N,Net-(M3-INT{slash}TRG)*%
X150249936Y-126407417D03*
%TO.P,M3,8,VDD_IO*%
%TO.N,+3.3V*%
X150750064Y-126407417D03*
D15*
%TO.P,M3,9,NC*%
%TO.N,GND*%
X151407417Y-125750064D03*
%TO.P,M3,10,NC*%
X151407417Y-125249936D03*
%TO.P,M3,11,A1*%
%TO.N,+3.3V*%
X151407417Y-124750064D03*
%TO.P,M3,12,A0*%
%TO.N,GND*%
X151407417Y-124249936D03*
D16*
%TO.P,M3,13,VSS*%
X150750064Y-123592583D03*
%TO.P,M3,14,NC*%
X150249936Y-123592583D03*
%TO.P,M3,15,VDD*%
%TO.N,+3.3V*%
X149750064Y-123592583D03*
%TO.P,M3,16,NC*%
%TO.N,GND*%
X149249936Y-123592583D03*
D17*
%TO.P,M3,17,EP*%
%TO.N,unconnected-(M3-EP-Pad17)*%
X150000000Y-125000000D03*
%TD*%
D20*
%TO.N,+3.3V*%
X170400000Y-98750000D03*
X144900000Y-123000000D03*
X174750000Y-119700000D03*
X175200000Y-95150000D03*
X145400000Y-98350000D03*
X150250000Y-94900000D03*
X149200000Y-112800000D03*
X160000000Y-123000000D03*
X151400000Y-128400000D03*
X178100000Y-104100000D03*
X149750000Y-119400000D03*
X153250000Y-102000000D03*
X183400000Y-118800000D03*
X183200000Y-128000000D03*
X183400000Y-97800000D03*
X170200000Y-123700000D03*
X176650000Y-128750000D03*
%TO.N,GND*%
X158800000Y-97200000D03*
X154750000Y-125750000D03*
X172800000Y-133400000D03*
X158400000Y-103050000D03*
X146500000Y-127000000D03*
X183400000Y-99400000D03*
X177300000Y-109900000D03*
X176600000Y-96400000D03*
X152200000Y-121200000D03*
X171200000Y-126600000D03*
X138000000Y-128000000D03*
X151400000Y-96600000D03*
X145500000Y-102000000D03*
X170950000Y-101650000D03*
X178383411Y-126583411D03*
X137500000Y-123500000D03*
X158700000Y-95750000D03*
X159800000Y-121800000D03*
X173600000Y-96400000D03*
X179200000Y-100950000D03*
X157000000Y-100874500D03*
X176600000Y-121400000D03*
X158400000Y-128350000D03*
X148500000Y-96000000D03*
X135800000Y-118800000D03*
X173600000Y-121600000D03*
X148400000Y-121400000D03*
%TO.N,SCL_3V*%
X146250000Y-100250000D03*
X157000000Y-107000000D03*
X170750000Y-125250000D03*
X170500000Y-100250000D03*
X146000000Y-125250000D03*
%TD*%
D21*
%TO.N,+3.3V*%
X143050000Y-122550000D02*
X144450000Y-122550000D01*
X176435000Y-99250000D02*
X177350000Y-99250000D01*
X150750000Y-102650000D02*
X150850000Y-102750000D01*
X175750000Y-102800000D02*
X177050000Y-104100000D01*
X150750000Y-127750000D02*
X151400000Y-128400000D01*
X141637500Y-122550000D02*
X143050000Y-122550000D01*
X153450000Y-124750000D02*
X153800000Y-124400000D01*
X173565000Y-124750000D02*
X171250000Y-124750000D01*
X150750000Y-126435000D02*
X150750000Y-127750000D01*
X148565000Y-124750000D02*
X146650000Y-124750000D01*
X141600000Y-125500000D02*
X141000000Y-126100000D01*
X171250000Y-124750000D02*
X170200000Y-123700000D01*
X143400000Y-125100000D02*
X143000000Y-125500000D01*
X152500000Y-102750000D02*
X153250000Y-102000000D01*
X151600000Y-116650000D02*
X153575000Y-116650000D01*
X158600000Y-124400000D02*
X155800000Y-124400000D01*
X143000000Y-125500000D02*
X143400000Y-125900000D01*
X149200000Y-110850000D02*
X149200000Y-112800000D01*
X143400000Y-125900000D02*
X143400000Y-126525000D01*
X177550000Y-124250000D02*
X178600000Y-123200000D01*
X175750000Y-126435000D02*
X175750000Y-127850000D01*
X149750000Y-119400000D02*
X149750000Y-118500000D01*
X150750000Y-101435000D02*
X150750000Y-102650000D01*
X143400000Y-122900000D02*
X143400000Y-125100000D01*
X177350000Y-99250000D02*
X178800000Y-97800000D01*
X146650000Y-124750000D02*
X144900000Y-123000000D01*
X145400000Y-98400000D02*
X145400000Y-98350000D01*
X149750000Y-123565000D02*
X149750000Y-119400000D01*
X178600000Y-123200000D02*
X180600000Y-123200000D01*
X153800000Y-124400000D02*
X155800000Y-124400000D01*
X151300000Y-108750000D02*
X149200000Y-110850000D01*
X144450000Y-122550000D02*
X144900000Y-123000000D01*
X149750000Y-95400000D02*
X149750000Y-98565000D01*
X175750000Y-101435000D02*
X175750000Y-102800000D01*
X178800000Y-97800000D02*
X179800000Y-97800000D01*
X148565000Y-99750000D02*
X146750000Y-99750000D01*
X174750000Y-98565000D02*
X174750000Y-95600000D01*
X173565000Y-99750000D02*
X171400000Y-99750000D01*
X175750000Y-127850000D02*
X176650000Y-128750000D01*
X146750000Y-99750000D02*
X145400000Y-98400000D01*
X153675000Y-108750000D02*
X153800000Y-108625000D01*
X176435000Y-124750000D02*
X176485000Y-124800000D01*
X143000000Y-125500000D02*
X141600000Y-125500000D01*
X148137500Y-116650000D02*
X151600000Y-116650000D01*
X141000000Y-126100000D02*
X141000000Y-126525000D01*
X150850000Y-102750000D02*
X152500000Y-102750000D01*
X174750000Y-95600000D02*
X175200000Y-95150000D01*
X182600000Y-123200000D02*
X180600000Y-123200000D01*
X183400000Y-118800000D02*
X183400000Y-122400000D01*
X149750000Y-118500000D02*
X151600000Y-116650000D01*
X143050000Y-122550000D02*
X143400000Y-122900000D01*
X176435000Y-124250000D02*
X177550000Y-124250000D01*
X183200000Y-128000000D02*
X183200000Y-125200000D01*
X171400000Y-99750000D02*
X170400000Y-98750000D01*
X183400000Y-122400000D02*
X182600000Y-123200000D01*
X182800000Y-97800000D02*
X183400000Y-97800000D01*
X174750000Y-123565000D02*
X174750000Y-119700000D01*
X153575000Y-116650000D02*
X153700000Y-116525000D01*
X176485000Y-124800000D02*
X180600000Y-124800000D01*
X179800000Y-97800000D02*
X182800000Y-97800000D01*
X177050000Y-104100000D02*
X178100000Y-104100000D01*
X160000000Y-123000000D02*
X158600000Y-124400000D01*
X183200000Y-125200000D02*
X182800000Y-124800000D01*
X151435000Y-124750000D02*
X153450000Y-124750000D01*
X148037500Y-108750000D02*
X151300000Y-108750000D01*
X150250000Y-94900000D02*
X149750000Y-95400000D01*
X182800000Y-124800000D02*
X180600000Y-124800000D01*
X151300000Y-108750000D02*
X153675000Y-108750000D01*
%TO.N,GND*%
X177550000Y-125750000D02*
X178400000Y-126600000D01*
X156375500Y-100250000D02*
X153800000Y-100250000D01*
X149250000Y-123565000D02*
X149250000Y-122250000D01*
X156850000Y-97600000D02*
X154400000Y-97600000D01*
X148565000Y-125750000D02*
X147750000Y-125750000D01*
X171850000Y-100750000D02*
X170950000Y-101650000D01*
X175250000Y-98565000D02*
X175250000Y-96750000D01*
X139362500Y-123500000D02*
X137500000Y-123500000D01*
X154200000Y-99200000D02*
X153650000Y-99750000D01*
X153650000Y-99750000D02*
X151435000Y-99750000D01*
X150250000Y-122350000D02*
X151400000Y-121200000D01*
X176435000Y-125750000D02*
X177550000Y-125750000D01*
X150750000Y-98565000D02*
X150750000Y-97250000D01*
X173565000Y-125750000D02*
X172050000Y-125750000D01*
X172800000Y-132225000D02*
X172800000Y-133400000D01*
X158800000Y-97200000D02*
X156800000Y-99200000D01*
X150400000Y-96600000D02*
X151400000Y-96600000D01*
X175750000Y-123565000D02*
X175750000Y-122250000D01*
X178400000Y-126566822D02*
X178383411Y-126583411D01*
X150250000Y-98565000D02*
X150250000Y-96750000D01*
X177300000Y-108300000D02*
X177300000Y-109900000D01*
X137900000Y-114100000D02*
X137630000Y-113830000D01*
X149250000Y-122250000D02*
X148400000Y-121400000D01*
X151435000Y-124250000D02*
X152550000Y-124250000D01*
X174250000Y-97050000D02*
X173600000Y-96400000D01*
X135800000Y-118800000D02*
X137900000Y-116700000D01*
X142275000Y-129200000D02*
X143400000Y-128075000D01*
X154750000Y-125750000D02*
X151435000Y-125750000D01*
X154250000Y-125250000D02*
X151435000Y-125250000D01*
X156800000Y-99200000D02*
X154200000Y-99200000D01*
X157000000Y-100874500D02*
X156875500Y-100750000D01*
X176435000Y-125250000D02*
X178050000Y-125250000D01*
X148565000Y-100750000D02*
X146750000Y-100750000D01*
X139875000Y-129200000D02*
X142275000Y-129200000D01*
X137900000Y-116700000D02*
X137900000Y-114100000D01*
X158400000Y-103050000D02*
X156500000Y-103050000D01*
X158400000Y-128350000D02*
X156775000Y-128350000D01*
X178000000Y-99400000D02*
X179800000Y-99400000D01*
X149250000Y-96750000D02*
X148500000Y-96000000D01*
X155800000Y-122800000D02*
X158800000Y-122800000D01*
X151435000Y-100250000D02*
X153800000Y-100250000D01*
X146750000Y-100750000D02*
X145500000Y-102000000D01*
X134500000Y-129000000D02*
X134500000Y-128050000D01*
X136500000Y-129200000D02*
X134700000Y-129200000D01*
X175250000Y-121750000D02*
X175600000Y-121400000D01*
X139875000Y-129200000D02*
X141000000Y-128075000D01*
X175250000Y-96750000D02*
X175600000Y-96400000D01*
X175750000Y-122250000D02*
X176600000Y-121400000D01*
X150750000Y-97250000D02*
X151400000Y-96600000D01*
X175250000Y-123565000D02*
X175250000Y-121750000D01*
X152200000Y-121200000D02*
X150750000Y-122650000D01*
X152550000Y-124250000D02*
X154000000Y-122800000D01*
X150250000Y-96750000D02*
X150400000Y-96600000D01*
X134700000Y-129200000D02*
X134500000Y-129000000D01*
X175600000Y-121400000D02*
X176600000Y-121400000D01*
X154400000Y-97600000D02*
X152750000Y-99250000D01*
X154750000Y-125750000D02*
X154250000Y-125250000D01*
X175750000Y-97250000D02*
X176600000Y-96400000D01*
X175750000Y-98565000D02*
X175750000Y-97250000D01*
X176435000Y-100250000D02*
X178500000Y-100250000D01*
X137630000Y-113830000D02*
X135550000Y-113830000D01*
X158700000Y-95750000D02*
X156850000Y-97600000D01*
X176435000Y-99750000D02*
X177650000Y-99750000D01*
X139875000Y-129200000D02*
X136500000Y-129200000D01*
X158800000Y-122800000D02*
X159800000Y-121800000D01*
X179800000Y-99400000D02*
X183400000Y-99400000D01*
X173565000Y-100750000D02*
X171850000Y-100750000D01*
X152750000Y-99250000D02*
X151435000Y-99250000D01*
X176435000Y-100750000D02*
X179000000Y-100750000D01*
X154000000Y-122800000D02*
X155800000Y-122800000D01*
X151400000Y-121200000D02*
X152200000Y-121200000D01*
X136800000Y-129200000D02*
X138000000Y-128000000D01*
X174250000Y-123565000D02*
X174250000Y-122250000D01*
X178400000Y-126600000D02*
X178383411Y-126583411D01*
X175600000Y-96400000D02*
X176600000Y-96400000D01*
X150250000Y-123565000D02*
X150250000Y-122350000D01*
X179000000Y-100750000D02*
X179200000Y-100950000D01*
X177650000Y-99750000D02*
X178000000Y-99400000D01*
X178500000Y-100250000D02*
X179200000Y-100950000D01*
X174250000Y-122250000D02*
X173600000Y-121600000D01*
X178050000Y-125250000D02*
X178400000Y-125600000D01*
X174250000Y-98565000D02*
X174250000Y-97050000D01*
X150750000Y-122650000D02*
X150750000Y-123565000D01*
X157000000Y-100874500D02*
X156375500Y-100250000D01*
X178400000Y-125600000D02*
X178400000Y-126566822D01*
X149250000Y-98565000D02*
X149250000Y-96750000D01*
X147750000Y-125750000D02*
X146500000Y-127000000D01*
X172050000Y-125750000D02*
X171200000Y-126600000D01*
X156875500Y-100750000D02*
X151435000Y-100750000D01*
X136500000Y-129200000D02*
X136800000Y-129200000D01*
%TO.N,VCC*%
X144500000Y-111925000D02*
X144475000Y-111950000D01*
X134500000Y-123200000D02*
X135050000Y-122650000D01*
X139600000Y-119200000D02*
X138500000Y-119200000D01*
X134500000Y-126500000D02*
X134500000Y-125300000D01*
X135550000Y-108750000D02*
X137750000Y-108750000D01*
X134500000Y-124000000D02*
X134500000Y-123300000D01*
X138200000Y-105300000D02*
X138500000Y-105000000D01*
X144575000Y-119200000D02*
X139600000Y-119200000D01*
X138500000Y-119200000D02*
X135050000Y-122650000D01*
X138500000Y-105000000D02*
X142700000Y-105000000D01*
X136450000Y-122550000D02*
X135150000Y-122550000D01*
X135150000Y-122550000D02*
X139362500Y-122550000D01*
X138200000Y-117800000D02*
X139600000Y-119200000D01*
X137750000Y-108750000D02*
X138200000Y-108300000D01*
X144500000Y-106800000D02*
X144500000Y-111925000D01*
X138200000Y-108300000D02*
X138200000Y-117800000D01*
X142700000Y-105000000D02*
X144500000Y-106800000D01*
X134500000Y-125300000D02*
X134500000Y-124000000D01*
X138200000Y-108300000D02*
X138200000Y-105300000D01*
X136150000Y-122550000D02*
X136450000Y-122550000D01*
X134500000Y-123300000D02*
X134500000Y-123200000D01*
X135050000Y-122650000D02*
X135150000Y-122550000D01*
%TO.N,SCL*%
X146200000Y-112025000D02*
X146125000Y-111950000D01*
X145100000Y-113950000D02*
X146200000Y-112850000D01*
X140920000Y-113750000D02*
X141120000Y-113950000D01*
X146162500Y-107800000D02*
X146162500Y-111662500D01*
X146200000Y-112850000D02*
X146200000Y-112025000D01*
X141120000Y-113950000D02*
X145100000Y-113950000D01*
%TO.N,SDA*%
X138500000Y-117300000D02*
X138500000Y-112000000D01*
X146262500Y-116637500D02*
X145300000Y-117600000D01*
X146262500Y-119162500D02*
X146225000Y-119200000D01*
X139210000Y-111290000D02*
X141000000Y-111290000D01*
X146262500Y-115700000D02*
X146262500Y-116637500D01*
X138500000Y-112000000D02*
X139210000Y-111290000D01*
X138800000Y-117600000D02*
X138500000Y-117300000D01*
X146262500Y-115700000D02*
X146262500Y-119162500D01*
X145300000Y-117600000D02*
X138800000Y-117600000D01*
%TO.N,SCL_3V*%
X153675000Y-106850000D02*
X153800000Y-106975000D01*
X148565000Y-125250000D02*
X146000000Y-125250000D01*
X170500000Y-100250000D02*
X173565000Y-100250000D01*
X173565000Y-125250000D02*
X170750000Y-125250000D01*
X148565000Y-100250000D02*
X146250000Y-100250000D01*
X157000000Y-107000000D02*
X153825000Y-107000000D01*
X153825000Y-107000000D02*
X153800000Y-106975000D01*
X148037500Y-106850000D02*
X153675000Y-106850000D01*
%TO.N,SDA_3V*%
X149250000Y-103400000D02*
X149850000Y-104000000D01*
X174250000Y-126435000D02*
X174250000Y-127750000D01*
X174250000Y-127750000D02*
X172500000Y-129500000D01*
X149250000Y-101435000D02*
X149250000Y-103400000D01*
X150000000Y-129500000D02*
X158500000Y-129500000D01*
X167550000Y-129500000D02*
X162500000Y-124450000D01*
X159000000Y-104000000D02*
X162500000Y-107500000D01*
X172500000Y-129500000D02*
X167550000Y-129500000D01*
X162500000Y-108200000D02*
X162500000Y-112500000D01*
X160125000Y-114875000D02*
X153700000Y-114875000D01*
X173000000Y-104000000D02*
X166750000Y-104000000D01*
X149250000Y-128750000D02*
X150000000Y-129500000D01*
X162500000Y-114000000D02*
X162500000Y-125500000D01*
X148137500Y-114750000D02*
X153575000Y-114750000D01*
X162500000Y-114000000D02*
X162500000Y-112500000D01*
X149250000Y-126435000D02*
X149250000Y-128750000D01*
X158500000Y-129500000D02*
X162500000Y-125500000D01*
X149850000Y-104000000D02*
X159000000Y-104000000D01*
X162550000Y-108200000D02*
X162500000Y-108200000D01*
X162500000Y-124450000D02*
X162500000Y-125500000D01*
X162500000Y-112500000D02*
X160125000Y-114875000D01*
X174250000Y-101435000D02*
X174250000Y-102750000D01*
X153575000Y-114750000D02*
X153700000Y-114875000D01*
X162500000Y-107500000D02*
X162500000Y-108200000D01*
X174250000Y-102750000D02*
X173000000Y-104000000D01*
X166750000Y-104000000D02*
X162550000Y-108200000D01*
%TO.N,Net-(M1-INT{slash}TRG)*%
X150650000Y-103150000D02*
X154450000Y-103150000D01*
X154450000Y-103150000D02*
X154850000Y-102750000D01*
X150250000Y-101435000D02*
X150250000Y-102750000D01*
X150250000Y-102750000D02*
X150650000Y-103150000D01*
%TO.N,Net-(M2-INT{slash}TRG)*%
X177300000Y-105300000D02*
X175250000Y-103250000D01*
X175250000Y-103250000D02*
X175250000Y-101435000D01*
X177300000Y-106650000D02*
X177300000Y-105300000D01*
%TO.N,Net-(M3-INT{slash}TRG)*%
X150250000Y-128850000D02*
X150450000Y-129050000D01*
X150450000Y-129050000D02*
X152750000Y-129050000D01*
X152750000Y-129050000D02*
X153450000Y-128350000D01*
X153450000Y-128350000D02*
X155125000Y-128350000D01*
X150250000Y-126435000D02*
X150250000Y-128850000D01*
%TO.N,Net-(M4-INT{slash}TRG)*%
X173724264Y-128700000D02*
X174800000Y-128700000D01*
X172800000Y-130575000D02*
X172800000Y-129624264D01*
X172800000Y-129624264D02*
X173724264Y-128700000D01*
X175250000Y-128250000D02*
X175250000Y-126435000D01*
X174800000Y-128700000D02*
X175250000Y-128250000D01*
%TD*%
M02*
