%TF.GenerationSoftware,KiCad,Pcbnew,7.0.6*%
%TF.CreationDate,2023-08-06T23:15:07-05:00*%
%TF.ProjectId,MLX90393_board2,4d4c5839-3033-4393-935f-626f61726432,rev?*%
%TF.SameCoordinates,Original*%
%TF.FileFunction,Copper,L3,Inr*%
%TF.FilePolarity,Positive*%
%FSLAX46Y46*%
G04 Gerber Fmt 4.6, Leading zero omitted, Abs format (unit mm)*
G04 Created by KiCad (PCBNEW 7.0.6) date 2023-08-06 23:15:07*
%MOMM*%
%LPD*%
G01*
G04 APERTURE LIST*
%TA.AperFunction,ViaPad*%
%ADD10C,0.800000*%
%TD*%
G04 APERTURE END LIST*
D10*
%TO.N,+3.3V*%
X170400000Y-98750000D03*
X144900000Y-123000000D03*
X174750000Y-119700000D03*
X175200000Y-95150000D03*
X145400000Y-98350000D03*
X150250000Y-94900000D03*
X149200000Y-112800000D03*
X160000000Y-123000000D03*
X151400000Y-128400000D03*
X178100000Y-104100000D03*
X149750000Y-119400000D03*
X153250000Y-102000000D03*
X183400000Y-118800000D03*
X183200000Y-128000000D03*
X183400000Y-97800000D03*
X170200000Y-123700000D03*
X176650000Y-128750000D03*
%TO.N,GND*%
X158800000Y-97200000D03*
X154750000Y-125750000D03*
X172800000Y-133400000D03*
X158400000Y-103050000D03*
X146500000Y-127000000D03*
X183400000Y-99400000D03*
X177300000Y-109900000D03*
X176600000Y-96400000D03*
X152200000Y-121200000D03*
X171200000Y-126600000D03*
X138000000Y-128000000D03*
X151400000Y-96600000D03*
X145500000Y-102000000D03*
X170950000Y-101650000D03*
X178383411Y-126583411D03*
X137500000Y-123500000D03*
X158700000Y-95750000D03*
X159800000Y-121800000D03*
X173600000Y-96400000D03*
X179200000Y-100950000D03*
X157000000Y-100874500D03*
X176600000Y-121400000D03*
X158400000Y-128350000D03*
X148500000Y-96000000D03*
X135800000Y-118800000D03*
X173600000Y-121600000D03*
X148400000Y-121400000D03*
%TO.N,SCL_3V*%
X146250000Y-100250000D03*
X157000000Y-107000000D03*
X170750000Y-125250000D03*
X170500000Y-100250000D03*
X146000000Y-125250000D03*
%TD*%
%TA.AperFunction,Conductor*%
%TO.N,+3.3V*%
G36*
X180141997Y-91120185D02*
G01*
X180187752Y-91172989D01*
X180197696Y-91242147D01*
X180168671Y-91305703D01*
X180117368Y-91341022D01*
X179888897Y-91424178D01*
X179888891Y-91424181D01*
X179597380Y-91570584D01*
X179324815Y-91749852D01*
X179074931Y-91959530D01*
X179074930Y-91959531D01*
X179074924Y-91959536D01*
X179074923Y-91959538D01*
X178851057Y-92196823D01*
X178851054Y-92196826D01*
X178851052Y-92196829D01*
X178851045Y-92196837D01*
X178656251Y-92458490D01*
X178493143Y-92741003D01*
X178493137Y-92741016D01*
X178363931Y-93040547D01*
X178270369Y-93353067D01*
X178270367Y-93353075D01*
X178213723Y-93674319D01*
X178213722Y-93674330D01*
X178194754Y-93999996D01*
X178194754Y-94000003D01*
X178213722Y-94325669D01*
X178213723Y-94325680D01*
X178270367Y-94646924D01*
X178270369Y-94646932D01*
X178363931Y-94959452D01*
X178493137Y-95258983D01*
X178493143Y-95258996D01*
X178656251Y-95541509D01*
X178851045Y-95803162D01*
X178851050Y-95803168D01*
X178851057Y-95803177D01*
X179074923Y-96040462D01*
X179074929Y-96040467D01*
X179074930Y-96040468D01*
X179074931Y-96040469D01*
X179324815Y-96250147D01*
X179324818Y-96250149D01*
X179324823Y-96250153D01*
X179597377Y-96429414D01*
X179888899Y-96575822D01*
X180195446Y-96687396D01*
X180195452Y-96687397D01*
X180195454Y-96687398D01*
X180512858Y-96762625D01*
X180512865Y-96762626D01*
X180512874Y-96762628D01*
X180836889Y-96800500D01*
X180836896Y-96800500D01*
X181163104Y-96800500D01*
X181163111Y-96800500D01*
X181487126Y-96762628D01*
X181487135Y-96762625D01*
X181487141Y-96762625D01*
X181743176Y-96701942D01*
X181804554Y-96687396D01*
X182111101Y-96575822D01*
X182402623Y-96429414D01*
X182675177Y-96250153D01*
X182925077Y-96040462D01*
X183148943Y-95803177D01*
X183343749Y-95541508D01*
X183506859Y-95258992D01*
X183636069Y-94959451D01*
X183656709Y-94890507D01*
X183694794Y-94831930D01*
X183758502Y-94803242D01*
X183827607Y-94813551D01*
X183880168Y-94859584D01*
X183899500Y-94926071D01*
X183899500Y-98445728D01*
X183879815Y-98512767D01*
X183827011Y-98558522D01*
X183757853Y-98568466D01*
X183725064Y-98559007D01*
X183679807Y-98538857D01*
X183679802Y-98538855D01*
X183534000Y-98507865D01*
X183494646Y-98499500D01*
X183305354Y-98499500D01*
X183272897Y-98506398D01*
X183120197Y-98538855D01*
X183120192Y-98538857D01*
X182947270Y-98615848D01*
X182947265Y-98615851D01*
X182794129Y-98727111D01*
X182667466Y-98867785D01*
X182572821Y-99031715D01*
X182572818Y-99031722D01*
X182514327Y-99211740D01*
X182514326Y-99211744D01*
X182494540Y-99400000D01*
X182514326Y-99588256D01*
X182514327Y-99588259D01*
X182572818Y-99768277D01*
X182572821Y-99768284D01*
X182667467Y-99932216D01*
X182705090Y-99974000D01*
X182794129Y-100072888D01*
X182947265Y-100184148D01*
X182947270Y-100184151D01*
X183120192Y-100261142D01*
X183120197Y-100261144D01*
X183305354Y-100300500D01*
X183305355Y-100300500D01*
X183494644Y-100300500D01*
X183494646Y-100300500D01*
X183679803Y-100261144D01*
X183725065Y-100240991D01*
X183794312Y-100231706D01*
X183857589Y-100261334D01*
X183894804Y-100320468D01*
X183899500Y-100354271D01*
X183899500Y-130073928D01*
X183879815Y-130140967D01*
X183827011Y-130186722D01*
X183757853Y-130196666D01*
X183694297Y-130167641D01*
X183656709Y-130109492D01*
X183636068Y-130040547D01*
X183506859Y-129741008D01*
X183343749Y-129458492D01*
X183343748Y-129458490D01*
X183148954Y-129196837D01*
X183148947Y-129196829D01*
X183148943Y-129196823D01*
X182925077Y-128959538D01*
X182925069Y-128959531D01*
X182925068Y-128959530D01*
X182675184Y-128749852D01*
X182675179Y-128749848D01*
X182675177Y-128749847D01*
X182402623Y-128570586D01*
X182326218Y-128532214D01*
X182111108Y-128424181D01*
X182111102Y-128424178D01*
X181804566Y-128312608D01*
X181804545Y-128312601D01*
X181487141Y-128237374D01*
X181487126Y-128237372D01*
X181487125Y-128237372D01*
X181163111Y-128199500D01*
X180836889Y-128199500D01*
X180553375Y-128232638D01*
X180512873Y-128237372D01*
X180512858Y-128237374D01*
X180195454Y-128312601D01*
X180195433Y-128312608D01*
X179888897Y-128424178D01*
X179888891Y-128424181D01*
X179597380Y-128570584D01*
X179324815Y-128749852D01*
X179074931Y-128959530D01*
X179074930Y-128959531D01*
X179074924Y-128959536D01*
X179074923Y-128959538D01*
X178851057Y-129196823D01*
X178851054Y-129196826D01*
X178851052Y-129196829D01*
X178851045Y-129196837D01*
X178656251Y-129458490D01*
X178493143Y-129741003D01*
X178493137Y-129741016D01*
X178363931Y-130040547D01*
X178270369Y-130353067D01*
X178270367Y-130353075D01*
X178213723Y-130674319D01*
X178213722Y-130674330D01*
X178194754Y-130999996D01*
X178194754Y-131000003D01*
X178213722Y-131325669D01*
X178213723Y-131325680D01*
X178270367Y-131646924D01*
X178270369Y-131646932D01*
X178363931Y-131959452D01*
X178493137Y-132258983D01*
X178493143Y-132258996D01*
X178656251Y-132541509D01*
X178851045Y-132803162D01*
X178851050Y-132803168D01*
X178851057Y-132803177D01*
X179074923Y-133040462D01*
X179074929Y-133040467D01*
X179074930Y-133040468D01*
X179074931Y-133040469D01*
X179324815Y-133250147D01*
X179324818Y-133250149D01*
X179324823Y-133250153D01*
X179597377Y-133429414D01*
X179888899Y-133575822D01*
X180069463Y-133641542D01*
X180117368Y-133658978D01*
X180173632Y-133700404D01*
X180198568Y-133765673D01*
X180184258Y-133834062D01*
X180135246Y-133883857D01*
X180074958Y-133899500D01*
X173755216Y-133899500D01*
X173688177Y-133879815D01*
X173642422Y-133827011D01*
X173632478Y-133757853D01*
X173637285Y-133737182D01*
X173653461Y-133687396D01*
X173685674Y-133588256D01*
X173705460Y-133400000D01*
X173685674Y-133211744D01*
X173627179Y-133031716D01*
X173532533Y-132867784D01*
X173405871Y-132727112D01*
X173405870Y-132727111D01*
X173252734Y-132615851D01*
X173252729Y-132615848D01*
X173079807Y-132538857D01*
X173079802Y-132538855D01*
X172934000Y-132507865D01*
X172894646Y-132499500D01*
X172705354Y-132499500D01*
X172672897Y-132506398D01*
X172520197Y-132538855D01*
X172520192Y-132538857D01*
X172347270Y-132615848D01*
X172347265Y-132615851D01*
X172194129Y-132727111D01*
X172067466Y-132867785D01*
X171972821Y-133031715D01*
X171972818Y-133031722D01*
X171924418Y-133180683D01*
X171914326Y-133211744D01*
X171894540Y-133400000D01*
X171914326Y-133588256D01*
X171914327Y-133588259D01*
X171962715Y-133737182D01*
X171964710Y-133807023D01*
X171928630Y-133866856D01*
X171865929Y-133897684D01*
X171844784Y-133899500D01*
X127875042Y-133899500D01*
X127808003Y-133879815D01*
X127762248Y-133827011D01*
X127752304Y-133757853D01*
X127781329Y-133694297D01*
X127832632Y-133658978D01*
X127855916Y-133650502D01*
X128061101Y-133575822D01*
X128352623Y-133429414D01*
X128625177Y-133250153D01*
X128875077Y-133040462D01*
X129098943Y-132803177D01*
X129293749Y-132541508D01*
X129456859Y-132258992D01*
X129586069Y-131959451D01*
X129679630Y-131646934D01*
X129736278Y-131325669D01*
X129755246Y-131000000D01*
X129736278Y-130674331D01*
X129679630Y-130353066D01*
X129586069Y-130040549D01*
X129456859Y-129741008D01*
X129293749Y-129458492D01*
X129293748Y-129458490D01*
X129098954Y-129196837D01*
X129098947Y-129196829D01*
X129098943Y-129196823D01*
X128875077Y-128959538D01*
X128875069Y-128959531D01*
X128875068Y-128959530D01*
X128625184Y-128749852D01*
X128625179Y-128749848D01*
X128625177Y-128749847D01*
X128352623Y-128570586D01*
X128276218Y-128532214D01*
X128061108Y-128424181D01*
X128061102Y-128424178D01*
X127754566Y-128312608D01*
X127754545Y-128312601D01*
X127437141Y-128237374D01*
X127437126Y-128237372D01*
X127437125Y-128237372D01*
X127113111Y-128199500D01*
X126786889Y-128199500D01*
X126503375Y-128232638D01*
X126462873Y-128237372D01*
X126462858Y-128237374D01*
X126145454Y-128312601D01*
X126145433Y-128312608D01*
X125838897Y-128424178D01*
X125838891Y-128424181D01*
X125547380Y-128570584D01*
X125274815Y-128749852D01*
X125024931Y-128959530D01*
X125024930Y-128959531D01*
X125024924Y-128959536D01*
X125024923Y-128959538D01*
X124801057Y-129196823D01*
X124801054Y-129196826D01*
X124801052Y-129196829D01*
X124801045Y-129196837D01*
X124606251Y-129458490D01*
X124443143Y-129741003D01*
X124443137Y-129741016D01*
X124313931Y-130040547D01*
X124293291Y-130109492D01*
X124255206Y-130168069D01*
X124191497Y-130196758D01*
X124122392Y-130186448D01*
X124069831Y-130140415D01*
X124050500Y-130073928D01*
X124050500Y-128000000D01*
X137094540Y-128000000D01*
X137114326Y-128188256D01*
X137114327Y-128188259D01*
X137172818Y-128368277D01*
X137172821Y-128368284D01*
X137267467Y-128532216D01*
X137302014Y-128570584D01*
X137394129Y-128672888D01*
X137547265Y-128784148D01*
X137547270Y-128784151D01*
X137720192Y-128861142D01*
X137720197Y-128861144D01*
X137905354Y-128900500D01*
X137905355Y-128900500D01*
X138094644Y-128900500D01*
X138094646Y-128900500D01*
X138279803Y-128861144D01*
X138452730Y-128784151D01*
X138605871Y-128672888D01*
X138732533Y-128532216D01*
X138827179Y-128368284D01*
X138833120Y-128350000D01*
X157494540Y-128350000D01*
X157514326Y-128538256D01*
X157514327Y-128538259D01*
X157572818Y-128718277D01*
X157572821Y-128718284D01*
X157667467Y-128882216D01*
X157744642Y-128967927D01*
X157794129Y-129022888D01*
X157947265Y-129134148D01*
X157947270Y-129134151D01*
X158120192Y-129211142D01*
X158120197Y-129211144D01*
X158305354Y-129250500D01*
X158305355Y-129250500D01*
X158494644Y-129250500D01*
X158494646Y-129250500D01*
X158679803Y-129211144D01*
X158852730Y-129134151D01*
X159005871Y-129022888D01*
X159132533Y-128882216D01*
X159227179Y-128718284D01*
X159285674Y-128538256D01*
X159305460Y-128350000D01*
X159285674Y-128161744D01*
X159227179Y-127981716D01*
X159132533Y-127817784D01*
X159005871Y-127677112D01*
X159005870Y-127677111D01*
X158852734Y-127565851D01*
X158852729Y-127565848D01*
X158679807Y-127488857D01*
X158679802Y-127488855D01*
X158534000Y-127457865D01*
X158494646Y-127449500D01*
X158305354Y-127449500D01*
X158272897Y-127456398D01*
X158120197Y-127488855D01*
X158120192Y-127488857D01*
X157947270Y-127565848D01*
X157947265Y-127565851D01*
X157794129Y-127677111D01*
X157667466Y-127817785D01*
X157572821Y-127981715D01*
X157572818Y-127981722D01*
X157514327Y-128161740D01*
X157514326Y-128161744D01*
X157494540Y-128350000D01*
X138833120Y-128350000D01*
X138885674Y-128188256D01*
X138905460Y-128000000D01*
X138885674Y-127811744D01*
X138827179Y-127631716D01*
X138732533Y-127467784D01*
X138605871Y-127327112D01*
X138605870Y-127327111D01*
X138452734Y-127215851D01*
X138452729Y-127215848D01*
X138279807Y-127138857D01*
X138279802Y-127138855D01*
X138134001Y-127107865D01*
X138094646Y-127099500D01*
X137905354Y-127099500D01*
X137872897Y-127106398D01*
X137720197Y-127138855D01*
X137720192Y-127138857D01*
X137547270Y-127215848D01*
X137547265Y-127215851D01*
X137394129Y-127327111D01*
X137267466Y-127467785D01*
X137172821Y-127631715D01*
X137172818Y-127631722D01*
X137114327Y-127811740D01*
X137114326Y-127811744D01*
X137094540Y-128000000D01*
X124050500Y-128000000D01*
X124050500Y-125250000D01*
X145094540Y-125250000D01*
X145114326Y-125438256D01*
X145114327Y-125438259D01*
X145172818Y-125618277D01*
X145172820Y-125618282D01*
X145172821Y-125618284D01*
X145267467Y-125782216D01*
X145385697Y-125913523D01*
X145394129Y-125922888D01*
X145547265Y-126034148D01*
X145547270Y-126034151D01*
X145720191Y-126111142D01*
X145720193Y-126111142D01*
X145720197Y-126111144D01*
X145819330Y-126132215D01*
X145880808Y-126165406D01*
X145914585Y-126226568D01*
X145909933Y-126296283D01*
X145885696Y-126336476D01*
X145767466Y-126467784D01*
X145672821Y-126631715D01*
X145672818Y-126631722D01*
X145614327Y-126811740D01*
X145614326Y-126811744D01*
X145594540Y-127000000D01*
X145614326Y-127188256D01*
X145614327Y-127188259D01*
X145672818Y-127368277D01*
X145672821Y-127368284D01*
X145767467Y-127532216D01*
X145857063Y-127631722D01*
X145894129Y-127672888D01*
X146047265Y-127784148D01*
X146047270Y-127784151D01*
X146220192Y-127861142D01*
X146220197Y-127861144D01*
X146405354Y-127900500D01*
X146405355Y-127900500D01*
X146594644Y-127900500D01*
X146594646Y-127900500D01*
X146779803Y-127861144D01*
X146952730Y-127784151D01*
X147105871Y-127672888D01*
X147232533Y-127532216D01*
X147327179Y-127368284D01*
X147385674Y-127188256D01*
X147405460Y-127000000D01*
X147385674Y-126811744D01*
X147327179Y-126631716D01*
X147232533Y-126467784D01*
X147105871Y-126327112D01*
X147105870Y-126327111D01*
X146952734Y-126215851D01*
X146952729Y-126215848D01*
X146779807Y-126138857D01*
X146779802Y-126138855D01*
X146680672Y-126117785D01*
X146619190Y-126084593D01*
X146585414Y-126023430D01*
X146590066Y-125953715D01*
X146614303Y-125913523D01*
X146732533Y-125782216D01*
X146751133Y-125750000D01*
X153844540Y-125750000D01*
X153864326Y-125938256D01*
X153864327Y-125938259D01*
X153922818Y-126118277D01*
X153922821Y-126118284D01*
X154017467Y-126282216D01*
X154119158Y-126395155D01*
X154144129Y-126422888D01*
X154297265Y-126534148D01*
X154297270Y-126534151D01*
X154470192Y-126611142D01*
X154470197Y-126611144D01*
X154655354Y-126650500D01*
X154655355Y-126650500D01*
X154844644Y-126650500D01*
X154844646Y-126650500D01*
X155029803Y-126611144D01*
X155202730Y-126534151D01*
X155355871Y-126422888D01*
X155482533Y-126282216D01*
X155577179Y-126118284D01*
X155635674Y-125938256D01*
X155655460Y-125750000D01*
X155635674Y-125561744D01*
X155577179Y-125381716D01*
X155501133Y-125250000D01*
X169844540Y-125250000D01*
X169864326Y-125438256D01*
X169864327Y-125438259D01*
X169922818Y-125618277D01*
X169922820Y-125618282D01*
X169922821Y-125618284D01*
X170017467Y-125782216D01*
X170135697Y-125913523D01*
X170144129Y-125922888D01*
X170297265Y-126034148D01*
X170297268Y-126034150D01*
X170297269Y-126034150D01*
X170297270Y-126034151D01*
X170322300Y-126045295D01*
X170375537Y-126090543D01*
X170395859Y-126157392D01*
X170379255Y-126220568D01*
X170372823Y-126231709D01*
X170372821Y-126231713D01*
X170338782Y-126336476D01*
X170314326Y-126411744D01*
X170313155Y-126422888D01*
X170296284Y-126583411D01*
X170294540Y-126600000D01*
X170314326Y-126788256D01*
X170314327Y-126788259D01*
X170372818Y-126968277D01*
X170372821Y-126968284D01*
X170467467Y-127132216D01*
X170542770Y-127215848D01*
X170594129Y-127272888D01*
X170747265Y-127384148D01*
X170747270Y-127384151D01*
X170920192Y-127461142D01*
X170920197Y-127461144D01*
X171105354Y-127500500D01*
X171105355Y-127500500D01*
X171294644Y-127500500D01*
X171294646Y-127500500D01*
X171479803Y-127461144D01*
X171652730Y-127384151D01*
X171805871Y-127272888D01*
X171932533Y-127132216D01*
X172027179Y-126968284D01*
X172085674Y-126788256D01*
X172105460Y-126600000D01*
X172103716Y-126583411D01*
X177477951Y-126583411D01*
X177497737Y-126771667D01*
X177497738Y-126771670D01*
X177556229Y-126951688D01*
X177556232Y-126951695D01*
X177650878Y-127115627D01*
X177777540Y-127256298D01*
X177777540Y-127256299D01*
X177930676Y-127367559D01*
X177930681Y-127367562D01*
X178103603Y-127444553D01*
X178103608Y-127444555D01*
X178288765Y-127483911D01*
X178288766Y-127483911D01*
X178478055Y-127483911D01*
X178478057Y-127483911D01*
X178663214Y-127444555D01*
X178836141Y-127367562D01*
X178989282Y-127256299D01*
X179115944Y-127115627D01*
X179210590Y-126951695D01*
X179269085Y-126771667D01*
X179288871Y-126583411D01*
X179269085Y-126395155D01*
X179210590Y-126215127D01*
X179115944Y-126051195D01*
X178989282Y-125910523D01*
X178989281Y-125910522D01*
X178836145Y-125799262D01*
X178836140Y-125799259D01*
X178663218Y-125722268D01*
X178663213Y-125722266D01*
X178517411Y-125691276D01*
X178478057Y-125682911D01*
X178288765Y-125682911D01*
X178256308Y-125689809D01*
X178103608Y-125722266D01*
X178103603Y-125722268D01*
X177930681Y-125799259D01*
X177930676Y-125799262D01*
X177777540Y-125910522D01*
X177650877Y-126051196D01*
X177556232Y-126215126D01*
X177556229Y-126215133D01*
X177516803Y-126336476D01*
X177497737Y-126395155D01*
X177477951Y-126583411D01*
X172103716Y-126583411D01*
X172085674Y-126411744D01*
X172027179Y-126231716D01*
X171932533Y-126067784D01*
X171805871Y-125927112D01*
X171805870Y-125927111D01*
X171652730Y-125815848D01*
X171627697Y-125804703D01*
X171574460Y-125759453D01*
X171554139Y-125692604D01*
X171570748Y-125629422D01*
X171577179Y-125618284D01*
X171635674Y-125438256D01*
X171655460Y-125250000D01*
X171635674Y-125061744D01*
X171577179Y-124881716D01*
X171482533Y-124717784D01*
X171355871Y-124577112D01*
X171355870Y-124577111D01*
X171202734Y-124465851D01*
X171202729Y-124465848D01*
X171029807Y-124388857D01*
X171029802Y-124388855D01*
X170884000Y-124357865D01*
X170844646Y-124349500D01*
X170655354Y-124349500D01*
X170622897Y-124356398D01*
X170470197Y-124388855D01*
X170470192Y-124388857D01*
X170297270Y-124465848D01*
X170297265Y-124465851D01*
X170144129Y-124577111D01*
X170017466Y-124717785D01*
X169922821Y-124881715D01*
X169922818Y-124881722D01*
X169864327Y-125061740D01*
X169864326Y-125061744D01*
X169844540Y-125250000D01*
X155501133Y-125250000D01*
X155482533Y-125217784D01*
X155355871Y-125077112D01*
X155334719Y-125061744D01*
X155202734Y-124965851D01*
X155202729Y-124965848D01*
X155029807Y-124888857D01*
X155029802Y-124888855D01*
X154884000Y-124857865D01*
X154844646Y-124849500D01*
X154655354Y-124849500D01*
X154622897Y-124856398D01*
X154470197Y-124888855D01*
X154470192Y-124888857D01*
X154297270Y-124965848D01*
X154297265Y-124965851D01*
X154144129Y-125077111D01*
X154017466Y-125217785D01*
X153922821Y-125381715D01*
X153922818Y-125381722D01*
X153864327Y-125561740D01*
X153864326Y-125561744D01*
X153844540Y-125750000D01*
X146751133Y-125750000D01*
X146827179Y-125618284D01*
X146885674Y-125438256D01*
X146905460Y-125250000D01*
X146885674Y-125061744D01*
X146827179Y-124881716D01*
X146732533Y-124717784D01*
X146605871Y-124577112D01*
X146605870Y-124577111D01*
X146452734Y-124465851D01*
X146452729Y-124465848D01*
X146279807Y-124388857D01*
X146279802Y-124388855D01*
X146134000Y-124357865D01*
X146094646Y-124349500D01*
X145905354Y-124349500D01*
X145872897Y-124356398D01*
X145720197Y-124388855D01*
X145720192Y-124388857D01*
X145547270Y-124465848D01*
X145547265Y-124465851D01*
X145394129Y-124577111D01*
X145267466Y-124717785D01*
X145172821Y-124881715D01*
X145172818Y-124881722D01*
X145114327Y-125061740D01*
X145114326Y-125061744D01*
X145094540Y-125250000D01*
X124050500Y-125250000D01*
X124050500Y-123500000D01*
X136594540Y-123500000D01*
X136614326Y-123688256D01*
X136614327Y-123688259D01*
X136672818Y-123868277D01*
X136672821Y-123868284D01*
X136767467Y-124032216D01*
X136894128Y-124172887D01*
X136894129Y-124172888D01*
X137047265Y-124284148D01*
X137047270Y-124284151D01*
X137220192Y-124361142D01*
X137220197Y-124361144D01*
X137405354Y-124400500D01*
X137405355Y-124400500D01*
X137594644Y-124400500D01*
X137594646Y-124400500D01*
X137779803Y-124361144D01*
X137952730Y-124284151D01*
X138105871Y-124172888D01*
X138232533Y-124032216D01*
X138327179Y-123868284D01*
X138385674Y-123688256D01*
X138405460Y-123500000D01*
X138385674Y-123311744D01*
X138327179Y-123131716D01*
X138232533Y-122967784D01*
X138105871Y-122827112D01*
X138105870Y-122827111D01*
X137952734Y-122715851D01*
X137952729Y-122715848D01*
X137779807Y-122638857D01*
X137779802Y-122638855D01*
X137634001Y-122607865D01*
X137594646Y-122599500D01*
X137405354Y-122599500D01*
X137372897Y-122606398D01*
X137220197Y-122638855D01*
X137220192Y-122638857D01*
X137047270Y-122715848D01*
X137047265Y-122715851D01*
X136894129Y-122827111D01*
X136767466Y-122967785D01*
X136672821Y-123131715D01*
X136672818Y-123131722D01*
X136614327Y-123311740D01*
X136614326Y-123311744D01*
X136594540Y-123500000D01*
X124050500Y-123500000D01*
X124050500Y-121400000D01*
X147494540Y-121400000D01*
X147514326Y-121588256D01*
X147514327Y-121588259D01*
X147572818Y-121768277D01*
X147572821Y-121768284D01*
X147667467Y-121932216D01*
X147783553Y-122061142D01*
X147794129Y-122072888D01*
X147947265Y-122184148D01*
X147947270Y-122184151D01*
X148120192Y-122261142D01*
X148120197Y-122261144D01*
X148305354Y-122300500D01*
X148305355Y-122300500D01*
X148494644Y-122300500D01*
X148494646Y-122300500D01*
X148679803Y-122261144D01*
X148852730Y-122184151D01*
X149005871Y-122072888D01*
X149132533Y-121932216D01*
X149227179Y-121768284D01*
X149285674Y-121588256D01*
X149305460Y-121400000D01*
X149285674Y-121211744D01*
X149281858Y-121200000D01*
X151294540Y-121200000D01*
X151314326Y-121388256D01*
X151314327Y-121388259D01*
X151372818Y-121568277D01*
X151372821Y-121568284D01*
X151467467Y-121732216D01*
X151594128Y-121872887D01*
X151594129Y-121872888D01*
X151747265Y-121984148D01*
X151747270Y-121984151D01*
X151920192Y-122061142D01*
X151920197Y-122061144D01*
X152105354Y-122100500D01*
X152105355Y-122100500D01*
X152294644Y-122100500D01*
X152294646Y-122100500D01*
X152479803Y-122061144D01*
X152652730Y-121984151D01*
X152805871Y-121872888D01*
X152871500Y-121800000D01*
X158894540Y-121800000D01*
X158914326Y-121988256D01*
X158914327Y-121988259D01*
X158972818Y-122168277D01*
X158972821Y-122168284D01*
X159067467Y-122332216D01*
X159114227Y-122384148D01*
X159194129Y-122472888D01*
X159347265Y-122584148D01*
X159347270Y-122584151D01*
X159520192Y-122661142D01*
X159520197Y-122661144D01*
X159705354Y-122700500D01*
X159705355Y-122700500D01*
X159894644Y-122700500D01*
X159894646Y-122700500D01*
X160079803Y-122661144D01*
X160252730Y-122584151D01*
X160405871Y-122472888D01*
X160532533Y-122332216D01*
X160627179Y-122168284D01*
X160685674Y-121988256D01*
X160705460Y-121800000D01*
X160685674Y-121611744D01*
X160681858Y-121600000D01*
X172694540Y-121600000D01*
X172714326Y-121788256D01*
X172714327Y-121788259D01*
X172772818Y-121968277D01*
X172772821Y-121968284D01*
X172867467Y-122132216D01*
X172899937Y-122168277D01*
X172994129Y-122272888D01*
X173147265Y-122384148D01*
X173147270Y-122384151D01*
X173320192Y-122461142D01*
X173320197Y-122461144D01*
X173505354Y-122500500D01*
X173505355Y-122500500D01*
X173694644Y-122500500D01*
X173694646Y-122500500D01*
X173879803Y-122461144D01*
X174052730Y-122384151D01*
X174205871Y-122272888D01*
X174332533Y-122132216D01*
X174427179Y-121968284D01*
X174485674Y-121788256D01*
X174505460Y-121600000D01*
X174485674Y-121411744D01*
X174481858Y-121400000D01*
X175694540Y-121400000D01*
X175714326Y-121588256D01*
X175714327Y-121588259D01*
X175772818Y-121768277D01*
X175772821Y-121768284D01*
X175867467Y-121932216D01*
X175983553Y-122061142D01*
X175994129Y-122072888D01*
X176147265Y-122184148D01*
X176147270Y-122184151D01*
X176320192Y-122261142D01*
X176320197Y-122261144D01*
X176505354Y-122300500D01*
X176505355Y-122300500D01*
X176694644Y-122300500D01*
X176694646Y-122300500D01*
X176879803Y-122261144D01*
X177052730Y-122184151D01*
X177205871Y-122072888D01*
X177332533Y-121932216D01*
X177427179Y-121768284D01*
X177485674Y-121588256D01*
X177505460Y-121400000D01*
X177485674Y-121211744D01*
X177427179Y-121031716D01*
X177332533Y-120867784D01*
X177205871Y-120727112D01*
X177205870Y-120727111D01*
X177052734Y-120615851D01*
X177052729Y-120615848D01*
X176879807Y-120538857D01*
X176879802Y-120538855D01*
X176734001Y-120507865D01*
X176694646Y-120499500D01*
X176505354Y-120499500D01*
X176472897Y-120506398D01*
X176320197Y-120538855D01*
X176320192Y-120538857D01*
X176147270Y-120615848D01*
X176147265Y-120615851D01*
X175994129Y-120727111D01*
X175867466Y-120867785D01*
X175772821Y-121031715D01*
X175772818Y-121031722D01*
X175718142Y-121199999D01*
X175714326Y-121211744D01*
X175694540Y-121400000D01*
X174481858Y-121400000D01*
X174427179Y-121231716D01*
X174332533Y-121067784D01*
X174205871Y-120927112D01*
X174205870Y-120927111D01*
X174052734Y-120815851D01*
X174052729Y-120815848D01*
X173879807Y-120738857D01*
X173879802Y-120738855D01*
X173734001Y-120707865D01*
X173694646Y-120699500D01*
X173505354Y-120699500D01*
X173472897Y-120706398D01*
X173320197Y-120738855D01*
X173320192Y-120738857D01*
X173147270Y-120815848D01*
X173147265Y-120815851D01*
X172994129Y-120927111D01*
X172867466Y-121067785D01*
X172772821Y-121231715D01*
X172772818Y-121231722D01*
X172718142Y-121399999D01*
X172714326Y-121411744D01*
X172694540Y-121600000D01*
X160681858Y-121600000D01*
X160627179Y-121431716D01*
X160532533Y-121267784D01*
X160405871Y-121127112D01*
X160405870Y-121127111D01*
X160252734Y-121015851D01*
X160252729Y-121015848D01*
X160079807Y-120938857D01*
X160079802Y-120938855D01*
X159934000Y-120907865D01*
X159894646Y-120899500D01*
X159705354Y-120899500D01*
X159672897Y-120906398D01*
X159520197Y-120938855D01*
X159520192Y-120938857D01*
X159347270Y-121015848D01*
X159347265Y-121015851D01*
X159194129Y-121127111D01*
X159067466Y-121267785D01*
X158972821Y-121431715D01*
X158972818Y-121431722D01*
X158918142Y-121600000D01*
X158914326Y-121611744D01*
X158894540Y-121800000D01*
X152871500Y-121800000D01*
X152932533Y-121732216D01*
X153027179Y-121568284D01*
X153085674Y-121388256D01*
X153105460Y-121200000D01*
X153085674Y-121011744D01*
X153027179Y-120831716D01*
X152932533Y-120667784D01*
X152805871Y-120527112D01*
X152805870Y-120527111D01*
X152652734Y-120415851D01*
X152652729Y-120415848D01*
X152479807Y-120338857D01*
X152479802Y-120338855D01*
X152334001Y-120307865D01*
X152294646Y-120299500D01*
X152105354Y-120299500D01*
X152072897Y-120306398D01*
X151920197Y-120338855D01*
X151920192Y-120338857D01*
X151747270Y-120415848D01*
X151747265Y-120415851D01*
X151594129Y-120527111D01*
X151467466Y-120667785D01*
X151372821Y-120831715D01*
X151372818Y-120831722D01*
X151314327Y-121011740D01*
X151314326Y-121011744D01*
X151294540Y-121200000D01*
X149281858Y-121200000D01*
X149227179Y-121031716D01*
X149132533Y-120867784D01*
X149005871Y-120727112D01*
X149005870Y-120727111D01*
X148852734Y-120615851D01*
X148852729Y-120615848D01*
X148679807Y-120538857D01*
X148679802Y-120538855D01*
X148534000Y-120507865D01*
X148494646Y-120499500D01*
X148305354Y-120499500D01*
X148272897Y-120506398D01*
X148120197Y-120538855D01*
X148120192Y-120538857D01*
X147947270Y-120615848D01*
X147947265Y-120615851D01*
X147794129Y-120727111D01*
X147667466Y-120867785D01*
X147572821Y-121031715D01*
X147572818Y-121031722D01*
X147518142Y-121199999D01*
X147514326Y-121211744D01*
X147494540Y-121400000D01*
X124050500Y-121400000D01*
X124050500Y-118800000D01*
X134894540Y-118800000D01*
X134914326Y-118988256D01*
X134914327Y-118988259D01*
X134972818Y-119168277D01*
X134972821Y-119168284D01*
X135067467Y-119332216D01*
X135194128Y-119472887D01*
X135194129Y-119472888D01*
X135347265Y-119584148D01*
X135347270Y-119584151D01*
X135520192Y-119661142D01*
X135520197Y-119661144D01*
X135705354Y-119700500D01*
X135705355Y-119700500D01*
X135894644Y-119700500D01*
X135894646Y-119700500D01*
X136079803Y-119661144D01*
X136252730Y-119584151D01*
X136405871Y-119472888D01*
X136532533Y-119332216D01*
X136627179Y-119168284D01*
X136685674Y-118988256D01*
X136705460Y-118800000D01*
X136685674Y-118611744D01*
X136627179Y-118431716D01*
X136532533Y-118267784D01*
X136405871Y-118127112D01*
X136405870Y-118127111D01*
X136252734Y-118015851D01*
X136252729Y-118015848D01*
X136079807Y-117938857D01*
X136079802Y-117938855D01*
X135934000Y-117907865D01*
X135894646Y-117899500D01*
X135705354Y-117899500D01*
X135672897Y-117906398D01*
X135520197Y-117938855D01*
X135520192Y-117938857D01*
X135347270Y-118015848D01*
X135347265Y-118015851D01*
X135194129Y-118127111D01*
X135067466Y-118267785D01*
X134972821Y-118431715D01*
X134972818Y-118431722D01*
X134914327Y-118611740D01*
X134914326Y-118611744D01*
X134894540Y-118800000D01*
X124050500Y-118800000D01*
X124050500Y-109900000D01*
X176394540Y-109900000D01*
X176414326Y-110088256D01*
X176414327Y-110088259D01*
X176472818Y-110268277D01*
X176472821Y-110268284D01*
X176567467Y-110432216D01*
X176694128Y-110572887D01*
X176694129Y-110572888D01*
X176847265Y-110684148D01*
X176847270Y-110684151D01*
X177020192Y-110761142D01*
X177020197Y-110761144D01*
X177205354Y-110800500D01*
X177205355Y-110800500D01*
X177394644Y-110800500D01*
X177394646Y-110800500D01*
X177579803Y-110761144D01*
X177752730Y-110684151D01*
X177905871Y-110572888D01*
X178032533Y-110432216D01*
X178127179Y-110268284D01*
X178185674Y-110088256D01*
X178205460Y-109900000D01*
X178185674Y-109711744D01*
X178127179Y-109531716D01*
X178032533Y-109367784D01*
X177905871Y-109227112D01*
X177905870Y-109227111D01*
X177752734Y-109115851D01*
X177752729Y-109115848D01*
X177579807Y-109038857D01*
X177579802Y-109038855D01*
X177434001Y-109007865D01*
X177394646Y-108999500D01*
X177205354Y-108999500D01*
X177172897Y-109006398D01*
X177020197Y-109038855D01*
X177020192Y-109038857D01*
X176847270Y-109115848D01*
X176847265Y-109115851D01*
X176694129Y-109227111D01*
X176567466Y-109367785D01*
X176472821Y-109531715D01*
X176472818Y-109531722D01*
X176414327Y-109711740D01*
X176414326Y-109711744D01*
X176394540Y-109900000D01*
X124050500Y-109900000D01*
X124050500Y-107000000D01*
X156094540Y-107000000D01*
X156114326Y-107188256D01*
X156114327Y-107188259D01*
X156172818Y-107368277D01*
X156172821Y-107368284D01*
X156267467Y-107532216D01*
X156394128Y-107672888D01*
X156394129Y-107672888D01*
X156547265Y-107784148D01*
X156547270Y-107784151D01*
X156720192Y-107861142D01*
X156720197Y-107861144D01*
X156905354Y-107900500D01*
X156905355Y-107900500D01*
X157094644Y-107900500D01*
X157094646Y-107900500D01*
X157279803Y-107861144D01*
X157452730Y-107784151D01*
X157605871Y-107672888D01*
X157732533Y-107532216D01*
X157827179Y-107368284D01*
X157885674Y-107188256D01*
X157905460Y-107000000D01*
X157885674Y-106811744D01*
X157827179Y-106631716D01*
X157732533Y-106467784D01*
X157605871Y-106327112D01*
X157605870Y-106327111D01*
X157452734Y-106215851D01*
X157452729Y-106215848D01*
X157279807Y-106138857D01*
X157279802Y-106138855D01*
X157134000Y-106107865D01*
X157094646Y-106099500D01*
X156905354Y-106099500D01*
X156872897Y-106106398D01*
X156720197Y-106138855D01*
X156720192Y-106138857D01*
X156547270Y-106215848D01*
X156547265Y-106215851D01*
X156394129Y-106327111D01*
X156267466Y-106467785D01*
X156172821Y-106631715D01*
X156172818Y-106631722D01*
X156114327Y-106811740D01*
X156114326Y-106811744D01*
X156094540Y-107000000D01*
X124050500Y-107000000D01*
X124050500Y-103050000D01*
X157494540Y-103050000D01*
X157514326Y-103238256D01*
X157514327Y-103238259D01*
X157572818Y-103418277D01*
X157572821Y-103418284D01*
X157667467Y-103582216D01*
X157794129Y-103722887D01*
X157794129Y-103722888D01*
X157947265Y-103834148D01*
X157947270Y-103834151D01*
X158120192Y-103911142D01*
X158120197Y-103911144D01*
X158305354Y-103950500D01*
X158305355Y-103950500D01*
X158494644Y-103950500D01*
X158494646Y-103950500D01*
X158679803Y-103911144D01*
X158852730Y-103834151D01*
X159005871Y-103722888D01*
X159132533Y-103582216D01*
X159227179Y-103418284D01*
X159285674Y-103238256D01*
X159305460Y-103050000D01*
X159285674Y-102861744D01*
X159227179Y-102681716D01*
X159132533Y-102517784D01*
X159005871Y-102377112D01*
X159005870Y-102377111D01*
X158852734Y-102265851D01*
X158852729Y-102265848D01*
X158679807Y-102188857D01*
X158679802Y-102188855D01*
X158534001Y-102157865D01*
X158494646Y-102149500D01*
X158305354Y-102149500D01*
X158272897Y-102156398D01*
X158120197Y-102188855D01*
X158120192Y-102188857D01*
X157947270Y-102265848D01*
X157947265Y-102265851D01*
X157794129Y-102377111D01*
X157667466Y-102517785D01*
X157572821Y-102681715D01*
X157572818Y-102681722D01*
X157514521Y-102861144D01*
X157514326Y-102861744D01*
X157494540Y-103050000D01*
X124050500Y-103050000D01*
X124050500Y-102000000D01*
X144594540Y-102000000D01*
X144614326Y-102188256D01*
X144614327Y-102188259D01*
X144672818Y-102368277D01*
X144672821Y-102368284D01*
X144767467Y-102532216D01*
X144894128Y-102672887D01*
X144894129Y-102672888D01*
X145047265Y-102784148D01*
X145047270Y-102784151D01*
X145220192Y-102861142D01*
X145220197Y-102861144D01*
X145405354Y-102900500D01*
X145405355Y-102900500D01*
X145594644Y-102900500D01*
X145594646Y-102900500D01*
X145779803Y-102861144D01*
X145952730Y-102784151D01*
X146105871Y-102672888D01*
X146232533Y-102532216D01*
X146327179Y-102368284D01*
X146385674Y-102188256D01*
X146405460Y-102000000D01*
X146385674Y-101811744D01*
X146327179Y-101631716D01*
X146232533Y-101467784D01*
X146133206Y-101357471D01*
X146102977Y-101294481D01*
X146111602Y-101225146D01*
X146156343Y-101171480D01*
X146222996Y-101150522D01*
X146225357Y-101150500D01*
X146344644Y-101150500D01*
X146344646Y-101150500D01*
X146529803Y-101111144D01*
X146702730Y-101034151D01*
X146855871Y-100922888D01*
X146899440Y-100874500D01*
X156094540Y-100874500D01*
X156114326Y-101062756D01*
X156114327Y-101062759D01*
X156172818Y-101242777D01*
X156172821Y-101242784D01*
X156267467Y-101406716D01*
X156317011Y-101461740D01*
X156394129Y-101547388D01*
X156547265Y-101658648D01*
X156547270Y-101658651D01*
X156720192Y-101735642D01*
X156720197Y-101735644D01*
X156905354Y-101775000D01*
X156905355Y-101775000D01*
X157094644Y-101775000D01*
X157094646Y-101775000D01*
X157279803Y-101735644D01*
X157452730Y-101658651D01*
X157605871Y-101547388D01*
X157732533Y-101406716D01*
X157827179Y-101242784D01*
X157885674Y-101062756D01*
X157905460Y-100874500D01*
X157885674Y-100686244D01*
X157827179Y-100506216D01*
X157732533Y-100342284D01*
X157649440Y-100250000D01*
X169594540Y-100250000D01*
X169614326Y-100438256D01*
X169614327Y-100438259D01*
X169672818Y-100618277D01*
X169672821Y-100618284D01*
X169767467Y-100782216D01*
X169773446Y-100788856D01*
X169894129Y-100922888D01*
X170047265Y-101034148D01*
X170047267Y-101034149D01*
X170047270Y-101034151D01*
X170095267Y-101055521D01*
X170148502Y-101100769D01*
X170168824Y-101167618D01*
X170152218Y-101230797D01*
X170122822Y-101281713D01*
X170122818Y-101281722D01*
X170064327Y-101461740D01*
X170064326Y-101461744D01*
X170044540Y-101650000D01*
X170064326Y-101838256D01*
X170064327Y-101838259D01*
X170122818Y-102018277D01*
X170122821Y-102018284D01*
X170217467Y-102182216D01*
X170223446Y-102188856D01*
X170344129Y-102322888D01*
X170497265Y-102434148D01*
X170497270Y-102434151D01*
X170670192Y-102511142D01*
X170670197Y-102511144D01*
X170855354Y-102550500D01*
X170855355Y-102550500D01*
X171044644Y-102550500D01*
X171044646Y-102550500D01*
X171229803Y-102511144D01*
X171402730Y-102434151D01*
X171555871Y-102322888D01*
X171682533Y-102182216D01*
X171777179Y-102018284D01*
X171835674Y-101838256D01*
X171855460Y-101650000D01*
X171835674Y-101461744D01*
X171777179Y-101281716D01*
X171682533Y-101117784D01*
X171555871Y-100977112D01*
X171526151Y-100955519D01*
X171518555Y-100950000D01*
X178294540Y-100950000D01*
X178314326Y-101138256D01*
X178314327Y-101138259D01*
X178372818Y-101318277D01*
X178372821Y-101318284D01*
X178467467Y-101482216D01*
X178594129Y-101622888D01*
X178747265Y-101734148D01*
X178747270Y-101734151D01*
X178920192Y-101811142D01*
X178920197Y-101811144D01*
X179105354Y-101850500D01*
X179105355Y-101850500D01*
X179294644Y-101850500D01*
X179294646Y-101850500D01*
X179479803Y-101811144D01*
X179652730Y-101734151D01*
X179805871Y-101622888D01*
X179932533Y-101482216D01*
X180027179Y-101318284D01*
X180085674Y-101138256D01*
X180105460Y-100950000D01*
X180085674Y-100761744D01*
X180027179Y-100581716D01*
X179932533Y-100417784D01*
X179805871Y-100277112D01*
X179805870Y-100277111D01*
X179652734Y-100165851D01*
X179652729Y-100165848D01*
X179479807Y-100088857D01*
X179479802Y-100088855D01*
X179334000Y-100057865D01*
X179294646Y-100049500D01*
X179105354Y-100049500D01*
X179072897Y-100056398D01*
X178920197Y-100088855D01*
X178920192Y-100088857D01*
X178747270Y-100165848D01*
X178747265Y-100165851D01*
X178594129Y-100277111D01*
X178467466Y-100417785D01*
X178372821Y-100581715D01*
X178372818Y-100581722D01*
X178323867Y-100732380D01*
X178314326Y-100761744D01*
X178294540Y-100950000D01*
X171518555Y-100950000D01*
X171402734Y-100865851D01*
X171402729Y-100865848D01*
X171354733Y-100844479D01*
X171301496Y-100799229D01*
X171281175Y-100732380D01*
X171297781Y-100669202D01*
X171327179Y-100618284D01*
X171385674Y-100438256D01*
X171405460Y-100250000D01*
X171385674Y-100061744D01*
X171327179Y-99881716D01*
X171232533Y-99717784D01*
X171105871Y-99577112D01*
X171105870Y-99577111D01*
X170952734Y-99465851D01*
X170952729Y-99465848D01*
X170779807Y-99388857D01*
X170779802Y-99388855D01*
X170634000Y-99357865D01*
X170594646Y-99349500D01*
X170405354Y-99349500D01*
X170372897Y-99356398D01*
X170220197Y-99388855D01*
X170220192Y-99388857D01*
X170047270Y-99465848D01*
X170047265Y-99465851D01*
X169894129Y-99577111D01*
X169767466Y-99717785D01*
X169672821Y-99881715D01*
X169672818Y-99881722D01*
X169618304Y-100049500D01*
X169614326Y-100061744D01*
X169594540Y-100250000D01*
X157649440Y-100250000D01*
X157605871Y-100201612D01*
X157581834Y-100184148D01*
X157452734Y-100090351D01*
X157452729Y-100090348D01*
X157279807Y-100013357D01*
X157279802Y-100013355D01*
X157134000Y-99982365D01*
X157094646Y-99974000D01*
X156905354Y-99974000D01*
X156872897Y-99980898D01*
X156720197Y-100013355D01*
X156720192Y-100013357D01*
X156547270Y-100090348D01*
X156547265Y-100090351D01*
X156394129Y-100201611D01*
X156267466Y-100342285D01*
X156172821Y-100506215D01*
X156172818Y-100506222D01*
X156119864Y-100669200D01*
X156114326Y-100686244D01*
X156094540Y-100874500D01*
X146899440Y-100874500D01*
X146982533Y-100782216D01*
X147077179Y-100618284D01*
X147135674Y-100438256D01*
X147155460Y-100250000D01*
X147135674Y-100061744D01*
X147077179Y-99881716D01*
X146982533Y-99717784D01*
X146855871Y-99577112D01*
X146855870Y-99577111D01*
X146702734Y-99465851D01*
X146702729Y-99465848D01*
X146529807Y-99388857D01*
X146529802Y-99388855D01*
X146384001Y-99357865D01*
X146344646Y-99349500D01*
X146155354Y-99349500D01*
X146122897Y-99356398D01*
X145970197Y-99388855D01*
X145970192Y-99388857D01*
X145797270Y-99465848D01*
X145797265Y-99465851D01*
X145644129Y-99577111D01*
X145517466Y-99717785D01*
X145422821Y-99881715D01*
X145422818Y-99881722D01*
X145368304Y-100049500D01*
X145364326Y-100061744D01*
X145344540Y-100250000D01*
X145364326Y-100438256D01*
X145364327Y-100438259D01*
X145422818Y-100618277D01*
X145422821Y-100618284D01*
X145517467Y-100782216D01*
X145616793Y-100892528D01*
X145647023Y-100955519D01*
X145638398Y-101024854D01*
X145593657Y-101078520D01*
X145527004Y-101099478D01*
X145524643Y-101099500D01*
X145405354Y-101099500D01*
X145372897Y-101106398D01*
X145220197Y-101138855D01*
X145220192Y-101138857D01*
X145047270Y-101215848D01*
X145047265Y-101215851D01*
X144894129Y-101327111D01*
X144767466Y-101467785D01*
X144672821Y-101631715D01*
X144672818Y-101631722D01*
X144614521Y-101811144D01*
X144614326Y-101811744D01*
X144594540Y-102000000D01*
X124050500Y-102000000D01*
X124050500Y-94926071D01*
X124070185Y-94859032D01*
X124122989Y-94813277D01*
X124192147Y-94803333D01*
X124255703Y-94832358D01*
X124293291Y-94890508D01*
X124313930Y-94959450D01*
X124443137Y-95258983D01*
X124443143Y-95258996D01*
X124606251Y-95541509D01*
X124801045Y-95803162D01*
X124801050Y-95803168D01*
X124801057Y-95803177D01*
X125024923Y-96040462D01*
X125024929Y-96040467D01*
X125024930Y-96040468D01*
X125024931Y-96040469D01*
X125274815Y-96250147D01*
X125274818Y-96250149D01*
X125274823Y-96250153D01*
X125547377Y-96429414D01*
X125838899Y-96575822D01*
X126145446Y-96687396D01*
X126145452Y-96687397D01*
X126145454Y-96687398D01*
X126462858Y-96762625D01*
X126462865Y-96762626D01*
X126462874Y-96762628D01*
X126786889Y-96800500D01*
X126786896Y-96800500D01*
X127113104Y-96800500D01*
X127113111Y-96800500D01*
X127437126Y-96762628D01*
X127437135Y-96762625D01*
X127437141Y-96762625D01*
X127693176Y-96701942D01*
X127754554Y-96687396D01*
X128061101Y-96575822D01*
X128352623Y-96429414D01*
X128625177Y-96250153D01*
X128875077Y-96040462D01*
X128913251Y-96000000D01*
X147594540Y-96000000D01*
X147614326Y-96188256D01*
X147614327Y-96188259D01*
X147672818Y-96368277D01*
X147672821Y-96368284D01*
X147767467Y-96532216D01*
X147889533Y-96667784D01*
X147894129Y-96672888D01*
X148047265Y-96784148D01*
X148047270Y-96784151D01*
X148220192Y-96861142D01*
X148220197Y-96861144D01*
X148405354Y-96900500D01*
X148405355Y-96900500D01*
X148594644Y-96900500D01*
X148594646Y-96900500D01*
X148779803Y-96861144D01*
X148952730Y-96784151D01*
X149105871Y-96672888D01*
X149171500Y-96600000D01*
X150494540Y-96600000D01*
X150514326Y-96788256D01*
X150514327Y-96788259D01*
X150572818Y-96968277D01*
X150572821Y-96968284D01*
X150667467Y-97132216D01*
X150783553Y-97261142D01*
X150794129Y-97272888D01*
X150947265Y-97384148D01*
X150947270Y-97384151D01*
X151120192Y-97461142D01*
X151120197Y-97461144D01*
X151305354Y-97500500D01*
X151305355Y-97500500D01*
X151494644Y-97500500D01*
X151494646Y-97500500D01*
X151679803Y-97461144D01*
X151852730Y-97384151D01*
X152005871Y-97272888D01*
X152132533Y-97132216D01*
X152227179Y-96968284D01*
X152285674Y-96788256D01*
X152305460Y-96600000D01*
X152285674Y-96411744D01*
X152227179Y-96231716D01*
X152132533Y-96067784D01*
X152005871Y-95927112D01*
X151975193Y-95904823D01*
X151852734Y-95815851D01*
X151852729Y-95815848D01*
X151704834Y-95750000D01*
X157794540Y-95750000D01*
X157814326Y-95938256D01*
X157814327Y-95938259D01*
X157872818Y-96118277D01*
X157872821Y-96118284D01*
X157967467Y-96282216D01*
X158094129Y-96422888D01*
X158099894Y-96427076D01*
X158142562Y-96482403D01*
X158148544Y-96552016D01*
X158119164Y-96610368D01*
X158067467Y-96667784D01*
X158067465Y-96667785D01*
X158067464Y-96667788D01*
X157972821Y-96831715D01*
X157972818Y-96831722D01*
X157940166Y-96932216D01*
X157914326Y-97011744D01*
X157894540Y-97200000D01*
X157914326Y-97388256D01*
X157914327Y-97388259D01*
X157972818Y-97568277D01*
X157972821Y-97568284D01*
X158067467Y-97732216D01*
X158194129Y-97872888D01*
X158347265Y-97984148D01*
X158347270Y-97984151D01*
X158520192Y-98061142D01*
X158520197Y-98061144D01*
X158705354Y-98100500D01*
X158705355Y-98100500D01*
X158894644Y-98100500D01*
X158894646Y-98100500D01*
X159079803Y-98061144D01*
X159252730Y-97984151D01*
X159405871Y-97872888D01*
X159532533Y-97732216D01*
X159627179Y-97568284D01*
X159685674Y-97388256D01*
X159705460Y-97200000D01*
X159685674Y-97011744D01*
X159627179Y-96831716D01*
X159532533Y-96667784D01*
X159405871Y-96527112D01*
X159400102Y-96522920D01*
X159357436Y-96467594D01*
X159351628Y-96400000D01*
X172694540Y-96400000D01*
X172714326Y-96588256D01*
X172714327Y-96588259D01*
X172772818Y-96768277D01*
X172772821Y-96768284D01*
X172867467Y-96932216D01*
X172899937Y-96968277D01*
X172994129Y-97072888D01*
X173147265Y-97184148D01*
X173147270Y-97184151D01*
X173320192Y-97261142D01*
X173320197Y-97261144D01*
X173505354Y-97300500D01*
X173505355Y-97300500D01*
X173694644Y-97300500D01*
X173694646Y-97300500D01*
X173879803Y-97261144D01*
X174052730Y-97184151D01*
X174205871Y-97072888D01*
X174332533Y-96932216D01*
X174427179Y-96768284D01*
X174485674Y-96588256D01*
X174505460Y-96400000D01*
X175694540Y-96400000D01*
X175714326Y-96588256D01*
X175714327Y-96588259D01*
X175772818Y-96768277D01*
X175772821Y-96768284D01*
X175867467Y-96932216D01*
X175899937Y-96968277D01*
X175994129Y-97072888D01*
X176147265Y-97184148D01*
X176147270Y-97184151D01*
X176320192Y-97261142D01*
X176320197Y-97261144D01*
X176505354Y-97300500D01*
X176505355Y-97300500D01*
X176694644Y-97300500D01*
X176694646Y-97300500D01*
X176879803Y-97261144D01*
X177052730Y-97184151D01*
X177205871Y-97072888D01*
X177332533Y-96932216D01*
X177427179Y-96768284D01*
X177485674Y-96588256D01*
X177505460Y-96400000D01*
X177485674Y-96211744D01*
X177427179Y-96031716D01*
X177332533Y-95867784D01*
X177205871Y-95727112D01*
X177205870Y-95727111D01*
X177052734Y-95615851D01*
X177052729Y-95615848D01*
X176879807Y-95538857D01*
X176879802Y-95538855D01*
X176734000Y-95507865D01*
X176694646Y-95499500D01*
X176505354Y-95499500D01*
X176472897Y-95506398D01*
X176320197Y-95538855D01*
X176320192Y-95538857D01*
X176147270Y-95615848D01*
X176147265Y-95615851D01*
X175994129Y-95727111D01*
X175867466Y-95867785D01*
X175772821Y-96031715D01*
X175772818Y-96031722D01*
X175718304Y-96199500D01*
X175714326Y-96211744D01*
X175694540Y-96400000D01*
X174505460Y-96400000D01*
X174485674Y-96211744D01*
X174427179Y-96031716D01*
X174332533Y-95867784D01*
X174205871Y-95727112D01*
X174205870Y-95727111D01*
X174052734Y-95615851D01*
X174052729Y-95615848D01*
X173879807Y-95538857D01*
X173879802Y-95538855D01*
X173734000Y-95507865D01*
X173694646Y-95499500D01*
X173505354Y-95499500D01*
X173472897Y-95506398D01*
X173320197Y-95538855D01*
X173320192Y-95538857D01*
X173147270Y-95615848D01*
X173147265Y-95615851D01*
X172994129Y-95727111D01*
X172867466Y-95867785D01*
X172772821Y-96031715D01*
X172772818Y-96031722D01*
X172718304Y-96199500D01*
X172714326Y-96211744D01*
X172694540Y-96400000D01*
X159351628Y-96400000D01*
X159351455Y-96397981D01*
X159380835Y-96339631D01*
X159432533Y-96282216D01*
X159527179Y-96118284D01*
X159585674Y-95938256D01*
X159605460Y-95750000D01*
X159585674Y-95561744D01*
X159527179Y-95381716D01*
X159432533Y-95217784D01*
X159305871Y-95077112D01*
X159305870Y-95077111D01*
X159152734Y-94965851D01*
X159152729Y-94965848D01*
X158979807Y-94888857D01*
X158979802Y-94888855D01*
X158834001Y-94857865D01*
X158794646Y-94849500D01*
X158605354Y-94849500D01*
X158572897Y-94856398D01*
X158420197Y-94888855D01*
X158420192Y-94888857D01*
X158247270Y-94965848D01*
X158247265Y-94965851D01*
X158094129Y-95077111D01*
X157967466Y-95217785D01*
X157872821Y-95381715D01*
X157872818Y-95381722D01*
X157816426Y-95555281D01*
X157814326Y-95561744D01*
X157799848Y-95699500D01*
X157795068Y-95744981D01*
X157794540Y-95750000D01*
X151704834Y-95750000D01*
X151679807Y-95738857D01*
X151679802Y-95738855D01*
X151534001Y-95707865D01*
X151494646Y-95699500D01*
X151305354Y-95699500D01*
X151272897Y-95706398D01*
X151120197Y-95738855D01*
X151120192Y-95738857D01*
X150947270Y-95815848D01*
X150947265Y-95815851D01*
X150794129Y-95927111D01*
X150667466Y-96067785D01*
X150572821Y-96231715D01*
X150572818Y-96231722D01*
X150528449Y-96368277D01*
X150514326Y-96411744D01*
X150494540Y-96600000D01*
X149171500Y-96600000D01*
X149232533Y-96532216D01*
X149327179Y-96368284D01*
X149385674Y-96188256D01*
X149405460Y-96000000D01*
X149385674Y-95811744D01*
X149327179Y-95631716D01*
X149232533Y-95467784D01*
X149105871Y-95327112D01*
X149105870Y-95327111D01*
X148952734Y-95215851D01*
X148952729Y-95215848D01*
X148779807Y-95138857D01*
X148779802Y-95138855D01*
X148634000Y-95107865D01*
X148594646Y-95099500D01*
X148405354Y-95099500D01*
X148372897Y-95106398D01*
X148220197Y-95138855D01*
X148220192Y-95138857D01*
X148047270Y-95215848D01*
X148047265Y-95215851D01*
X147894129Y-95327111D01*
X147767466Y-95467785D01*
X147672821Y-95631715D01*
X147672818Y-95631722D01*
X147614327Y-95811740D01*
X147614326Y-95811744D01*
X147594540Y-96000000D01*
X128913251Y-96000000D01*
X129098943Y-95803177D01*
X129293749Y-95541508D01*
X129456859Y-95258992D01*
X129586069Y-94959451D01*
X129679630Y-94646934D01*
X129736278Y-94325669D01*
X129755246Y-94000000D01*
X129736278Y-93674331D01*
X129679630Y-93353066D01*
X129586069Y-93040549D01*
X129456859Y-92741008D01*
X129293749Y-92458492D01*
X129293748Y-92458490D01*
X129098954Y-92196837D01*
X129098947Y-92196829D01*
X129098943Y-92196823D01*
X128875077Y-91959538D01*
X128875069Y-91959531D01*
X128875068Y-91959530D01*
X128625184Y-91749852D01*
X128625179Y-91749848D01*
X128625177Y-91749847D01*
X128352623Y-91570586D01*
X128347684Y-91568105D01*
X128061108Y-91424181D01*
X128061102Y-91424178D01*
X127832632Y-91341022D01*
X127776368Y-91299596D01*
X127751432Y-91234327D01*
X127765742Y-91165938D01*
X127814754Y-91116143D01*
X127875042Y-91100500D01*
X180074958Y-91100500D01*
X180141997Y-91120185D01*
G37*
%TD.AperFunction*%
%TD*%
M02*
