M48
; DRILL file {KiCad 7.0.6} date Sun 06 Aug 2023 11:15:07 PM CDT
; FORMAT={-:-/ absolute / inch / decimal}
; #@! TF.CreationDate,2023-08-06T23:15:07-05:00
; #@! TF.GenerationSoftware,Kicad,Pcbnew,7.0.6
; #@! TF.FileFunction,Plated,1,4,PTH
FMAT,2
INCH
; #@! TA.AperFunction,Plated,PTH,ViaDrill
T1C0.0157
%
G90
G05
T1
X5.3465Y-4.6772
X5.4134Y-4.8622
X5.4331Y-5.0394
X5.7047Y-4.8425
X5.7244Y-3.872
X5.7283Y-4.0157
X5.748Y-4.9311
X5.7579Y-3.9469
X5.7677Y-5.0
X5.8425Y-4.7795
X5.8465Y-3.7795
X5.874Y-4.4409
X5.8957Y-4.7008
X5.9154Y-3.7362
X5.9606Y-3.8031
X5.9606Y-5.0551
X5.9921Y-4.7717
X6.0335Y-4.0157
X6.0925Y-4.9508
X6.1811Y-3.9714
X6.1811Y-4.2126
X6.2362Y-4.0571
X6.2362Y-5.0531
X6.248Y-3.7697
X6.252Y-3.8268
X6.2913Y-4.7953
X6.2992Y-4.8425
X6.7008Y-4.8701
X6.7087Y-3.8878
X6.7126Y-3.9469
X6.7224Y-4.9311
X6.7303Y-4.002
X6.7402Y-4.9843
X6.8031Y-5.252
X6.8346Y-3.7953
X6.8346Y-4.7874
X6.8799Y-4.7126
X6.8976Y-3.7461
X6.9528Y-3.7953
X6.9528Y-4.7795
X6.9547Y-5.0689
X6.9803Y-4.3268
X7.0118Y-4.0984
X7.023Y-4.9836
X7.0551Y-3.9744
X7.2126Y-5.0394
X7.2205Y-3.8504
X7.2205Y-3.9134
X7.2205Y-4.6772
T0
M30
